<svg xmlns="http://www.w3.org/2000/svg" viewBox="0 0 473.7 473.7"><style>.a{fill:#29337A;}.b{fill:#FFF;}.c{fill:#D32030;}.d{fill:#252F6C;}.e{fill:#E7E7E7;}.f{fill:#D71F28;}</style><path d="M41.7 102.6c-15.3 22.2-26.9 47.1-33.9 73.8h107.7L41.7 102.6z" class="a"/><path d="M170.5 9.5c-27.3 7.9-52.6 20.6-74.8 37.2l74.8 74.8V9.5z" class="a"/><path d="M101.3 431c20.9 14.6 44.2 25.9 69.3 33.2v-102.4L101.3 431z" class="a"/><path d="M10.5 306.8c7.8 25.4 19.8 48.9 35.2 69.8l69.8-69.8H10.5z" class="a"/><path d="M45.6 97.1c-1.3 1.8-2.6 3.6-3.9 5.5l73.8 73.8H7.8c-1.7 6.6-3.2 13.4-4.3 20.3h141.8L45.6 97.1z" class="b"/><path d="M95.8 427.1c1.8 1.3 3.7 2.6 5.5 3.9l69.3-69.2v102.5c6.7 1.9 13.4 3.6 20.3 5V332.1L95.8 427.1z" class="b"/><path d="M5.3 286.5c1.5 6.9 3.2 13.6 5.3 20.3h105l-69.8 69.8c7.6 10.4 16 20.1 25.2 29.1L190.1 286.5H5.3L5.3 286.5z" class="b"/><path d="M170.5 9.5v112l-74.8-74.8c-10.3 7.7-20 16.2-28.9 25.4l124 124V4.5C183.9 5.9 177.2 7.5 170.5 9.5z" class="b"/><polygon points="170.5 306.1 169.8 306.8 170.5 306.8 " class="c"/><polygon points="190.1 286.5 190.8 286.5 190.8 285.8 " class="c"/><polygon points="281.2 196.7 280.5 196.7 280.5 197.4 " class="c"/><polygon points="171.2 176.5 170.5 175.8 170.5 176.5 " class="c"/><polygon points="190.8 196 190.8 196.7 191.5 196.7 " class="c"/><path d="M300.8 411.8v53.1c25.4-7.1 49-18.3 70.2-32.9l-57.5-57.5C308.9 390.6 307.2 398.9 300.8 411.8z" class="d"/><path d="M313.8 108.5l62.8-62.8C354.1 29.2 328.5 16.6 300.8 8.8v54.5C308.2 78.1 308.8 89.4 313.8 108.5z" class="d"/><path d="M427 378c15.8-21.3 28.1-45.3 36.1-71.2h-107.4L427 378z" class="d"/><path d="M465.9 176.5c-7.2-27.3-19.1-52.7-34.9-75.2l-75.2 75.2H465.9z" class="d"/><path d="M327.6 290.5l16.3 16.3 77.9 77.9c1.8-2.2 3.5-4.4 5.2-6.7l-71.2-71.2h107.4c2-6.6 3.8-13.4 5.3-20.3H329.2C328.9 289.4 327.9 287.6 327.6 290.5z" class="e"/><path d="M311.4 120.3l70.6-70.6c-1.8-1.4-3.5-2.7-5.3-4.1l-62.8 62.8C314.5 111 310.7 117.8 311.4 120.3z" class="e"/><path d="M300.8 59V8.8c-6.6-1.9-13.4-3.4-20.3-4.7v24.5C288.1 36.7 294.9 47 300.8 59z" class="e"/><path d="M326 196.7h144.2c-1.2-6.9-2.6-13.6-4.3-20.3H355.8l75.2-75.2C423.6 90.7 415.4 80.8 406.4 71.6l-84.7 84.7C324 171.6 325 180.5 326 196.7z" class="e"/><path d="M310.1 371l61 61c10.1-7 19.7-14.8 28.6-23.2l-80.2-80.2C316.9 343.4 313.9 357.7 310.1 371z" class="e"/><path d="M280.5 442.3v27.3c6.9-1.3 13.6-2.9 20.3-4.7v-53.1C294.9 423.7 288.1 434.1 280.5 442.3z" class="e"/><path d="M321.7 156.3l84.7-84.7c-7.6-7.8-15.8-15.1-24.4-21.8l-66.5 66.6C318.4 128.7 319.7 142.8 321.7 156.3z" class="f"/><path d="M225 0.3C229 0.1 232.9 0 236.8 0 232.9 0 228.9 0.1 225 0.3z" class="c"/><path d="M236.8 473.7c-3.9 0-7.9-0.1-11.8-0.3C228.9 473.6 232.9 473.7 236.8 473.7z" class="c"/><path d="M236.8 473.7c14.9 0 29.5-1.4 43.7-4.1v-27.3C268.1 455.8 253.5 473.7 236.8 473.7z" class="c"/><path d="M470.2 196.7H327.9c1.9 29.7 1.7 60.2-0.7 89.8h141.2c3.4-16 5.3-32.6 5.3-49.6C473.7 223.2 472.5 209.8 470.2 196.7z" class="f"/><path d="M327.6 290.5c-1.3 14-5.9 24.9-8.2 38.1l80.2 80.2c7.9-7.5 15.3-15.6 22.2-24.1l-77.9-77.9L327.6 290.5z" class="f"/><path d="M280.5 30.3V4.1C266.4 1.4 251.8 0 236.8 0 253.5 0 268.1 16.8 280.5 30.3z" class="c"/><path d="M300.8 422c6.4-12.8 11.9-27.6 16.5-43.8l-16.5-16.5V422z" class="a"/><path d="M319.4 102.9c-5-19.1-11.2-36.4-18.6-51.2v69.8L319.4 102.9z" class="a"/><path d="M332.2 295.1c0.3-2.9 0.5-5.7 0.7-8.6h-9.3L332.2 295.1z" class="b"/><path d="M300.8 121.5V51.7c-6-12-12.7-22.3-20.3-30.4v129.9l40.7-40.7c-0.6-2.5-1.3-5-1.9-7.5L300.8 121.5z" class="b"/><path d="M281.2 196.7h52.4c-1-16.2-2.7-32.1-4.9-47.5L281.2 196.7z" class="b"/><path d="M280.5 452.4c7.5-8.2 14.3-18.5 20.3-30.4v-60.3l16.5 16.5c3.8-13.3 7-27.4 9.5-42.3l-46.3-46.3L280.5 452.4 280.5 452.4z" class="b"/><path d="M280.5 452.4V289.7l46.3 46.3c2.3-13.2 4.1-26.9 5.4-40.9l-8.6-8.6h9.3c2.3-29.5 2.6-60 0.7-89.7h-52.4l47.5-47.5c-2-13.5-4.5-26.5-7.4-38.8l-40.7 40.7V21.2C268.1 7.8 253.5 0 236.8 0c-3.9 0-7.9 0.1-11.8 0.3 -11.6 0.6-23.1 2-34.2 4.2v191.5L66.8 72.1c-7.6 7.9-14.7 16.2-21.2 25.1l79.3 79.3 20.3 20.3H3.4C1.2 209.8 0 223.2 0 236.8c0 17 1.8 33.6 5.3 49.6h184.8L70.8 405.7c7.8 7.7 16.1 14.8 24.9 21.3l95-95v137.1c11.2 2.2 22.6 3.6 34.2 4.2 3.9 0.2 7.9 0.3 11.8 0.3C253.5 473.7 268.1 465.9 280.5 452.4z" fill="#E51D35"/></svg>
