<svg xmlns="http://www.w3.org/2000/svg" viewBox="0 0 473.7 473.7"><style>.a{fill:#E4E4E4;}</style><path d="M315.8 13.5l-27.6 76.6c25.5 84.2 25.5 209.2 0 293.4l27.6 76.6c92-32.5 157.9-120.2 157.9-223.3C473.7 133.7 407.8 46.1 315.8 13.5z" fill="#E63026"/><path d="M315.8 90.2V13.5C291.1 4.8 264.5 0 236.8 0 273.4 0 222.7 123.8 315.8 90.2z" class="a"/><path d="M236.8 473.7c27.7 0 54.3-4.8 79-13.5v-76.6C223.7 374.3 236.8 473.7 236.8 473.7z" class="a"/><path d="M0 236.8C0 340.3 66.4 428.2 158.8 460.5V13.2C66.4 45.5 0 133.4 0 236.8z" fill="#359846"/><path d="M315.8 90.2V383.5C341.3 299.3 341.3 174.4 315.8 90.2z" fill="#EF4C4C"/><path d="M315.8 383.5V90.2C299.7 36.9 273.4 0 236.8 0c-27.4 0-53.6 4.7-78 13.2v447.2c24.4 8.5 50.7 13.2 78 13.2C273.4 473.7 299.7 436.7 315.8 383.5z" fill="#F3F4F5"/></svg>
