<svg xmlns="http://www.w3.org/2000/svg" viewBox="0 0 473.7 473.7"><circle cx="236.9" cy="236.8" r="236.8" fill="#FFF"/><path d="M460.1 157.9H314.2c6.3 50.6 6.4 106.3 0.1 157h146.1c8.5-24.4 13.2-50.7 13.2-78C473.7 209.1 468.9 182.6 460.1 157.9z" fill="#2B479D"/><path d="M314.2 157.9H460.1c0-0.1 0-0.1-0.1-0.2C429.8 72.2 351.8 9.3 258.1 1 294.4 20.8 305 83.8 314.2 157.9z" fill="#EFECEC"/><path d="M258.1 472.7c93.8-8.4 171.9-71.5 202.1-157.2 0.1-0.2 0.1-0.5 0.2-0.7H314.3C305.1 389.3 294.5 452.7 258.1 472.7z" fill="#E63026"/><path d="M0 236.8c0 27.3 4.7 53.6 13.2 78h313.3c6.3-50.7 6.2-106.4-0.1-157H13.5C4.8 182.6 0 209.1 0 236.8z" fill="#3757A6"/><path d="M13.6 157.7c0 0.1 0 0.1-0.1 0.2h312.9c-9.3-74.1-32.1-137-68.3-156.9 -7-0.6-14.1-1-21.3-1C133.8 0 46.2 65.8 13.6 157.7z" fill="#EFEFEF"/><path d="M326.5 314.9H13.2c0.1 0.2 0.2 0.4 0.2 0.7C45.9 407.6 133.6 473.7 236.8 473.7c7.2 0 14.3-0.4 21.3-1C294.5 452.7 317.3 389.3 326.5 314.9z" fill="#E73B36"/></svg>
<svg xmlns="http://www.w3.org/2000/svg" viewBox="0 0 473.7 473.7"><circle cx="236.9" cy="236.8" r="236.8" fill="#FFF"/><path d="M460.1 157.9H314.2c6.3 50.6 6.4 106.3 0.1 157h146.1c8.5-24.4 13.2-50.7 13.2-78C473.7 209.1 468.9 182.6 460.1 157.9z" fill="#2B479D"/><path d="M314.2 157.9H460.1c0-0.1 0-0.1-0.1-0.2C429.8 72.2 351.8 9.3 258.1 1 294.4 20.8 305 83.8 314.2 157.9z" fill="#EFECEC"/><path d="M258.1 472.7c93.8-8.4 171.9-71.5 202.1-157.2 0.1-0.2 0.1-0.5 0.2-0.7H314.3C305.1 389.3 294.5 452.7 258.1 472.7z" fill="#E63026"/><path d="M0 236.8c0 27.3 4.7 53.6 13.2 78h313.3c6.3-50.7 6.2-106.4-0.1-157H13.5C4.8 182.6 0 209.1 0 236.8z" fill="#3757A6"/><path d="M13.6 157.7c0 0.1 0 0.1-0.1 0.2h312.9c-9.3-74.1-32.1-137-68.3-156.9 -7-0.6-14.1-1-21.3-1C133.8 0 46.2 65.8 13.6 157.7z" fill="#EFEFEF"/><path d="M326.5 314.9H13.2c0.1 0.2 0.2 0.4 0.2 0.7C45.9 407.6 133.6 473.7 236.8 473.7c7.2 0 14.3-0.4 21.3-1C294.5 452.7 317.3 389.3 326.5 314.9z" fill="#E73B36"/></svg>
<svg xmlns="http://www.w3.org/2000/svg" viewBox="0 0 473.7 473.7"><circle cx="236.9" cy="236.8" r="236.8" fill="#FFF"/><path d="M460.1 157.9H314.2c6.3 50.6 6.4 106.3 0.1 157h146.1c8.5-24.4 13.2-50.7 13.2-78C473.7 209.1 468.9 182.6 460.1 157.9z" fill="#2B479D"/><path d="M314.2 157.9H460.1c0-0.1 0-0.1-0.1-0.2C429.8 72.2 351.8 9.3 258.1 1 294.4 20.8 305 83.8 314.2 157.9z" fill="#EFECEC"/><path d="M258.1 472.7c93.8-8.4 171.9-71.5 202.1-157.2 0.1-0.2 0.1-0.5 0.2-0.7H314.3C305.1 389.3 294.5 452.7 258.1 472.7z" fill="#E63026"/><path d="M0 236.8c0 27.3 4.7 53.6 13.2 78h313.3c6.3-50.7 6.2-106.4-0.1-157H13.5C4.8 182.6 0 209.1 0 236.8z" fill="#3757A6"/><path d="M13.6 157.7c0 0.1 0 0.1-0.1 0.2h312.9c-9.3-74.1-32.1-137-68.3-156.9 -7-0.6-14.1-1-21.3-1C133.8 0 46.2 65.8 13.6 157.7z" fill="#EFEFEF"/><path d="M326.5 314.9H13.2c0.1 0.2 0.2 0.4 0.2 0.7C45.9 407.6 133.6 473.7 236.8 473.7c7.2 0 14.3-0.4 21.3-1C294.5 452.7 317.3 389.3 326.5 314.9z" fill="#E73B36"/></svg>
<svg xmlns="http://www.w3.org/2000/svg" viewBox="0 0 473.7 473.7"><circle cx="236.9" cy="236.8" r="236.8" fill="#FFF"/><path d="M460.1 157.9H314.2c6.3 50.6 6.4 106.3 0.1 157h146.1c8.5-24.4 13.2-50.7 13.2-78C473.7 209.1 468.9 182.6 460.1 157.9z" fill="#2B479D"/><path d="M314.2 157.9H460.1c0-0.1 0-0.1-0.1-0.2C429.8 72.2 351.8 9.3 258.1 1 294.4 20.8 305 83.8 314.2 157.9z" fill="#EFECEC"/><path d="M258.1 472.7c93.8-8.4 171.9-71.5 202.1-157.2 0.1-0.2 0.1-0.5 0.2-0.7H314.3C305.1 389.3 294.5 452.7 258.1 472.7z" fill="#E63026"/><path d="M0 236.8c0 27.3 4.7 53.6 13.2 78h313.3c6.3-50.7 6.2-106.4-0.1-157H13.5C4.8 182.6 0 209.1 0 236.8z" fill="#3757A6"/><path d="M13.6 157.7c0 0.1 0 0.1-0.1 0.2h312.9c-9.3-74.1-32.1-137-68.3-156.9 -7-0.6-14.1-1-21.3-1C133.8 0 46.2 65.8 13.6 157.7z" fill="#EFEFEF"/><path d="M326.5 314.9H13.2c0.1 0.2 0.2 0.4 0.2 0.7C45.9 407.6 133.6 473.7 236.8 473.7c7.2 0 14.3-0.4 21.3-1C294.5 452.7 317.3 389.3 326.5 314.9z" fill="#E73B36"/></svg>
