<svg width="48" height="47" viewBox="0 0 48 47" version="1.1" xmlns="http://www.w3.org/2000/svg" xmlns:xlink="http://www.w3.org/1999/xlink">
<title>014-artificial-intelligence-11</title>
<desc>Created using Figma</desc>
<g id="Canvas" transform="translate(4349 -12359)">
<g id="014-artificial-intelligence-11">
<g id="Group">
<g id="Group">
<g id="Group">
<g id="Vector">
<use xlink:href="#path0_fill" transform="translate(-4349 12359)" fill="url(#paint0_linear)"/>
</g>
<g id="Vector">
<use xlink:href="#path1_fill" transform="translate(-4323.15 12371.9)" fill="url(#paint1_linear)"/>
</g>
<g id="Vector">
<use xlink:href="#path2_fill" transform="translate(-4320.87 12365.8)" fill="url(#paint2_linear)"/>
</g>
<g id="Vector">
<use xlink:href="#path3_fill" transform="translate(-4323.15 12385.5)" fill="url(#paint3_linear)"/>
</g>
<g id="Vector">
<use xlink:href="#path4_fill" transform="translate(-4320.87 12394.6)" fill="url(#paint4_linear)"/>
</g>
<g id="Vector">
<use xlink:href="#path5_fill" transform="translate(-4323.15 12377.2)" fill="url(#paint5_linear)"/>
</g>
<g id="Vector">
<use xlink:href="#path4_fill" transform="translate(-4314.78 12371.1)" fill="url(#paint6_linear)"/>
</g>
<g id="Vector">
<use xlink:href="#path6_fill" transform="translate(-4313.11 12385)" fill="url(#paint7_linear)"/>
</g>
<g id="Vector">
<use xlink:href="#path7_fill" transform="translate(-4309.31 12374.4)" fill="url(#paint8_linear)"/>
</g>
<g id="Vector">
<use xlink:href="#path8_fill" transform="translate(-4309.31 12388)" fill="url(#paint9_linear)"/>
</g>
<g id="Vector">
<use xlink:href="#path8_fill" transform="translate(-4330.75 12364.3)" fill="url(#paint10_linear)"/>
</g>
<g id="Vector">
<use xlink:href="#path8_fill" transform="translate(-4334.55 12381.7)" fill="url(#paint11_linear)"/>
</g>
<g id="Vector">
<use xlink:href="#path8_fill" transform="translate(-4329.99 12398.4)" fill="url(#paint12_linear)"/>
</g>
<g id="Vector">
<use xlink:href="#path8_fill" transform="translate(-4342.92 12387)" fill="url(#paint13_linear)"/>
</g>
<g id="Vector">
<use xlink:href="#path8_fill" transform="translate(-4329.23 12376.4)" fill="url(#paint14_linear)"/>
</g>
<g id="Vector">
<use xlink:href="#path8_fill" transform="translate(-4343.68 12378)" fill="url(#paint15_linear)"/>
</g>
</g>
</g>
</g>
</g>
</g>
<defs>
<linearGradient id="paint0_linear" x1="0" y1="0" x2="1" y2="0" gradientUnits="userSpaceOnUse" gradientTransform="matrix(2.88659e-15 47 -47.1416 2.87792e-15 47.1416 -2.87792e-15)">
<stop offset="0" stop-color="#56BCEF"/>
<stop offset="1" stop-color="#5881E4"/>
</linearGradient>
<linearGradient id="paint1_linear" x1="0" y1="0" x2="1" y2="0" gradientUnits="userSpaceOnUse" gradientTransform="matrix(3.25906e-16 7.58064 -5.32244 4.64181e-16 5.32244 -4.64181e-16)">
<stop offset="0" stop-color="#56BCEF"/>
<stop offset="1" stop-color="#5881E4"/>
</linearGradient>
<linearGradient id="paint2_linear" x1="0" y1="0" x2="1" y2="0" gradientUnits="userSpaceOnUse" gradientTransform="matrix(2.79348e-16 4.54839 -4.56209 2.78508e-16 4.56209 -2.78508e-16)">
<stop offset="0" stop-color="#56BCEF"/>
<stop offset="1" stop-color="#5881E4"/>
</linearGradient>
<linearGradient id="paint3_linear" x1="0" y1="0" x2="1" y2="0" gradientUnits="userSpaceOnUse" gradientTransform="matrix(3.25906e-16 7.58064 -5.32244 4.64181e-16 5.32244 -4.64181e-16)">
<stop offset="0" stop-color="#56BCEF"/>
<stop offset="1" stop-color="#5881E4"/>
</linearGradient>
<linearGradient id="paint4_linear" x1="0" y1="0" x2="1" y2="0" gradientUnits="userSpaceOnUse" gradientTransform="matrix(2.79348e-16 4.54839 -4.56209 2.78508e-16 4.56209 -2.78508e-16)">
<stop offset="0" stop-color="#56BCEF"/>
<stop offset="1" stop-color="#5881E4"/>
</linearGradient>
<linearGradient id="paint5_linear" x1="0" y1="0" x2="1" y2="0" gradientUnits="userSpaceOnUse" gradientTransform="matrix(6.98369e-16 6.06452 -11.4052 3.71344e-16 11.4052 -3.71344e-16)">
<stop offset="0" stop-color="#56BCEF"/>
<stop offset="1" stop-color="#5881E4"/>
</linearGradient>
<linearGradient id="paint6_linear" x1="0" y1="0" x2="1" y2="0" gradientUnits="userSpaceOnUse" gradientTransform="matrix(2.79348e-16 4.54839 -4.56209 2.78508e-16 4.56209 -2.78508e-16)">
<stop offset="0" stop-color="#56BCEF"/>
<stop offset="1" stop-color="#5881E4"/>
</linearGradient>
<linearGradient id="paint7_linear" x1="0" y1="0" x2="1" y2="0" gradientUnits="userSpaceOnUse" gradientTransform="matrix(9.31159e-17 7.58064 -1.5207 4.64181e-16 1.5207 -4.64181e-16)">
<stop offset="0" stop-color="#56BCEF"/>
<stop offset="1" stop-color="#5881E4"/>
</linearGradient>
<linearGradient id="paint8_linear" x1="0" y1="0" x2="1" y2="0" gradientUnits="userSpaceOnUse" gradientTransform="matrix(9.31159e-17 12.129 -1.5207 7.42689e-16 1.5207 -7.42689e-16)">
<stop offset="0" stop-color="#56BCEF"/>
<stop offset="1" stop-color="#5881E4"/>
</linearGradient>
<linearGradient id="paint9_linear" x1="0" y1="0" x2="1" y2="0" gradientUnits="userSpaceOnUse" gradientTransform="matrix(9.31159e-17 1.51613 -1.5207 9.28361e-17 1.5207 -9.28361e-17)">
<stop offset="0" stop-color="#56BCEF"/>
<stop offset="1" stop-color="#5881E4"/>
</linearGradient>
<linearGradient id="paint10_linear" x1="0" y1="0" x2="1" y2="0" gradientUnits="userSpaceOnUse" gradientTransform="matrix(9.31159e-17 1.51613 -1.5207 9.28361e-17 1.5207 -9.28361e-17)">
<stop offset="0" stop-color="#56BCEF"/>
<stop offset="1" stop-color="#5881E4"/>
</linearGradient>
<linearGradient id="paint11_linear" x1="0" y1="0" x2="1" y2="0" gradientUnits="userSpaceOnUse" gradientTransform="matrix(9.31159e-17 1.51613 -1.5207 9.28361e-17 1.5207 -9.28361e-17)">
<stop offset="0" stop-color="#56BCEF"/>
<stop offset="1" stop-color="#5881E4"/>
</linearGradient>
<linearGradient id="paint12_linear" x1="0" y1="0" x2="1" y2="0" gradientUnits="userSpaceOnUse" gradientTransform="matrix(9.31159e-17 1.51613 -1.5207 9.28361e-17 1.5207 -9.28361e-17)">
<stop offset="0" stop-color="#56BCEF"/>
<stop offset="1" stop-color="#5881E4"/>
</linearGradient>
<linearGradient id="paint13_linear" x1="0" y1="0" x2="1" y2="0" gradientUnits="userSpaceOnUse" gradientTransform="matrix(9.31159e-17 1.51613 -1.5207 9.28361e-17 1.5207 -9.28361e-17)">
<stop offset="0" stop-color="#56BCEF"/>
<stop offset="1" stop-color="#5881E4"/>
</linearGradient>
<linearGradient id="paint14_linear" x1="0" y1="0" x2="1" y2="0" gradientUnits="userSpaceOnUse" gradientTransform="matrix(9.31159e-17 1.51613 -1.5207 9.28361e-17 1.5207 -9.28361e-17)">
<stop offset="0" stop-color="#56BCEF"/>
<stop offset="1" stop-color="#5881E4"/>
</linearGradient>
<linearGradient id="paint15_linear" x1="0" y1="0" x2="1" y2="0" gradientUnits="userSpaceOnUse" gradientTransform="matrix(9.31159e-17 1.51613 -1.5207 9.28361e-17 1.5207 -9.28361e-17)">
<stop offset="0" stop-color="#56BCEF"/>
<stop offset="1" stop-color="#5881E4"/>
</linearGradient>
<path id="path0_fill" d="M 27.2068 0.277452C 26.1035 0.104613 24.9858 0.424516 24.1388 1.14847C 23.7062 1.51765 23.3701 1.974 23.1435 2.47963C 22.0349 0.979419 20.2565 0 18.2484 0C 16.0008 0 14.0391 1.22427 12.986 3.03681C 12.9662 3.03605 12.9457 3.03226 12.9259 3.03226C 9.62146 3.03226 6.92982 5.67411 6.85074 8.94971C 5.79614 9.55768 5.00994 10.5727 4.70504 11.7788C 2.36773 12.6604 0.760349 14.9164 0.760349 17.4355C 0.760349 18.3717 0.98009 19.2943 1.40056 20.1334C 0.493467 21.319 0 22.7639 0 24.2581C 0 26.0054 0.678231 27.6777 1.87122 28.9391C 1.64692 29.6138 1.5207 30.3324 1.5207 31.0806C 1.5207 34.4495 3.99944 37.3089 7.31608 37.8176C 7.94413 39.2063 9.1546 40.2813 10.673 40.7202C 10.9513 44.2285 13.8984 47 17.488 47C 19.7569 47 21.7658 45.8887 23.0112 44.1883C 23.2279 44.8259 23.6134 45.402 24.1388 45.8508C 24.836 46.4466 25.7165 46.7673 26.6213 46.7673C 26.816 46.7673 27.0122 46.7521 27.2076 46.7218C 38.758 44.9388 47.1416 35.1719 47.1416 23.5C 47.1416 11.8281 38.758 2.06118 27.2068 0.277452ZM 22.8105 40.1774C 22.8105 43.1028 20.4222 45.4839 17.488 45.4839C 14.5538 45.4839 12.1656 43.1028 12.1656 40.1774C 12.1656 37.252 14.5538 34.871 17.488 34.871L 17.488 33.3548C 14.0718 33.3548 11.241 35.8655 10.7338 39.132C 9.32492 38.5643 8.36384 37.2035 8.36384 35.629C 8.36384 33.539 10.0693 31.8387 12.1656 31.8387L 12.1656 30.3226C 9.2314 30.3226 6.84314 32.7037 6.84314 35.629C 6.84314 35.8125 6.85455 35.9929 6.87279 36.1718C 4.64041 35.5237 3.0414 33.467 3.0414 31.0806C 3.0414 28.1553 5.42965 25.7742 8.36384 25.7742L 8.36384 24.2581C 5.93376 24.2581 3.80098 25.5309 2.58671 27.4397C 1.90163 26.5285 1.5207 25.4141 1.5207 24.2581C 1.5207 22.9557 2.00504 21.7004 2.88324 20.7225L 3.2619 20.3002L 2.96308 19.8181C 2.51752 19.0972 2.28105 18.2731 2.28105 17.4355C 2.28105 15.7837 3.20487 14.2827 4.60619 13.4875C 4.90273 15.7124 6.81273 17.4355 9.12419 17.4355L 9.12419 15.9194C 7.44686 15.9194 6.08279 14.5594 6.08279 12.8871C 6.08279 11.2148 7.44686 9.85484 9.12419 9.85484C 10.8015 9.85484 12.1656 11.2148 12.1656 12.8871L 13.6863 12.8871C 13.6863 10.3787 11.6402 8.33871 9.12419 8.33871C 8.88544 8.33871 8.65277 8.36297 8.42315 8.39784C 8.73337 6.4064 10.34 4.84024 12.3557 4.58781C 12.2363 5.0616 12.1656 5.55434 12.1656 6.06452C 12.1656 9.40834 14.8945 12.129 18.2484 12.129L 18.2484 10.6129C 15.7324 10.6129 13.6863 8.57295 13.6863 6.06452C 13.6863 3.55608 15.7324 1.51613 18.2484 1.51613C 20.7644 1.51613 22.8105 3.55608 22.8105 6.06452L 22.8105 40.1774ZM 26.9741 45.2239C 26.3126 45.3292 25.6374 45.1352 25.1288 44.7C 24.6216 44.2672 24.3312 43.6372 24.3312 42.9732L 24.3312 4.02684C 24.3312 3.36202 24.6216 2.73282 25.1288 2.29997C 25.5477 1.9414 26.0777 1.7481 26.6221 1.7481C 26.7392 1.7481 26.857 1.75719 26.9741 1.77539C 37.6046 3.41735 45.6209 12.7567 45.6209 23.5C 45.6209 34.2433 37.6046 43.5826 26.9741 45.2239Z"/>
<path id="path1_fill" d="M 5.32244 5.30645L 5.32244 0L 3.80174 0L 3.80174 5.30645C 3.80174 5.7249 3.46111 6.06452 3.0414 6.06452L 0 6.06452L 0 7.58064L 3.0414 7.58064C 4.29901 7.58064 5.32244 6.56029 5.32244 5.30645Z"/>
<path id="path2_fill" d="M 2.28105 4.54839C 3.53866 4.54839 4.56209 3.52803 4.56209 2.27419C 4.56209 1.02035 3.53866 0 2.28105 0C 1.02343 0 0 1.02035 0 2.27419C 0 3.52803 1.02343 4.54839 2.28105 4.54839ZM 2.28105 1.51613C 2.70076 1.51613 3.0414 1.85574 3.0414 2.27419C 3.0414 2.69265 2.70076 3.03226 2.28105 3.03226C 1.86133 3.03226 1.5207 2.69265 1.5207 2.27419C 1.5207 1.85574 1.86133 1.51613 2.28105 1.51613Z"/>
<path id="path3_fill" d="M 3.80174 2.27419L 3.80174 7.58064L 5.32244 7.58064L 5.32244 2.27419C 5.32244 1.02035 4.29901 0 3.0414 0L 0 0L 0 1.51613L 3.0414 1.51613C 3.46111 1.51613 3.80174 1.85574 3.80174 2.27419Z"/>
<path id="path4_fill" d="M 2.28105 0C 1.02343 0 0 1.02035 0 2.27419C 0 3.52803 1.02343 4.54839 2.28105 4.54839C 3.53866 4.54839 4.56209 3.52803 4.56209 2.27419C 4.56209 1.02035 3.53866 0 2.28105 0ZM 2.28105 3.03226C 1.86133 3.03226 1.5207 2.69265 1.5207 2.27419C 1.5207 1.85574 1.86133 1.51613 2.28105 1.51613C 2.70076 1.51613 3.0414 1.85574 3.0414 2.27419C 3.0414 2.69265 2.70076 3.03226 2.28105 3.03226Z"/>
<path id="path5_fill" d="M 9.88454 2.27419C 9.88454 3.52803 8.86111 4.54839 7.60349 4.54839L 0 4.54839L 0 6.06452L 7.60349 6.06452C 9.69977 6.06452 11.4052 4.36418 11.4052 2.27419L 11.4052 0L 9.88454 0L 9.88454 2.27419Z"/>
<path id="path6_fill" d="M 1.5207 0L 0 0L 0 7.58064L 1.5207 7.58064L 1.5207 0Z"/>
<path id="path7_fill" d="M 1.5207 0L 0 0L 0 12.129L 1.5207 12.129L 1.5207 0Z"/>
<path id="path8_fill" d="M 1.5207 0L 0 0L 0 1.51613L 1.5207 1.51613L 1.5207 0Z"/>
</defs>
</svg>
