<svg width="48" height="47" viewBox="0 0 48 47" version="1.1" xmlns="http://www.w3.org/2000/svg" xmlns:xlink="http://www.w3.org/1999/xlink">
<title>017-artificial-intelligence-10</title>
<desc>Created using Figma</desc>
<g id="Canvas" transform="translate(4035 -12359)">
<g id="017-artificial-intelligence-10">
<g id="Group">
<g id="Group">
<g id="Group">
<g id="Vector">
<use xlink:href="#path0_fill" transform="translate(-4035 12359)" fill="url(#paint0_linear)"/>
</g>
<g id="Vector">
<use xlink:href="#path1_fill" transform="translate(-4033.48 12359)" fill="url(#paint1_linear)"/>
</g>
<g id="Vector">
<use xlink:href="#path1_fill" transform="translate(-4033.48 12362)" fill="url(#paint2_linear)"/>
</g>
<g id="Vector">
<use xlink:href="#path1_fill" transform="translate(-4031.96 12360.5)" fill="url(#paint3_linear)"/>
</g>
<g id="Vector">
<use xlink:href="#path2_fill" transform="translate(-4035 12360.5)" fill="url(#paint4_linear)"/>
</g>
<g id="Vector">
<use xlink:href="#path3_fill" transform="translate(-3995.47 12393.9)" fill="url(#paint5_linear)"/>
</g>
<g id="Vector">
<use xlink:href="#path3_fill" transform="translate(-3995.47 12396.9)" fill="url(#paint6_linear)"/>
</g>
<g id="Vector">
<use xlink:href="#path3_fill" transform="translate(-3993.94 12395.4)" fill="url(#paint7_linear)"/>
</g>
<g id="Vector">
<use xlink:href="#path3_fill" transform="translate(-3996.99 12395.4)" fill="url(#paint8_linear)"/>
</g>
<g id="Vector">
<use xlink:href="#path3_fill" transform="translate(-3990.9 12362)" fill="url(#paint9_linear)"/>
</g>
<g id="Vector">
<use xlink:href="#path3_fill" transform="translate(-3990.9 12365.1)" fill="url(#paint10_linear)"/>
</g>
<g id="Vector">
<use xlink:href="#path3_fill" transform="translate(-3989.38 12363.5)" fill="url(#paint11_linear)"/>
</g>
<g id="Vector">
<use xlink:href="#path3_fill" transform="translate(-3992.42 12363.5)" fill="url(#paint12_linear)"/>
</g>
<g id="Vector">
<use xlink:href="#path3_fill" transform="translate(-4025.88 12395.4)" fill="url(#paint13_linear)"/>
</g>
<g id="Vector">
<use xlink:href="#path3_fill" transform="translate(-4025.88 12398.4)" fill="url(#paint14_linear)"/>
</g>
<g id="Vector">
<use xlink:href="#path3_fill" transform="translate(-4024.36 12396.9)" fill="url(#paint15_linear)"/>
</g>
<g id="Vector">
<use xlink:href="#path3_fill" transform="translate(-4027.4 12396.9)" fill="url(#paint16_linear)"/>
</g>
<g id="Vector">
<use xlink:href="#path3_fill" transform="translate(-4030.44 12387)" fill="url(#paint17_linear)"/>
</g>
<g id="Vector">
<use xlink:href="#path3_fill" transform="translate(-4030.44 12390.1)" fill="url(#paint18_linear)"/>
</g>
<g id="Vector">
<use xlink:href="#path3_fill" transform="translate(-4028.92 12388.6)" fill="url(#paint19_linear)"/>
</g>
<g id="Vector">
<use xlink:href="#path1_fill" transform="translate(-4031.96 12388.6)" fill="url(#paint20_linear)"/>
</g>
</g>
</g>
</g>
</g>
</g>
<defs>
<linearGradient id="paint0_linear" x1="0" y1="0" x2="1" y2="0" gradientUnits="userSpaceOnUse" gradientTransform="matrix(2.88636e-15 47 -47.1378 2.87792e-15 47.1378 -2.87792e-15)">
<stop offset="0" stop-color="#56CCF2"/>
<stop offset="1" stop-color="#596ADF"/>
</linearGradient>
<linearGradient id="paint1_linear" x1="0" y1="0" x2="1" y2="0" gradientUnits="userSpaceOnUse" gradientTransform="matrix(9.31083e-17 1.5161 -1.52057 9.28346e-17 1.52057 -9.28346e-17)">
<stop offset="0" stop-color="#56CCF2"/>
<stop offset="1" stop-color="#596ADF"/>
</linearGradient>
<linearGradient id="paint2_linear" x1="0" y1="0" x2="1" y2="0" gradientUnits="userSpaceOnUse" gradientTransform="matrix(9.31083e-17 1.5161 -1.52057 9.28346e-17 1.52057 -9.28346e-17)">
<stop offset="0" stop-color="#56CCF2"/>
<stop offset="1" stop-color="#596ADF"/>
</linearGradient>
<linearGradient id="paint3_linear" x1="0" y1="0" x2="1" y2="0" gradientUnits="userSpaceOnUse" gradientTransform="matrix(9.31083e-17 1.5161 -1.52057 9.28346e-17 1.52057 -9.28346e-17)">
<stop offset="0" stop-color="#56CCF2"/>
<stop offset="1" stop-color="#596ADF"/>
</linearGradient>
<linearGradient id="paint4_linear" x1="0" y1="0" x2="1" y2="0" gradientUnits="userSpaceOnUse" gradientTransform="matrix(9.31083e-17 1.5161 -1.52057 9.28346e-17 1.52057 -9.28346e-17)">
<stop offset="0" stop-color="#56CCF2"/>
<stop offset="1" stop-color="#596ADF"/>
</linearGradient>
<linearGradient id="paint5_linear" x1="0" y1="0" x2="1" y2="0" gradientUnits="userSpaceOnUse" gradientTransform="matrix(9.31083e-17 1.5161 -1.52057 9.28346e-17 1.52057 -9.28346e-17)">
<stop offset="0" stop-color="#56CCF2"/>
<stop offset="1" stop-color="#596ADF"/>
</linearGradient>
<linearGradient id="paint6_linear" x1="0" y1="0" x2="1" y2="0" gradientUnits="userSpaceOnUse" gradientTransform="matrix(9.31083e-17 1.5161 -1.52057 9.28346e-17 1.52057 -9.28346e-17)">
<stop offset="0" stop-color="#56CCF2"/>
<stop offset="1" stop-color="#596ADF"/>
</linearGradient>
<linearGradient id="paint7_linear" x1="0" y1="0" x2="1" y2="0" gradientUnits="userSpaceOnUse" gradientTransform="matrix(9.31083e-17 1.5161 -1.52057 9.28346e-17 1.52057 -9.28346e-17)">
<stop offset="0" stop-color="#56CCF2"/>
<stop offset="1" stop-color="#596ADF"/>
</linearGradient>
<linearGradient id="paint8_linear" x1="0" y1="0" x2="1" y2="0" gradientUnits="userSpaceOnUse" gradientTransform="matrix(9.31083e-17 1.5161 -1.52057 9.28346e-17 1.52057 -9.28346e-17)">
<stop offset="0" stop-color="#56CCF2"/>
<stop offset="1" stop-color="#596ADF"/>
</linearGradient>
<linearGradient id="paint9_linear" x1="0" y1="0" x2="1" y2="0" gradientUnits="userSpaceOnUse" gradientTransform="matrix(9.31083e-17 1.5161 -1.52057 9.28346e-17 1.52057 -9.28346e-17)">
<stop offset="0" stop-color="#56CCF2"/>
<stop offset="1" stop-color="#596ADF"/>
</linearGradient>
<linearGradient id="paint10_linear" x1="0" y1="0" x2="1" y2="0" gradientUnits="userSpaceOnUse" gradientTransform="matrix(9.31083e-17 1.5161 -1.52057 9.28346e-17 1.52057 -9.28346e-17)">
<stop offset="0" stop-color="#56CCF2"/>
<stop offset="1" stop-color="#596ADF"/>
</linearGradient>
<linearGradient id="paint11_linear" x1="0" y1="0" x2="1" y2="0" gradientUnits="userSpaceOnUse" gradientTransform="matrix(9.31083e-17 1.5161 -1.52057 9.28346e-17 1.52057 -9.28346e-17)">
<stop offset="0" stop-color="#56CCF2"/>
<stop offset="1" stop-color="#596ADF"/>
</linearGradient>
<linearGradient id="paint12_linear" x1="0" y1="0" x2="1" y2="0" gradientUnits="userSpaceOnUse" gradientTransform="matrix(9.31083e-17 1.5161 -1.52057 9.28346e-17 1.52057 -9.28346e-17)">
<stop offset="0" stop-color="#56CCF2"/>
<stop offset="1" stop-color="#596ADF"/>
</linearGradient>
<linearGradient id="paint13_linear" x1="0" y1="0" x2="1" y2="0" gradientUnits="userSpaceOnUse" gradientTransform="matrix(9.31083e-17 1.5161 -1.52057 9.28346e-17 1.52057 -9.28346e-17)">
<stop offset="0" stop-color="#56CCF2"/>
<stop offset="1" stop-color="#596ADF"/>
</linearGradient>
<linearGradient id="paint14_linear" x1="0" y1="0" x2="1" y2="0" gradientUnits="userSpaceOnUse" gradientTransform="matrix(9.31083e-17 1.5161 -1.52057 9.28346e-17 1.52057 -9.28346e-17)">
<stop offset="0" stop-color="#56CCF2"/>
<stop offset="1" stop-color="#596ADF"/>
</linearGradient>
<linearGradient id="paint15_linear" x1="0" y1="0" x2="1" y2="0" gradientUnits="userSpaceOnUse" gradientTransform="matrix(9.31083e-17 1.5161 -1.52057 9.28346e-17 1.52057 -9.28346e-17)">
<stop offset="0" stop-color="#56CCF2"/>
<stop offset="1" stop-color="#596ADF"/>
</linearGradient>
<linearGradient id="paint16_linear" x1="0" y1="0" x2="1" y2="0" gradientUnits="userSpaceOnUse" gradientTransform="matrix(9.31083e-17 1.5161 -1.52057 9.28346e-17 1.52057 -9.28346e-17)">
<stop offset="0" stop-color="#56CCF2"/>
<stop offset="1" stop-color="#596ADF"/>
</linearGradient>
<linearGradient id="paint17_linear" x1="0" y1="0" x2="1" y2="0" gradientUnits="userSpaceOnUse" gradientTransform="matrix(9.31083e-17 1.5161 -1.52057 9.28346e-17 1.52057 -9.28346e-17)">
<stop offset="0" stop-color="#56CCF2"/>
<stop offset="1" stop-color="#596ADF"/>
</linearGradient>
<linearGradient id="paint18_linear" x1="0" y1="0" x2="1" y2="0" gradientUnits="userSpaceOnUse" gradientTransform="matrix(9.31083e-17 1.5161 -1.52057 9.28346e-17 1.52057 -9.28346e-17)">
<stop offset="0" stop-color="#56CCF2"/>
<stop offset="1" stop-color="#596ADF"/>
</linearGradient>
<linearGradient id="paint19_linear" x1="0" y1="0" x2="1" y2="0" gradientUnits="userSpaceOnUse" gradientTransform="matrix(9.31083e-17 1.5161 -1.52057 9.28346e-17 1.52057 -9.28346e-17)">
<stop offset="0" stop-color="#56CCF2"/>
<stop offset="1" stop-color="#596ADF"/>
</linearGradient>
<linearGradient id="paint20_linear" x1="0" y1="0" x2="1" y2="0" gradientUnits="userSpaceOnUse" gradientTransform="matrix(9.31083e-17 1.5161 -1.52057 9.28346e-17 1.52057 -9.28346e-17)">
<stop offset="0" stop-color="#56CCF2"/>
<stop offset="1" stop-color="#596ADF"/>
</linearGradient>
<path id="path0_fill" d="M 47.1378 14.403C 47.1378 13.1492 46.1144 12.1288 44.8569 12.1288C 44.5954 12.1288 44.3475 12.1819 44.1134 12.263L 40.7065 8.01716C 40.924 7.66922 41.0555 7.26214 41.0555 6.82247C 41.0555 5.56865 40.0321 4.54831 38.7746 4.54831C 38.1352 4.54831 37.5589 4.81363 37.1446 5.23663L 31.1512 2.47883C 31.1573 2.41061 31.1718 2.34466 31.1718 2.27416C 31.1718 1.02034 30.1484 0 28.8909 0C 27.901 0 27.0647 0.636006 26.7499 1.5161L 18.107 1.5161C 17.7922 0.636006 16.9559 0 15.966 0C 14.7085 0 13.6852 1.02034 13.6852 2.27416C 13.6852 2.36816 13.7019 2.45836 13.7133 2.55009L 9.94227 4.43006C 9.53172 4.03587 8.97671 3.79026 8.36316 3.79026C 7.10564 3.79026 6.08229 4.8106 6.08229 6.06442C 6.08229 6.50409 6.21383 6.91116 6.43127 7.25911L 3.02442 11.505C 2.79025 11.4238 2.5424 11.3708 2.28086 11.3708C 1.02335 11.3708 1.80557e-11 12.3911 1.80557e-11 13.6449C 1.80557e-11 14.6319 0.637881 15.4658 1.52057 15.7796L 1.52057 20.6077C 0.637881 20.9207 1.80557e-11 21.7546 1.80557e-11 22.7416C 1.80557e-11 23.9954 1.02335 25.0157 2.28086 25.0157C 3.12554 25.0157 3.85541 24.5503 4.25 23.8688L 8.40041 24.6208C 8.57604 25.7018 9.51119 26.5318 10.644 26.5318C 10.6744 26.5318 10.7033 26.5242 10.7337 26.5227L 12.1844 30.1394C 11.7099 30.5563 11.4043 31.1597 11.4043 31.8382C 11.4043 33.092 12.4276 34.1124 13.6852 34.1124C 14.45 34.1124 15.1244 33.7318 15.538 33.1549L 22.0628 35.0137C 22.1213 35.937 22.7295 36.7064 23.5689 37.0051L 23.5689 42.5912C 22.6862 42.905 22.0483 43.7389 22.0483 44.7258C 22.0483 45.9797 23.0717 47 24.3292 47C 25.5867 47 26.61 45.9797 26.61 44.7258C 26.61 43.7389 25.9722 42.905 25.0895 42.5912L 25.0895 37.0051C 25.9722 36.6912 26.61 35.8574 26.61 34.8704C 26.61 34.1442 26.2603 33.5036 25.7273 33.0867L 26.6351 30.3706L 33.4572 32.6379C 33.4754 33.606 34.1034 34.4209 34.9732 34.7302L 34.9732 42.5904C 34.0905 42.9042 33.4526 43.7381 33.4526 44.7251C 33.4526 45.9789 34.476 46.9992 35.7335 46.9992C 36.991 46.9992 38.0143 45.9789 38.0143 44.7251C 38.0143 43.7381 37.3765 42.9042 36.4938 42.5904L 36.4938 34.7309C 37.3765 34.4171 38.0143 33.5832 38.0143 32.5962C 38.0143 32.3196 37.9573 32.0573 37.8661 31.8117L 43.6998 26.9647C 44.0396 27.1663 44.4327 27.2899 44.8569 27.2899C 46.1144 27.2899 47.1378 26.2695 47.1378 25.0157C 47.1378 24.0287 46.4999 23.1949 45.6172 22.8811L 45.6172 16.5369C 46.4999 16.2238 47.1378 15.39 47.1378 14.403ZM 38.7746 6.06442C 39.1936 6.06442 39.5349 6.40403 39.5349 6.82247C 39.5349 7.24092 39.1936 7.58052 38.7746 7.58052C 38.3557 7.58052 38.0143 7.24092 38.0143 6.82247C 38.0143 6.40403 38.3557 6.06442 38.7746 6.06442ZM 37.6935 8.81236C 38.0166 8.98823 38.3816 9.09663 38.7746 9.09663C 39.0362 9.09663 39.2833 9.04356 39.5174 8.96245L 42.9243 13.2091C 42.7076 13.557 42.5761 13.9633 42.5761 14.403C 42.5761 14.525 42.5936 14.6425 42.6126 14.76L 37.2267 17.6891L 33.3044 14.4303C 33.3956 14.1839 33.4526 13.9216 33.4526 13.6449C 33.4526 13.3372 33.3895 13.043 33.2778 12.7755L 37.6935 8.81236ZM 28.1306 21.2255C 27.7794 21.2255 27.4509 21.3111 27.1536 21.4536L 23.9323 18.2418L 29.6193 15.3013C 30.0275 15.6818 30.5704 15.9191 31.1718 15.9191C 31.596 15.9191 31.9883 15.7955 32.3289 15.5939L 35.7905 18.4699L 29.6451 21.8122C 29.2414 21.4514 28.7145 21.2255 28.1306 21.2255ZM 28.8909 23.4996C 28.8909 23.9181 28.5495 24.2577 28.1306 24.2577C 27.7117 24.2577 27.3703 23.9181 27.3703 23.4996C 27.3703 23.0812 27.7117 22.7416 28.1306 22.7416C 28.5495 22.7416 28.8909 23.0812 28.8909 23.4996ZM 17.3961 15.1512L 18.6726 19.2523L 12.1965 22.6006C 11.9251 22.3481 11.5929 22.1647 11.2234 22.0669L 10.1696 14.0103L 15.3791 13.7503C 15.7098 14.5493 16.4853 15.1148 17.3961 15.1512ZM 16.7263 12.8869C 16.7263 12.4684 17.0677 12.1288 17.4866 12.1288C 17.9055 12.1288 18.2469 12.4684 18.2469 12.8869C 18.2469 13.3053 17.9055 13.6449 17.4866 13.6449C 17.0677 13.6449 16.7263 13.3053 16.7263 12.8869ZM 19.1296 20.7244L 21.0577 26.92L 12.9203 24.2152C 12.9188 24.1243 12.9051 24.0363 12.8929 23.9484L 19.1296 20.7244ZM 19.1243 15.5924L 21.3884 17.8491L 20.0434 18.5442L 19.1243 15.5924ZM 19.5394 13.861C 19.6815 13.5646 19.7675 13.2371 19.7675 12.8869C 19.7675 12.564 19.6975 12.2577 19.5759 11.9795L 23.1857 8.61981L 29.0049 12.971C 28.9373 13.1863 28.8909 13.4092 28.8909 13.6449C 28.8909 13.7511 28.9084 13.8519 28.9221 13.9542L 22.804 17.1168L 19.5394 13.861ZM 30.4115 13.6449C 30.4115 13.2265 30.7528 12.8869 31.1718 12.8869C 31.5907 12.8869 31.932 13.2265 31.932 13.6449C 31.932 14.0634 31.5907 14.403 31.1718 14.403C 30.7528 14.403 30.4115 14.0634 30.4115 13.6449ZM 37.0473 19.5138L 42.4947 24.0401L 30.6913 22.9705L 37.0473 19.5138ZM 28.8909 1.5161C 29.3098 1.5161 29.6512 1.85571 29.6512 2.27416C 29.6512 2.6926 29.3098 3.03221 28.8909 3.03221C 28.472 3.03221 28.1306 2.6926 28.1306 2.27416C 28.1306 1.85571 28.472 1.5161 28.8909 1.5161ZM 27.8463 4.28375C 28.1603 4.44673 28.5123 4.54831 28.8909 4.54831C 29.5303 4.54831 30.1066 4.283 30.5217 3.85924L 36.5143 6.61704C 36.5082 6.68602 36.4938 6.75197 36.4938 6.82247C 36.4938 7.131 36.5569 7.42436 36.6686 7.69271L 32.2529 11.6551C 31.9298 11.4792 31.5648 11.3708 31.1718 11.3708C 30.7049 11.3708 30.2708 11.5125 29.9089 11.7536L 24.3147 7.56991L 27.8463 4.28375ZM 26.7499 3.03221C 26.7682 3.08148 26.7811 3.13303 26.8016 3.18079L 23.0785 6.64509L 18.2469 3.03221L 26.7499 3.03221ZM 15.966 1.5161C 16.3849 1.5161 16.7263 1.85571 16.7263 2.27416C 16.7263 2.6926 16.3849 3.03221 15.966 3.03221C 15.5471 3.03221 15.2057 2.6926 15.2057 2.27416C 15.2057 1.85571 15.5471 1.5161 15.966 1.5161ZM 10.644 6.06442C 10.644 5.97042 10.6273 5.88021 10.6159 5.78925L 14.3869 3.90928C 14.7975 4.3027 15.3525 4.54831 15.966 4.54831C 16.4328 4.54831 16.867 4.40656 17.2289 4.1655L 21.9495 7.69575L 18.5312 10.8765C 18.2172 10.7136 17.8652 10.6127 17.4866 10.6127C 16.4572 10.6127 15.595 11.3003 15.3122 12.2357L 9.97192 12.5018L 9.3941 8.0816C 10.1323 7.70484 10.644 6.94679 10.644 6.06442ZM 8.36316 5.30637C 8.78207 5.30637 9.12344 5.64597 9.12344 6.06442C 9.12344 6.48286 8.78207 6.82247 8.36316 6.82247C 7.94424 6.82247 7.60287 6.48286 7.60287 6.06442C 7.60287 5.64597 7.94424 5.30637 8.36316 5.30637ZM 7.6196 8.2044C 7.70779 8.23472 7.79446 8.26732 7.88646 8.28703L 8.44755 12.5784L 4.38838 12.7808C 4.34048 12.6648 4.27889 12.5564 4.21275 12.4503L 7.6196 8.2044ZM 2.28086 12.8869C 2.69978 12.8869 3.04115 13.2265 3.04115 13.6449C 3.04115 14.0634 2.69978 14.403 2.28086 14.403C 1.86194 14.403 1.52057 14.0634 1.52057 13.6449C 1.52057 13.2265 1.86194 12.8869 2.28086 12.8869ZM 2.28086 23.4996C 1.86194 23.4996 1.52057 23.16 1.52057 22.7416C 1.52057 22.3231 1.86194 21.9835 2.28086 21.9835C 2.69978 21.9835 3.04115 22.3231 3.04115 22.7416C 3.04115 23.16 2.69978 23.4996 2.28086 23.4996ZM 8.67487 23.1304L 4.52523 22.3785C 4.39066 21.5529 3.81284 20.8813 3.04115 20.6069L 3.04115 15.7789C 3.72008 15.537 4.2462 14.9875 4.45528 14.2954L 8.64598 14.0861L 9.70582 22.1897C 9.26942 22.3876 8.91284 22.7188 8.67487 23.1304ZM 10.644 25.0157C 10.2251 25.0157 9.88373 24.6761 9.88373 24.2577C 9.88373 23.8392 10.2251 23.4996 10.644 23.4996C 11.0629 23.4996 11.4043 23.8392 11.4043 24.2577C 11.4043 24.6761 11.0629 25.0157 10.644 25.0157ZM 13.6852 32.5962C 13.2662 32.5962 12.9249 32.2566 12.9249 31.8382C 12.9249 31.4198 13.2662 31.0801 13.6852 31.0801C 14.1041 31.0801 14.4455 31.4198 14.4455 31.8382C 14.4455 32.2566 14.1041 32.5962 13.6852 32.5962ZM 22.4771 33.5537L 15.9523 31.6949C 15.8756 30.5086 14.894 29.564 13.6852 29.564C 13.6548 29.564 13.6259 29.5716 13.5955 29.5731L 12.1448 25.9565C 12.2505 25.8632 12.3463 25.7617 12.4337 25.651L 21.6134 28.7021L 22.969 33.0564C 22.7812 33.1974 22.614 33.3634 22.4771 33.5537ZM 24.3292 45.4831C 23.9103 45.4831 23.5689 45.1435 23.5689 44.7251C 23.5689 44.3066 23.9103 43.967 24.3292 43.967C 24.7481 43.967 25.0895 44.3066 25.0895 44.7251C 25.0895 45.1435 24.7481 45.4831 24.3292 45.4831ZM 24.3292 35.6285C 23.9103 35.6285 23.5689 35.2888 23.5689 34.8704C 23.5689 34.452 23.9103 34.1124 24.3292 34.1124C 24.7481 34.1124 25.0895 34.452 25.0895 34.8704C 25.0895 35.2888 24.7481 35.6285 24.3292 35.6285ZM 24.355 32.3961L 23.3887 29.2927L 25.1921 29.8923L 24.355 32.3961ZM 25.6734 28.4535L 22.8345 27.5097L 20.5019 20.0156L 22.5167 18.974L 26.0786 22.5255C 25.9357 22.8219 25.8498 23.1494 25.8498 23.4996C 25.8498 24.2258 26.1995 24.8671 26.7332 25.2833L 25.6734 28.4535ZM 35.7335 45.4831C 35.3146 45.4831 34.9732 45.1435 34.9732 44.7251C 34.9732 44.3066 35.3146 43.967 35.7335 43.967C 36.1524 43.967 36.4938 44.3066 36.4938 44.7251C 36.4938 45.1435 36.1524 45.4831 35.7335 45.4831ZM 35.7335 33.3543C 35.3146 33.3543 34.9732 33.0147 34.9732 32.5962C 34.9732 32.1778 35.3146 31.8382 35.7335 31.8382C 36.1524 31.8382 36.4938 32.1778 36.4938 32.5962C 36.4938 33.0147 36.1524 33.3543 35.7335 33.3543ZM 36.8906 30.6465C 36.55 30.4457 36.1577 30.3221 35.7335 30.3221C 35.0051 30.3221 34.3619 30.6708 33.9445 31.2029L 27.1156 28.9333L 28.1732 25.7692C 29.0718 25.7526 29.8405 25.2159 30.1963 24.4479L 42.6544 25.5767C 42.6741 25.6525 42.697 25.7268 42.7243 25.7996L 36.8906 30.6465ZM 38.4834 18.7322L 43.3424 16.0897C 43.5606 16.2852 43.8153 16.4368 44.0974 16.5369L 44.0974 22.8811C 43.9575 22.9311 43.8252 22.9925 43.6998 23.0668L 38.4834 18.7322ZM 44.8569 25.7738C 44.438 25.7738 44.0966 25.4342 44.0966 25.0157C 44.0966 24.5973 44.438 24.2577 44.8569 24.2577C 45.2758 24.2577 45.6172 24.5973 45.6172 25.0157C 45.6172 25.4342 45.2758 25.7738 44.8569 25.7738ZM 44.8569 15.161C 44.438 15.161 44.0966 14.8214 44.0966 14.403C 44.0966 13.9845 44.438 13.6449 44.8569 13.6449C 45.2758 13.6449 45.6172 13.9845 45.6172 14.403C 45.6172 14.8214 45.2758 15.161 44.8569 15.161Z"/>
<path id="path1_fill" d="M 1.52057 0L 0 0L 0 1.5161L 1.52057 1.5161L 1.52057 0Z"/>
<path id="path2_fill" d="M 1.52057 0L 0 0L 0 1.5161L 1.52057 1.5161L 1.52057 0Z"/>
<path id="path3_fill" d="M 1.52057 0L 0 0L 0 1.5161L 1.52057 1.5161L 1.52057 0Z"/>
</defs>
</svg>
