<svg width="48" height="47" viewBox="0 0 48 47" version="1.1" xmlns="http://www.w3.org/2000/svg" xmlns:xlink="http://www.w3.org/1999/xlink">
<title>interaction</title>
<desc>Created using Figma</desc>
<g id="Canvas" transform="translate(3713 -12551)">
<g id="interaction">
<g id="Group">
<g id="Group">
<g id="Vector">
<use xlink:href="#path0_fill" transform="translate(-3677.02 12589.9)" fill="url(#paint0_linear)"/>
</g>
</g>
</g>
<g id="Group">
<g id="Group">
<g id="Vector">
<use xlink:href="#path1_fill" transform="translate(-3675.05 12586.3)" fill="url(#paint1_linear)"/>
</g>
</g>
</g>
<g id="Group">
<g id="Group">
<g id="Vector">
<use xlink:href="#path2_fill" transform="translate(-3699.26 12558.7)" fill="url(#paint2_linear)"/>
</g>
</g>
</g>
<g id="Group">
<g id="Group">
<g id="Vector">
<use xlink:href="#path3_fill" transform="translate(-3685.73 12572.2)" fill="url(#paint3_linear)"/>
</g>
</g>
</g>
<g id="Group">
<g id="Group">
<g id="Vector">
<use xlink:href="#path4_fill" transform="translate(-3713 12551)" fill="url(#paint4_linear)"/>
</g>
</g>
</g>
<g id="Group">
<g id="Group">
<g id="Vector">
<use xlink:href="#path5_fill" transform="translate(-3676.98 12556)" fill="url(#paint5_linear)"/>
</g>
</g>
</g>
<g id="Group">
<g id="Group">
<g id="Vector">
<use xlink:href="#path6_fill" transform="translate(-3675.51 12571.7)" fill="url(#paint6_linear)"/>
</g>
</g>
</g>
<g id="Group">
<g id="Group">
<g id="Vector">
<use xlink:href="#path7_fill" transform="translate(-3679.06 12565)" fill="url(#paint7_linear)"/>
</g>
</g>
</g>
<g id="Group">
<g id="Group">
<g id="Vector">
<use xlink:href="#path8_fill" transform="translate(-3709.88 12554.1)" fill="url(#paint8_linear)"/>
</g>
</g>
</g>
<g id="Group">
<g id="Group">
<g id="Vector">
<use xlink:href="#path9_fill" transform="translate(-3708.96 12554.7)" fill="url(#paint9_linear)"/>
</g>
</g>
</g>
<g id="Group">
<g id="Group">
<g id="Vector">
<use xlink:href="#path10_fill" transform="translate(-3690.92 12584.9)" fill="url(#paint10_linear)"/>
</g>
</g>
</g>
<g id="Group">
<g id="Group">
<g id="Vector">
<use xlink:href="#path11_fill" transform="translate(-3687.47 12588.3)" fill="url(#paint11_linear)"/>
</g>
</g>
</g>
</g>
</g>
<defs>
<linearGradient id="paint0_linear" x1="0" y1="0" x2="1" y2="0" gradientUnits="userSpaceOnUse" gradientTransform="matrix(2.32681e-16 8.07675 -3.79997 4.94558e-16 3.79997 -4.94558e-16)">
<stop offset="0" stop-color="#56CCF2"/>
<stop offset="1" stop-color="#596CDF"/>
</linearGradient>
<linearGradient id="paint1_linear" x1="0" y1="0" x2="1" y2="0" gradientUnits="userSpaceOnUse" gradientTransform="matrix(1.12521e-16 1.83596 -1.83761 1.1242e-16 1.83761 -1.1242e-16)">
<stop offset="0" stop-color="#56CCF2"/>
<stop offset="1" stop-color="#596CDF"/>
</linearGradient>
<linearGradient id="paint2_linear" x1="0" y1="0" x2="1" y2="0" gradientUnits="userSpaceOnUse" gradientTransform="matrix(8.77813e-16 10.46 -14.3358 6.40487e-16 14.3358 -6.40487e-16)">
<stop offset="0" stop-color="#56CCF2"/>
<stop offset="1" stop-color="#596CDF"/>
</linearGradient>
<linearGradient id="paint3_linear" x1="0" y1="0" x2="1" y2="0" gradientUnits="userSpaceOnUse" gradientTransform="matrix(1.13739e-16 1.85602 -1.8575 1.13648e-16 1.8575 -1.13648e-16)">
<stop offset="0" stop-color="#56CCF2"/>
<stop offset="1" stop-color="#596CDF"/>
</linearGradient>
<linearGradient id="paint4_linear" x1="0" y1="0" x2="1" y2="0" gradientUnits="userSpaceOnUse" gradientTransform="matrix(2.88054e-15 47 -47.0428 2.87792e-15 47.0428 -2.87792e-15)">
<stop offset="0" stop-color="#56CCF2"/>
<stop offset="1" stop-color="#596CDF"/>
</linearGradient>
<linearGradient id="paint5_linear" x1="0" y1="0" x2="1" y2="0" gradientUnits="userSpaceOnUse" gradientTransform="matrix(4.2758e-16 6.97664 -6.98291 4.27196e-16 6.98291 -4.27196e-16)">
<stop offset="0" stop-color="#56CCF2"/>
<stop offset="1" stop-color="#596CDF"/>
</linearGradient>
<linearGradient id="paint6_linear" x1="0" y1="0" x2="1" y2="0" gradientUnits="userSpaceOnUse" gradientTransform="matrix(3.37563e-16 5.50788 -5.51283 3.3726e-16 5.51283 -3.3726e-16)">
<stop offset="0" stop-color="#56CCF2"/>
<stop offset="1" stop-color="#596CDF"/>
</linearGradient>
<linearGradient id="paint7_linear" x1="0" y1="0" x2="1" y2="0" gradientUnits="userSpaceOnUse" gradientTransform="matrix(3.37563e-16 5.50788 -5.51283 3.3726e-16 5.51283 -3.3726e-16)">
<stop offset="0" stop-color="#56CCF2"/>
<stop offset="1" stop-color="#596CDF"/>
</linearGradient>
<linearGradient id="paint8_linear" x1="0" y1="0" x2="1" y2="0" gradientUnits="userSpaceOnUse" gradientTransform="matrix(3.37563e-16 5.50788 -5.51283 3.3726e-16 5.51283 -3.3726e-16)">
<stop offset="0" stop-color="#56CCF2"/>
<stop offset="1" stop-color="#596CDF"/>
</linearGradient>
<linearGradient id="paint9_linear" x1="0" y1="0" x2="1" y2="0" gradientUnits="userSpaceOnUse" gradientTransform="matrix(1.72021e-15 22.5901 -28.0931 1.38324e-15 28.0931 -1.38324e-15)">
<stop offset="0" stop-color="#56CCF2"/>
<stop offset="1" stop-color="#596CDF"/>
</linearGradient>
<linearGradient id="paint10_linear" x1="0" y1="0" x2="1" y2="0" gradientUnits="userSpaceOnUse" gradientTransform="matrix(8.04419e-16 13.1255 -13.1372 8.03702e-16 13.1372 -8.03702e-16)">
<stop offset="0" stop-color="#56CCF2"/>
<stop offset="1" stop-color="#596CDF"/>
</linearGradient>
<linearGradient id="paint11_linear" x1="0" y1="0" x2="1" y2="0" gradientUnits="userSpaceOnUse" gradientTransform="matrix(3.81593e-16 6.22638 -6.23188 3.81256e-16 6.23188 -3.81256e-16)">
<stop offset="0" stop-color="#56CCF2"/>
<stop offset="1" stop-color="#596CDF"/>
</linearGradient>
<path id="path0_fill" d="M 2.88117 -8.51641e-07C 2.3738 -8.51641e-07 1.96236 0.410979 1.96236 0.917979L 1.96236 2.20554L 0.0691669 6.80976C -0.12369 7.27875 0.100591 7.81503 0.569916 8.00772C 0.684124 8.05463 0.802373 8.07675 0.918693 8.07675C 1.28024 8.07675 1.62305 7.86222 1.76895 7.50742L 3.73106 2.73558C 3.77654 2.62487 3.79997 2.50636 3.79997 2.38675L 3.79997 0.917979C 3.79997 0.410979 3.38853 -8.51641e-07 2.88117 -8.51641e-07Z"/>
<path id="path1_fill" d="M 1.5684 0.268969C 1.3975 0.0982251 1.16045 -8.51641e-07 0.918805 -8.51641e-07C 0.67716 -8.51641e-07 0.440107 0.0982251 0.26921 0.268969C 0.0984042 0.439713 8.9727e-07 0.67655 8.9727e-07 0.917979C 8.9727e-07 1.15941 0.0983123 1.39625 0.26921 1.56699C 0.440107 1.73774 0.67716 1.83596 0.918805 1.83596C 1.16045 1.83596 1.3975 1.73774 1.5684 1.56699C 1.7392 1.39625 1.83761 1.15941 1.83761 0.917979C 1.83761 0.67655 1.7393 0.439713 1.5684 0.268969Z"/>
<path id="path2_fill" d="M 12.2385 2.09385C 9.44413 -0.697997 4.89743 -0.697906 2.10316 2.09385C 0.0481622 4.1471 -0.563211 7.20801 0.545878 9.892C 0.692152 10.2461 1.0345 10.46 1.3955 10.46C 1.51228 10.46 1.63108 10.4376 1.74574 10.3903C 2.21479 10.1969 2.43806 9.66012 2.24447 9.19149C 1.41966 7.19543 1.87438 4.91903 3.40262 3.39215C 5.48041 1.31623 8.86124 1.31614 10.939 3.39215C 12.4097 4.86147 12.8909 7.06976 12.1654 9.0179C 11.9885 9.49304 12.2306 10.0216 12.7062 10.1983C 13.1815 10.375 13.7107 10.1333 13.8877 9.6581C 14.8632 7.03873 14.2158 4.06962 12.2385 2.09385Z"/>
<path id="path3_fill" d="M 1.58841 0.268922C 1.22961 -0.0896411 0.647918 -0.0896411 0.289033 0.268922L 0.269094 0.288843C -0.0896988 0.647314 -0.0896988 1.22858 0.269094 1.58714C 0.448537 1.76642 0.68366 1.85602 0.918782 1.85602C 1.1539 1.85602 1.38902 1.76642 1.56847 1.58714L 1.58841 1.56722C 1.9472 1.20875 1.9472 0.627485 1.58841 0.268922Z"/>
<path id="path4_fill" d="M 46.124 2.39382e-12L 0.918804 2.39382e-12C 0.411441 2.39382e-12 0 0.410979 0 0.91798L 0 30.2933C 0 30.8003 0.411441 31.2113 0.918804 31.2113L 8.857 31.2113C 8.53679 31.7635 8.36535 32.392 8.36535 33.0473C 8.36535 34.0281 8.74766 34.9501 9.44182 35.6438L 20.5391 46.7311C 20.7186 46.9104 20.9537 47 21.1888 47C 21.4239 47 21.6591 46.9103 21.8385 46.7311C 22.1973 46.3727 22.1973 45.7914 21.8385 45.4329L 19.2886 42.8853C 19.2944 42.8438 19.2985 42.8016 19.2985 42.7584L 19.2985 32.3588L 20.3092 32.3588C 20.8165 32.3588 21.228 31.9478 21.228 31.4408C 21.228 30.9338 20.8165 30.5228 20.3092 30.5228L 19.2985 30.5228L 19.2985 27.0287L 20.3092 27.0287C 20.8165 27.0287 21.228 26.6177 21.228 26.1107C 21.228 25.6037 20.8165 25.1928 20.3092 25.1928L 19.2985 25.1928L 19.2985 20.6085L 20.3092 20.6085C 20.8165 20.6085 21.228 20.1976 21.228 19.6906C 21.228 19.1836 20.8165 18.7726 20.3092 18.7726L 19.2985 18.7726L 19.2985 16.3858C 19.2985 15.4747 20.0404 14.7335 20.9523 14.7335C 21.8642 14.7335 22.6062 15.4747 22.6062 16.3858L 22.6062 31.3489C 22.6062 31.3922 22.6102 31.4346 22.616 31.4764C 22.6349 31.9667 23.0376 32.3587 23.533 32.3587C 24.0403 32.3587 24.4518 31.9477 24.4518 31.4407L 24.4518 28.6639C 24.4518 27.7623 25.186 27.0287 26.0884 27.0287C 26.9909 27.0287 27.7251 27.7623 27.7251 28.6639L 27.7251 31.4407C 27.7251 31.9477 28.1365 32.3587 28.6439 32.3587C 29.1513 32.3587 29.5627 31.9477 29.5627 31.4407L 29.5627 29.5504C 29.5627 28.6488 30.2969 27.9152 31.1995 27.9152C 32.1019 27.9152 32.8361 28.6488 32.8361 29.5504L 32.8361 31.4408C 32.8361 31.9478 33.2476 32.3588 33.7549 32.3588C 34.2623 32.3588 34.6737 31.9478 34.6737 31.4408L 34.6737 30.8269C 34.6737 29.9253 35.408 29.1917 36.3104 29.1917C 37.2129 29.1917 37.9471 29.9253 37.9471 30.8269L 37.9471 33.0473C 37.9471 33.5543 38.3585 33.9652 38.8659 33.9652C 39.3732 33.9652 39.7847 33.5543 39.7847 33.0473L 39.7847 31.2113L 46.124 31.2113C 46.6313 31.2113 47.0428 30.8003 47.0428 30.2933L 47.0428 0.91798C 47.0428 0.410979 46.6313 2.39382e-12 46.124 2.39382e-12ZM 1.83761 11.9337L 3.67522 11.9337L 3.67522 13.7697L 1.83761 13.7697L 1.83761 11.9337ZM 17.4609 41.0592L 14.9546 38.5551L 15.5935 37.917C 15.9523 37.5585 15.9523 36.9772 15.5935 36.6188C 15.2347 36.2603 14.6531 36.2603 14.294 36.6188L 13.6552 37.2569L 10.7412 34.3456C 10.3942 33.9988 10.203 33.5377 10.203 33.0474C 10.203 32.557 10.3942 32.0959 10.7412 31.7491C 11.4577 31.0333 12.6234 31.0333 13.3398 31.7491L 17.4609 35.8664L 17.4609 41.0592ZM 17.4609 33.2698L 15.4005 31.2113L 17.4609 31.2113L 17.4609 33.2698ZM 45.2052 29.3753L 39.4655 29.3753C 38.9143 28.1845 37.7079 27.3558 36.3108 27.3558C 35.5639 27.3558 34.8717 27.5933 34.3047 27.9956C 33.7328 26.8604 32.5562 26.0792 31.1997 26.0792C 30.3838 26.0792 29.6331 26.3624 29.0395 26.8347C 28.4258 25.85 27.3328 25.1928 26.0886 25.1928C 25.4939 25.1928 24.9338 25.3431 24.4439 25.6073L 24.4439 16.3859C 24.4439 14.4625 22.8776 12.8976 20.9524 12.8976C 19.0272 12.8976 17.461 14.4625 17.461 16.3859L 17.461 29.3753L 1.83761 29.3753L 1.83761 15.6057L 4.59402 15.6057C 5.10139 15.6057 5.51283 15.1947 5.51283 14.6877L 5.51283 11.0158C 5.51283 10.5088 5.10139 10.0978 4.59402 10.0978L 1.83761 10.0978L 1.83761 1.83596L 45.2052 1.83596L 45.2052 29.3753Z"/>
<path id="path5_fill" d="M 6.06411 -1.51278e-07L 0.918804 -1.51278e-07C 0.411441 -1.51278e-07 0 0.410979 0 0.917979L 0 6.05866C 0 6.56567 0.411441 6.97664 0.918804 6.97664L 6.06411 6.97664C 6.57147 6.97664 6.98291 6.56567 6.98291 6.05866L 6.98291 0.917979C 6.98291 0.410979 6.57147 -1.51278e-07 6.06411 -1.51278e-07ZM 5.1453 5.14069L 1.83761 5.14069L 1.83761 1.83596L 5.1453 1.83596L 5.1453 5.14069Z"/>
<path id="path6_fill" d="M 4.59402 5.49084e-07L 0.918804 5.49084e-07C 0.411441 5.49084e-07 0 0.41098 0 0.91798L 0 4.5899C 0 5.0969 0.411441 5.50788 0.918804 5.50788L 4.59402 5.50788C 5.10139 5.50788 5.51283 5.0969 5.51283 4.5899L 5.51283 0.91798C 5.51283 0.41098 5.10139 5.49084e-07 4.59402 5.49084e-07ZM 3.67522 3.67192L 1.83761 3.67192L 1.83761 1.83596L 3.67522 1.83596L 3.67522 3.67192Z"/>
<path id="path7_fill" d="M 4.59402 5.49084e-07L 0.918806 5.49084e-07C 0.411442 5.49084e-07 1.25618e-06 0.41098 1.25618e-06 0.91798L 1.25618e-06 4.5899C 1.25618e-06 5.0969 0.411442 5.50788 0.918806 5.50788L 4.59402 5.50788C 5.10139 5.50788 5.51283 5.0969 5.51283 4.5899L 5.51283 0.91798C 5.51283 0.41098 5.10139 5.49084e-07 4.59402 5.49084e-07ZM 3.67522 3.67192L 1.83761 3.67192L 1.83761 1.83596L 3.67522 1.83596L 3.67522 3.67192Z"/>
<path id="path8_fill" d="M 4.59402 -1.51278e-07L 0.918804 -1.51278e-07C 0.411441 -1.51278e-07 0 0.410979 0 0.917979L 0 4.5899C 0 5.0969 0.411441 5.50788 0.918804 5.50788L 4.59402 5.50788C 5.10139 5.50788 5.51283 5.0969 5.51283 4.5899L 5.51283 0.917979C 5.51283 0.410979 5.10139 -1.51278e-07 4.59402 -1.51278e-07ZM 3.67522 3.67192L 1.83761 3.67192L 1.83761 1.83596L 3.67522 1.83596L 3.67522 3.67192Z"/>
<path id="path9_fill" d="M 24.8024 3.28022C 22.6852 1.16492 19.8702 -5.04261e-08 16.8761 -5.04261e-08C 13.8819 -5.04261e-08 11.067 1.16492 8.9498 3.28022C 6.8326 5.39552 5.66663 8.20793 5.66663 11.1994C 5.66663 12.828 6.01302 14.4034 6.66969 15.8423C 6.50807 15.7004 6.29647 15.6135 6.06411 15.6135L 0.918804 15.6135C 0.411441 15.6135 -2.24317e-08 16.0244 -2.24317e-08 16.5314L -2.24317e-08 21.6721C -2.24317e-08 22.1791 0.411441 22.5901 0.918804 22.5901L 6.06411 22.5901C 6.57147 22.5901 6.98291 22.1791 6.98291 21.6721L 6.98291 16.5314C 6.98291 16.5108 6.98117 16.4905 6.97979 16.4701C 7.49505 17.4329 8.15558 18.3248 8.95007 19.1186C 9.12951 19.2979 9.36464 19.3875 9.59976 19.3875C 9.83488 19.3875 10.07 19.2978 10.2494 19.1186C 10.6082 18.7601 10.6082 18.1788 10.2494 17.8204C 8.47928 16.0519 7.50443 13.7006 7.50443 11.1994C 7.50443 8.69832 8.47928 6.34709 10.2494 4.57852C 12.0195 2.80994 14.3729 1.83605 16.8763 1.83605C 19.3796 1.83605 21.733 2.81003 23.5031 4.57852C 26.3771 7.44995 27.0751 11.811 25.2397 15.4304C 25.0105 15.8826 25.1915 16.435 25.6441 16.6641C 26.0968 16.8931 26.6495 16.7124 26.879 16.2601C 29.0743 11.9306 28.2398 6.71447 24.8024 3.28022ZM 5.1453 20.7541L 1.83761 20.7541L 1.83761 17.4494L 5.1453 17.4494L 5.1453 20.7541Z"/>
<path id="path10_fill" d="M 6.56853 -8.51641e-07C 2.9466 -8.51641e-07 6.95384e-07 2.94405 6.95384e-07 6.56273C 6.95384e-07 10.1814 2.9466 13.1255 6.56853 13.1255C 10.1905 13.1255 13.1372 10.1814 13.1372 6.56273C 13.1372 2.94405 10.1905 -8.51641e-07 6.56853 -8.51641e-07ZM 6.56853 11.2895C 3.95986 11.2895 1.83761 9.16905 1.83761 6.56273C 1.83761 3.9564 3.95995 1.83596 6.56853 1.83596C 9.17729 1.83596 11.2995 3.9564 11.2995 6.56273C 11.2995 9.16905 9.1772 11.2895 6.56853 11.2895Z"/>
<path id="path11_fill" d="M 5.31308 2.19516C 4.80571 2.19516 4.39427 2.60614 4.39427 3.11314C 4.39427 3.81742 3.82085 4.39042 3.11594 4.39042C 2.41103 4.39042 1.83761 3.81742 1.83761 3.11314C 1.83761 2.40887 2.41103 1.83596 3.11594 1.83596C 3.6233 1.83596 4.03475 1.42498 4.03475 0.917979C 4.03475 0.410979 3.6233 -5.82702e-07 3.11594 -5.82702e-07C 1.39778 -5.82702e-07 3.14044e-07 1.39652 3.14044e-07 3.11314C 3.14044e-07 4.82976 1.39778 6.22638 3.11594 6.22638C 4.83411 6.22638 6.23188 4.82986 6.23188 3.11314C 6.23188 2.60614 5.82044 2.19516 5.31308 2.19516Z"/>
</defs>
</svg>
