<svg width="33" height="32" viewBox="0 0 33 32" version="1.1" xmlns="http://www.w3.org/2000/svg" xmlns:xlink="http://www.w3.org/1999/xlink">
<title>interaction</title>
<desc>Created using Figma</desc>
<g id="Canvas" transform="translate(3997 -641)">
<g id="interaction">
<g id="Group">
<g id="Group">
<g id="Vector">
<use xlink:href="#path0_fill" transform="translate(-3972.5 667.5)" fill="#59DEA9"/>
</g>
</g>
</g>
<g id="Group">
<g id="Group">
<g id="Vector">
<use xlink:href="#path1_fill" transform="translate(-3971.16 665.063)" fill="#59DEA9"/>
</g>
</g>
</g>
<g id="Group">
<g id="Group">
<g id="Vector">
<use xlink:href="#path2_fill" transform="translate(-3987.64 646.252)" fill="#59DEA9"/>
</g>
</g>
</g>
<g id="Group">
<g id="Group">
<g id="Vector">
<use xlink:href="#path3_fill" transform="translate(-3978.43 655.436)" fill="#59DEA9"/>
</g>
</g>
</g>
<g id="Group">
<g id="Group">
<g id="Vector">
<use xlink:href="#path4_fill" transform="translate(-3997 641)" fill="#59DEA9"/>
</g>
</g>
</g>
<g id="Group">
<g id="Group">
<g id="Vector">
<use xlink:href="#path5_fill" transform="translate(-3972.48 644.375)" fill="#59DEA9"/>
</g>
</g>
</g>
<g id="Group">
<g id="Group">
<g id="Vector">
<use xlink:href="#path6_fill" transform="translate(-3971.48 655.125)" fill="#59DEA9"/>
</g>
</g>
</g>
<g id="Group">
<g id="Group">
<g id="Vector">
<use xlink:href="#path7_fill" transform="translate(-3973.89 650.5)" fill="#59DEA9"/>
</g>
</g>
</g>
<g id="Group">
<g id="Group">
<g id="Vector">
<use xlink:href="#path8_fill" transform="translate(-3994.87 643.125)" fill="#59DEA9"/>
</g>
</g>
</g>
<g id="Group">
<g id="Group">
<g id="Vector">
<use xlink:href="#path9_fill" transform="translate(-3994.25 643.5)" fill="#59DEA9"/>
</g>
</g>
</g>
<g id="Group">
<g id="Group">
<g id="Vector">
<use xlink:href="#path10_fill" transform="translate(-3981.97 664.063)" fill="#59DEA9"/>
</g>
</g>
</g>
<g id="Group">
<g id="Group">
<g id="Vector">
<use xlink:href="#path11_fill" transform="translate(-3979.62 666.411)" fill="#59DEA9"/>
</g>
</g>
</g>
</g>
</g>
<defs>
<path id="path0_fill" d="M 1.96165 -5.79841e-07C 1.61621 -5.79841e-07 1.33608 0.279815 1.33608 0.625007L 1.33608 1.50164L 0.0470924 4.63643C -0.0842145 4.95575 0.0684876 5.32087 0.388028 5.45206C 0.465786 5.484 0.546296 5.49906 0.625493 5.49906C 0.871655 5.49906 1.10505 5.353 1.20439 5.11144L 2.5403 1.86252C 2.57126 1.78715 2.58722 1.70646 2.58722 1.62502L 2.58722 0.625007C 2.58722 0.279815 2.30709 -5.79841e-07 1.96165 -5.79841e-07Z"/>
<path id="path1_fill" d="M 1.06785 0.183128C 0.95149 0.0668766 0.790094 -5.79841e-07 0.62557 -5.79841e-07C 0.461045 -5.79841e-07 0.299648 0.0668766 0.183292 0.183128C 0.0669986 0.299379 6.10907e-07 0.46063 6.10907e-07 0.625007C 6.10907e-07 0.789384 0.066936 0.950636 0.183292 1.06689C 0.299648 1.18314 0.461045 1.25001 0.62557 1.25001C 0.790094 1.25001 0.95149 1.18314 1.06785 1.06689C 1.18414 0.950636 1.25114 0.789384 1.25114 0.625007C 1.25114 0.46063 1.1842 0.299379 1.06785 0.183128Z"/>
<path id="path2_fill" d="M 8.33259 1.4256C 6.43005 -0.475232 3.33442 -0.47517 1.43194 1.4256C 0.0327913 2.82356 -0.383463 4.90758 0.371662 6.73498C 0.471252 6.97604 0.70434 7.12167 0.950126 7.12167C 1.02964 7.12167 1.11052 7.10642 1.18859 7.07423C 1.50795 6.94254 1.65996 6.5771 1.52815 6.25803C 0.966577 4.89902 1.27617 3.34913 2.31668 2.30955C 3.73134 0.896159 6.03318 0.896096 7.44785 2.30955C 8.44913 3.30994 8.7768 4.81345 8.28285 6.13984C 8.16237 6.46335 8.32721 6.82323 8.651 6.94354C 8.97461 7.06386 9.33494 6.89929 9.45542 6.57573C 10.1197 4.79233 9.67887 2.77081 8.33259 1.4256Z"/>
<path id="path3_fill" d="M 1.08147 0.183096C 0.837183 -0.0610322 0.441136 -0.0610322 0.196789 0.183096L 0.183213 0.196659C -0.0610715 0.440724 -0.0610715 0.836478 0.183213 1.08061C 0.305387 1.20267 0.465471 1.26367 0.625554 1.26367C 0.785637 1.26367 0.945719 1.20267 1.06789 1.08061L 1.08147 1.06704C 1.32575 0.822978 1.32575 0.427223 1.08147 0.183096Z"/>
<path id="path4_fill" d="M 31.4036 1.62983e-12L 0.625569 1.62983e-12C 0.28013 1.62983e-12 0 0.279816 0 0.625007L 0 20.6252C 0 20.9704 0.28013 21.2502 0.625569 21.2502L 6.0303 21.2502C 5.81229 21.6262 5.69555 22.0541 5.69555 22.5003C 5.69555 23.1681 5.95585 23.7958 6.42847 24.2681L 13.9841 31.8169C 14.1063 31.939 14.2663 32 14.4264 32C 14.5865 32 14.7466 31.9389 14.8688 31.8169C 15.1131 31.5729 15.1131 31.1771 14.8688 30.9331L 13.1327 29.1985C 13.1366 29.1702 13.1394 29.1415 13.1394 29.1121L 13.1394 22.0315L 13.8275 22.0315C 14.173 22.0315 14.4531 21.7517 14.4531 21.4065C 14.4531 21.0613 14.173 20.7815 13.8275 20.7815L 13.1394 20.7815L 13.1394 18.4025L 13.8275 18.4025C 14.173 18.4025 14.4531 18.1227 14.4531 17.7775C 14.4531 17.4323 14.173 17.1525 13.8275 17.1525L 13.1394 17.1525L 13.1394 14.0314L 13.8275 14.0314C 14.173 14.0314 14.4531 13.7515 14.4531 13.4063C 14.4531 13.0612 14.173 12.7813 13.8275 12.7813L 13.1394 12.7813L 13.1394 11.1563C 13.1394 10.536 13.6445 10.0313 14.2654 10.0313C 14.8863 10.0313 15.3914 10.536 15.3914 11.1563L 15.3914 21.3439C 15.3914 21.3734 15.3942 21.4023 15.3981 21.4308C 15.411 21.7646 15.6852 22.0314 16.0224 22.0314C 16.3679 22.0314 16.648 21.7516 16.648 21.4064L 16.648 19.5159C 16.648 18.902 17.1479 18.4025 17.7623 18.4025C 18.3768 18.4025 18.8767 18.902 18.8767 19.5159L 18.8767 21.4064C 18.8767 21.7516 19.1568 22.0314 19.5022 22.0314C 19.8477 22.0314 20.1278 21.7516 20.1278 21.4064L 20.1278 20.1194C 20.1278 19.5055 20.6277 19.0061 21.2422 19.0061C 21.8566 19.0061 22.3565 19.5055 22.3565 20.1194L 22.3565 21.4065C 22.3565 21.7517 22.6366 22.0315 22.9821 22.0315C 23.3275 22.0315 23.6077 21.7517 23.6077 21.4065L 23.6077 20.9886C 23.6077 20.3747 24.1075 19.8752 24.722 19.8752C 25.3364 19.8752 25.8363 20.3747 25.8363 20.9886L 25.8363 22.5003C 25.8363 22.8455 26.1164 23.1253 26.4619 23.1253C 26.8073 23.1253 27.0874 22.8455 27.0874 22.5003L 27.0874 21.2502L 31.4036 21.2502C 31.749 21.2502 32.0291 20.9704 32.0291 20.6252L 32.0291 0.625007C 32.0291 0.279816 31.749 1.62983e-12 31.4036 1.62983e-12ZM 1.25114 8.1251L 2.50228 8.1251L 2.50228 9.37511L 1.25114 9.37511L 1.25114 8.1251ZM 11.8882 27.9552L 10.1819 26.2503L 10.6168 25.8158C 10.8611 25.5717 10.8611 25.176 10.6168 24.9319C 10.3726 24.6879 9.97657 24.6879 9.7321 24.9319L 9.29714 25.3664L 7.31315 23.3842C 7.07687 23.1481 6.94669 22.8342 6.94669 22.5003C 6.94669 22.1664 7.07687 21.8525 7.31315 21.6164C 7.80097 21.1291 8.59463 21.1291 9.08245 21.6164L 11.8882 24.4197L 11.8882 27.9552ZM 11.8882 22.6518L 10.4855 21.2502L 11.8882 21.2502L 11.8882 22.6518ZM 30.778 20.0002L 26.8701 20.0002C 26.4948 19.1894 25.6735 18.6252 24.7222 18.6252C 24.2137 18.6252 23.7425 18.7869 23.3564 19.0608C 22.967 18.2879 22.1659 17.7561 21.2424 17.7561C 20.6868 17.7561 20.1757 17.9489 19.7716 18.2705C 19.3537 17.6 18.6095 17.1526 17.7625 17.1526C 17.3575 17.1526 16.9762 17.2549 16.6426 17.4348L 16.6426 11.1564C 16.6426 9.8468 15.5762 8.78135 14.2655 8.78135C 12.9547 8.78135 11.8883 9.8468 11.8883 11.1564L 11.8883 20.0002L 1.25114 20.0002L 1.25114 10.6251L 3.12784 10.6251C 3.47328 10.6251 3.75341 10.3453 3.75341 10.0001L 3.75341 7.50009C 3.75341 7.1549 3.47328 6.87508 3.12784 6.87508L 1.25114 6.87508L 1.25114 1.25001L 30.778 1.25001L 30.778 20.0002Z"/>
<path id="path5_fill" d="M 4.12876 -1.02998e-07L 0.625569 -1.02998e-07C 0.28013 -1.02998e-07 0 0.279816 0 0.625007L 0 4.12505C 0 4.47024 0.28013 4.75006 0.625569 4.75006L 4.12876 4.75006C 4.47419 4.75006 4.75432 4.47024 4.75432 4.12505L 4.75432 0.625007C 4.75432 0.279816 4.47419 -1.02998e-07 4.12876 -1.02998e-07ZM 3.50319 3.50004L 1.25114 3.50004L 1.25114 1.25001L 3.50319 1.25001L 3.50319 3.50004Z"/>
<path id="path6_fill" d="M 3.12784 3.73845e-07L 0.625569 3.73845e-07C 0.28013 3.73845e-07 0 0.279816 0 0.625008L 0 3.12504C 0 3.47023 0.28013 3.75004 0.625569 3.75004L 3.12784 3.75004C 3.47328 3.75004 3.75341 3.47023 3.75341 3.12504L 3.75341 0.625008C 3.75341 0.279816 3.47328 3.73845e-07 3.12784 3.73845e-07ZM 2.50228 2.50003L 1.25114 2.50003L 1.25114 1.25002L 2.50228 1.25002L 2.50228 2.50003Z"/>
<path id="path7_fill" d="M 3.12785 3.73845e-07L 0.62557 3.73845e-07C 0.280131 3.73845e-07 8.5527e-07 0.279816 8.5527e-07 0.625008L 8.5527e-07 3.12504C 8.5527e-07 3.47023 0.280131 3.75004 0.62557 3.75004L 3.12785 3.75004C 3.47328 3.75004 3.75341 3.47023 3.75341 3.12504L 3.75341 0.625008C 3.75341 0.279816 3.47328 3.73845e-07 3.12785 3.73845e-07ZM 2.50228 2.50003L 1.25114 2.50003L 1.25114 1.25002L 2.50228 1.25002L 2.50228 2.50003Z"/>
<path id="path8_fill" d="M 3.12784 -1.02998e-07L 0.625569 -1.02998e-07C 0.28013 -1.02998e-07 0 0.279816 0 0.625007L 0 3.12504C 0 3.47023 0.28013 3.75004 0.625569 3.75004L 3.12784 3.75004C 3.47328 3.75004 3.75341 3.47023 3.75341 3.12504L 3.75341 0.625007C 3.75341 0.279816 3.47328 -1.02998e-07 3.12784 -1.02998e-07ZM 2.50228 2.50003L 1.25114 2.50003L 1.25114 1.25001L 2.50228 1.25001L 2.50228 2.50003Z"/>
<path id="path9_fill" d="M 16.8867 2.23334C 15.4452 0.793135 13.5287 -3.43327e-08 11.4901 -3.43327e-08C 9.45153 -3.43327e-08 7.53498 0.793135 6.09348 2.23334C 4.65198 3.67354 3.85813 5.58838 3.85813 7.62509C 3.85813 8.73398 4.09397 9.80655 4.54107 10.7863C 4.43103 10.6896 4.28696 10.6304 4.12875 10.6304L 0.625569 10.6304C 0.28013 10.6304 -1.52727e-08 10.9103 -1.52727e-08 11.2554L -1.52727e-08 14.7555C -1.52727e-08 15.1007 0.28013 15.3805 0.625569 15.3805L 4.12875 15.3805C 4.47419 15.3805 4.75432 15.1007 4.75432 14.7555L 4.75432 11.2554C 4.75432 11.2414 4.75313 11.2276 4.7522 11.2137C 5.10302 11.8692 5.55274 12.4765 6.09367 13.0169C 6.21584 13.139 6.37592 13.2 6.53601 13.2C 6.69609 13.2 6.85617 13.1389 6.97835 13.0169C 7.22263 12.7728 7.22263 12.3771 6.97835 12.133C 5.77312 10.9289 5.1094 9.32805 5.1094 7.62515C 5.1094 5.92226 5.77312 4.32143 6.97835 3.11729C 8.1835 1.91315 9.78584 1.25008 11.4903 1.25008C 13.1946 1.25008 14.797 1.91321 16.0021 3.11729C 17.9589 5.07231 18.4341 8.04153 17.1845 10.5058C 17.0284 10.8137 17.1517 11.1898 17.4598 11.3458C 17.768 11.5017 18.1444 11.3786 18.3006 11.0707C 19.7952 8.12297 19.2271 4.57155 16.8867 2.23334ZM 3.50319 14.1305L 1.25114 14.1305L 1.25114 11.8805L 3.50319 11.8805L 3.50319 14.1305Z"/>
<path id="path10_fill" d="M 4.47219 -5.79841e-07C 2.0062 -5.79841e-07 4.73453e-07 2.00446 4.73453e-07 4.46824C 4.73453e-07 6.93202 2.0062 8.93648 4.47219 8.93648C 6.93818 8.93648 8.94444 6.93202 8.94444 4.46824C 8.94444 2.00446 6.93818 -5.79841e-07 4.47219 -5.79841e-07ZM 4.47219 7.68646C 2.69608 7.68646 1.25114 6.24276 1.25114 4.46824C 1.25114 2.69372 2.69614 1.25001 4.47219 1.25001C 6.24837 1.25001 7.69331 2.69372 7.69331 4.46824C 7.69331 6.24276 6.24831 7.68646 4.47219 7.68646Z"/>
<path id="path11_fill" d="M 3.61741 1.49458C 3.27198 1.49458 2.99185 1.77439 2.99185 2.11959C 2.99185 2.59909 2.60143 2.98922 2.12149 2.98922C 1.64156 2.98922 1.25114 2.59909 1.25114 2.11959C 1.25114 1.64008 1.64156 1.25001 2.12149 1.25001C 2.46693 1.25001 2.74706 0.970198 2.74706 0.625007C 2.74706 0.279815 2.46693 -3.96733e-07 2.12149 -3.96733e-07C 0.951678 -3.96733e-07 2.13818e-07 0.950823 2.13818e-07 2.11959C 2.13818e-07 3.28835 0.951678 4.23924 2.12149 4.23924C 3.29131 4.23924 4.24298 3.28841 4.24298 2.11959C 4.24298 1.77439 3.96285 1.49458 3.61741 1.49458Z"/>
</defs>
</svg>
