<svg width="32" height="36" viewBox="0 0 32 36" version="1.1" xmlns="http://www.w3.org/2000/svg" xmlns:xlink="http://www.w3.org/1999/xlink">
<title>005-artificial-intelligence-20</title>
<desc>Created using Figma</desc>
<g id="Canvas" transform="translate(3683 -635)">
<g id="005-artificial-intelligence-20">
<g id="Group">
<g id="Group">
<g id="Group">
<g id="Vector">
<use xlink:href="#path0_fill" transform="translate(-3683 635)" fill="#59DEA9"/>
</g>
<g id="Vector">
<use xlink:href="#path1_fill" transform="translate(-3666.62 644.226)" fill="#59DEA9"/>
</g>
<g id="Vector">
<use xlink:href="#path2_fill" transform="translate(-3677.6 649.416)" fill="#59DEA9"/>
</g>
<g id="Vector">
<use xlink:href="#path3_fill" transform="translate(-3659.1 664.985)" fill="#59DEA9"/>
</g>
<g id="Vector">
<use xlink:href="#path3_fill" transform="translate(-3654.47 646.533)" fill="#59DEA9"/>
</g>
<g id="Vector">
<use xlink:href="#path4_fill" transform="matrix(0.501029 0.865448 -0.86675 0.498772 -3655 641.421)" fill="#59DEA9"/>
</g>
<g id="Vector">
<use xlink:href="#path5_fill" transform="matrix(-0.86675 -0.498772 0.501029 -0.865448 -3658.6 639.409)" fill="#59DEA9"/>
</g>
<g id="Vector">
<use xlink:href="#path3_fill" transform="translate(-3664.3 636.73)" fill="#59DEA9"/>
</g>
<g id="Vector">
<use xlink:href="#path6_fill" transform="matrix(-0.501029 -0.865448 0.86675 -0.498772 -3659.02 656.387)" fill="#59DEA9"/>
</g>
<g id="Vector">
<use xlink:href="#path7_fill" transform="matrix(-0.86675 -0.498772 0.501029 -0.865448 -3655 652.798)" fill="#59DEA9"/>
</g>
</g>
</g>
</g>
</g>
</g>
<defs>
<path id="path0_fill" d="M 28.5477 28.3956L 28.9462 29.9854L 27.3151 29.9854C 27.1538 29.1954 26.6627 28.5294 25.9976 28.1176L 29.6871 26.947L 29.6871 19.1999C 31.2383 17.0605 32.0862 14.4328 31.9931 11.6908C 31.7744 5.24456 26.196 0 19.5573 0L 15.6787 0C 13.6694 0 11.8128 0.403073 10.1604 1.19884C 5.79363 3.3007 3.08161 7.58861 3.08161 12.3891C 3.08161 13.8677 2.41763 15.2453 1.25971 16.1685L -4.08173e-08 17.173L 0.281092 17.6101C 2.21751 20.6213 3.65362 23.9041 4.54953 27.3668L 4.72999 28.0646C 5.04058 29.2657 5.81445 30.2408 6.85264 30.7402C 7.40094 31.0037 7.9961 31.1352 8.58836 31.1352C 9.23903 31.1352 9.8874 30.9772 10.4716 30.6618L 19.1455 25.9777C 20.6418 25.1693 22.2069 24.4179 23.7205 23.6913C 24.2034 23.4595 24.6864 23.2277 25.1682 22.9936C 26.4435 22.3743 27.5719 21.5451 28.5297 20.5671L 28.5297 26.1034L 16.9621 29.7732L 16.9621 28.8321L 15.8054 28.8321L 15.8054 35.7518L 31.5841 35.7518L 29.6697 28.1153L 28.5477 28.3956ZM 24.6621 21.9574C 24.182 22.1909 23.7003 22.4221 23.219 22.6534C 22.6823 22.9111 22.1352 23.1775 21.5903 23.4434L 21.5903 21.3357L 20.4336 21.3357L 20.4336 24.0183C 20.0461 24.2126 19.6609 24.4127 19.2768 24.6134L 19.2768 21.3357L 18.1201 21.3357L 18.1201 25.2212L 16.9633 25.8457L 16.9633 21.3357L 15.8065 21.3357L 15.8065 26.4702L 9.92094 29.6486C 9.13145 30.0748 8.17192 30.0949 7.35583 29.7022C 6.62476 29.3511 6.07588 28.6493 5.85031 27.7774L 5.66985 27.0797C 5.62185 26.894 5.56632 26.7106 5.51543 26.5261L 7.13026 26.5261L 7.13026 25.3728L 5.17592 25.3728C 4.29967 22.583 3.08218 19.9178 1.53271 17.4284L 1.98268 17.0692C 3.41649 15.9257 4.23836 14.22 4.23836 12.3891C 4.23836 8.03493 6.70053 4.1449 10.663 2.23737C 12.1575 1.51772 13.8452 1.15328 15.6787 1.15328L 15.806 1.15328L 15.806 4.82649C 13.0748 6.12567 11.1789 8.89701 11.1789 12.1095C 11.1789 16.5612 14.8111 20.1825 19.2762 20.1825C 23.7413 20.1825 27.3735 16.5612 27.3735 12.1095C 27.3735 7.6578 23.7413 4.03649 19.2762 4.03649C 18.4723 4.03649 17.6967 4.15759 16.9627 4.37671L 16.9627 1.15328L 19.5573 1.15328C 25.5794 1.15328 30.6391 5.89789 30.8375 11.7295C 30.9838 16.0497 28.5604 20.0642 24.6621 21.9574ZM 15.2131 15.345L 13.9812 16.5733C 12.9569 15.3669 12.3357 13.81 12.3357 12.1095C 12.3357 10.409 12.9569 8.85203 13.9812 7.64569L 15.2131 8.87394C 14.5 9.76254 14.0708 10.8858 14.0708 12.1095C 14.0708 13.3331 14.5 14.4564 15.2131 15.345ZM 16.0309 16.1604C 16.9216 16.8714 18.0489 17.2993 19.2762 17.2993C 20.5036 17.2993 21.6308 16.8714 22.5215 16.1604L 23.7535 17.3886C 22.5435 18.4099 20.9819 19.0292 19.2762 19.0292C 17.5706 19.0292 16.009 18.4099 14.799 17.3886L 16.0309 16.1604ZM 15.2276 12.1095C 15.2276 9.88364 17.0443 8.07298 19.2762 8.07298C 21.5082 8.07298 23.3249 9.88364 23.3249 12.1095C 23.3249 14.3353 21.5082 16.146 19.2762 16.146C 17.0443 16.146 15.2276 14.3353 15.2276 12.1095ZM 23.3393 15.345C 24.0525 14.4564 24.4816 13.3331 24.4816 12.1095C 24.4816 10.8858 24.0525 9.76254 23.3393 8.87394L 24.5713 7.64569C 25.5956 8.85203 26.2168 10.409 26.2168 12.1095C 26.2168 13.81 25.5956 15.3669 24.5713 16.5733L 23.3393 15.345ZM 22.5215 8.05857C 21.6308 7.34757 20.5036 6.9197 19.2762 6.9197C 18.0489 6.9197 16.9216 7.34757 16.0309 8.05857L 14.799 6.83032C 16.009 5.80909 17.5706 5.18978 19.2762 5.18978C 20.9819 5.18978 22.5435 5.80909 23.7535 6.83032L 22.5215 8.05857ZM 16.9627 30.9841L 21.8165 29.4439C 21.6707 29.7882 21.5898 30.1659 21.5898 30.562C 21.5898 31.4131 21.9686 32.1708 22.5585 32.699L 16.9627 34.3973L 16.9627 30.9841ZM 20.271 34.5985L 24.1543 33.4204L 24.152 33.4124C 24.2613 33.4245 24.3689 33.4452 24.4816 33.4452C 24.5534 33.4452 24.621 33.4291 24.6916 33.4239L 25.281 34.5985L 20.271 34.5985ZM 24.4816 32.2919C 23.525 32.2919 22.7465 31.5158 22.7465 30.562C 22.7465 29.6082 23.525 28.8321 24.4816 28.8321C 25.4383 28.8321 26.2168 29.6082 26.2168 30.562C 26.2168 31.5158 25.4383 32.2919 24.4816 32.2919ZM 26.5742 34.5985L 25.8229 33.101C 26.0635 32.9741 26.2879 32.8219 26.4828 32.635L 29.1093 34.5985L 26.5742 34.5985ZM 27.1433 31.6876C 27.218 31.5129 27.2758 31.3289 27.3151 31.1387L 29.2353 31.1387L 29.8872 33.7393L 27.1433 31.6876Z"/>
<path id="path1_fill" d="M 2.8919 5.76642C 4.48649 5.76642 5.7838 4.47301 5.7838 2.88321C 5.7838 1.29341 4.48649 0 2.8919 0C 1.29731 0 -4.14792e-07 1.29341 -4.14792e-07 2.88321C -4.14792e-07 4.47301 1.29731 5.76642 2.8919 5.76642ZM 2.8919 1.15328C 3.84854 1.15328 4.62704 1.92944 4.62704 2.88321C 4.62704 3.83697 3.84854 4.61313 2.8919 4.61313C 1.93526 4.61313 1.15676 3.83697 1.15676 2.88321C 1.15676 1.92944 1.93526 1.15328 2.8919 1.15328Z"/>
<path id="path2_fill" d="M 4.04866 0L 0 0L 0 1.15328L 4.04866 1.15328L 4.04866 0Z"/>
<path id="path3_fill" d="M 1.15676 0L 0 0L 0 1.15328L 1.15676 1.15328L 1.15676 0Z"/>
<path id="path4_fill" d="M 1.15415 0L 0 0L 0 1.15589L 1.15415 1.15589L 1.15415 0Z"/>
<path id="path5_fill" d="M 1.15589 0L 0 0L 0 1.15415L 1.15589 1.15415L 1.15589 0Z"/>
<path id="path6_fill" d="M 1.15415 0L 0 0L 0 1.15589L 1.15415 1.15589L 1.15415 0Z"/>
<path id="path7_fill" d="M 1.15589 0L 0 0L 0 1.15415L 1.15589 1.15415L 1.15589 0Z"/>
</defs>
</svg>
