<svg width="32" height="32" viewBox="0 0 32 32" version="1.1" xmlns="http://www.w3.org/2000/svg" xmlns:xlink="http://www.w3.org/1999/xlink">
<title>020-artificial-intelligence-7</title>
<desc>Created using Figma</desc>
<g id="Canvas" transform="translate(3995 -882)">
<g id="020-artificial-intelligence-7">
<g id="Group">
<g id="Group">
<g id="Group">
<g id="Vector">
<use xlink:href="#path0_fill" transform="translate(-3983.65 890.748)" fill="#59DEA9"/>
</g>
<g id="Vector">
<use xlink:href="#path1_fill" transform="translate(-3986.3 892.378)" fill="#59DEA9"/>
</g>
<g id="Vector">
<use xlink:href="#path2_fill" transform="translate(-3987.77 886.632)" fill="#59DEA9"/>
</g>
<g id="Vector">
<use xlink:href="#path3_fill" transform="translate(-3979.52 888.69)" fill="#59DEA9"/>
</g>
<g id="Vector">
<use xlink:href="#path4_fill" transform="matrix(0.70814 -0.706059 0.70814 0.706059 -3984.11 891.013)" fill="#59DEA9"/>
</g>
<g id="Vector">
<use xlink:href="#path3_fill" transform="translate(-3985.71 894.865)" fill="#59DEA9"/>
</g>
<g id="Vector">
<use xlink:href="#path5_fill" transform="matrix(-0.70814 0.706059 -0.70814 -0.706059 -3982.65 899.746)" fill="#59DEA9"/>
</g>
<g id="Vector">
<use xlink:href="#path3_fill" transform="translate(-3979.52 901.04)" fill="#59DEA9"/>
</g>
<g id="Vector">
<use xlink:href="#path6_fill" transform="matrix(-0.70814 0.706059 -0.70814 -0.706059 -3973.89 899.746)" fill="#59DEA9"/>
</g>
<g id="Vector">
<use xlink:href="#path3_fill" transform="translate(-3973.32 894.865)" fill="#59DEA9"/>
</g>
<g id="Vector">
<use xlink:href="#path7_fill" transform="matrix(0.70814 -0.706059 0.70814 0.706059 -3975.35 891.013)" fill="#59DEA9"/>
</g>
<g id="Vector">
<use xlink:href="#path8_fill" transform="translate(-3980.55 910.818)" fill="#59DEA9"/>
</g>
<g id="Vector">
<use xlink:href="#path8_fill" transform="translate(-3966.1 910.818)" fill="#59DEA9"/>
</g>
<g id="Vector">
<use xlink:href="#path8_fill" transform="translate(-3995 910.818)" fill="#59DEA9"/>
</g>
<g id="Vector">
<use xlink:href="#path8_fill" transform="translate(-3995 905.672)" fill="#59DEA9"/>
</g>
<g id="Vector">
<use xlink:href="#path9_fill" transform="translate(-3979.52 905.157)" fill="#59DEA9"/>
</g>
<g id="Vector">
<use xlink:href="#path10_fill" transform="translate(-3990.87 903.099)" fill="#59DEA9"/>
</g>
<g id="Vector">
<use xlink:href="#path11_fill" transform="translate(-3990.87 898.468)" fill="#59DEA9"/>
</g>
<g id="Vector">
<use xlink:href="#path8_fill" transform="translate(-3966.1 905.672)" fill="#59DEA9"/>
</g>
<g id="Vector">
<use xlink:href="#path12_fill" transform="translate(-3973.84 903.099)" fill="#59DEA9"/>
</g>
<g id="Vector">
<use xlink:href="#path13_fill" transform="translate(-3970.74 898.468)" fill="#59DEA9"/>
</g>
<g id="Vector">
<use xlink:href="#path14_fill" transform="translate(-3995 882)" fill="#59DEA9"/>
</g>
</g>
</g>
</g>
</g>
</g>
<defs>
<path id="path0_fill" d="M 4.64512 0C 2.08411 0 0 2.07747 0 4.63146C 0 7.18546 2.08411 9.26293 4.64512 9.26293C 7.20613 9.26293 9.29024 7.18546 9.29024 4.63146C 9.29024 2.07747 7.20613 0 4.64512 0ZM 4.64512 5.14607C 4.36073 5.14607 4.12899 4.91553 4.12899 4.63146C 4.12899 4.3474 4.36073 4.11686 4.64512 4.11686C 4.9295 4.11686 5.16124 4.3474 5.16124 4.63146C 5.16124 4.91553 4.9295 5.14607 4.64512 5.14607ZM 5.16124 8.19254L 5.16124 6.0806C 5.76046 5.86755 6.19349 5.30148 6.19349 4.63146C 6.19349 3.7803 5.49879 3.08764 4.64512 3.08764C 3.79145 3.08764 3.09675 3.7803 3.09675 4.63146C 3.09675 5.30148 3.52977 5.86755 4.12899 6.0806L 4.12899 8.19254C 2.38088 7.94142 1.03225 6.44237 1.03225 4.63146C 1.03225 2.6456 2.65288 1.02921 4.64512 1.02921C 6.63736 1.02921 8.25799 2.6456 8.25799 4.63146C 8.25799 6.44237 6.90936 7.94142 5.16124 8.19254Z"/>
<path id="path1_fill" d="M 13.4259 5.71883C 13.4739 5.61231 13.5188 5.50578 13.5601 5.39874L 16.0737 4.98191L 16.0737 1.02201L 13.5601 0.604663C 13.4817 0.402422 13.3914 0.200182 13.2902 -9.42274e-08L 12.3684 0.463146C 12.4964 0.715818 12.6038 0.972093 12.6868 1.22374L 12.7844 1.51861L 15.0414 1.89427L 15.0414 4.10965L 12.7844 4.4848L 12.6868 4.77967C 12.6038 5.0308 12.4964 5.28707 12.3684 5.54026L 12.228 5.81815L 13.5596 7.67639L 11.9885 9.24337L 10.1243 7.91569L 9.8461 8.05515C 9.59165 8.18277 9.33462 8.28981 9.08275 8.37266L 8.78701 8.46992L 8.41076 10.7208L 6.18833 10.7208L 5.81207 8.47043L 5.51634 8.37317C 5.26395 8.28981 5.00692 8.18328 4.7535 8.05566L 4.4748 7.9162L 2.61056 9.24389L 0.7298 7.36866L 1.81135e-07 8.09632L 2.49959 10.587L 4.57441 9.10958C 4.68125 9.15743 4.78808 9.20221 4.89492 9.24337L 5.31401 11.75L 9.28507 11.75L 9.70417 9.24337C 9.81101 9.20221 9.91836 9.15743 10.0252 9.10958L 12.1 10.587L 14.9082 7.78806L 13.4259 5.71883Z"/>
<path id="path2_fill" d="M 0 6.76811L 0 10.728L 2.51353 11.1454C 2.59198 11.3476 2.6823 11.5498 2.78346 11.75L 3.70526 11.2869C 3.57726 11.0342 3.4699 10.7779 3.38681 10.5263L 3.28926 10.2314L 1.03225 9.85576L 1.03225 7.64037L 3.28926 7.26522L 3.38681 6.97035C 3.4699 6.71923 3.57726 6.46295 3.70526 6.20976L 3.84564 5.93188L 2.51404 4.07363L 4.08512 2.50665L 5.94988 3.83434L 6.22859 3.69437C 6.47891 3.56829 6.73542 3.46176 6.9909 3.37737L 7.28664 3.28011L 7.6629 1.02921L 9.88533 1.02921L 10.2616 3.27959L 10.5573 3.37685C 10.8123 3.46073 11.0688 3.56726 11.3202 3.69385L 11.5989 3.83382L 13.4631 2.50614L 15.3439 4.38137L 16.0737 3.65371L 13.5741 1.16198L 11.4992 2.63993C 11.3924 2.59208 11.2856 2.54782 11.1782 2.50614L 10.7596 0L 6.78858 0L 6.36949 2.50614C 6.26214 2.54782 6.15478 2.59259 6.04846 2.63993L 3.97364 1.16198L 1.16541 3.96196L 2.64772 6.0312C 2.59972 6.13772 2.55482 6.24424 2.51353 6.35128L 0 6.76811Z"/>
<path id="path3_fill" d="M 1.03225 0L 0 0L 0 1.02921L 1.03225 1.02921L 1.03225 0Z"/>
<path id="path4_fill" d="M 1.03073 0L 0 0L 0 1.03073L 1.03073 1.03073L 1.03073 0Z"/>
<path id="path5_fill" d="M 1.03073 0L 0 0L 0 1.03073L 1.03073 1.03073L 1.03073 0Z"/>
<path id="path6_fill" d="M 1.03073 0L 0 0L 0 1.03073L 1.03073 1.03073L 1.03073 0Z"/>
<path id="path7_fill" d="M 1.03073 0L 0 0L 0 1.03073L 1.03073 1.03073L 1.03073 0Z"/>
<path id="path8_fill" d="M 1.54837 0C 0.694703 0 0 0.692661 0 1.54382C 0 2.39498 0.694703 3.08764 1.54837 3.08764C 2.40204 3.08764 3.09675 2.39498 3.09675 1.54382C 3.09675 0.692661 2.40204 0 1.54837 0ZM 1.54837 2.05843C 1.26399 2.05843 1.03225 1.82788 1.03225 1.54382C 1.03225 1.25976 1.26399 1.02921 1.54837 1.02921C 1.83276 1.02921 2.0645 1.25976 2.0645 1.54382C 2.0645 1.82788 1.83276 2.05843 1.54837 2.05843Z"/>
<path id="path9_fill" d="M 1.03225 0L 0 0L 0 4.63146L 1.03225 4.63146L 1.03225 0Z"/>
<path id="path10_fill" d="M 5.67737 6.17529C 5.67737 7.59406 4.5197 8.74832 3.09675 8.74832L 0 8.74832L 0 9.77754L 3.09675 9.77754C 5.08899 9.77754 6.70962 8.16115 6.70962 6.17529L 6.70962 0L 5.67737 0L 5.67737 6.17529Z"/>
<path id="path11_fill" d="M 2.58062 7.71911C 2.58062 8.00317 2.34888 8.23371 2.0645 8.23371L 0 8.23371L 0 9.26293L 2.0645 9.26293C 2.91817 9.26293 3.61287 8.57027 3.61287 7.71911L 3.61287 0L 2.58062 0L 2.58062 7.71911Z"/>
<path id="path12_fill" d="M 1.03225 6.17529L 1.03225 0L 0 0L 0 6.17529C 0 8.16115 1.62063 9.77754 3.61287 9.77754L 6.70962 9.77754L 6.70962 8.74832L 3.61287 8.74832C 2.18992 8.74832 1.03225 7.59406 1.03225 6.17529Z"/>
<path id="path13_fill" d="M 1.03225 7.71911L 1.03225 0L 0 0L 0 7.71911C 0 8.57027 0.694703 9.26293 1.54837 9.26293L 3.61287 9.26293L 3.61287 8.23371L 1.54837 8.23371C 1.26399 8.23371 1.03225 8.00317 1.03225 7.71911Z"/>
<path id="path14_fill" d="M 31.9997 11.3214C 31.9997 9.05143 30.1473 7.2045 27.8707 7.2045C 27.688 7.2045 27.5084 7.22045 27.3303 7.24361C 27.0908 4.91244 25.11 3.08764 22.7095 3.08764C 22.183 3.08764 21.6674 3.18027 21.1802 3.34958C 20.2759 1.32306 18.2708 0 15.9999 0C 13.7289 0 11.7243 1.32357 10.8195 3.34958C 10.3318 3.17976 9.81617 3.08764 9.29024 3.08764C 6.89077 3.08764 4.91092 4.9109 4.66989 7.24104C 4.49183 7.21685 4.31119 7.2045 4.12899 7.2045C 1.85237 7.2045 0 9.05143 0 11.3214C 0 13.5913 1.85237 15.4382 4.12899 15.4382L 6.19349 15.4382L 6.19349 14.409L 4.12899 14.409C 2.42114 14.409 1.03225 13.0242 1.03225 11.3214C 1.03225 9.61852 2.42114 8.23372 4.12899 8.23372C 5.22576 8.23372 6.21878 8.79412 6.78497 9.73277L 7.66961 9.20221C 7.20561 8.43235 6.50213 7.84519 5.68769 7.51224C 5.79607 5.6226 7.36819 4.11686 9.29024 4.11686C 10.1707 4.11686 11.0193 4.43643 11.6789 5.01639L 12.3612 4.24448C 12.1697 4.0762 11.9643 3.92697 11.7501 3.79368C 12.485 2.12224 14.1325 1.02921 15.9999 1.02921C 17.8682 1.02921 19.5162 2.12327 20.2501 3.79626C 19.8728 4.03092 19.5255 4.31653 19.2251 4.65565L 19.9988 5.33699C 20.6857 4.56148 21.6736 4.11686 22.7095 4.11686C 24.63 4.11686 26.2005 5.62003 26.3115 7.5076C 25.8212 7.70676 25.3696 8.00111 24.9809 8.38141L 25.7035 9.11627C 26.2857 8.5466 27.0552 8.23372 27.8707 8.23372C 29.5786 8.23372 30.9675 9.61852 30.9675 11.3214C 30.9675 13.0242 29.5786 14.409 27.8707 14.409L 25.8062 14.409L 25.8062 15.4382L 27.8707 15.4382C 30.1473 15.4382 31.9997 13.5913 31.9997 11.3214Z"/>
</defs>
</svg>
