<svg width="4" height="134" viewBox="0 0 4 134" version="1.1" xmlns="http://www.w3.org/2000/svg" xmlns:xlink="http://www.w3.org/1999/xlink">
<title>..................................</title>
<desc>Created using Figma</desc>
<g id="Canvas" transform="translate(2785 -9962)">
<g id="..................................">
<use xlink:href="#path0_fill" transform="matrix(6.12323e-17 1 -1 6.12323e-17 -2781.28 9962)" fill="#FFFFFF"/>
<use xlink:href="#path1_fill" transform="matrix(6.12323e-17 1 -1 6.12323e-17 -2781.28 9962)" fill="#FFFFFF"/>
<use xlink:href="#path2_fill" transform="matrix(6.12323e-17 1 -1 6.12323e-17 -2781.28 9962)" fill="#FFFFFF"/>
<use xlink:href="#path3_fill" transform="matrix(6.12323e-17 1 -1 6.12323e-17 -2781.28 9962)" fill="#FFFFFF"/>
<use xlink:href="#path4_fill" transform="matrix(6.12323e-17 1 -1 6.12323e-17 -2781.28 9962)" fill="#FFFFFF"/>
<use xlink:href="#path5_fill" transform="matrix(6.12323e-17 1 -1 6.12323e-17 -2781.28 9962)" fill="#FFFFFF"/>
<use xlink:href="#path6_fill" transform="matrix(6.12323e-17 1 -1 6.12323e-17 -2781.28 9962)" fill="#FFFFFF"/>
<use xlink:href="#path7_fill" transform="matrix(6.12323e-17 1 -1 6.12323e-17 -2781.28 9962)" fill="#FFFFFF"/>
<use xlink:href="#path8_fill" transform="matrix(6.12323e-17 1 -1 6.12323e-17 -2781.28 9962)" fill="#FFFFFF"/>
<use xlink:href="#path9_fill" transform="matrix(6.12323e-17 1 -1 6.12323e-17 -2781.28 9962)" fill="#FFFFFF"/>
<use xlink:href="#path10_fill" transform="matrix(6.12323e-17 1 -1 6.12323e-17 -2781.28 9962)" fill="#FFFFFF"/>
<use xlink:href="#path11_fill" transform="matrix(6.12323e-17 1 -1 6.12323e-17 -2781.28 9962)" fill="#FFFFFF"/>
<use xlink:href="#path12_fill" transform="matrix(6.12323e-17 1 -1 6.12323e-17 -2781.28 9962)" fill="#FFFFFF"/>
<use xlink:href="#path13_fill" transform="matrix(6.12323e-17 1 -1 6.12323e-17 -2781.28 9962)" fill="#FFFFFF"/>
<use xlink:href="#path14_fill" transform="matrix(6.12323e-17 1 -1 6.12323e-17 -2781.28 9962)" fill="#FFFFFF"/>
<use xlink:href="#path15_fill" transform="matrix(6.12323e-17 1 -1 6.12323e-17 -2781.28 9962)" fill="#FFFFFF"/>
</g>
</g>
<defs>
<path id="path0_fill" d="M 2.88 1.44C 2.88 1.86 2.736 2.202 2.448 2.466C 2.172 2.73 1.836 2.862 1.44 2.862C 1.032 2.862 0.69 2.73 0.414 2.466C 0.138 2.202 0 1.86 0 1.44C 0 1.02 0.138 0.678 0.414 0.414C 0.69 0.138 1.032 0 1.44 0C 1.836 0 2.172 0.138 2.448 0.414C 2.736 0.678 2.88 1.02 2.88 1.44Z"/>
<path id="path1_fill" d="M 11.6213 1.44C 11.6213 1.86 11.4773 2.202 11.1892 2.466C 10.9132 2.73 10.5772 2.862 10.1812 2.862C 9.77325 2.862 9.43125 2.73 9.15525 2.466C 8.87925 2.202 8.74125 1.86 8.74125 1.44C 8.74125 1.02 8.87925 0.678 9.15525 0.414C 9.43125 0.138 9.77325 0 10.1812 0C 10.5772 0 10.9132 0.138 11.1892 0.414C 11.4773 0.678 11.6213 1.02 11.6213 1.44Z"/>
<path id="path2_fill" d="M 20.3625 1.44C 20.3625 1.86 20.2185 2.202 19.9305 2.466C 19.6545 2.73 19.3185 2.862 18.9225 2.862C 18.5145 2.862 18.1725 2.73 17.8965 2.466C 17.6205 2.202 17.4825 1.86 17.4825 1.44C 17.4825 1.02 17.6205 0.678 17.8965 0.414C 18.1725 0.138 18.5145 0 18.9225 0C 19.3185 0 19.6545 0.138 19.9305 0.414C 20.2185 0.678 20.3625 1.02 20.3625 1.44Z"/>
<path id="path3_fill" d="M 29.1038 1.44C 29.1038 1.86 28.9598 2.202 28.6718 2.466C 28.3958 2.73 28.0598 2.862 27.6638 2.862C 27.2558 2.862 26.9137 2.73 26.6378 2.466C 26.3618 2.202 26.2238 1.86 26.2238 1.44C 26.2238 1.02 26.3618 0.678 26.6378 0.414C 26.9137 0.138 27.2558 0 27.6638 0C 28.0598 0 28.3958 0.138 28.6718 0.414C 28.9598 0.678 29.1038 1.02 29.1038 1.44Z"/>
<path id="path4_fill" d="M 37.845 1.44C 37.845 1.86 37.701 2.202 37.413 2.466C 37.137 2.73 36.801 2.862 36.405 2.862C 35.997 2.862 35.655 2.73 35.379 2.466C 35.103 2.202 34.965 1.86 34.965 1.44C 34.965 1.02 35.103 0.678 35.379 0.414C 35.655 0.138 35.997 0 36.405 0C 36.801 0 37.137 0.138 37.413 0.414C 37.701 0.678 37.845 1.02 37.845 1.44Z"/>
<path id="path5_fill" d="M 46.5863 1.44C 46.5863 1.86 46.4422 2.202 46.1543 2.466C 45.8783 2.73 45.5422 2.862 45.1462 2.862C 44.7382 2.862 44.3963 2.73 44.1203 2.466C 43.8442 2.202 43.7062 1.86 43.7062 1.44C 43.7062 1.02 43.8442 0.678 44.1203 0.414C 44.3963 0.138 44.7382 0 45.1462 0C 45.5422 0 45.8783 0.138 46.1543 0.414C 46.4422 0.678 46.5863 1.02 46.5863 1.44Z"/>
<path id="path6_fill" d="M 55.3275 1.44C 55.3275 1.86 55.1835 2.202 54.8955 2.466C 54.6195 2.73 54.2835 2.862 53.8875 2.862C 53.4795 2.862 53.1375 2.73 52.8615 2.466C 52.5855 2.202 52.4475 1.86 52.4475 1.44C 52.4475 1.02 52.5855 0.678 52.8615 0.414C 53.1375 0.138 53.4795 0 53.8875 0C 54.2835 0 54.6195 0.138 54.8955 0.414C 55.1835 0.678 55.3275 1.02 55.3275 1.44Z"/>
<path id="path7_fill" d="M 64.0687 1.44C 64.0687 1.86 63.9248 2.202 63.6368 2.466C 63.3608 2.73 63.0247 2.862 62.6287 2.862C 62.2207 2.862 61.8788 2.73 61.6028 2.466C 61.3268 2.202 61.1888 1.86 61.1888 1.44C 61.1888 1.02 61.3268 0.678 61.6028 0.414C 61.8788 0.138 62.2207 0 62.6287 0C 63.0247 0 63.3608 0.138 63.6368 0.414C 63.9248 0.678 64.0687 1.02 64.0687 1.44Z"/>
<path id="path8_fill" d="M 72.81 1.44C 72.81 1.86 72.666 2.202 72.378 2.466C 72.102 2.73 71.766 2.862 71.37 2.862C 70.962 2.862 70.62 2.73 70.344 2.466C 70.068 2.202 69.93 1.86 69.93 1.44C 69.93 1.02 70.068 0.678 70.344 0.414C 70.62 0.138 70.962 0 71.37 0C 71.766 0 72.102 0.138 72.378 0.414C 72.666 0.678 72.81 1.02 72.81 1.44Z"/>
<path id="path9_fill" d="M 81.5512 1.44C 81.5512 1.86 81.4072 2.202 81.1192 2.466C 80.8432 2.73 80.5073 2.862 80.1113 2.862C 79.7033 2.862 79.3613 2.73 79.0853 2.466C 78.8092 2.202 78.6712 1.86 78.6712 1.44C 78.6712 1.02 78.8092 0.678 79.0853 0.414C 79.3613 0.138 79.7033 0 80.1113 0C 80.5073 0 80.8432 0.138 81.1192 0.414C 81.4072 0.678 81.5512 1.02 81.5512 1.44Z"/>
<path id="path10_fill" d="M 90.2925 1.44C 90.2925 1.86 90.1485 2.202 89.8605 2.466C 89.5845 2.73 89.2485 2.862 88.8525 2.862C 88.4445 2.862 88.1025 2.73 87.8265 2.466C 87.5505 2.202 87.4125 1.86 87.4125 1.44C 87.4125 1.02 87.5505 0.678 87.8265 0.414C 88.1025 0.138 88.4445 0 88.8525 0C 89.2485 0 89.5845 0.138 89.8605 0.414C 90.1485 0.678 90.2925 1.02 90.2925 1.44Z"/>
<path id="path11_fill" d="M 99.0337 1.44C 99.0337 1.86 98.8897 2.202 98.6017 2.466C 98.3257 2.73 97.9898 2.862 97.5938 2.862C 97.1858 2.862 96.8438 2.73 96.5677 2.466C 96.2917 2.202 96.1537 1.86 96.1537 1.44C 96.1537 1.02 96.2917 0.678 96.5677 0.414C 96.8438 0.138 97.1858 0 97.5938 0C 97.9898 0 98.3257 0.138 98.6017 0.414C 98.8897 0.678 99.0337 1.02 99.0337 1.44Z"/>
<path id="path12_fill" d="M 107.775 1.44C 107.775 1.86 107.631 2.202 107.343 2.466C 107.067 2.73 106.731 2.862 106.335 2.862C 105.927 2.862 105.585 2.73 105.309 2.466C 105.033 2.202 104.895 1.86 104.895 1.44C 104.895 1.02 105.033 0.678 105.309 0.414C 105.585 0.138 105.927 0 106.335 0C 106.731 0 107.067 0.138 107.343 0.414C 107.631 0.678 107.775 1.02 107.775 1.44Z"/>
<path id="path13_fill" d="M 116.516 1.44C 116.516 1.86 116.372 2.202 116.084 2.466C 115.808 2.73 115.472 2.862 115.076 2.862C 114.668 2.862 114.326 2.73 114.05 2.466C 113.774 2.202 113.636 1.86 113.636 1.44C 113.636 1.02 113.774 0.678 114.05 0.414C 114.326 0.138 114.668 0 115.076 0C 115.472 0 115.808 0.138 116.084 0.414C 116.372 0.678 116.516 1.02 116.516 1.44Z"/>
<path id="path14_fill" d="M 125.257 1.44C 125.257 1.86 125.114 2.202 124.826 2.466C 124.549 2.73 124.214 2.862 123.818 2.862C 123.41 2.862 123.068 2.73 122.792 2.466C 122.516 2.202 122.378 1.86 122.378 1.44C 122.378 1.02 122.516 0.678 122.792 0.414C 123.068 0.138 123.41 0 123.818 0C 124.214 0 124.549 0.138 124.826 0.414C 125.114 0.678 125.257 1.02 125.257 1.44Z"/>
<path id="path15_fill" d="M 133.999 1.44C 133.999 1.86 133.855 2.202 133.567 2.466C 133.291 2.73 132.955 2.862 132.559 2.862C 132.151 2.862 131.809 2.73 131.533 2.466C 131.257 2.202 131.119 1.86 131.119 1.44C 131.119 1.02 131.257 0.678 131.533 0.414C 131.809 0.138 132.151 0 132.559 0C 132.955 0 133.291 0.138 133.567 0.414C 133.855 0.678 133.999 1.02 133.999 1.44Z"/>
</defs>
</svg>
