<svg width="293" height="4" viewBox="0 0 293 4" version="1.1" xmlns="http://www.w3.org/2000/svg" xmlns:xlink="http://www.w3.org/1999/xlink">
<title>..................................</title>
<desc>Created using Figma</desc>
<g id="Canvas" transform="translate(3823 -8555)">
<g id="..................................">
<use xlink:href="#path0_fill" transform="translate(-3822.05 8555.37)" fill="#FFFFFF"/>
<use xlink:href="#path1_fill" transform="translate(-3822.05 8555.37)" fill="#FFFFFF"/>
<use xlink:href="#path2_fill" transform="translate(-3822.05 8555.37)" fill="#FFFFFF"/>
<use xlink:href="#path3_fill" transform="translate(-3822.05 8555.37)" fill="#FFFFFF"/>
<use xlink:href="#path4_fill" transform="translate(-3822.05 8555.37)" fill="#FFFFFF"/>
<use xlink:href="#path5_fill" transform="translate(-3822.05 8555.37)" fill="#FFFFFF"/>
<use xlink:href="#path6_fill" transform="translate(-3822.05 8555.37)" fill="#FFFFFF"/>
<use xlink:href="#path7_fill" transform="translate(-3822.05 8555.37)" fill="#FFFFFF"/>
<use xlink:href="#path8_fill" transform="translate(-3822.05 8555.37)" fill="#FFFFFF"/>
<use xlink:href="#path9_fill" transform="translate(-3822.05 8555.37)" fill="#FFFFFF"/>
<use xlink:href="#path10_fill" transform="translate(-3822.05 8555.37)" fill="#FFFFFF"/>
<use xlink:href="#path11_fill" transform="translate(-3822.05 8555.37)" fill="#FFFFFF"/>
<use xlink:href="#path12_fill" transform="translate(-3822.05 8555.37)" fill="#FFFFFF"/>
<use xlink:href="#path13_fill" transform="translate(-3822.05 8555.37)" fill="#FFFFFF"/>
<use xlink:href="#path14_fill" transform="translate(-3822.05 8555.37)" fill="#FFFFFF"/>
<use xlink:href="#path15_fill" transform="translate(-3822.05 8555.37)" fill="#FFFFFF"/>
<use xlink:href="#path16_fill" transform="translate(-3822.05 8555.37)" fill="#FFFFFF"/>
<use xlink:href="#path17_fill" transform="translate(-3822.05 8555.37)" fill="#FFFFFF"/>
<use xlink:href="#path18_fill" transform="translate(-3822.05 8555.37)" fill="#FFFFFF"/>
<use xlink:href="#path19_fill" transform="translate(-3822.05 8555.37)" fill="#FFFFFF"/>
<use xlink:href="#path20_fill" transform="translate(-3822.05 8555.37)" fill="#FFFFFF"/>
<use xlink:href="#path21_fill" transform="translate(-3822.05 8555.37)" fill="#FFFFFF"/>
<use xlink:href="#path22_fill" transform="translate(-3822.05 8555.37)" fill="#FFFFFF"/>
<use xlink:href="#path23_fill" transform="translate(-3822.05 8555.37)" fill="#FFFFFF"/>
<use xlink:href="#path24_fill" transform="translate(-3822.05 8555.37)" fill="#FFFFFF"/>
<use xlink:href="#path25_fill" transform="translate(-3822.05 8555.37)" fill="#FFFFFF"/>
<use xlink:href="#path26_fill" transform="translate(-3822.05 8555.37)" fill="#FFFFFF"/>
<use xlink:href="#path27_fill" transform="translate(-3822.05 8555.37)" fill="#FFFFFF"/>
<use xlink:href="#path28_fill" transform="translate(-3822.05 8555.37)" fill="#FFFFFF"/>
<use xlink:href="#path29_fill" transform="translate(-3822.05 8555.37)" fill="#FFFFFF"/>
<use xlink:href="#path30_fill" transform="translate(-3822.05 8555.37)" fill="#FFFFFF"/>
<use xlink:href="#path31_fill" transform="translate(-3822.05 8555.37)" fill="#FFFFFF"/>
<use xlink:href="#path32_fill" transform="translate(-3822.05 8555.37)" fill="#FFFFFF"/>
<use xlink:href="#path33_fill" transform="translate(-3822.05 8555.37)" fill="#FFFFFF"/>
</g>
</g>
<defs>
<path id="path0_fill" d="M 2.88 1.44C 2.88 1.86 2.736 2.202 2.448 2.466C 2.172 2.73 1.836 2.862 1.44 2.862C 1.032 2.862 0.69 2.73 0.414 2.466C 0.138 2.202 0 1.86 0 1.44C 0 1.02 0.138 0.678 0.414 0.414C 0.69 0.138 1.032 0 1.44 0C 1.836 0 2.172 0.138 2.448 0.414C 2.736 0.678 2.88 1.02 2.88 1.44Z"/>
<path id="path1_fill" d="M 11.6213 1.44C 11.6213 1.86 11.4773 2.202 11.1892 2.466C 10.9132 2.73 10.5772 2.862 10.1812 2.862C 9.77325 2.862 9.43125 2.73 9.15525 2.466C 8.87925 2.202 8.74125 1.86 8.74125 1.44C 8.74125 1.02 8.87925 0.678 9.15525 0.414C 9.43125 0.138 9.77325 0 10.1812 0C 10.5772 0 10.9132 0.138 11.1892 0.414C 11.4773 0.678 11.6213 1.02 11.6213 1.44Z"/>
<path id="path2_fill" d="M 20.3625 1.44C 20.3625 1.86 20.2185 2.202 19.9305 2.466C 19.6545 2.73 19.3185 2.862 18.9225 2.862C 18.5145 2.862 18.1725 2.73 17.8965 2.466C 17.6205 2.202 17.4825 1.86 17.4825 1.44C 17.4825 1.02 17.6205 0.678 17.8965 0.414C 18.1725 0.138 18.5145 0 18.9225 0C 19.3185 0 19.6545 0.138 19.9305 0.414C 20.2185 0.678 20.3625 1.02 20.3625 1.44Z"/>
<path id="path3_fill" d="M 29.1038 1.44C 29.1038 1.86 28.9598 2.202 28.6718 2.466C 28.3958 2.73 28.0598 2.862 27.6638 2.862C 27.2558 2.862 26.9137 2.73 26.6378 2.466C 26.3618 2.202 26.2238 1.86 26.2238 1.44C 26.2238 1.02 26.3618 0.678 26.6378 0.414C 26.9137 0.138 27.2558 0 27.6638 0C 28.0598 0 28.3958 0.138 28.6718 0.414C 28.9598 0.678 29.1038 1.02 29.1038 1.44Z"/>
<path id="path4_fill" d="M 37.845 1.44C 37.845 1.86 37.701 2.202 37.413 2.466C 37.137 2.73 36.801 2.862 36.405 2.862C 35.997 2.862 35.655 2.73 35.379 2.466C 35.103 2.202 34.965 1.86 34.965 1.44C 34.965 1.02 35.103 0.678 35.379 0.414C 35.655 0.138 35.997 0 36.405 0C 36.801 0 37.137 0.138 37.413 0.414C 37.701 0.678 37.845 1.02 37.845 1.44Z"/>
<path id="path5_fill" d="M 46.5863 1.44C 46.5863 1.86 46.4422 2.202 46.1543 2.466C 45.8783 2.73 45.5422 2.862 45.1462 2.862C 44.7382 2.862 44.3963 2.73 44.1203 2.466C 43.8442 2.202 43.7062 1.86 43.7062 1.44C 43.7062 1.02 43.8442 0.678 44.1203 0.414C 44.3963 0.138 44.7382 0 45.1462 0C 45.5422 0 45.8783 0.138 46.1543 0.414C 46.4422 0.678 46.5863 1.02 46.5863 1.44Z"/>
<path id="path6_fill" d="M 55.3275 1.44C 55.3275 1.86 55.1835 2.202 54.8955 2.466C 54.6195 2.73 54.2835 2.862 53.8875 2.862C 53.4795 2.862 53.1375 2.73 52.8615 2.466C 52.5855 2.202 52.4475 1.86 52.4475 1.44C 52.4475 1.02 52.5855 0.678 52.8615 0.414C 53.1375 0.138 53.4795 0 53.8875 0C 54.2835 0 54.6195 0.138 54.8955 0.414C 55.1835 0.678 55.3275 1.02 55.3275 1.44Z"/>
<path id="path7_fill" d="M 64.0687 1.44C 64.0687 1.86 63.9248 2.202 63.6368 2.466C 63.3608 2.73 63.0247 2.862 62.6287 2.862C 62.2207 2.862 61.8788 2.73 61.6028 2.466C 61.3268 2.202 61.1888 1.86 61.1888 1.44C 61.1888 1.02 61.3268 0.678 61.6028 0.414C 61.8788 0.138 62.2207 0 62.6287 0C 63.0247 0 63.3608 0.138 63.6368 0.414C 63.9248 0.678 64.0687 1.02 64.0687 1.44Z"/>
<path id="path8_fill" d="M 72.81 1.44C 72.81 1.86 72.666 2.202 72.378 2.466C 72.102 2.73 71.766 2.862 71.37 2.862C 70.962 2.862 70.62 2.73 70.344 2.466C 70.068 2.202 69.93 1.86 69.93 1.44C 69.93 1.02 70.068 0.678 70.344 0.414C 70.62 0.138 70.962 0 71.37 0C 71.766 0 72.102 0.138 72.378 0.414C 72.666 0.678 72.81 1.02 72.81 1.44Z"/>
<path id="path9_fill" d="M 81.5512 1.44C 81.5512 1.86 81.4072 2.202 81.1192 2.466C 80.8432 2.73 80.5073 2.862 80.1113 2.862C 79.7033 2.862 79.3613 2.73 79.0853 2.466C 78.8092 2.202 78.6712 1.86 78.6712 1.44C 78.6712 1.02 78.8092 0.678 79.0853 0.414C 79.3613 0.138 79.7033 0 80.1113 0C 80.5073 0 80.8432 0.138 81.1192 0.414C 81.4072 0.678 81.5512 1.02 81.5512 1.44Z"/>
<path id="path10_fill" d="M 90.2925 1.44C 90.2925 1.86 90.1485 2.202 89.8605 2.466C 89.5845 2.73 89.2485 2.862 88.8525 2.862C 88.4445 2.862 88.1025 2.73 87.8265 2.466C 87.5505 2.202 87.4125 1.86 87.4125 1.44C 87.4125 1.02 87.5505 0.678 87.8265 0.414C 88.1025 0.138 88.4445 0 88.8525 0C 89.2485 0 89.5845 0.138 89.8605 0.414C 90.1485 0.678 90.2925 1.02 90.2925 1.44Z"/>
<path id="path11_fill" d="M 99.0337 1.44C 99.0337 1.86 98.8897 2.202 98.6017 2.466C 98.3257 2.73 97.9898 2.862 97.5938 2.862C 97.1858 2.862 96.8438 2.73 96.5677 2.466C 96.2917 2.202 96.1537 1.86 96.1537 1.44C 96.1537 1.02 96.2917 0.678 96.5677 0.414C 96.8438 0.138 97.1858 0 97.5938 0C 97.9898 0 98.3257 0.138 98.6017 0.414C 98.8897 0.678 99.0337 1.02 99.0337 1.44Z"/>
<path id="path12_fill" d="M 107.775 1.44C 107.775 1.86 107.631 2.202 107.343 2.466C 107.067 2.73 106.731 2.862 106.335 2.862C 105.927 2.862 105.585 2.73 105.309 2.466C 105.033 2.202 104.895 1.86 104.895 1.44C 104.895 1.02 105.033 0.678 105.309 0.414C 105.585 0.138 105.927 0 106.335 0C 106.731 0 107.067 0.138 107.343 0.414C 107.631 0.678 107.775 1.02 107.775 1.44Z"/>
<path id="path13_fill" d="M 116.516 1.44C 116.516 1.86 116.372 2.202 116.084 2.466C 115.808 2.73 115.472 2.862 115.076 2.862C 114.668 2.862 114.326 2.73 114.05 2.466C 113.774 2.202 113.636 1.86 113.636 1.44C 113.636 1.02 113.774 0.678 114.05 0.414C 114.326 0.138 114.668 0 115.076 0C 115.472 0 115.808 0.138 116.084 0.414C 116.372 0.678 116.516 1.02 116.516 1.44Z"/>
<path id="path14_fill" d="M 125.257 1.44C 125.257 1.86 125.114 2.202 124.826 2.466C 124.549 2.73 124.214 2.862 123.818 2.862C 123.41 2.862 123.068 2.73 122.792 2.466C 122.516 2.202 122.378 1.86 122.378 1.44C 122.378 1.02 122.516 0.678 122.792 0.414C 123.068 0.138 123.41 0 123.818 0C 124.214 0 124.549 0.138 124.826 0.414C 125.114 0.678 125.257 1.02 125.257 1.44Z"/>
<path id="path15_fill" d="M 133.999 1.44C 133.999 1.86 133.855 2.202 133.567 2.466C 133.291 2.73 132.955 2.862 132.559 2.862C 132.151 2.862 131.809 2.73 131.533 2.466C 131.257 2.202 131.119 1.86 131.119 1.44C 131.119 1.02 131.257 0.678 131.533 0.414C 131.809 0.138 132.151 0 132.559 0C 132.955 0 133.291 0.138 133.567 0.414C 133.855 0.678 133.999 1.02 133.999 1.44Z"/>
<path id="path16_fill" d="M 142.74 1.44C 142.74 1.86 142.596 2.202 142.308 2.466C 142.032 2.73 141.696 2.862 141.3 2.862C 140.892 2.862 140.55 2.73 140.274 2.466C 139.998 2.202 139.86 1.86 139.86 1.44C 139.86 1.02 139.998 0.678 140.274 0.414C 140.55 0.138 140.892 0 141.3 0C 141.696 0 142.032 0.138 142.308 0.414C 142.596 0.678 142.74 1.02 142.74 1.44Z"/>
<path id="path17_fill" d="M 151.481 1.44C 151.481 1.86 151.337 2.202 151.049 2.466C 150.773 2.73 150.437 2.862 150.041 2.862C 149.633 2.862 149.291 2.73 149.015 2.466C 148.739 2.202 148.601 1.86 148.601 1.44C 148.601 1.02 148.739 0.678 149.015 0.414C 149.291 0.138 149.633 0 150.041 0C 150.437 0 150.773 0.138 151.049 0.414C 151.337 0.678 151.481 1.02 151.481 1.44Z"/>
<path id="path18_fill" d="M 160.223 1.44C 160.223 1.86 160.078 2.202 159.79 2.466C 159.514 2.73 159.178 2.862 158.783 2.862C 158.374 2.862 158.033 2.73 157.757 2.466C 157.48 2.202 157.342 1.86 157.342 1.44C 157.342 1.02 157.48 0.678 157.757 0.414C 158.033 0.138 158.374 0 158.783 0C 159.178 0 159.514 0.138 159.79 0.414C 160.078 0.678 160.223 1.02 160.223 1.44Z"/>
<path id="path19_fill" d="M 168.964 1.44C 168.964 1.86 168.82 2.202 168.532 2.466C 168.256 2.73 167.92 2.862 167.524 2.862C 167.116 2.862 166.774 2.73 166.498 2.466C 166.222 2.202 166.084 1.86 166.084 1.44C 166.084 1.02 166.222 0.678 166.498 0.414C 166.774 0.138 167.116 0 167.524 0C 167.92 0 168.256 0.138 168.532 0.414C 168.82 0.678 168.964 1.02 168.964 1.44Z"/>
<path id="path20_fill" d="M 177.705 1.44C 177.705 1.86 177.561 2.202 177.273 2.466C 176.997 2.73 176.661 2.862 176.265 2.862C 175.857 2.862 175.515 2.73 175.239 2.466C 174.963 2.202 174.825 1.86 174.825 1.44C 174.825 1.02 174.963 0.678 175.239 0.414C 175.515 0.138 175.857 0 176.265 0C 176.661 0 176.997 0.138 177.273 0.414C 177.561 0.678 177.705 1.02 177.705 1.44Z"/>
<path id="path21_fill" d="M 186.446 1.44C 186.446 1.86 186.302 2.202 186.014 2.466C 185.738 2.73 185.402 2.862 185.006 2.862C 184.598 2.862 184.256 2.73 183.98 2.466C 183.704 2.202 183.566 1.86 183.566 1.44C 183.566 1.02 183.704 0.678 183.98 0.414C 184.256 0.138 184.598 0 185.006 0C 185.402 0 185.738 0.138 186.014 0.414C 186.302 0.678 186.446 1.02 186.446 1.44Z"/>
<path id="path22_fill" d="M 195.188 1.44C 195.188 1.86 195.043 2.202 194.755 2.466C 194.479 2.73 194.143 2.862 193.747 2.862C 193.339 2.862 192.997 2.73 192.721 2.466C 192.445 2.202 192.307 1.86 192.307 1.44C 192.307 1.02 192.445 0.678 192.721 0.414C 192.997 0.138 193.339 0 193.747 0C 194.143 0 194.479 0.138 194.755 0.414C 195.043 0.678 195.188 1.02 195.188 1.44Z"/>
<path id="path23_fill" d="M 203.929 1.44C 203.929 1.86 203.785 2.202 203.497 2.466C 203.221 2.73 202.885 2.862 202.489 2.862C 202.081 2.862 201.739 2.73 201.463 2.466C 201.187 2.202 201.049 1.86 201.049 1.44C 201.049 1.02 201.187 0.678 201.463 0.414C 201.739 0.138 202.081 0 202.489 0C 202.885 0 203.221 0.138 203.497 0.414C 203.785 0.678 203.929 1.02 203.929 1.44Z"/>
<path id="path24_fill" d="M 212.67 1.44C 212.67 1.86 212.526 2.202 212.238 2.466C 211.962 2.73 211.626 2.862 211.23 2.862C 210.822 2.862 210.48 2.73 210.204 2.466C 209.928 2.202 209.79 1.86 209.79 1.44C 209.79 1.02 209.928 0.678 210.204 0.414C 210.48 0.138 210.822 0 211.23 0C 211.626 0 211.962 0.138 212.238 0.414C 212.526 0.678 212.67 1.02 212.67 1.44Z"/>
<path id="path25_fill" d="M 221.411 1.44C 221.411 1.86 221.267 2.202 220.979 2.466C 220.703 2.73 220.367 2.862 219.971 2.862C 219.563 2.862 219.221 2.73 218.945 2.466C 218.669 2.202 218.531 1.86 218.531 1.44C 218.531 1.02 218.669 0.678 218.945 0.414C 219.221 0.138 219.563 0 219.971 0C 220.367 0 220.703 0.138 220.979 0.414C 221.267 0.678 221.411 1.02 221.411 1.44Z"/>
<path id="path26_fill" d="M 230.153 1.44C 230.153 1.86 230.008 2.202 229.721 2.466C 229.445 2.73 229.109 2.862 228.713 2.862C 228.305 2.862 227.963 2.73 227.687 2.466C 227.411 2.202 227.273 1.86 227.273 1.44C 227.273 1.02 227.411 0.678 227.687 0.414C 227.963 0.138 228.305 0 228.713 0C 229.109 0 229.445 0.138 229.721 0.414C 230.008 0.678 230.153 1.02 230.153 1.44Z"/>
<path id="path27_fill" d="M 238.894 1.44C 238.894 1.86 238.75 2.202 238.462 2.466C 238.186 2.73 237.85 2.862 237.454 2.862C 237.046 2.862 236.704 2.73 236.428 2.466C 236.152 2.202 236.014 1.86 236.014 1.44C 236.014 1.02 236.152 0.678 236.428 0.414C 236.704 0.138 237.046 0 237.454 0C 237.85 0 238.186 0.138 238.462 0.414C 238.75 0.678 238.894 1.02 238.894 1.44Z"/>
<path id="path28_fill" d="M 247.635 1.44C 247.635 1.86 247.491 2.202 247.203 2.466C 246.927 2.73 246.591 2.862 246.195 2.862C 245.787 2.862 245.445 2.73 245.169 2.466C 244.893 2.202 244.755 1.86 244.755 1.44C 244.755 1.02 244.893 0.678 245.169 0.414C 245.445 0.138 245.787 0 246.195 0C 246.591 0 246.927 0.138 247.203 0.414C 247.491 0.678 247.635 1.02 247.635 1.44Z"/>
<path id="path29_fill" d="M 256.376 1.44C 256.376 1.86 256.232 2.202 255.944 2.466C 255.668 2.73 255.332 2.862 254.936 2.862C 254.528 2.862 254.186 2.73 253.91 2.466C 253.634 2.202 253.496 1.86 253.496 1.44C 253.496 1.02 253.634 0.678 253.91 0.414C 254.186 0.138 254.528 0 254.936 0C 255.332 0 255.668 0.138 255.944 0.414C 256.232 0.678 256.376 1.02 256.376 1.44Z"/>
<path id="path30_fill" d="M 265.117 1.44C 265.117 1.86 264.973 2.202 264.685 2.466C 264.409 2.73 264.073 2.862 263.677 2.862C 263.27 2.862 262.927 2.73 262.651 2.466C 262.375 2.202 262.237 1.86 262.237 1.44C 262.237 1.02 262.375 0.678 262.651 0.414C 262.927 0.138 263.27 0 263.677 0C 264.073 0 264.409 0.138 264.685 0.414C 264.973 0.678 265.117 1.02 265.117 1.44Z"/>
<path id="path31_fill" d="M 273.859 1.44C 273.859 1.86 273.715 2.202 273.427 2.466C 273.151 2.73 272.815 2.862 272.419 2.862C 272.011 2.862 271.669 2.73 271.393 2.466C 271.117 2.202 270.979 1.86 270.979 1.44C 270.979 1.02 271.117 0.678 271.393 0.414C 271.669 0.138 272.011 0 272.419 0C 272.815 0 273.151 0.138 273.427 0.414C 273.715 0.678 273.859 1.02 273.859 1.44Z"/>
<path id="path32_fill" d="M 282.6 1.44C 282.6 1.86 282.456 2.202 282.168 2.466C 281.892 2.73 281.556 2.862 281.16 2.862C 280.752 2.862 280.41 2.73 280.134 2.466C 279.858 2.202 279.72 1.86 279.72 1.44C 279.72 1.02 279.858 0.678 280.134 0.414C 280.41 0.138 280.752 0 281.16 0C 281.556 0 281.892 0.138 282.168 0.414C 282.456 0.678 282.6 1.02 282.6 1.44Z"/>
<path id="path33_fill" d="M 291.341 1.44C 291.341 1.86 291.197 2.202 290.909 2.466C 290.633 2.73 290.297 2.862 289.901 2.862C 289.493 2.862 289.151 2.73 288.875 2.466C 288.599 2.202 288.461 1.86 288.461 1.44C 288.461 1.02 288.599 0.678 288.875 0.414C 289.151 0.138 289.493 0 289.901 0C 290.297 0 290.633 0.138 290.909 0.414C 291.197 0.678 291.341 1.02 291.341 1.44Z"/>
</defs>
</svg>
<svg width="293" height="4" viewBox="0 0 293 4" version="1.1" xmlns="http://www.w3.org/2000/svg" xmlns:xlink="http://www.w3.org/1999/xlink">
<title>..................................</title>
<desc>Created using Figma</desc>
<g id="Canvas" transform="translate(3823 -8555)">
<g id="..................................">
<use xlink:href="#path0_fill" transform="translate(-3822.05 8555.37)" fill="#FFFFFF"/>
<use xlink:href="#path1_fill" transform="translate(-3822.05 8555.37)" fill="#FFFFFF"/>
<use xlink:href="#path2_fill" transform="translate(-3822.05 8555.37)" fill="#FFFFFF"/>
<use xlink:href="#path3_fill" transform="translate(-3822.05 8555.37)" fill="#FFFFFF"/>
<use xlink:href="#path4_fill" transform="translate(-3822.05 8555.37)" fill="#FFFFFF"/>
<use xlink:href="#path5_fill" transform="translate(-3822.05 8555.37)" fill="#FFFFFF"/>
<use xlink:href="#path6_fill" transform="translate(-3822.05 8555.37)" fill="#FFFFFF"/>
<use xlink:href="#path7_fill" transform="translate(-3822.05 8555.37)" fill="#FFFFFF"/>
<use xlink:href="#path8_fill" transform="translate(-3822.05 8555.37)" fill="#FFFFFF"/>
<use xlink:href="#path9_fill" transform="translate(-3822.05 8555.37)" fill="#FFFFFF"/>
<use xlink:href="#path10_fill" transform="translate(-3822.05 8555.37)" fill="#FFFFFF"/>
<use xlink:href="#path11_fill" transform="translate(-3822.05 8555.37)" fill="#FFFFFF"/>
<use xlink:href="#path12_fill" transform="translate(-3822.05 8555.37)" fill="#FFFFFF"/>
<use xlink:href="#path13_fill" transform="translate(-3822.05 8555.37)" fill="#FFFFFF"/>
<use xlink:href="#path14_fill" transform="translate(-3822.05 8555.37)" fill="#FFFFFF"/>
<use xlink:href="#path15_fill" transform="translate(-3822.05 8555.37)" fill="#FFFFFF"/>
<use xlink:href="#path16_fill" transform="translate(-3822.05 8555.37)" fill="#FFFFFF"/>
<use xlink:href="#path17_fill" transform="translate(-3822.05 8555.37)" fill="#FFFFFF"/>
<use xlink:href="#path18_fill" transform="translate(-3822.05 8555.37)" fill="#FFFFFF"/>
<use xlink:href="#path19_fill" transform="translate(-3822.05 8555.37)" fill="#FFFFFF"/>
<use xlink:href="#path20_fill" transform="translate(-3822.05 8555.37)" fill="#FFFFFF"/>
<use xlink:href="#path21_fill" transform="translate(-3822.05 8555.37)" fill="#FFFFFF"/>
<use xlink:href="#path22_fill" transform="translate(-3822.05 8555.37)" fill="#FFFFFF"/>
<use xlink:href="#path23_fill" transform="translate(-3822.05 8555.37)" fill="#FFFFFF"/>
<use xlink:href="#path24_fill" transform="translate(-3822.05 8555.37)" fill="#FFFFFF"/>
<use xlink:href="#path25_fill" transform="translate(-3822.05 8555.37)" fill="#FFFFFF"/>
<use xlink:href="#path26_fill" transform="translate(-3822.05 8555.37)" fill="#FFFFFF"/>
<use xlink:href="#path27_fill" transform="translate(-3822.05 8555.37)" fill="#FFFFFF"/>
<use xlink:href="#path28_fill" transform="translate(-3822.05 8555.37)" fill="#FFFFFF"/>
<use xlink:href="#path29_fill" transform="translate(-3822.05 8555.37)" fill="#FFFFFF"/>
<use xlink:href="#path30_fill" transform="translate(-3822.05 8555.37)" fill="#FFFFFF"/>
<use xlink:href="#path31_fill" transform="translate(-3822.05 8555.37)" fill="#FFFFFF"/>
<use xlink:href="#path32_fill" transform="translate(-3822.05 8555.37)" fill="#FFFFFF"/>
<use xlink:href="#path33_fill" transform="translate(-3822.05 8555.37)" fill="#FFFFFF"/>
</g>
</g>
<defs>
<path id="path0_fill" d="M 2.88 1.44C 2.88 1.86 2.736 2.202 2.448 2.466C 2.172 2.73 1.836 2.862 1.44 2.862C 1.032 2.862 0.69 2.73 0.414 2.466C 0.138 2.202 0 1.86 0 1.44C 0 1.02 0.138 0.678 0.414 0.414C 0.69 0.138 1.032 0 1.44 0C 1.836 0 2.172 0.138 2.448 0.414C 2.736 0.678 2.88 1.02 2.88 1.44Z"/>
<path id="path1_fill" d="M 11.6213 1.44C 11.6213 1.86 11.4773 2.202 11.1892 2.466C 10.9132 2.73 10.5772 2.862 10.1812 2.862C 9.77325 2.862 9.43125 2.73 9.15525 2.466C 8.87925 2.202 8.74125 1.86 8.74125 1.44C 8.74125 1.02 8.87925 0.678 9.15525 0.414C 9.43125 0.138 9.77325 0 10.1812 0C 10.5772 0 10.9132 0.138 11.1892 0.414C 11.4773 0.678 11.6213 1.02 11.6213 1.44Z"/>
<path id="path2_fill" d="M 20.3625 1.44C 20.3625 1.86 20.2185 2.202 19.9305 2.466C 19.6545 2.73 19.3185 2.862 18.9225 2.862C 18.5145 2.862 18.1725 2.73 17.8965 2.466C 17.6205 2.202 17.4825 1.86 17.4825 1.44C 17.4825 1.02 17.6205 0.678 17.8965 0.414C 18.1725 0.138 18.5145 0 18.9225 0C 19.3185 0 19.6545 0.138 19.9305 0.414C 20.2185 0.678 20.3625 1.02 20.3625 1.44Z"/>
<path id="path3_fill" d="M 29.1038 1.44C 29.1038 1.86 28.9598 2.202 28.6718 2.466C 28.3958 2.73 28.0598 2.862 27.6638 2.862C 27.2558 2.862 26.9137 2.73 26.6378 2.466C 26.3618 2.202 26.2238 1.86 26.2238 1.44C 26.2238 1.02 26.3618 0.678 26.6378 0.414C 26.9137 0.138 27.2558 0 27.6638 0C 28.0598 0 28.3958 0.138 28.6718 0.414C 28.9598 0.678 29.1038 1.02 29.1038 1.44Z"/>
<path id="path4_fill" d="M 37.845 1.44C 37.845 1.86 37.701 2.202 37.413 2.466C 37.137 2.73 36.801 2.862 36.405 2.862C 35.997 2.862 35.655 2.73 35.379 2.466C 35.103 2.202 34.965 1.86 34.965 1.44C 34.965 1.02 35.103 0.678 35.379 0.414C 35.655 0.138 35.997 0 36.405 0C 36.801 0 37.137 0.138 37.413 0.414C 37.701 0.678 37.845 1.02 37.845 1.44Z"/>
<path id="path5_fill" d="M 46.5863 1.44C 46.5863 1.86 46.4422 2.202 46.1543 2.466C 45.8783 2.73 45.5422 2.862 45.1462 2.862C 44.7382 2.862 44.3963 2.73 44.1203 2.466C 43.8442 2.202 43.7062 1.86 43.7062 1.44C 43.7062 1.02 43.8442 0.678 44.1203 0.414C 44.3963 0.138 44.7382 0 45.1462 0C 45.5422 0 45.8783 0.138 46.1543 0.414C 46.4422 0.678 46.5863 1.02 46.5863 1.44Z"/>
<path id="path6_fill" d="M 55.3275 1.44C 55.3275 1.86 55.1835 2.202 54.8955 2.466C 54.6195 2.73 54.2835 2.862 53.8875 2.862C 53.4795 2.862 53.1375 2.73 52.8615 2.466C 52.5855 2.202 52.4475 1.86 52.4475 1.44C 52.4475 1.02 52.5855 0.678 52.8615 0.414C 53.1375 0.138 53.4795 0 53.8875 0C 54.2835 0 54.6195 0.138 54.8955 0.414C 55.1835 0.678 55.3275 1.02 55.3275 1.44Z"/>
<path id="path7_fill" d="M 64.0687 1.44C 64.0687 1.86 63.9248 2.202 63.6368 2.466C 63.3608 2.73 63.0247 2.862 62.6287 2.862C 62.2207 2.862 61.8788 2.73 61.6028 2.466C 61.3268 2.202 61.1888 1.86 61.1888 1.44C 61.1888 1.02 61.3268 0.678 61.6028 0.414C 61.8788 0.138 62.2207 0 62.6287 0C 63.0247 0 63.3608 0.138 63.6368 0.414C 63.9248 0.678 64.0687 1.02 64.0687 1.44Z"/>
<path id="path8_fill" d="M 72.81 1.44C 72.81 1.86 72.666 2.202 72.378 2.466C 72.102 2.73 71.766 2.862 71.37 2.862C 70.962 2.862 70.62 2.73 70.344 2.466C 70.068 2.202 69.93 1.86 69.93 1.44C 69.93 1.02 70.068 0.678 70.344 0.414C 70.62 0.138 70.962 0 71.37 0C 71.766 0 72.102 0.138 72.378 0.414C 72.666 0.678 72.81 1.02 72.81 1.44Z"/>
<path id="path9_fill" d="M 81.5512 1.44C 81.5512 1.86 81.4072 2.202 81.1192 2.466C 80.8432 2.73 80.5073 2.862 80.1113 2.862C 79.7033 2.862 79.3613 2.73 79.0853 2.466C 78.8092 2.202 78.6712 1.86 78.6712 1.44C 78.6712 1.02 78.8092 0.678 79.0853 0.414C 79.3613 0.138 79.7033 0 80.1113 0C 80.5073 0 80.8432 0.138 81.1192 0.414C 81.4072 0.678 81.5512 1.02 81.5512 1.44Z"/>
<path id="path10_fill" d="M 90.2925 1.44C 90.2925 1.86 90.1485 2.202 89.8605 2.466C 89.5845 2.73 89.2485 2.862 88.8525 2.862C 88.4445 2.862 88.1025 2.73 87.8265 2.466C 87.5505 2.202 87.4125 1.86 87.4125 1.44C 87.4125 1.02 87.5505 0.678 87.8265 0.414C 88.1025 0.138 88.4445 0 88.8525 0C 89.2485 0 89.5845 0.138 89.8605 0.414C 90.1485 0.678 90.2925 1.02 90.2925 1.44Z"/>
<path id="path11_fill" d="M 99.0337 1.44C 99.0337 1.86 98.8897 2.202 98.6017 2.466C 98.3257 2.73 97.9898 2.862 97.5938 2.862C 97.1858 2.862 96.8438 2.73 96.5677 2.466C 96.2917 2.202 96.1537 1.86 96.1537 1.44C 96.1537 1.02 96.2917 0.678 96.5677 0.414C 96.8438 0.138 97.1858 0 97.5938 0C 97.9898 0 98.3257 0.138 98.6017 0.414C 98.8897 0.678 99.0337 1.02 99.0337 1.44Z"/>
<path id="path12_fill" d="M 107.775 1.44C 107.775 1.86 107.631 2.202 107.343 2.466C 107.067 2.73 106.731 2.862 106.335 2.862C 105.927 2.862 105.585 2.73 105.309 2.466C 105.033 2.202 104.895 1.86 104.895 1.44C 104.895 1.02 105.033 0.678 105.309 0.414C 105.585 0.138 105.927 0 106.335 0C 106.731 0 107.067 0.138 107.343 0.414C 107.631 0.678 107.775 1.02 107.775 1.44Z"/>
<path id="path13_fill" d="M 116.516 1.44C 116.516 1.86 116.372 2.202 116.084 2.466C 115.808 2.73 115.472 2.862 115.076 2.862C 114.668 2.862 114.326 2.73 114.05 2.466C 113.774 2.202 113.636 1.86 113.636 1.44C 113.636 1.02 113.774 0.678 114.05 0.414C 114.326 0.138 114.668 0 115.076 0C 115.472 0 115.808 0.138 116.084 0.414C 116.372 0.678 116.516 1.02 116.516 1.44Z"/>
<path id="path14_fill" d="M 125.257 1.44C 125.257 1.86 125.114 2.202 124.826 2.466C 124.549 2.73 124.214 2.862 123.818 2.862C 123.41 2.862 123.068 2.73 122.792 2.466C 122.516 2.202 122.378 1.86 122.378 1.44C 122.378 1.02 122.516 0.678 122.792 0.414C 123.068 0.138 123.41 0 123.818 0C 124.214 0 124.549 0.138 124.826 0.414C 125.114 0.678 125.257 1.02 125.257 1.44Z"/>
<path id="path15_fill" d="M 133.999 1.44C 133.999 1.86 133.855 2.202 133.567 2.466C 133.291 2.73 132.955 2.862 132.559 2.862C 132.151 2.862 131.809 2.73 131.533 2.466C 131.257 2.202 131.119 1.86 131.119 1.44C 131.119 1.02 131.257 0.678 131.533 0.414C 131.809 0.138 132.151 0 132.559 0C 132.955 0 133.291 0.138 133.567 0.414C 133.855 0.678 133.999 1.02 133.999 1.44Z"/>
<path id="path16_fill" d="M 142.74 1.44C 142.74 1.86 142.596 2.202 142.308 2.466C 142.032 2.73 141.696 2.862 141.3 2.862C 140.892 2.862 140.55 2.73 140.274 2.466C 139.998 2.202 139.86 1.86 139.86 1.44C 139.86 1.02 139.998 0.678 140.274 0.414C 140.55 0.138 140.892 0 141.3 0C 141.696 0 142.032 0.138 142.308 0.414C 142.596 0.678 142.74 1.02 142.74 1.44Z"/>
<path id="path17_fill" d="M 151.481 1.44C 151.481 1.86 151.337 2.202 151.049 2.466C 150.773 2.73 150.437 2.862 150.041 2.862C 149.633 2.862 149.291 2.73 149.015 2.466C 148.739 2.202 148.601 1.86 148.601 1.44C 148.601 1.02 148.739 0.678 149.015 0.414C 149.291 0.138 149.633 0 150.041 0C 150.437 0 150.773 0.138 151.049 0.414C 151.337 0.678 151.481 1.02 151.481 1.44Z"/>
<path id="path18_fill" d="M 160.223 1.44C 160.223 1.86 160.078 2.202 159.79 2.466C 159.514 2.73 159.178 2.862 158.783 2.862C 158.374 2.862 158.033 2.73 157.757 2.466C 157.48 2.202 157.342 1.86 157.342 1.44C 157.342 1.02 157.48 0.678 157.757 0.414C 158.033 0.138 158.374 0 158.783 0C 159.178 0 159.514 0.138 159.79 0.414C 160.078 0.678 160.223 1.02 160.223 1.44Z"/>
<path id="path19_fill" d="M 168.964 1.44C 168.964 1.86 168.82 2.202 168.532 2.466C 168.256 2.73 167.92 2.862 167.524 2.862C 167.116 2.862 166.774 2.73 166.498 2.466C 166.222 2.202 166.084 1.86 166.084 1.44C 166.084 1.02 166.222 0.678 166.498 0.414C 166.774 0.138 167.116 0 167.524 0C 167.92 0 168.256 0.138 168.532 0.414C 168.82 0.678 168.964 1.02 168.964 1.44Z"/>
<path id="path20_fill" d="M 177.705 1.44C 177.705 1.86 177.561 2.202 177.273 2.466C 176.997 2.73 176.661 2.862 176.265 2.862C 175.857 2.862 175.515 2.73 175.239 2.466C 174.963 2.202 174.825 1.86 174.825 1.44C 174.825 1.02 174.963 0.678 175.239 0.414C 175.515 0.138 175.857 0 176.265 0C 176.661 0 176.997 0.138 177.273 0.414C 177.561 0.678 177.705 1.02 177.705 1.44Z"/>
<path id="path21_fill" d="M 186.446 1.44C 186.446 1.86 186.302 2.202 186.014 2.466C 185.738 2.73 185.402 2.862 185.006 2.862C 184.598 2.862 184.256 2.73 183.98 2.466C 183.704 2.202 183.566 1.86 183.566 1.44C 183.566 1.02 183.704 0.678 183.98 0.414C 184.256 0.138 184.598 0 185.006 0C 185.402 0 185.738 0.138 186.014 0.414C 186.302 0.678 186.446 1.02 186.446 1.44Z"/>
<path id="path22_fill" d="M 195.188 1.44C 195.188 1.86 195.043 2.202 194.755 2.466C 194.479 2.73 194.143 2.862 193.747 2.862C 193.339 2.862 192.997 2.73 192.721 2.466C 192.445 2.202 192.307 1.86 192.307 1.44C 192.307 1.02 192.445 0.678 192.721 0.414C 192.997 0.138 193.339 0 193.747 0C 194.143 0 194.479 0.138 194.755 0.414C 195.043 0.678 195.188 1.02 195.188 1.44Z"/>
<path id="path23_fill" d="M 203.929 1.44C 203.929 1.86 203.785 2.202 203.497 2.466C 203.221 2.73 202.885 2.862 202.489 2.862C 202.081 2.862 201.739 2.73 201.463 2.466C 201.187 2.202 201.049 1.86 201.049 1.44C 201.049 1.02 201.187 0.678 201.463 0.414C 201.739 0.138 202.081 0 202.489 0C 202.885 0 203.221 0.138 203.497 0.414C 203.785 0.678 203.929 1.02 203.929 1.44Z"/>
<path id="path24_fill" d="M 212.67 1.44C 212.67 1.86 212.526 2.202 212.238 2.466C 211.962 2.73 211.626 2.862 211.23 2.862C 210.822 2.862 210.48 2.73 210.204 2.466C 209.928 2.202 209.79 1.86 209.79 1.44C 209.79 1.02 209.928 0.678 210.204 0.414C 210.48 0.138 210.822 0 211.23 0C 211.626 0 211.962 0.138 212.238 0.414C 212.526 0.678 212.67 1.02 212.67 1.44Z"/>
<path id="path25_fill" d="M 221.411 1.44C 221.411 1.86 221.267 2.202 220.979 2.466C 220.703 2.73 220.367 2.862 219.971 2.862C 219.563 2.862 219.221 2.73 218.945 2.466C 218.669 2.202 218.531 1.86 218.531 1.44C 218.531 1.02 218.669 0.678 218.945 0.414C 219.221 0.138 219.563 0 219.971 0C 220.367 0 220.703 0.138 220.979 0.414C 221.267 0.678 221.411 1.02 221.411 1.44Z"/>
<path id="path26_fill" d="M 230.153 1.44C 230.153 1.86 230.008 2.202 229.721 2.466C 229.445 2.73 229.109 2.862 228.713 2.862C 228.305 2.862 227.963 2.73 227.687 2.466C 227.411 2.202 227.273 1.86 227.273 1.44C 227.273 1.02 227.411 0.678 227.687 0.414C 227.963 0.138 228.305 0 228.713 0C 229.109 0 229.445 0.138 229.721 0.414C 230.008 0.678 230.153 1.02 230.153 1.44Z"/>
<path id="path27_fill" d="M 238.894 1.44C 238.894 1.86 238.75 2.202 238.462 2.466C 238.186 2.73 237.85 2.862 237.454 2.862C 237.046 2.862 236.704 2.73 236.428 2.466C 236.152 2.202 236.014 1.86 236.014 1.44C 236.014 1.02 236.152 0.678 236.428 0.414C 236.704 0.138 237.046 0 237.454 0C 237.85 0 238.186 0.138 238.462 0.414C 238.75 0.678 238.894 1.02 238.894 1.44Z"/>
<path id="path28_fill" d="M 247.635 1.44C 247.635 1.86 247.491 2.202 247.203 2.466C 246.927 2.73 246.591 2.862 246.195 2.862C 245.787 2.862 245.445 2.73 245.169 2.466C 244.893 2.202 244.755 1.86 244.755 1.44C 244.755 1.02 244.893 0.678 245.169 0.414C 245.445 0.138 245.787 0 246.195 0C 246.591 0 246.927 0.138 247.203 0.414C 247.491 0.678 247.635 1.02 247.635 1.44Z"/>
<path id="path29_fill" d="M 256.376 1.44C 256.376 1.86 256.232 2.202 255.944 2.466C 255.668 2.73 255.332 2.862 254.936 2.862C 254.528 2.862 254.186 2.73 253.91 2.466C 253.634 2.202 253.496 1.86 253.496 1.44C 253.496 1.02 253.634 0.678 253.91 0.414C 254.186 0.138 254.528 0 254.936 0C 255.332 0 255.668 0.138 255.944 0.414C 256.232 0.678 256.376 1.02 256.376 1.44Z"/>
<path id="path30_fill" d="M 265.117 1.44C 265.117 1.86 264.973 2.202 264.685 2.466C 264.409 2.73 264.073 2.862 263.677 2.862C 263.27 2.862 262.927 2.73 262.651 2.466C 262.375 2.202 262.237 1.86 262.237 1.44C 262.237 1.02 262.375 0.678 262.651 0.414C 262.927 0.138 263.27 0 263.677 0C 264.073 0 264.409 0.138 264.685 0.414C 264.973 0.678 265.117 1.02 265.117 1.44Z"/>
<path id="path31_fill" d="M 273.859 1.44C 273.859 1.86 273.715 2.202 273.427 2.466C 273.151 2.73 272.815 2.862 272.419 2.862C 272.011 2.862 271.669 2.73 271.393 2.466C 271.117 2.202 270.979 1.86 270.979 1.44C 270.979 1.02 271.117 0.678 271.393 0.414C 271.669 0.138 272.011 0 272.419 0C 272.815 0 273.151 0.138 273.427 0.414C 273.715 0.678 273.859 1.02 273.859 1.44Z"/>
<path id="path32_fill" d="M 282.6 1.44C 282.6 1.86 282.456 2.202 282.168 2.466C 281.892 2.73 281.556 2.862 281.16 2.862C 280.752 2.862 280.41 2.73 280.134 2.466C 279.858 2.202 279.72 1.86 279.72 1.44C 279.72 1.02 279.858 0.678 280.134 0.414C 280.41 0.138 280.752 0 281.16 0C 281.556 0 281.892 0.138 282.168 0.414C 282.456 0.678 282.6 1.02 282.6 1.44Z"/>
<path id="path33_fill" d="M 291.341 1.44C 291.341 1.86 291.197 2.202 290.909 2.466C 290.633 2.73 290.297 2.862 289.901 2.862C 289.493 2.862 289.151 2.73 288.875 2.466C 288.599 2.202 288.461 1.86 288.461 1.44C 288.461 1.02 288.599 0.678 288.875 0.414C 289.151 0.138 289.493 0 289.901 0C 290.297 0 290.633 0.138 290.909 0.414C 291.197 0.678 291.341 1.02 291.341 1.44Z"/>
</defs>
</svg>
<svg width="293" height="4" viewBox="0 0 293 4" version="1.1" xmlns="http://www.w3.org/2000/svg" xmlns:xlink="http://www.w3.org/1999/xlink">
<title>..................................</title>
<desc>Created using Figma</desc>
<g id="Canvas" transform="translate(3823 -8555)">
<g id="..................................">
<use xlink:href="#path0_fill" transform="translate(-3822.05 8555.37)" fill="#FFFFFF"/>
<use xlink:href="#path1_fill" transform="translate(-3822.05 8555.37)" fill="#FFFFFF"/>
<use xlink:href="#path2_fill" transform="translate(-3822.05 8555.37)" fill="#FFFFFF"/>
<use xlink:href="#path3_fill" transform="translate(-3822.05 8555.37)" fill="#FFFFFF"/>
<use xlink:href="#path4_fill" transform="translate(-3822.05 8555.37)" fill="#FFFFFF"/>
<use xlink:href="#path5_fill" transform="translate(-3822.05 8555.37)" fill="#FFFFFF"/>
<use xlink:href="#path6_fill" transform="translate(-3822.05 8555.37)" fill="#FFFFFF"/>
<use xlink:href="#path7_fill" transform="translate(-3822.05 8555.37)" fill="#FFFFFF"/>
<use xlink:href="#path8_fill" transform="translate(-3822.05 8555.37)" fill="#FFFFFF"/>
<use xlink:href="#path9_fill" transform="translate(-3822.05 8555.37)" fill="#FFFFFF"/>
<use xlink:href="#path10_fill" transform="translate(-3822.05 8555.37)" fill="#FFFFFF"/>
<use xlink:href="#path11_fill" transform="translate(-3822.05 8555.37)" fill="#FFFFFF"/>
<use xlink:href="#path12_fill" transform="translate(-3822.05 8555.37)" fill="#FFFFFF"/>
<use xlink:href="#path13_fill" transform="translate(-3822.05 8555.37)" fill="#FFFFFF"/>
<use xlink:href="#path14_fill" transform="translate(-3822.05 8555.37)" fill="#FFFFFF"/>
<use xlink:href="#path15_fill" transform="translate(-3822.05 8555.37)" fill="#FFFFFF"/>
<use xlink:href="#path16_fill" transform="translate(-3822.05 8555.37)" fill="#FFFFFF"/>
<use xlink:href="#path17_fill" transform="translate(-3822.05 8555.37)" fill="#FFFFFF"/>
<use xlink:href="#path18_fill" transform="translate(-3822.05 8555.37)" fill="#FFFFFF"/>
<use xlink:href="#path19_fill" transform="translate(-3822.05 8555.37)" fill="#FFFFFF"/>
<use xlink:href="#path20_fill" transform="translate(-3822.05 8555.37)" fill="#FFFFFF"/>
<use xlink:href="#path21_fill" transform="translate(-3822.05 8555.37)" fill="#FFFFFF"/>
<use xlink:href="#path22_fill" transform="translate(-3822.05 8555.37)" fill="#FFFFFF"/>
<use xlink:href="#path23_fill" transform="translate(-3822.05 8555.37)" fill="#FFFFFF"/>
<use xlink:href="#path24_fill" transform="translate(-3822.05 8555.37)" fill="#FFFFFF"/>
<use xlink:href="#path25_fill" transform="translate(-3822.05 8555.37)" fill="#FFFFFF"/>
<use xlink:href="#path26_fill" transform="translate(-3822.05 8555.37)" fill="#FFFFFF"/>
<use xlink:href="#path27_fill" transform="translate(-3822.05 8555.37)" fill="#FFFFFF"/>
<use xlink:href="#path28_fill" transform="translate(-3822.05 8555.37)" fill="#FFFFFF"/>
<use xlink:href="#path29_fill" transform="translate(-3822.05 8555.37)" fill="#FFFFFF"/>
<use xlink:href="#path30_fill" transform="translate(-3822.05 8555.37)" fill="#FFFFFF"/>
<use xlink:href="#path31_fill" transform="translate(-3822.05 8555.37)" fill="#FFFFFF"/>
<use xlink:href="#path32_fill" transform="translate(-3822.05 8555.37)" fill="#FFFFFF"/>
<use xlink:href="#path33_fill" transform="translate(-3822.05 8555.37)" fill="#FFFFFF"/>
</g>
</g>
<defs>
<path id="path0_fill" d="M 2.88 1.44C 2.88 1.86 2.736 2.202 2.448 2.466C 2.172 2.73 1.836 2.862 1.44 2.862C 1.032 2.862 0.69 2.73 0.414 2.466C 0.138 2.202 0 1.86 0 1.44C 0 1.02 0.138 0.678 0.414 0.414C 0.69 0.138 1.032 0 1.44 0C 1.836 0 2.172 0.138 2.448 0.414C 2.736 0.678 2.88 1.02 2.88 1.44Z"/>
<path id="path1_fill" d="M 11.6213 1.44C 11.6213 1.86 11.4773 2.202 11.1892 2.466C 10.9132 2.73 10.5772 2.862 10.1812 2.862C 9.77325 2.862 9.43125 2.73 9.15525 2.466C 8.87925 2.202 8.74125 1.86 8.74125 1.44C 8.74125 1.02 8.87925 0.678 9.15525 0.414C 9.43125 0.138 9.77325 0 10.1812 0C 10.5772 0 10.9132 0.138 11.1892 0.414C 11.4773 0.678 11.6213 1.02 11.6213 1.44Z"/>
<path id="path2_fill" d="M 20.3625 1.44C 20.3625 1.86 20.2185 2.202 19.9305 2.466C 19.6545 2.73 19.3185 2.862 18.9225 2.862C 18.5145 2.862 18.1725 2.73 17.8965 2.466C 17.6205 2.202 17.4825 1.86 17.4825 1.44C 17.4825 1.02 17.6205 0.678 17.8965 0.414C 18.1725 0.138 18.5145 0 18.9225 0C 19.3185 0 19.6545 0.138 19.9305 0.414C 20.2185 0.678 20.3625 1.02 20.3625 1.44Z"/>
<path id="path3_fill" d="M 29.1038 1.44C 29.1038 1.86 28.9598 2.202 28.6718 2.466C 28.3958 2.73 28.0598 2.862 27.6638 2.862C 27.2558 2.862 26.9137 2.73 26.6378 2.466C 26.3618 2.202 26.2238 1.86 26.2238 1.44C 26.2238 1.02 26.3618 0.678 26.6378 0.414C 26.9137 0.138 27.2558 0 27.6638 0C 28.0598 0 28.3958 0.138 28.6718 0.414C 28.9598 0.678 29.1038 1.02 29.1038 1.44Z"/>
<path id="path4_fill" d="M 37.845 1.44C 37.845 1.86 37.701 2.202 37.413 2.466C 37.137 2.73 36.801 2.862 36.405 2.862C 35.997 2.862 35.655 2.73 35.379 2.466C 35.103 2.202 34.965 1.86 34.965 1.44C 34.965 1.02 35.103 0.678 35.379 0.414C 35.655 0.138 35.997 0 36.405 0C 36.801 0 37.137 0.138 37.413 0.414C 37.701 0.678 37.845 1.02 37.845 1.44Z"/>
<path id="path5_fill" d="M 46.5863 1.44C 46.5863 1.86 46.4422 2.202 46.1543 2.466C 45.8783 2.73 45.5422 2.862 45.1462 2.862C 44.7382 2.862 44.3963 2.73 44.1203 2.466C 43.8442 2.202 43.7062 1.86 43.7062 1.44C 43.7062 1.02 43.8442 0.678 44.1203 0.414C 44.3963 0.138 44.7382 0 45.1462 0C 45.5422 0 45.8783 0.138 46.1543 0.414C 46.4422 0.678 46.5863 1.02 46.5863 1.44Z"/>
<path id="path6_fill" d="M 55.3275 1.44C 55.3275 1.86 55.1835 2.202 54.8955 2.466C 54.6195 2.73 54.2835 2.862 53.8875 2.862C 53.4795 2.862 53.1375 2.73 52.8615 2.466C 52.5855 2.202 52.4475 1.86 52.4475 1.44C 52.4475 1.02 52.5855 0.678 52.8615 0.414C 53.1375 0.138 53.4795 0 53.8875 0C 54.2835 0 54.6195 0.138 54.8955 0.414C 55.1835 0.678 55.3275 1.02 55.3275 1.44Z"/>
<path id="path7_fill" d="M 64.0687 1.44C 64.0687 1.86 63.9248 2.202 63.6368 2.466C 63.3608 2.73 63.0247 2.862 62.6287 2.862C 62.2207 2.862 61.8788 2.73 61.6028 2.466C 61.3268 2.202 61.1888 1.86 61.1888 1.44C 61.1888 1.02 61.3268 0.678 61.6028 0.414C 61.8788 0.138 62.2207 0 62.6287 0C 63.0247 0 63.3608 0.138 63.6368 0.414C 63.9248 0.678 64.0687 1.02 64.0687 1.44Z"/>
<path id="path8_fill" d="M 72.81 1.44C 72.81 1.86 72.666 2.202 72.378 2.466C 72.102 2.73 71.766 2.862 71.37 2.862C 70.962 2.862 70.62 2.73 70.344 2.466C 70.068 2.202 69.93 1.86 69.93 1.44C 69.93 1.02 70.068 0.678 70.344 0.414C 70.62 0.138 70.962 0 71.37 0C 71.766 0 72.102 0.138 72.378 0.414C 72.666 0.678 72.81 1.02 72.81 1.44Z"/>
<path id="path9_fill" d="M 81.5512 1.44C 81.5512 1.86 81.4072 2.202 81.1192 2.466C 80.8432 2.73 80.5073 2.862 80.1113 2.862C 79.7033 2.862 79.3613 2.73 79.0853 2.466C 78.8092 2.202 78.6712 1.86 78.6712 1.44C 78.6712 1.02 78.8092 0.678 79.0853 0.414C 79.3613 0.138 79.7033 0 80.1113 0C 80.5073 0 80.8432 0.138 81.1192 0.414C 81.4072 0.678 81.5512 1.02 81.5512 1.44Z"/>
<path id="path10_fill" d="M 90.2925 1.44C 90.2925 1.86 90.1485 2.202 89.8605 2.466C 89.5845 2.73 89.2485 2.862 88.8525 2.862C 88.4445 2.862 88.1025 2.73 87.8265 2.466C 87.5505 2.202 87.4125 1.86 87.4125 1.44C 87.4125 1.02 87.5505 0.678 87.8265 0.414C 88.1025 0.138 88.4445 0 88.8525 0C 89.2485 0 89.5845 0.138 89.8605 0.414C 90.1485 0.678 90.2925 1.02 90.2925 1.44Z"/>
<path id="path11_fill" d="M 99.0337 1.44C 99.0337 1.86 98.8897 2.202 98.6017 2.466C 98.3257 2.73 97.9898 2.862 97.5938 2.862C 97.1858 2.862 96.8438 2.73 96.5677 2.466C 96.2917 2.202 96.1537 1.86 96.1537 1.44C 96.1537 1.02 96.2917 0.678 96.5677 0.414C 96.8438 0.138 97.1858 0 97.5938 0C 97.9898 0 98.3257 0.138 98.6017 0.414C 98.8897 0.678 99.0337 1.02 99.0337 1.44Z"/>
<path id="path12_fill" d="M 107.775 1.44C 107.775 1.86 107.631 2.202 107.343 2.466C 107.067 2.73 106.731 2.862 106.335 2.862C 105.927 2.862 105.585 2.73 105.309 2.466C 105.033 2.202 104.895 1.86 104.895 1.44C 104.895 1.02 105.033 0.678 105.309 0.414C 105.585 0.138 105.927 0 106.335 0C 106.731 0 107.067 0.138 107.343 0.414C 107.631 0.678 107.775 1.02 107.775 1.44Z"/>
<path id="path13_fill" d="M 116.516 1.44C 116.516 1.86 116.372 2.202 116.084 2.466C 115.808 2.73 115.472 2.862 115.076 2.862C 114.668 2.862 114.326 2.73 114.05 2.466C 113.774 2.202 113.636 1.86 113.636 1.44C 113.636 1.02 113.774 0.678 114.05 0.414C 114.326 0.138 114.668 0 115.076 0C 115.472 0 115.808 0.138 116.084 0.414C 116.372 0.678 116.516 1.02 116.516 1.44Z"/>
<path id="path14_fill" d="M 125.257 1.44C 125.257 1.86 125.114 2.202 124.826 2.466C 124.549 2.73 124.214 2.862 123.818 2.862C 123.41 2.862 123.068 2.73 122.792 2.466C 122.516 2.202 122.378 1.86 122.378 1.44C 122.378 1.02 122.516 0.678 122.792 0.414C 123.068 0.138 123.41 0 123.818 0C 124.214 0 124.549 0.138 124.826 0.414C 125.114 0.678 125.257 1.02 125.257 1.44Z"/>
<path id="path15_fill" d="M 133.999 1.44C 133.999 1.86 133.855 2.202 133.567 2.466C 133.291 2.73 132.955 2.862 132.559 2.862C 132.151 2.862 131.809 2.73 131.533 2.466C 131.257 2.202 131.119 1.86 131.119 1.44C 131.119 1.02 131.257 0.678 131.533 0.414C 131.809 0.138 132.151 0 132.559 0C 132.955 0 133.291 0.138 133.567 0.414C 133.855 0.678 133.999 1.02 133.999 1.44Z"/>
<path id="path16_fill" d="M 142.74 1.44C 142.74 1.86 142.596 2.202 142.308 2.466C 142.032 2.73 141.696 2.862 141.3 2.862C 140.892 2.862 140.55 2.73 140.274 2.466C 139.998 2.202 139.86 1.86 139.86 1.44C 139.86 1.02 139.998 0.678 140.274 0.414C 140.55 0.138 140.892 0 141.3 0C 141.696 0 142.032 0.138 142.308 0.414C 142.596 0.678 142.74 1.02 142.74 1.44Z"/>
<path id="path17_fill" d="M 151.481 1.44C 151.481 1.86 151.337 2.202 151.049 2.466C 150.773 2.73 150.437 2.862 150.041 2.862C 149.633 2.862 149.291 2.73 149.015 2.466C 148.739 2.202 148.601 1.86 148.601 1.44C 148.601 1.02 148.739 0.678 149.015 0.414C 149.291 0.138 149.633 0 150.041 0C 150.437 0 150.773 0.138 151.049 0.414C 151.337 0.678 151.481 1.02 151.481 1.44Z"/>
<path id="path18_fill" d="M 160.223 1.44C 160.223 1.86 160.078 2.202 159.79 2.466C 159.514 2.73 159.178 2.862 158.783 2.862C 158.374 2.862 158.033 2.73 157.757 2.466C 157.48 2.202 157.342 1.86 157.342 1.44C 157.342 1.02 157.48 0.678 157.757 0.414C 158.033 0.138 158.374 0 158.783 0C 159.178 0 159.514 0.138 159.79 0.414C 160.078 0.678 160.223 1.02 160.223 1.44Z"/>
<path id="path19_fill" d="M 168.964 1.44C 168.964 1.86 168.82 2.202 168.532 2.466C 168.256 2.73 167.92 2.862 167.524 2.862C 167.116 2.862 166.774 2.73 166.498 2.466C 166.222 2.202 166.084 1.86 166.084 1.44C 166.084 1.02 166.222 0.678 166.498 0.414C 166.774 0.138 167.116 0 167.524 0C 167.92 0 168.256 0.138 168.532 0.414C 168.82 0.678 168.964 1.02 168.964 1.44Z"/>
<path id="path20_fill" d="M 177.705 1.44C 177.705 1.86 177.561 2.202 177.273 2.466C 176.997 2.73 176.661 2.862 176.265 2.862C 175.857 2.862 175.515 2.73 175.239 2.466C 174.963 2.202 174.825 1.86 174.825 1.44C 174.825 1.02 174.963 0.678 175.239 0.414C 175.515 0.138 175.857 0 176.265 0C 176.661 0 176.997 0.138 177.273 0.414C 177.561 0.678 177.705 1.02 177.705 1.44Z"/>
<path id="path21_fill" d="M 186.446 1.44C 186.446 1.86 186.302 2.202 186.014 2.466C 185.738 2.73 185.402 2.862 185.006 2.862C 184.598 2.862 184.256 2.73 183.98 2.466C 183.704 2.202 183.566 1.86 183.566 1.44C 183.566 1.02 183.704 0.678 183.98 0.414C 184.256 0.138 184.598 0 185.006 0C 185.402 0 185.738 0.138 186.014 0.414C 186.302 0.678 186.446 1.02 186.446 1.44Z"/>
<path id="path22_fill" d="M 195.188 1.44C 195.188 1.86 195.043 2.202 194.755 2.466C 194.479 2.73 194.143 2.862 193.747 2.862C 193.339 2.862 192.997 2.73 192.721 2.466C 192.445 2.202 192.307 1.86 192.307 1.44C 192.307 1.02 192.445 0.678 192.721 0.414C 192.997 0.138 193.339 0 193.747 0C 194.143 0 194.479 0.138 194.755 0.414C 195.043 0.678 195.188 1.02 195.188 1.44Z"/>
<path id="path23_fill" d="M 203.929 1.44C 203.929 1.86 203.785 2.202 203.497 2.466C 203.221 2.73 202.885 2.862 202.489 2.862C 202.081 2.862 201.739 2.73 201.463 2.466C 201.187 2.202 201.049 1.86 201.049 1.44C 201.049 1.02 201.187 0.678 201.463 0.414C 201.739 0.138 202.081 0 202.489 0C 202.885 0 203.221 0.138 203.497 0.414C 203.785 0.678 203.929 1.02 203.929 1.44Z"/>
<path id="path24_fill" d="M 212.67 1.44C 212.67 1.86 212.526 2.202 212.238 2.466C 211.962 2.73 211.626 2.862 211.23 2.862C 210.822 2.862 210.48 2.73 210.204 2.466C 209.928 2.202 209.79 1.86 209.79 1.44C 209.79 1.02 209.928 0.678 210.204 0.414C 210.48 0.138 210.822 0 211.23 0C 211.626 0 211.962 0.138 212.238 0.414C 212.526 0.678 212.67 1.02 212.67 1.44Z"/>
<path id="path25_fill" d="M 221.411 1.44C 221.411 1.86 221.267 2.202 220.979 2.466C 220.703 2.73 220.367 2.862 219.971 2.862C 219.563 2.862 219.221 2.73 218.945 2.466C 218.669 2.202 218.531 1.86 218.531 1.44C 218.531 1.02 218.669 0.678 218.945 0.414C 219.221 0.138 219.563 0 219.971 0C 220.367 0 220.703 0.138 220.979 0.414C 221.267 0.678 221.411 1.02 221.411 1.44Z"/>
<path id="path26_fill" d="M 230.153 1.44C 230.153 1.86 230.008 2.202 229.721 2.466C 229.445 2.73 229.109 2.862 228.713 2.862C 228.305 2.862 227.963 2.73 227.687 2.466C 227.411 2.202 227.273 1.86 227.273 1.44C 227.273 1.02 227.411 0.678 227.687 0.414C 227.963 0.138 228.305 0 228.713 0C 229.109 0 229.445 0.138 229.721 0.414C 230.008 0.678 230.153 1.02 230.153 1.44Z"/>
<path id="path27_fill" d="M 238.894 1.44C 238.894 1.86 238.75 2.202 238.462 2.466C 238.186 2.73 237.85 2.862 237.454 2.862C 237.046 2.862 236.704 2.73 236.428 2.466C 236.152 2.202 236.014 1.86 236.014 1.44C 236.014 1.02 236.152 0.678 236.428 0.414C 236.704 0.138 237.046 0 237.454 0C 237.85 0 238.186 0.138 238.462 0.414C 238.75 0.678 238.894 1.02 238.894 1.44Z"/>
<path id="path28_fill" d="M 247.635 1.44C 247.635 1.86 247.491 2.202 247.203 2.466C 246.927 2.73 246.591 2.862 246.195 2.862C 245.787 2.862 245.445 2.73 245.169 2.466C 244.893 2.202 244.755 1.86 244.755 1.44C 244.755 1.02 244.893 0.678 245.169 0.414C 245.445 0.138 245.787 0 246.195 0C 246.591 0 246.927 0.138 247.203 0.414C 247.491 0.678 247.635 1.02 247.635 1.44Z"/>
<path id="path29_fill" d="M 256.376 1.44C 256.376 1.86 256.232 2.202 255.944 2.466C 255.668 2.73 255.332 2.862 254.936 2.862C 254.528 2.862 254.186 2.73 253.91 2.466C 253.634 2.202 253.496 1.86 253.496 1.44C 253.496 1.02 253.634 0.678 253.91 0.414C 254.186 0.138 254.528 0 254.936 0C 255.332 0 255.668 0.138 255.944 0.414C 256.232 0.678 256.376 1.02 256.376 1.44Z"/>
<path id="path30_fill" d="M 265.117 1.44C 265.117 1.86 264.973 2.202 264.685 2.466C 264.409 2.73 264.073 2.862 263.677 2.862C 263.27 2.862 262.927 2.73 262.651 2.466C 262.375 2.202 262.237 1.86 262.237 1.44C 262.237 1.02 262.375 0.678 262.651 0.414C 262.927 0.138 263.27 0 263.677 0C 264.073 0 264.409 0.138 264.685 0.414C 264.973 0.678 265.117 1.02 265.117 1.44Z"/>
<path id="path31_fill" d="M 273.859 1.44C 273.859 1.86 273.715 2.202 273.427 2.466C 273.151 2.73 272.815 2.862 272.419 2.862C 272.011 2.862 271.669 2.73 271.393 2.466C 271.117 2.202 270.979 1.86 270.979 1.44C 270.979 1.02 271.117 0.678 271.393 0.414C 271.669 0.138 272.011 0 272.419 0C 272.815 0 273.151 0.138 273.427 0.414C 273.715 0.678 273.859 1.02 273.859 1.44Z"/>
<path id="path32_fill" d="M 282.6 1.44C 282.6 1.86 282.456 2.202 282.168 2.466C 281.892 2.73 281.556 2.862 281.16 2.862C 280.752 2.862 280.41 2.73 280.134 2.466C 279.858 2.202 279.72 1.86 279.72 1.44C 279.72 1.02 279.858 0.678 280.134 0.414C 280.41 0.138 280.752 0 281.16 0C 281.556 0 281.892 0.138 282.168 0.414C 282.456 0.678 282.6 1.02 282.6 1.44Z"/>
<path id="path33_fill" d="M 291.341 1.44C 291.341 1.86 291.197 2.202 290.909 2.466C 290.633 2.73 290.297 2.862 289.901 2.862C 289.493 2.862 289.151 2.73 288.875 2.466C 288.599 2.202 288.461 1.86 288.461 1.44C 288.461 1.02 288.599 0.678 288.875 0.414C 289.151 0.138 289.493 0 289.901 0C 290.297 0 290.633 0.138 290.909 0.414C 291.197 0.678 291.341 1.02 291.341 1.44Z"/>
</defs>
</svg>
<svg width="293" height="4" viewBox="0 0 293 4" version="1.1" xmlns="http://www.w3.org/2000/svg" xmlns:xlink="http://www.w3.org/1999/xlink">
<title>..................................</title>
<desc>Created using Figma</desc>
<g id="Canvas" transform="translate(3823 -8555)">
<g id="..................................">
<use xlink:href="#path0_fill" transform="translate(-3822.05 8555.37)" fill="#FFFFFF"/>
<use xlink:href="#path1_fill" transform="translate(-3822.05 8555.37)" fill="#FFFFFF"/>
<use xlink:href="#path2_fill" transform="translate(-3822.05 8555.37)" fill="#FFFFFF"/>
<use xlink:href="#path3_fill" transform="translate(-3822.05 8555.37)" fill="#FFFFFF"/>
<use xlink:href="#path4_fill" transform="translate(-3822.05 8555.37)" fill="#FFFFFF"/>
<use xlink:href="#path5_fill" transform="translate(-3822.05 8555.37)" fill="#FFFFFF"/>
<use xlink:href="#path6_fill" transform="translate(-3822.05 8555.37)" fill="#FFFFFF"/>
<use xlink:href="#path7_fill" transform="translate(-3822.05 8555.37)" fill="#FFFFFF"/>
<use xlink:href="#path8_fill" transform="translate(-3822.05 8555.37)" fill="#FFFFFF"/>
<use xlink:href="#path9_fill" transform="translate(-3822.05 8555.37)" fill="#FFFFFF"/>
<use xlink:href="#path10_fill" transform="translate(-3822.05 8555.37)" fill="#FFFFFF"/>
<use xlink:href="#path11_fill" transform="translate(-3822.05 8555.37)" fill="#FFFFFF"/>
<use xlink:href="#path12_fill" transform="translate(-3822.05 8555.37)" fill="#FFFFFF"/>
<use xlink:href="#path13_fill" transform="translate(-3822.05 8555.37)" fill="#FFFFFF"/>
<use xlink:href="#path14_fill" transform="translate(-3822.05 8555.37)" fill="#FFFFFF"/>
<use xlink:href="#path15_fill" transform="translate(-3822.05 8555.37)" fill="#FFFFFF"/>
<use xlink:href="#path16_fill" transform="translate(-3822.05 8555.37)" fill="#FFFFFF"/>
<use xlink:href="#path17_fill" transform="translate(-3822.05 8555.37)" fill="#FFFFFF"/>
<use xlink:href="#path18_fill" transform="translate(-3822.05 8555.37)" fill="#FFFFFF"/>
<use xlink:href="#path19_fill" transform="translate(-3822.05 8555.37)" fill="#FFFFFF"/>
<use xlink:href="#path20_fill" transform="translate(-3822.05 8555.37)" fill="#FFFFFF"/>
<use xlink:href="#path21_fill" transform="translate(-3822.05 8555.37)" fill="#FFFFFF"/>
<use xlink:href="#path22_fill" transform="translate(-3822.05 8555.37)" fill="#FFFFFF"/>
<use xlink:href="#path23_fill" transform="translate(-3822.05 8555.37)" fill="#FFFFFF"/>
<use xlink:href="#path24_fill" transform="translate(-3822.05 8555.37)" fill="#FFFFFF"/>
<use xlink:href="#path25_fill" transform="translate(-3822.05 8555.37)" fill="#FFFFFF"/>
<use xlink:href="#path26_fill" transform="translate(-3822.05 8555.37)" fill="#FFFFFF"/>
<use xlink:href="#path27_fill" transform="translate(-3822.05 8555.37)" fill="#FFFFFF"/>
<use xlink:href="#path28_fill" transform="translate(-3822.05 8555.37)" fill="#FFFFFF"/>
<use xlink:href="#path29_fill" transform="translate(-3822.05 8555.37)" fill="#FFFFFF"/>
<use xlink:href="#path30_fill" transform="translate(-3822.05 8555.37)" fill="#FFFFFF"/>
<use xlink:href="#path31_fill" transform="translate(-3822.05 8555.37)" fill="#FFFFFF"/>
<use xlink:href="#path32_fill" transform="translate(-3822.05 8555.37)" fill="#FFFFFF"/>
<use xlink:href="#path33_fill" transform="translate(-3822.05 8555.37)" fill="#FFFFFF"/>
</g>
</g>
<defs>
<path id="path0_fill" d="M 2.88 1.44C 2.88 1.86 2.736 2.202 2.448 2.466C 2.172 2.73 1.836 2.862 1.44 2.862C 1.032 2.862 0.69 2.73 0.414 2.466C 0.138 2.202 0 1.86 0 1.44C 0 1.02 0.138 0.678 0.414 0.414C 0.69 0.138 1.032 0 1.44 0C 1.836 0 2.172 0.138 2.448 0.414C 2.736 0.678 2.88 1.02 2.88 1.44Z"/>
<path id="path1_fill" d="M 11.6213 1.44C 11.6213 1.86 11.4773 2.202 11.1892 2.466C 10.9132 2.73 10.5772 2.862 10.1812 2.862C 9.77325 2.862 9.43125 2.73 9.15525 2.466C 8.87925 2.202 8.74125 1.86 8.74125 1.44C 8.74125 1.02 8.87925 0.678 9.15525 0.414C 9.43125 0.138 9.77325 0 10.1812 0C 10.5772 0 10.9132 0.138 11.1892 0.414C 11.4773 0.678 11.6213 1.02 11.6213 1.44Z"/>
<path id="path2_fill" d="M 20.3625 1.44C 20.3625 1.86 20.2185 2.202 19.9305 2.466C 19.6545 2.73 19.3185 2.862 18.9225 2.862C 18.5145 2.862 18.1725 2.73 17.8965 2.466C 17.6205 2.202 17.4825 1.86 17.4825 1.44C 17.4825 1.02 17.6205 0.678 17.8965 0.414C 18.1725 0.138 18.5145 0 18.9225 0C 19.3185 0 19.6545 0.138 19.9305 0.414C 20.2185 0.678 20.3625 1.02 20.3625 1.44Z"/>
<path id="path3_fill" d="M 29.1038 1.44C 29.1038 1.86 28.9598 2.202 28.6718 2.466C 28.3958 2.73 28.0598 2.862 27.6638 2.862C 27.2558 2.862 26.9137 2.73 26.6378 2.466C 26.3618 2.202 26.2238 1.86 26.2238 1.44C 26.2238 1.02 26.3618 0.678 26.6378 0.414C 26.9137 0.138 27.2558 0 27.6638 0C 28.0598 0 28.3958 0.138 28.6718 0.414C 28.9598 0.678 29.1038 1.02 29.1038 1.44Z"/>
<path id="path4_fill" d="M 37.845 1.44C 37.845 1.86 37.701 2.202 37.413 2.466C 37.137 2.73 36.801 2.862 36.405 2.862C 35.997 2.862 35.655 2.73 35.379 2.466C 35.103 2.202 34.965 1.86 34.965 1.44C 34.965 1.02 35.103 0.678 35.379 0.414C 35.655 0.138 35.997 0 36.405 0C 36.801 0 37.137 0.138 37.413 0.414C 37.701 0.678 37.845 1.02 37.845 1.44Z"/>
<path id="path5_fill" d="M 46.5863 1.44C 46.5863 1.86 46.4422 2.202 46.1543 2.466C 45.8783 2.73 45.5422 2.862 45.1462 2.862C 44.7382 2.862 44.3963 2.73 44.1203 2.466C 43.8442 2.202 43.7062 1.86 43.7062 1.44C 43.7062 1.02 43.8442 0.678 44.1203 0.414C 44.3963 0.138 44.7382 0 45.1462 0C 45.5422 0 45.8783 0.138 46.1543 0.414C 46.4422 0.678 46.5863 1.02 46.5863 1.44Z"/>
<path id="path6_fill" d="M 55.3275 1.44C 55.3275 1.86 55.1835 2.202 54.8955 2.466C 54.6195 2.73 54.2835 2.862 53.8875 2.862C 53.4795 2.862 53.1375 2.73 52.8615 2.466C 52.5855 2.202 52.4475 1.86 52.4475 1.44C 52.4475 1.02 52.5855 0.678 52.8615 0.414C 53.1375 0.138 53.4795 0 53.8875 0C 54.2835 0 54.6195 0.138 54.8955 0.414C 55.1835 0.678 55.3275 1.02 55.3275 1.44Z"/>
<path id="path7_fill" d="M 64.0687 1.44C 64.0687 1.86 63.9248 2.202 63.6368 2.466C 63.3608 2.73 63.0247 2.862 62.6287 2.862C 62.2207 2.862 61.8788 2.73 61.6028 2.466C 61.3268 2.202 61.1888 1.86 61.1888 1.44C 61.1888 1.02 61.3268 0.678 61.6028 0.414C 61.8788 0.138 62.2207 0 62.6287 0C 63.0247 0 63.3608 0.138 63.6368 0.414C 63.9248 0.678 64.0687 1.02 64.0687 1.44Z"/>
<path id="path8_fill" d="M 72.81 1.44C 72.81 1.86 72.666 2.202 72.378 2.466C 72.102 2.73 71.766 2.862 71.37 2.862C 70.962 2.862 70.62 2.73 70.344 2.466C 70.068 2.202 69.93 1.86 69.93 1.44C 69.93 1.02 70.068 0.678 70.344 0.414C 70.62 0.138 70.962 0 71.37 0C 71.766 0 72.102 0.138 72.378 0.414C 72.666 0.678 72.81 1.02 72.81 1.44Z"/>
<path id="path9_fill" d="M 81.5512 1.44C 81.5512 1.86 81.4072 2.202 81.1192 2.466C 80.8432 2.73 80.5073 2.862 80.1113 2.862C 79.7033 2.862 79.3613 2.73 79.0853 2.466C 78.8092 2.202 78.6712 1.86 78.6712 1.44C 78.6712 1.02 78.8092 0.678 79.0853 0.414C 79.3613 0.138 79.7033 0 80.1113 0C 80.5073 0 80.8432 0.138 81.1192 0.414C 81.4072 0.678 81.5512 1.02 81.5512 1.44Z"/>
<path id="path10_fill" d="M 90.2925 1.44C 90.2925 1.86 90.1485 2.202 89.8605 2.466C 89.5845 2.73 89.2485 2.862 88.8525 2.862C 88.4445 2.862 88.1025 2.73 87.8265 2.466C 87.5505 2.202 87.4125 1.86 87.4125 1.44C 87.4125 1.02 87.5505 0.678 87.8265 0.414C 88.1025 0.138 88.4445 0 88.8525 0C 89.2485 0 89.5845 0.138 89.8605 0.414C 90.1485 0.678 90.2925 1.02 90.2925 1.44Z"/>
<path id="path11_fill" d="M 99.0337 1.44C 99.0337 1.86 98.8897 2.202 98.6017 2.466C 98.3257 2.73 97.9898 2.862 97.5938 2.862C 97.1858 2.862 96.8438 2.73 96.5677 2.466C 96.2917 2.202 96.1537 1.86 96.1537 1.44C 96.1537 1.02 96.2917 0.678 96.5677 0.414C 96.8438 0.138 97.1858 0 97.5938 0C 97.9898 0 98.3257 0.138 98.6017 0.414C 98.8897 0.678 99.0337 1.02 99.0337 1.44Z"/>
<path id="path12_fill" d="M 107.775 1.44C 107.775 1.86 107.631 2.202 107.343 2.466C 107.067 2.73 106.731 2.862 106.335 2.862C 105.927 2.862 105.585 2.73 105.309 2.466C 105.033 2.202 104.895 1.86 104.895 1.44C 104.895 1.02 105.033 0.678 105.309 0.414C 105.585 0.138 105.927 0 106.335 0C 106.731 0 107.067 0.138 107.343 0.414C 107.631 0.678 107.775 1.02 107.775 1.44Z"/>
<path id="path13_fill" d="M 116.516 1.44C 116.516 1.86 116.372 2.202 116.084 2.466C 115.808 2.73 115.472 2.862 115.076 2.862C 114.668 2.862 114.326 2.73 114.05 2.466C 113.774 2.202 113.636 1.86 113.636 1.44C 113.636 1.02 113.774 0.678 114.05 0.414C 114.326 0.138 114.668 0 115.076 0C 115.472 0 115.808 0.138 116.084 0.414C 116.372 0.678 116.516 1.02 116.516 1.44Z"/>
<path id="path14_fill" d="M 125.257 1.44C 125.257 1.86 125.114 2.202 124.826 2.466C 124.549 2.73 124.214 2.862 123.818 2.862C 123.41 2.862 123.068 2.73 122.792 2.466C 122.516 2.202 122.378 1.86 122.378 1.44C 122.378 1.02 122.516 0.678 122.792 0.414C 123.068 0.138 123.41 0 123.818 0C 124.214 0 124.549 0.138 124.826 0.414C 125.114 0.678 125.257 1.02 125.257 1.44Z"/>
<path id="path15_fill" d="M 133.999 1.44C 133.999 1.86 133.855 2.202 133.567 2.466C 133.291 2.73 132.955 2.862 132.559 2.862C 132.151 2.862 131.809 2.73 131.533 2.466C 131.257 2.202 131.119 1.86 131.119 1.44C 131.119 1.02 131.257 0.678 131.533 0.414C 131.809 0.138 132.151 0 132.559 0C 132.955 0 133.291 0.138 133.567 0.414C 133.855 0.678 133.999 1.02 133.999 1.44Z"/>
<path id="path16_fill" d="M 142.74 1.44C 142.74 1.86 142.596 2.202 142.308 2.466C 142.032 2.73 141.696 2.862 141.3 2.862C 140.892 2.862 140.55 2.73 140.274 2.466C 139.998 2.202 139.86 1.86 139.86 1.44C 139.86 1.02 139.998 0.678 140.274 0.414C 140.55 0.138 140.892 0 141.3 0C 141.696 0 142.032 0.138 142.308 0.414C 142.596 0.678 142.74 1.02 142.74 1.44Z"/>
<path id="path17_fill" d="M 151.481 1.44C 151.481 1.86 151.337 2.202 151.049 2.466C 150.773 2.73 150.437 2.862 150.041 2.862C 149.633 2.862 149.291 2.73 149.015 2.466C 148.739 2.202 148.601 1.86 148.601 1.44C 148.601 1.02 148.739 0.678 149.015 0.414C 149.291 0.138 149.633 0 150.041 0C 150.437 0 150.773 0.138 151.049 0.414C 151.337 0.678 151.481 1.02 151.481 1.44Z"/>
<path id="path18_fill" d="M 160.223 1.44C 160.223 1.86 160.078 2.202 159.79 2.466C 159.514 2.73 159.178 2.862 158.783 2.862C 158.374 2.862 158.033 2.73 157.757 2.466C 157.48 2.202 157.342 1.86 157.342 1.44C 157.342 1.02 157.48 0.678 157.757 0.414C 158.033 0.138 158.374 0 158.783 0C 159.178 0 159.514 0.138 159.79 0.414C 160.078 0.678 160.223 1.02 160.223 1.44Z"/>
<path id="path19_fill" d="M 168.964 1.44C 168.964 1.86 168.82 2.202 168.532 2.466C 168.256 2.73 167.92 2.862 167.524 2.862C 167.116 2.862 166.774 2.73 166.498 2.466C 166.222 2.202 166.084 1.86 166.084 1.44C 166.084 1.02 166.222 0.678 166.498 0.414C 166.774 0.138 167.116 0 167.524 0C 167.92 0 168.256 0.138 168.532 0.414C 168.82 0.678 168.964 1.02 168.964 1.44Z"/>
<path id="path20_fill" d="M 177.705 1.44C 177.705 1.86 177.561 2.202 177.273 2.466C 176.997 2.73 176.661 2.862 176.265 2.862C 175.857 2.862 175.515 2.73 175.239 2.466C 174.963 2.202 174.825 1.86 174.825 1.44C 174.825 1.02 174.963 0.678 175.239 0.414C 175.515 0.138 175.857 0 176.265 0C 176.661 0 176.997 0.138 177.273 0.414C 177.561 0.678 177.705 1.02 177.705 1.44Z"/>
<path id="path21_fill" d="M 186.446 1.44C 186.446 1.86 186.302 2.202 186.014 2.466C 185.738 2.73 185.402 2.862 185.006 2.862C 184.598 2.862 184.256 2.73 183.98 2.466C 183.704 2.202 183.566 1.86 183.566 1.44C 183.566 1.02 183.704 0.678 183.98 0.414C 184.256 0.138 184.598 0 185.006 0C 185.402 0 185.738 0.138 186.014 0.414C 186.302 0.678 186.446 1.02 186.446 1.44Z"/>
<path id="path22_fill" d="M 195.188 1.44C 195.188 1.86 195.043 2.202 194.755 2.466C 194.479 2.73 194.143 2.862 193.747 2.862C 193.339 2.862 192.997 2.73 192.721 2.466C 192.445 2.202 192.307 1.86 192.307 1.44C 192.307 1.02 192.445 0.678 192.721 0.414C 192.997 0.138 193.339 0 193.747 0C 194.143 0 194.479 0.138 194.755 0.414C 195.043 0.678 195.188 1.02 195.188 1.44Z"/>
<path id="path23_fill" d="M 203.929 1.44C 203.929 1.86 203.785 2.202 203.497 2.466C 203.221 2.73 202.885 2.862 202.489 2.862C 202.081 2.862 201.739 2.73 201.463 2.466C 201.187 2.202 201.049 1.86 201.049 1.44C 201.049 1.02 201.187 0.678 201.463 0.414C 201.739 0.138 202.081 0 202.489 0C 202.885 0 203.221 0.138 203.497 0.414C 203.785 0.678 203.929 1.02 203.929 1.44Z"/>
<path id="path24_fill" d="M 212.67 1.44C 212.67 1.86 212.526 2.202 212.238 2.466C 211.962 2.73 211.626 2.862 211.23 2.862C 210.822 2.862 210.48 2.73 210.204 2.466C 209.928 2.202 209.79 1.86 209.79 1.44C 209.79 1.02 209.928 0.678 210.204 0.414C 210.48 0.138 210.822 0 211.23 0C 211.626 0 211.962 0.138 212.238 0.414C 212.526 0.678 212.67 1.02 212.67 1.44Z"/>
<path id="path25_fill" d="M 221.411 1.44C 221.411 1.86 221.267 2.202 220.979 2.466C 220.703 2.73 220.367 2.862 219.971 2.862C 219.563 2.862 219.221 2.73 218.945 2.466C 218.669 2.202 218.531 1.86 218.531 1.44C 218.531 1.02 218.669 0.678 218.945 0.414C 219.221 0.138 219.563 0 219.971 0C 220.367 0 220.703 0.138 220.979 0.414C 221.267 0.678 221.411 1.02 221.411 1.44Z"/>
<path id="path26_fill" d="M 230.153 1.44C 230.153 1.86 230.008 2.202 229.721 2.466C 229.445 2.73 229.109 2.862 228.713 2.862C 228.305 2.862 227.963 2.73 227.687 2.466C 227.411 2.202 227.273 1.86 227.273 1.44C 227.273 1.02 227.411 0.678 227.687 0.414C 227.963 0.138 228.305 0 228.713 0C 229.109 0 229.445 0.138 229.721 0.414C 230.008 0.678 230.153 1.02 230.153 1.44Z"/>
<path id="path27_fill" d="M 238.894 1.44C 238.894 1.86 238.75 2.202 238.462 2.466C 238.186 2.73 237.85 2.862 237.454 2.862C 237.046 2.862 236.704 2.73 236.428 2.466C 236.152 2.202 236.014 1.86 236.014 1.44C 236.014 1.02 236.152 0.678 236.428 0.414C 236.704 0.138 237.046 0 237.454 0C 237.85 0 238.186 0.138 238.462 0.414C 238.75 0.678 238.894 1.02 238.894 1.44Z"/>
<path id="path28_fill" d="M 247.635 1.44C 247.635 1.86 247.491 2.202 247.203 2.466C 246.927 2.73 246.591 2.862 246.195 2.862C 245.787 2.862 245.445 2.73 245.169 2.466C 244.893 2.202 244.755 1.86 244.755 1.44C 244.755 1.02 244.893 0.678 245.169 0.414C 245.445 0.138 245.787 0 246.195 0C 246.591 0 246.927 0.138 247.203 0.414C 247.491 0.678 247.635 1.02 247.635 1.44Z"/>
<path id="path29_fill" d="M 256.376 1.44C 256.376 1.86 256.232 2.202 255.944 2.466C 255.668 2.73 255.332 2.862 254.936 2.862C 254.528 2.862 254.186 2.73 253.91 2.466C 253.634 2.202 253.496 1.86 253.496 1.44C 253.496 1.02 253.634 0.678 253.91 0.414C 254.186 0.138 254.528 0 254.936 0C 255.332 0 255.668 0.138 255.944 0.414C 256.232 0.678 256.376 1.02 256.376 1.44Z"/>
<path id="path30_fill" d="M 265.117 1.44C 265.117 1.86 264.973 2.202 264.685 2.466C 264.409 2.73 264.073 2.862 263.677 2.862C 263.27 2.862 262.927 2.73 262.651 2.466C 262.375 2.202 262.237 1.86 262.237 1.44C 262.237 1.02 262.375 0.678 262.651 0.414C 262.927 0.138 263.27 0 263.677 0C 264.073 0 264.409 0.138 264.685 0.414C 264.973 0.678 265.117 1.02 265.117 1.44Z"/>
<path id="path31_fill" d="M 273.859 1.44C 273.859 1.86 273.715 2.202 273.427 2.466C 273.151 2.73 272.815 2.862 272.419 2.862C 272.011 2.862 271.669 2.73 271.393 2.466C 271.117 2.202 270.979 1.86 270.979 1.44C 270.979 1.02 271.117 0.678 271.393 0.414C 271.669 0.138 272.011 0 272.419 0C 272.815 0 273.151 0.138 273.427 0.414C 273.715 0.678 273.859 1.02 273.859 1.44Z"/>
<path id="path32_fill" d="M 282.6 1.44C 282.6 1.86 282.456 2.202 282.168 2.466C 281.892 2.73 281.556 2.862 281.16 2.862C 280.752 2.862 280.41 2.73 280.134 2.466C 279.858 2.202 279.72 1.86 279.72 1.44C 279.72 1.02 279.858 0.678 280.134 0.414C 280.41 0.138 280.752 0 281.16 0C 281.556 0 281.892 0.138 282.168 0.414C 282.456 0.678 282.6 1.02 282.6 1.44Z"/>
<path id="path33_fill" d="M 291.341 1.44C 291.341 1.86 291.197 2.202 290.909 2.466C 290.633 2.73 290.297 2.862 289.901 2.862C 289.493 2.862 289.151 2.73 288.875 2.466C 288.599 2.202 288.461 1.86 288.461 1.44C 288.461 1.02 288.599 0.678 288.875 0.414C 289.151 0.138 289.493 0 289.901 0C 290.297 0 290.633 0.138 290.909 0.414C 291.197 0.678 291.341 1.02 291.341 1.44Z"/>
</defs>
</svg>
