<?xml version="1.0" encoding="utf-8"?>
<!-- Generator: Adobe Illustrator 21.1.0, SVG Export Plug-In . SVG Version: 6.00 Build 0)  -->
<svg version="1.1" id="Слой_1" xmlns="http://www.w3.org/2000/svg" xmlns:xlink="http://www.w3.org/1999/xlink" x="0px" y="0px"
	 viewBox="0 0 116 29.5" style="enable-background:new 0 0 116 29.5;" xml:space="preserve">
<style type="text/css">
	.st0{fill:#FFFFFF;}
	.st1{fill:#76E2A2;}
	.st2{fill:none;}
</style>
<title>Group 3.1</title>
<g>
	<path class="st0" d="M34.2,26c0,1.9-1.6,3.5-3.5,3.5s-3.5-1.6-3.5-3.5s1.6-3.5,3.5-3.5S34.2,24,34.2,26z"/>
	<path class="st0" d="M34.2,13.9c0,1.9-1.6,3.5-3.5,3.5s-3.5-1.6-3.5-3.5s1.6-3.5,3.5-3.5S34.2,11.9,34.2,13.9L34.2,13.9z"/>
	<path class="st1" d="M13.8,13.9c0,1.9-1.6,3.5-3.5,3.5s-3.5-1.6-3.5-3.5s1.6-3.5,3.5-3.5S13.8,11.9,13.8,13.9L13.8,13.9z"/>
	<path class="st1" d="M20.6,26c0,1.9-1.6,3.5-3.5,3.5s-3.5-1.6-3.5-3.5s1.6-3.5,3.5-3.5S20.6,24,20.6,26z"/>
	<path class="st1" d="M7,26c0,1.9-1.6,3.5-3.5,3.5S0,27.9,0,26s1.6-3.5,3.5-3.5S7,24,7,26z"/>
	<g>
		<path class="st0" d="M52.7,25.2v-5.1c0-1.9-1.2-2.6-2.9-2.6c-0.9,0-1.8,0.2-2.6,0.6l0.3,0.9c0.7-0.3,1.4-0.5,2.2-0.5
			c1.1,0,1.9,0.4,1.9,1.5v0.6c-2.4,0.1-4.8,0.5-4.8,2.7s1.1,2.4,3.3,2.4C51,25.7,51.9,25.5,52.7,25.2z M51.5,24.6l-1.6,0.2
			c-1.4,0-2.1-0.6-2.1-1.5s1.9-1.7,3.7-1.9L51.5,24.6z"/>
		<path class="st0" d="M58,15.3c0-0.4-0.4-0.8-0.8-0.8c-0.4,0-0.8,0.4-0.8,0.8c0,0.4,0.4,0.8,0.8,0.8C57.6,16.1,58,15.7,58,15.3z
			 M57.8,25.6v-7.9h-1.1v7.9H57.8z"/>
		<path class="st0" d="M65.3,25.6v-1h-0.5c-0.6,0.1-1.1-0.4-1.2-1c0,0,0-0.1,0-0.1v-4.9h1.7v-0.9h-1.7v-2.3l-1.2,0.4v1.9h-1.1v0.9
			h1.1v4.9c-0.1,1,0.6,2,1.7,2.1c0.1,0,0.3,0,0.4,0H65.3z"/>
		<path class="st0" d="M72.3,17.6h-0.8c-1,0-2,0.2-2.9,0.6v7.5h1.2v-6.9c0.5-0.2,1-0.2,1.5-0.2H72L72.3,17.6z"/>
		<path class="st0" d="M81,25.2v-5.1c0-1.9-1.2-2.6-2.9-2.6c-0.9,0-1.8,0.2-2.6,0.6l0.3,0.9c0.7-0.3,1.4-0.5,2.2-0.5
			c1.1,0,1.9,0.4,1.9,1.5v0.6c-2.4,0.1-4.8,0.5-4.8,2.7s1.1,2.4,3.3,2.4C79.3,25.7,80.2,25.5,81,25.2z M79.8,24.6l-1.6,0.2
			c-1.4,0-2.1-0.6-2.1-1.5s1.9-1.7,3.7-1.9V24.6z"/>
		<path class="st0" d="M90.9,25.2V14.1h-1.2v3.7l-1.4-0.2c-2.4,0-3.6,1.7-3.6,4.1c0,2.4,1.3,4,3.7,4C89.3,25.7,90.1,25.5,90.9,25.2z
			 M89.7,24.5l-1.3,0.2c-1.6,0-2.5-1.2-2.5-3c0-1.8,0.9-3.2,2.5-3.2l1.3,0.2V24.5z"/>
		<path class="st0" d="M96.3,15.3c0-0.4-0.4-0.8-0.8-0.8c-0.4,0-0.8,0.4-0.8,0.8c0,0.4,0.4,0.8,0.8,0.8
			C95.9,16.1,96.3,15.7,96.3,15.3z M96.1,25.6v-7.9h-1.2v7.9H96.1z"/>
		<path class="st0" d="M106.1,25.6v-5.4c0-1.7-1.1-2.6-3.1-2.6c-1,0-2,0.2-2.9,0.6v7.5h1.2v-6.9c0.5-0.2,1.1-0.3,1.7-0.3
			c1.3,0,1.9,0.7,1.9,1.7v5.4L106.1,25.6z"/>
		<path class="st0" d="M116,25.7v-7.6c-0.8-0.4-1.6-0.6-2.5-0.6c-2.2,0-3.8,1.2-3.8,4s1.4,3.8,3.4,3.8c0.6,0,1.2-0.1,1.7-0.4v0.7
			c0.1,1.1-0.7,2.1-1.8,2.2c-0.1,0-0.2,0-0.3,0c-0.8,0-1.5-0.2-2.2-0.5l-0.4,1c0.8,0.4,1.7,0.6,2.6,0.6c1.6,0.2,3.1-1,3.3-2.7
			C116,26,116,25.8,116,25.7z M114.8,24.1c-0.5,0.2-1,0.3-1.5,0.3c-1.4,0-2.4-1-2.4-2.9s1.1-3,2.5-3c0.5,0,1,0,1.4,0.2V24.1z"/>
	</g>
</g>
<path class="st2" d="M10.5,13.9c-1.3-0.5-0.6-7.5,1.9-8.1c1.9-0.5,4.8,3,8.9,7.8c3.1,3.5,4.2,5.3,5.5,5.1c1.9-0.3,3.5-2.5,4-4.6
	C32,8.9,27.1,2,22.6,1.9C16.4,1.7,12.3,14.7,10.5,13.9z"/>
<path class="st2" d="M32.1,13.8c0,2.9-5.2,5.3-8.9,5.9c-3.9,0.6-10.3-0.8-12.8-5.8C9.1,11,8.8,7.5,11.1,5.5
	c2.7-2.3,7.3-0.4,12.1,1.6C27.3,8.8,32.2,10.9,32.1,13.8z"/>
</svg>
<?xml version="1.0" encoding="utf-8"?>
<!-- Generator: Adobe Illustrator 21.1.0, SVG Export Plug-In . SVG Version: 6.00 Build 0)  -->
<svg version="1.1" id="Слой_1" xmlns="http://www.w3.org/2000/svg" xmlns:xlink="http://www.w3.org/1999/xlink" x="0px" y="0px"
	 viewBox="0 0 116 29.5" style="enable-background:new 0 0 116 29.5;" xml:space="preserve">
<style type="text/css">
	.st0{fill:#FFFFFF;}
	.st1{fill:#76E2A2;}
	.st2{fill:none;}
</style>
<title>Group 3.1</title>
<g>
	<path class="st0" d="M34.2,26c0,1.9-1.6,3.5-3.5,3.5s-3.5-1.6-3.5-3.5s1.6-3.5,3.5-3.5S34.2,24,34.2,26z"/>
	<path class="st0" d="M34.2,13.9c0,1.9-1.6,3.5-3.5,3.5s-3.5-1.6-3.5-3.5s1.6-3.5,3.5-3.5S34.2,11.9,34.2,13.9L34.2,13.9z"/>
	<path class="st1" d="M13.8,13.9c0,1.9-1.6,3.5-3.5,3.5s-3.5-1.6-3.5-3.5s1.6-3.5,3.5-3.5S13.8,11.9,13.8,13.9L13.8,13.9z"/>
	<path class="st1" d="M20.6,26c0,1.9-1.6,3.5-3.5,3.5s-3.5-1.6-3.5-3.5s1.6-3.5,3.5-3.5S20.6,24,20.6,26z"/>
	<path class="st1" d="M7,26c0,1.9-1.6,3.5-3.5,3.5S0,27.9,0,26s1.6-3.5,3.5-3.5S7,24,7,26z"/>
	<g>
		<path class="st0" d="M52.7,25.2v-5.1c0-1.9-1.2-2.6-2.9-2.6c-0.9,0-1.8,0.2-2.6,0.6l0.3,0.9c0.7-0.3,1.4-0.5,2.2-0.5
			c1.1,0,1.9,0.4,1.9,1.5v0.6c-2.4,0.1-4.8,0.5-4.8,2.7s1.1,2.4,3.3,2.4C51,25.7,51.9,25.5,52.7,25.2z M51.5,24.6l-1.6,0.2
			c-1.4,0-2.1-0.6-2.1-1.5s1.9-1.7,3.7-1.9L51.5,24.6z"/>
		<path class="st0" d="M58,15.3c0-0.4-0.4-0.8-0.8-0.8c-0.4,0-0.8,0.4-0.8,0.8c0,0.4,0.4,0.8,0.8,0.8C57.6,16.1,58,15.7,58,15.3z
			 M57.8,25.6v-7.9h-1.1v7.9H57.8z"/>
		<path class="st0" d="M65.3,25.6v-1h-0.5c-0.6,0.1-1.1-0.4-1.2-1c0,0,0-0.1,0-0.1v-4.9h1.7v-0.9h-1.7v-2.3l-1.2,0.4v1.9h-1.1v0.9
			h1.1v4.9c-0.1,1,0.6,2,1.7,2.1c0.1,0,0.3,0,0.4,0H65.3z"/>
		<path class="st0" d="M72.3,17.6h-0.8c-1,0-2,0.2-2.9,0.6v7.5h1.2v-6.9c0.5-0.2,1-0.2,1.5-0.2H72L72.3,17.6z"/>
		<path class="st0" d="M81,25.2v-5.1c0-1.9-1.2-2.6-2.9-2.6c-0.9,0-1.8,0.2-2.6,0.6l0.3,0.9c0.7-0.3,1.4-0.5,2.2-0.5
			c1.1,0,1.9,0.4,1.9,1.5v0.6c-2.4,0.1-4.8,0.5-4.8,2.7s1.1,2.4,3.3,2.4C79.3,25.7,80.2,25.5,81,25.2z M79.8,24.6l-1.6,0.2
			c-1.4,0-2.1-0.6-2.1-1.5s1.9-1.7,3.7-1.9V24.6z"/>
		<path class="st0" d="M90.9,25.2V14.1h-1.2v3.7l-1.4-0.2c-2.4,0-3.6,1.7-3.6,4.1c0,2.4,1.3,4,3.7,4C89.3,25.7,90.1,25.5,90.9,25.2z
			 M89.7,24.5l-1.3,0.2c-1.6,0-2.5-1.2-2.5-3c0-1.8,0.9-3.2,2.5-3.2l1.3,0.2V24.5z"/>
		<path class="st0" d="M96.3,15.3c0-0.4-0.4-0.8-0.8-0.8c-0.4,0-0.8,0.4-0.8,0.8c0,0.4,0.4,0.8,0.8,0.8
			C95.9,16.1,96.3,15.7,96.3,15.3z M96.1,25.6v-7.9h-1.2v7.9H96.1z"/>
		<path class="st0" d="M106.1,25.6v-5.4c0-1.7-1.1-2.6-3.1-2.6c-1,0-2,0.2-2.9,0.6v7.5h1.2v-6.9c0.5-0.2,1.1-0.3,1.7-0.3
			c1.3,0,1.9,0.7,1.9,1.7v5.4L106.1,25.6z"/>
		<path class="st0" d="M116,25.7v-7.6c-0.8-0.4-1.6-0.6-2.5-0.6c-2.2,0-3.8,1.2-3.8,4s1.4,3.8,3.4,3.8c0.6,0,1.2-0.1,1.7-0.4v0.7
			c0.1,1.1-0.7,2.1-1.8,2.2c-0.1,0-0.2,0-0.3,0c-0.8,0-1.5-0.2-2.2-0.5l-0.4,1c0.8,0.4,1.7,0.6,2.6,0.6c1.6,0.2,3.1-1,3.3-2.7
			C116,26,116,25.8,116,25.7z M114.8,24.1c-0.5,0.2-1,0.3-1.5,0.3c-1.4,0-2.4-1-2.4-2.9s1.1-3,2.5-3c0.5,0,1,0,1.4,0.2V24.1z"/>
	</g>
</g>
<path class="st2" d="M10.5,13.9c-1.3-0.5-0.6-7.5,1.9-8.1c1.9-0.5,4.8,3,8.9,7.8c3.1,3.5,4.2,5.3,5.5,5.1c1.9-0.3,3.5-2.5,4-4.6
	C32,8.9,27.1,2,22.6,1.9C16.4,1.7,12.3,14.7,10.5,13.9z"/>
<path class="st2" d="M32.1,13.8c0,2.9-5.2,5.3-8.9,5.9c-3.9,0.6-10.3-0.8-12.8-5.8C9.1,11,8.8,7.5,11.1,5.5
	c2.7-2.3,7.3-0.4,12.1,1.6C27.3,8.8,32.2,10.9,32.1,13.8z"/>
</svg>
<?xml version="1.0" encoding="utf-8"?>
<!-- Generator: Adobe Illustrator 21.1.0, SVG Export Plug-In . SVG Version: 6.00 Build 0)  -->
<svg version="1.1" id="Слой_1" xmlns="http://www.w3.org/2000/svg" xmlns:xlink="http://www.w3.org/1999/xlink" x="0px" y="0px"
	 viewBox="0 0 116 29.5" style="enable-background:new 0 0 116 29.5;" xml:space="preserve">
<style type="text/css">
	.st0{fill:#FFFFFF;}
	.st1{fill:#76E2A2;}
	.st2{fill:none;}
</style>
<title>Group 3.1</title>
<g>
	<path class="st0" d="M34.2,26c0,1.9-1.6,3.5-3.5,3.5s-3.5-1.6-3.5-3.5s1.6-3.5,3.5-3.5S34.2,24,34.2,26z"/>
	<path class="st0" d="M34.2,13.9c0,1.9-1.6,3.5-3.5,3.5s-3.5-1.6-3.5-3.5s1.6-3.5,3.5-3.5S34.2,11.9,34.2,13.9L34.2,13.9z"/>
	<path class="st1" d="M13.8,13.9c0,1.9-1.6,3.5-3.5,3.5s-3.5-1.6-3.5-3.5s1.6-3.5,3.5-3.5S13.8,11.9,13.8,13.9L13.8,13.9z"/>
	<path class="st1" d="M20.6,26c0,1.9-1.6,3.5-3.5,3.5s-3.5-1.6-3.5-3.5s1.6-3.5,3.5-3.5S20.6,24,20.6,26z"/>
	<path class="st1" d="M7,26c0,1.9-1.6,3.5-3.5,3.5S0,27.9,0,26s1.6-3.5,3.5-3.5S7,24,7,26z"/>
	<g>
		<path class="st0" d="M52.7,25.2v-5.1c0-1.9-1.2-2.6-2.9-2.6c-0.9,0-1.8,0.2-2.6,0.6l0.3,0.9c0.7-0.3,1.4-0.5,2.2-0.5
			c1.1,0,1.9,0.4,1.9,1.5v0.6c-2.4,0.1-4.8,0.5-4.8,2.7s1.1,2.4,3.3,2.4C51,25.7,51.9,25.5,52.7,25.2z M51.5,24.6l-1.6,0.2
			c-1.4,0-2.1-0.6-2.1-1.5s1.9-1.7,3.7-1.9L51.5,24.6z"/>
		<path class="st0" d="M58,15.3c0-0.4-0.4-0.8-0.8-0.8c-0.4,0-0.8,0.4-0.8,0.8c0,0.4,0.4,0.8,0.8,0.8C57.6,16.1,58,15.7,58,15.3z
			 M57.8,25.6v-7.9h-1.1v7.9H57.8z"/>
		<path class="st0" d="M65.3,25.6v-1h-0.5c-0.6,0.1-1.1-0.4-1.2-1c0,0,0-0.1,0-0.1v-4.9h1.7v-0.9h-1.7v-2.3l-1.2,0.4v1.9h-1.1v0.9
			h1.1v4.9c-0.1,1,0.6,2,1.7,2.1c0.1,0,0.3,0,0.4,0H65.3z"/>
		<path class="st0" d="M72.3,17.6h-0.8c-1,0-2,0.2-2.9,0.6v7.5h1.2v-6.9c0.5-0.2,1-0.2,1.5-0.2H72L72.3,17.6z"/>
		<path class="st0" d="M81,25.2v-5.1c0-1.9-1.2-2.6-2.9-2.6c-0.9,0-1.8,0.2-2.6,0.6l0.3,0.9c0.7-0.3,1.4-0.5,2.2-0.5
			c1.1,0,1.9,0.4,1.9,1.5v0.6c-2.4,0.1-4.8,0.5-4.8,2.7s1.1,2.4,3.3,2.4C79.3,25.7,80.2,25.5,81,25.2z M79.8,24.6l-1.6,0.2
			c-1.4,0-2.1-0.6-2.1-1.5s1.9-1.7,3.7-1.9V24.6z"/>
		<path class="st0" d="M90.9,25.2V14.1h-1.2v3.7l-1.4-0.2c-2.4,0-3.6,1.7-3.6,4.1c0,2.4,1.3,4,3.7,4C89.3,25.7,90.1,25.5,90.9,25.2z
			 M89.7,24.5l-1.3,0.2c-1.6,0-2.5-1.2-2.5-3c0-1.8,0.9-3.2,2.5-3.2l1.3,0.2V24.5z"/>
		<path class="st0" d="M96.3,15.3c0-0.4-0.4-0.8-0.8-0.8c-0.4,0-0.8,0.4-0.8,0.8c0,0.4,0.4,0.8,0.8,0.8
			C95.9,16.1,96.3,15.7,96.3,15.3z M96.1,25.6v-7.9h-1.2v7.9H96.1z"/>
		<path class="st0" d="M106.1,25.6v-5.4c0-1.7-1.1-2.6-3.1-2.6c-1,0-2,0.2-2.9,0.6v7.5h1.2v-6.9c0.5-0.2,1.1-0.3,1.7-0.3
			c1.3,0,1.9,0.7,1.9,1.7v5.4L106.1,25.6z"/>
		<path class="st0" d="M116,25.7v-7.6c-0.8-0.4-1.6-0.6-2.5-0.6c-2.2,0-3.8,1.2-3.8,4s1.4,3.8,3.4,3.8c0.6,0,1.2-0.1,1.7-0.4v0.7
			c0.1,1.1-0.7,2.1-1.8,2.2c-0.1,0-0.2,0-0.3,0c-0.8,0-1.5-0.2-2.2-0.5l-0.4,1c0.8,0.4,1.7,0.6,2.6,0.6c1.6,0.2,3.1-1,3.3-2.7
			C116,26,116,25.8,116,25.7z M114.8,24.1c-0.5,0.2-1,0.3-1.5,0.3c-1.4,0-2.4-1-2.4-2.9s1.1-3,2.5-3c0.5,0,1,0,1.4,0.2V24.1z"/>
	</g>
</g>
<path class="st2" d="M10.5,13.9c-1.3-0.5-0.6-7.5,1.9-8.1c1.9-0.5,4.8,3,8.9,7.8c3.1,3.5,4.2,5.3,5.5,5.1c1.9-0.3,3.5-2.5,4-4.6
	C32,8.9,27.1,2,22.6,1.9C16.4,1.7,12.3,14.7,10.5,13.9z"/>
<path class="st2" d="M32.1,13.8c0,2.9-5.2,5.3-8.9,5.9c-3.9,0.6-10.3-0.8-12.8-5.8C9.1,11,8.8,7.5,11.1,5.5
	c2.7-2.3,7.3-0.4,12.1,1.6C27.3,8.8,32.2,10.9,32.1,13.8z"/>
</svg>
<?xml version="1.0" encoding="utf-8"?>
<!-- Generator: Adobe Illustrator 21.1.0, SVG Export Plug-In . SVG Version: 6.00 Build 0)  -->
<svg version="1.1" id="Слой_1" xmlns="http://www.w3.org/2000/svg" xmlns:xlink="http://www.w3.org/1999/xlink" x="0px" y="0px"
	 viewBox="0 0 116 29.5" style="enable-background:new 0 0 116 29.5;" xml:space="preserve">
<style type="text/css">
	.st0{fill:#FFFFFF;}
	.st1{fill:#76E2A2;}
	.st2{fill:none;}
</style>
<title>Group 3.1</title>
<g>
	<path class="st0" d="M34.2,26c0,1.9-1.6,3.5-3.5,3.5s-3.5-1.6-3.5-3.5s1.6-3.5,3.5-3.5S34.2,24,34.2,26z"/>
	<path class="st0" d="M34.2,13.9c0,1.9-1.6,3.5-3.5,3.5s-3.5-1.6-3.5-3.5s1.6-3.5,3.5-3.5S34.2,11.9,34.2,13.9L34.2,13.9z"/>
	<path class="st1" d="M13.8,13.9c0,1.9-1.6,3.5-3.5,3.5s-3.5-1.6-3.5-3.5s1.6-3.5,3.5-3.5S13.8,11.9,13.8,13.9L13.8,13.9z"/>
	<path class="st1" d="M20.6,26c0,1.9-1.6,3.5-3.5,3.5s-3.5-1.6-3.5-3.5s1.6-3.5,3.5-3.5S20.6,24,20.6,26z"/>
	<path class="st1" d="M7,26c0,1.9-1.6,3.5-3.5,3.5S0,27.9,0,26s1.6-3.5,3.5-3.5S7,24,7,26z"/>
	<g>
		<path class="st0" d="M52.7,25.2v-5.1c0-1.9-1.2-2.6-2.9-2.6c-0.9,0-1.8,0.2-2.6,0.6l0.3,0.9c0.7-0.3,1.4-0.5,2.2-0.5
			c1.1,0,1.9,0.4,1.9,1.5v0.6c-2.4,0.1-4.8,0.5-4.8,2.7s1.1,2.4,3.3,2.4C51,25.7,51.9,25.5,52.7,25.2z M51.5,24.6l-1.6,0.2
			c-1.4,0-2.1-0.6-2.1-1.5s1.9-1.7,3.7-1.9L51.5,24.6z"/>
		<path class="st0" d="M58,15.3c0-0.4-0.4-0.8-0.8-0.8c-0.4,0-0.8,0.4-0.8,0.8c0,0.4,0.4,0.8,0.8,0.8C57.6,16.1,58,15.7,58,15.3z
			 M57.8,25.6v-7.9h-1.1v7.9H57.8z"/>
		<path class="st0" d="M65.3,25.6v-1h-0.5c-0.6,0.1-1.1-0.4-1.2-1c0,0,0-0.1,0-0.1v-4.9h1.7v-0.9h-1.7v-2.3l-1.2,0.4v1.9h-1.1v0.9
			h1.1v4.9c-0.1,1,0.6,2,1.7,2.1c0.1,0,0.3,0,0.4,0H65.3z"/>
		<path class="st0" d="M72.3,17.6h-0.8c-1,0-2,0.2-2.9,0.6v7.5h1.2v-6.9c0.5-0.2,1-0.2,1.5-0.2H72L72.3,17.6z"/>
		<path class="st0" d="M81,25.2v-5.1c0-1.9-1.2-2.6-2.9-2.6c-0.9,0-1.8,0.2-2.6,0.6l0.3,0.9c0.7-0.3,1.4-0.5,2.2-0.5
			c1.1,0,1.9,0.4,1.9,1.5v0.6c-2.4,0.1-4.8,0.5-4.8,2.7s1.1,2.4,3.3,2.4C79.3,25.7,80.2,25.5,81,25.2z M79.8,24.6l-1.6,0.2
			c-1.4,0-2.1-0.6-2.1-1.5s1.9-1.7,3.7-1.9V24.6z"/>
		<path class="st0" d="M90.9,25.2V14.1h-1.2v3.7l-1.4-0.2c-2.4,0-3.6,1.7-3.6,4.1c0,2.4,1.3,4,3.7,4C89.3,25.7,90.1,25.5,90.9,25.2z
			 M89.7,24.5l-1.3,0.2c-1.6,0-2.5-1.2-2.5-3c0-1.8,0.9-3.2,2.5-3.2l1.3,0.2V24.5z"/>
		<path class="st0" d="M96.3,15.3c0-0.4-0.4-0.8-0.8-0.8c-0.4,0-0.8,0.4-0.8,0.8c0,0.4,0.4,0.8,0.8,0.8
			C95.9,16.1,96.3,15.7,96.3,15.3z M96.1,25.6v-7.9h-1.2v7.9H96.1z"/>
		<path class="st0" d="M106.1,25.6v-5.4c0-1.7-1.1-2.6-3.1-2.6c-1,0-2,0.2-2.9,0.6v7.5h1.2v-6.9c0.5-0.2,1.1-0.3,1.7-0.3
			c1.3,0,1.9,0.7,1.9,1.7v5.4L106.1,25.6z"/>
		<path class="st0" d="M116,25.7v-7.6c-0.8-0.4-1.6-0.6-2.5-0.6c-2.2,0-3.8,1.2-3.8,4s1.4,3.8,3.4,3.8c0.6,0,1.2-0.1,1.7-0.4v0.7
			c0.1,1.1-0.7,2.1-1.8,2.2c-0.1,0-0.2,0-0.3,0c-0.8,0-1.5-0.2-2.2-0.5l-0.4,1c0.8,0.4,1.7,0.6,2.6,0.6c1.6,0.2,3.1-1,3.3-2.7
			C116,26,116,25.8,116,25.7z M114.8,24.1c-0.5,0.2-1,0.3-1.5,0.3c-1.4,0-2.4-1-2.4-2.9s1.1-3,2.5-3c0.5,0,1,0,1.4,0.2V24.1z"/>
	</g>
</g>
<path class="st2" d="M10.5,13.9c-1.3-0.5-0.6-7.5,1.9-8.1c1.9-0.5,4.8,3,8.9,7.8c3.1,3.5,4.2,5.3,5.5,5.1c1.9-0.3,3.5-2.5,4-4.6
	C32,8.9,27.1,2,22.6,1.9C16.4,1.7,12.3,14.7,10.5,13.9z"/>
<path class="st2" d="M32.1,13.8c0,2.9-5.2,5.3-8.9,5.9c-3.9,0.6-10.3-0.8-12.8-5.8C9.1,11,8.8,7.5,11.1,5.5
	c2.7-2.3,7.3-0.4,12.1,1.6C27.3,8.8,32.2,10.9,32.1,13.8z"/>
</svg>
