<svg width="161" height="100" viewBox="0 0 161 100" version="1.1" xmlns="http://www.w3.org/2000/svg" xmlns:xlink="http://www.w3.org/1999/xlink">
<title>Group 3.2</title>
<desc>Created using Figma</desc>
<g id="Canvas" transform="translate(4315 -14264)">
<g id="Group 3.2">
<g id="Group">
<g id="Ellipse 2.9">
<use xlink:href="#path0_fill" transform="translate(-4220.16 14291.9)" fill="#FFFFFF"/>
</g>
<g id="Ellipse 2.10">
<use xlink:href="#path0_fill" transform="translate(-4220.16 14264)" fill="#FFFFFF"/>
</g>
<g id="Ellipse 2.11">
<use xlink:href="#path0_fill" transform="translate(-4267.29 14264)" fill="#76E2A2"/>
</g>
<g id="Ellipse 2.12">
<use xlink:href="#path0_fill" transform="translate(-4251.58 14291.9)" fill="#76E2A2"/>
</g>
<g id="Ellipse 2.13">
<use xlink:href="#path0_fill" transform="translate(-4283 14291.9)" fill="#76E2A2"/>
</g>
</g>
<g id="aitrading">
<use xlink:href="#path1_fill" transform="translate(-4315 14330)" fill="#FFFFFF"/>
<use xlink:href="#path2_fill" transform="translate(-4315 14330)" fill="#FFFFFF"/>
<use xlink:href="#path3_fill" transform="translate(-4315 14330)" fill="#FFFFFF"/>
<use xlink:href="#path4_fill" transform="translate(-4315 14330)" fill="#FFFFFF"/>
<use xlink:href="#path5_fill" transform="translate(-4315 14330)" fill="#FFFFFF"/>
<use xlink:href="#path6_fill" transform="translate(-4315 14330)" fill="#FFFFFF"/>
<use xlink:href="#path7_fill" transform="translate(-4315 14330)" fill="#FFFFFF"/>
<use xlink:href="#path8_fill" transform="translate(-4315 14330)" fill="#FFFFFF"/>
<use xlink:href="#path9_fill" transform="translate(-4315 14330)" fill="#FFFFFF"/>
</g>
</g>
</g>
<defs>
<path id="path0_fill" d="M 16.1139 8.07331C 16.1139 12.5321 12.5067 16.1466 8.05694 16.1466C 3.60722 16.1466 0 12.5321 0 8.07331C 0 3.61454 3.60722 0 8.05694 0C 12.5067 0 16.1139 3.61454 16.1139 8.07331Z"/>
<path id="path1_fill" d="M 13.8876 25.5168L 13.8876 13.8356C 13.8876 9.52673 11.1986 7.91089 7.07997 7.91089C 4.79941 7.91089 2.4848 8.5505 1.08923 9.1901L 1.83807 11.1762C 3.02941 10.604 5.13979 10.0653 6.84171 10.0653C 9.39458 10.0653 11.1986 10.9069 11.1986 13.6L 11.1986 14.9802C 5.65036 15.2832 0 16.0574 0 21.2416C 0 24.6752 2.51884 26.796 7.55651 26.796C 9.97323 26.796 12.5942 26.2238 13.8876 25.5168ZM 11.1986 24.103C 10.5519 24.4059 8.88401 24.6752 7.48843 24.6752C 4.28883 24.6752 2.68903 23.2951 2.68903 21.1743C 2.68903 17.404 7.11401 17.1683 11.1986 16.9327L 11.1986 24.103Z"/>
<path id="path2_fill" d="M 26.3225 2.89505C 26.3225 1.95248 25.5056 1.14456 24.5185 1.14456C 23.5314 1.14456 22.7145 1.95248 22.7145 2.89505C 22.7145 3.83762 23.5314 4.61188 24.5185 4.61188C 25.5056 4.61188 26.3225 3.83762 26.3225 2.89505ZM 25.9481 26.4257L 25.9481 8.28119L 23.1229 8.28119L 23.1229 26.4257L 25.9481 26.4257Z"/>
<path id="path3_fill" d="M 43.147 26.3248L 43.147 23.9683C 42.8747 24.0693 42.3982 24.1366 41.9557 24.1366C 40.458 24.1366 39.1986 23.4297 39.1986 21.5782L 39.1986 10.402L 43.147 10.402L 43.147 8.28119L 39.1986 8.28119L 39.1986 2.99604L 36.4415 3.90495L 36.4415 8.28119L 33.7865 8.28119L 33.7865 10.402L 36.4415 10.402L 36.4415 21.7129C 36.4415 25.0119 38.2796 26.6277 41.2749 26.6277C 42.0578 26.6277 42.7726 26.4931 43.147 26.3248Z"/>
<path id="path4_fill" d="M 59.5426 8.04554C 59.0321 7.97822 58.4194 7.91089 57.7386 7.91089C 55.2198 7.91089 52.7009 8.44951 51.033 9.1901L 51.033 26.4257L 53.8923 26.4257L 53.8923 10.8396C 54.7432 10.4693 56.1048 10.2673 57.3642 10.2673C 57.9428 10.2673 58.5215 10.301 58.998 10.402L 59.5426 8.04554Z"/>
<path id="path5_fill" d="M 79.7545 25.5168L 79.7545 13.8356C 79.7545 9.52673 77.0655 7.91089 72.9468 7.91089C 70.6662 7.91089 68.3516 8.5505 66.9561 9.1901L 67.7049 11.1762C 68.8963 10.604 71.0066 10.0653 72.7085 10.0653C 75.2614 10.0653 77.0655 10.9069 77.0655 13.6L 77.0655 14.9802C 71.5172 15.2832 65.8668 16.0574 65.8668 21.2416C 65.8668 24.6752 68.3857 26.796 73.4233 26.796C 75.8401 26.796 78.461 26.2238 79.7545 25.5168ZM 77.0655 24.103C 76.4187 24.4059 74.7508 24.6752 73.3553 24.6752C 70.1557 24.6752 68.5559 23.2951 68.5559 21.1743C 68.5559 17.404 72.9809 17.1683 77.0655 16.9327L 77.0655 24.103Z"/>
<path id="path6_fill" d="M 102.741 25.5168L 102.741 0L 99.9161 0L 99.9161 8.58416C 99.2353 8.34852 97.8738 8.11287 96.6144 8.11287C 91.1342 8.11287 88.1388 12.0178 88.1388 17.5723C 88.1388 23.1941 91.2703 26.796 96.8526 26.796C 99.2694 26.796 101.652 26.1564 102.741 25.5168ZM 99.9161 23.9347C 99.4055 24.204 97.9759 24.5069 96.8186 24.5069C 93.0403 24.5069 90.964 21.7802 90.964 17.5723C 90.964 13.398 92.9723 10.3347 96.8186 10.3347C 97.9419 10.3347 99.3715 10.5366 99.9161 10.7723L 99.9161 23.9347Z"/>
<path id="path7_fill" d="M 115.155 2.89505C 115.155 1.95248 114.338 1.14456 113.351 1.14456C 112.363 1.14456 111.547 1.95248 111.547 2.89505C 111.547 3.83762 112.363 4.61188 113.351 4.61188C 114.338 4.61188 115.155 3.83762 115.155 2.89505ZM 114.78 26.4257L 114.78 8.28119L 111.955 8.28119L 111.955 26.4257L 114.78 26.4257Z"/>
<path id="path8_fill" d="M 138.038 26.4257L 138.038 13.9366C 138.038 10.1327 135.553 7.91089 130.72 7.91089C 128.031 7.91089 125.75 8.44951 123.98 9.1901L 123.98 26.4257L 126.839 26.4257L 126.839 10.8396C 127.724 10.503 129.154 10.2 130.754 10.2C 133.715 10.2 135.213 11.7485 135.213 14.1723L 135.213 26.4257L 138.038 26.4257Z"/>
<path id="path9_fill" d="M 161 26.4931L 161 9.1901C 159.604 8.44951 157.46 7.91089 155.213 7.91089C 150.142 7.91089 146.398 10.7386 146.398 17.101C 146.398 22.6218 149.665 25.7525 154.26 25.7525C 155.69 25.7525 157.222 25.4158 158.209 24.9446L 158.209 26.4931C 158.209 29.7584 156.541 31.6099 153.239 31.6099C 151.333 31.6099 149.359 31.0376 148.202 30.4317L 147.317 32.6535C 148.712 33.3604 151.027 34 153.443 34C 158.209 34 161 31.2733 161 26.4931ZM 158.209 22.8238C 157.392 23.2614 155.928 23.5307 154.703 23.5307C 151.503 23.5307 149.223 21.3426 149.223 17C 149.223 12.0851 151.81 10.1663 155.043 10.1663C 156.337 10.1663 157.562 10.4356 158.209 10.7386L 158.209 22.8238Z"/>
</defs>
</svg>
