<svg width="364" viewBox="0 0 302 521" version="1.1" xmlns="http://www.w3.org/2000/svg" xmlns:xlink="http://www.w3.org/1999/xlink">
<title>Subtract</title>
<desc>Created using Figma</desc>
<g id="Canvas" transform="translate(3847 183)">
<g id="Subtract" filter="url(#filter0_d)">
<use xlink:href="#path0_fill" transform="translate(-3837 -176)" fill="#FFFFFF"/>
</g>
</g>
<defs>
<filter id="filter0_d" filterUnits="userSpaceOnUse" x="-3847" y="-183" width="302" height="611" color-interpolation-filters="sRGB">
<feFlood flood-opacity="0" result="BackgroundImageFix"/>
<feColorMatrix in="SourceAlpha" type="matrix" values="0 0 0 0 0 0 0 0 0 0 0 0 0 0 0 0 0 0 255 0"/>
<feOffset dx="9" dy="12"/>
<feGaussianBlur stdDeviation="9.5"/>
<feColorMatrix type="matrix" values="0 0 0 0 0 0 0 0 0 0 0 0 0 0 0 0 0 0 0.12 0"/>
<feBlend mode="normal" in2="BackgroundImageFix" result="effect1_dropShadow"/>
<feBlend mode="normal" in="SourceGraphic" in2="effect1_dropShadow" result="shape"/>
</filter>
<path id="path0_fill" d="M 39.6992 0C 17.774 0 0 17.7537 0 39.654L 0 533.346C 0 555.246 17.774 573 39.6992 573L 224.301 573C 246.226 573 264 555.246 264 533.346L 264 39.654C 264 17.7537 246.226 0 224.301 0L 209.088 0L 208.46 0.152599C 207.125 0.47716 206.038 1.46285 205.569 2.75211C 205.546 2.81594 205.536 2.88229 205.536 2.95021L 205.541 5.64532C 205.541 14.6091 198.291 21.8756 189.349 21.8756L 74.6516 21.8756C 65.709 21.8756 58.4595 14.6091 58.4596 5.61779L 58.4641 2.95036C 58.4642 2.88308 58.4584 2.81522 58.4352 2.75211C 57.9627 1.47208 56.8689 0.475586 55.5399 0.152599L 54.9121 0L 39.6992 0Z"/>
</defs>
</svg>
