<svg width="199" height="302" viewBox="0 0 199 302" version="1.1" xmlns="http://www.w3.org/2000/svg" xmlns:xlink="http://www.w3.org/1999/xlink">
<title>Group 4</title>
<desc>Created using Figma</desc>
<g id="Canvas" transform="translate(3461 -8258)">
<g id="Group 4">
<g id="Polygon">
<use xlink:href="#path0_fill" transform="matrix(-1 1.22465e-16 -1.22465e-16 -1 -3260 8416)" fill="#FFFFFF"/>
</g>
<g id="Group 3">
<g id="..................................">
<use xlink:href="#path1_fill" transform="translate(-3460.26 8258)" fill="#FFFFFF"/>
<use xlink:href="#path2_fill" transform="translate(-3460.26 8258)" fill="#FFFFFF"/>
<use xlink:href="#path3_fill" transform="translate(-3460.26 8258)" fill="#FFFFFF"/>
<use xlink:href="#path4_fill" transform="translate(-3460.26 8258)" fill="#FFFFFF"/>
<use xlink:href="#path5_fill" transform="translate(-3460.26 8258)" fill="#FFFFFF"/>
<use xlink:href="#path6_fill" transform="translate(-3460.26 8258)" fill="#FFFFFF"/>
<use xlink:href="#path7_fill" transform="translate(-3460.26 8258)" fill="#FFFFFF"/>
<use xlink:href="#path8_fill" transform="translate(-3460.26 8258)" fill="#FFFFFF"/>
<use xlink:href="#path9_fill" transform="translate(-3460.26 8258)" fill="#FFFFFF"/>
</g>
<g id="..................................">
<use xlink:href="#path1_fill" transform="translate(-3459.26 8557)" fill="#FFFFFF"/>
<use xlink:href="#path2_fill" transform="translate(-3459.26 8557)" fill="#FFFFFF"/>
<use xlink:href="#path3_fill" transform="translate(-3459.26 8557)" fill="#FFFFFF"/>
<use xlink:href="#path4_fill" transform="translate(-3459.26 8557)" fill="#FFFFFF"/>
<use xlink:href="#path5_fill" transform="translate(-3459.26 8557)" fill="#FFFFFF"/>
<use xlink:href="#path6_fill" transform="translate(-3459.26 8557)" fill="#FFFFFF"/>
<use xlink:href="#path7_fill" transform="translate(-3459.26 8557)" fill="#FFFFFF"/>
<use xlink:href="#path8_fill" transform="translate(-3459.26 8557)" fill="#FFFFFF"/>
<use xlink:href="#path9_fill" transform="translate(-3459.26 8557)" fill="#FFFFFF"/>
</g>
<g id="Rounded Rectangle 1_2">
<g id="Rounded Rectangle 1">
<use xlink:href="#path10_stroke" transform="translate(-3380 8260)" fill="#FFFFFF"/>
</g>
</g>
</g>
</g>
</g>
<defs>
<path id="path0_fill" d="M 11.7865 0.892997C 12.1858 0.424537 12.9094 0.424537 13.3087 0.892997L 22.0091 11.1013C 22.5624 11.7506 22.101 12.75 21.248 12.75L 3.84726 12.75C 2.99423 12.75 2.53285 11.7506 3.08618 11.1013L 11.7865 0.892997Z"/>
<path id="path1_fill" d="M 2.88 1.44C 2.88 1.86 2.736 2.202 2.448 2.466C 2.172 2.73 1.836 2.862 1.44 2.862C 1.032 2.862 0.69 2.73 0.414 2.466C 0.138 2.202 0 1.86 0 1.44C 0 1.02 0.138 0.678 0.414 0.414C 0.69 0.138 1.032 0 1.44 0C 1.836 0 2.172 0.138 2.448 0.414C 2.736 0.678 2.88 1.02 2.88 1.44Z"/>
<path id="path2_fill" d="M 11.6212 1.44C 11.6212 1.86 11.4773 2.202 11.1892 2.466C 10.9132 2.73 10.5773 2.862 10.1813 2.862C 9.77325 2.862 9.43125 2.73 9.15525 2.466C 8.87925 2.202 8.74125 1.86 8.74125 1.44C 8.74125 1.02 8.87925 0.678 9.15525 0.414C 9.43125 0.138 9.77325 0 10.1813 0C 10.5773 0 10.9132 0.138 11.1892 0.414C 11.4773 0.678 11.6212 1.02 11.6212 1.44Z"/>
<path id="path3_fill" d="M 20.3625 1.44C 20.3625 1.86 20.2185 2.202 19.9305 2.466C 19.6545 2.73 19.3185 2.862 18.9225 2.862C 18.5145 2.862 18.1725 2.73 17.8965 2.466C 17.6205 2.202 17.4825 1.86 17.4825 1.44C 17.4825 1.02 17.6205 0.678 17.8965 0.414C 18.1725 0.138 18.5145 0 18.9225 0C 19.3185 0 19.6545 0.138 19.9305 0.414C 20.2185 0.678 20.3625 1.02 20.3625 1.44Z"/>
<path id="path4_fill" d="M 29.1038 1.44C 29.1038 1.86 28.9598 2.202 28.6718 2.466C 28.3958 2.73 28.0597 2.862 27.6637 2.862C 27.2557 2.862 26.9138 2.73 26.6378 2.466C 26.3618 2.202 26.2238 1.86 26.2238 1.44C 26.2238 1.02 26.3618 0.678 26.6378 0.414C 26.9138 0.138 27.2557 0 27.6637 0C 28.0597 0 28.3958 0.138 28.6718 0.414C 28.9598 0.678 29.1038 1.02 29.1038 1.44Z"/>
<path id="path5_fill" d="M 37.845 1.44C 37.845 1.86 37.701 2.202 37.413 2.466C 37.137 2.73 36.801 2.862 36.405 2.862C 35.997 2.862 35.655 2.73 35.379 2.466C 35.103 2.202 34.965 1.86 34.965 1.44C 34.965 1.02 35.103 0.678 35.379 0.414C 35.655 0.138 35.997 0 36.405 0C 36.801 0 37.137 0.138 37.413 0.414C 37.701 0.678 37.845 1.02 37.845 1.44Z"/>
<path id="path6_fill" d="M 46.5863 1.44C 46.5863 1.86 46.4423 2.202 46.1543 2.466C 45.8783 2.73 45.5423 2.862 45.1463 2.862C 44.7383 2.862 44.3963 2.73 44.1203 2.466C 43.8443 2.202 43.7063 1.86 43.7063 1.44C 43.7063 1.02 43.8443 0.678 44.1203 0.414C 44.3963 0.138 44.7383 0 45.1463 0C 45.5423 0 45.8783 0.138 46.1543 0.414C 46.4423 0.678 46.5863 1.02 46.5863 1.44Z"/>
<path id="path7_fill" d="M 55.3275 1.44C 55.3275 1.86 55.1835 2.202 54.8955 2.466C 54.6195 2.73 54.2835 2.862 53.8875 2.862C 53.4795 2.862 53.1375 2.73 52.8615 2.466C 52.5855 2.202 52.4475 1.86 52.4475 1.44C 52.4475 1.02 52.5855 0.678 52.8615 0.414C 53.1375 0.138 53.4795 0 53.8875 0C 54.2835 0 54.6195 0.138 54.8955 0.414C 55.1835 0.678 55.3275 1.02 55.3275 1.44Z"/>
<path id="path8_fill" d="M 64.0687 1.44C 64.0687 1.86 63.9247 2.202 63.6367 2.466C 63.3607 2.73 63.0248 2.862 62.6288 2.862C 62.2208 2.862 61.8788 2.73 61.6028 2.466C 61.3268 2.202 61.1888 1.86 61.1888 1.44C 61.1888 1.02 61.3268 0.678 61.6028 0.414C 61.8788 0.138 62.2208 0 62.6288 0C 63.0248 0 63.3607 0.138 63.6367 0.414C 63.9247 0.678 64.0687 1.02 64.0687 1.44Z"/>
<path id="path9_fill" d="M 72.81 1.44C 72.81 1.86 72.666 2.202 72.378 2.466C 72.102 2.73 71.766 2.862 71.37 2.862C 70.962 2.862 70.62 2.73 70.344 2.466C 70.068 2.202 69.93 1.86 69.93 1.44C 69.93 1.02 70.068 0.678 70.344 0.414C 70.62 0.138 70.962 0 71.37 0C 71.766 0 72.102 0.138 72.378 0.414C 72.666 0.678 72.81 1.02 72.81 1.44Z"/>
<path id="path10_stroke" d="M 0 -1.5C -0.828427 -1.5 -1.5 -0.828427 -1.5 0C -1.5 0.828427 -0.828427 1.5 0 1.5L 0 -1.5ZM 0 296.5C -0.828427 296.5 -1.5 297.172 -1.5 298C -1.5 298.828 -0.828427 299.5 0 299.5L 0 296.5ZM 0.000488995 1.5C 0.828916 1.5 1.50049 0.828434 1.5005 6.76954e-06C 1.5005 -0.82842 0.82893 -1.5 0.000502532 -1.5L 0.000488995 1.5ZM 8.99223 -1.13435C 8.16655 -1.20178 7.44254 -0.5871 7.37511 0.238579C 7.30768 1.06426 7.92237 1.78826 8.74804 1.85569L 8.99223 -1.13435ZM 8.74901 1.85577C 9.57469 1.92321 10.2987 1.30853 10.3661 0.482857C 10.4336 -0.342821 9.8189 -1.06683 8.99323 -1.13427L 8.74901 1.85577ZM 17.9172 -0.034393C 17.0998 -0.169562 16.3277 0.383435 16.1925 1.20076C 16.0574 2.01809 16.6104 2.79023 17.4277 2.9254L 17.9172 -0.034393ZM 17.4286 2.92556C 18.246 3.06074 19.0181 2.50775 19.1533 1.69043C 19.2885 0.873102 18.7355 0.100947 17.9182 -0.0342295L 17.4286 2.92556ZM 26.7215 1.79947C 25.9182 1.59703 25.1029 2.08412 24.9004 2.88743C 24.698 3.69074 25.1851 4.50607 25.9884 4.70851L 26.7215 1.79947ZM 25.9893 4.70875C 26.7926 4.91121 27.608 4.42412 27.8104 3.62081C 28.0129 2.8175 27.5258 2.00217 26.7225 1.79972L 25.9893 4.70875ZM 35.3476 4.35936C 34.5639 4.09083 33.7109 4.50847 33.4424 5.29217C 33.1738 6.07587 33.5915 6.92886 34.3752 7.19739L 35.3476 4.35936ZM 34.3761 7.1977C 35.1598 7.46623 36.0128 7.04861 36.2813 6.26491C 36.5499 5.48121 36.1322 4.62821 35.3485 4.35968L 34.3761 7.1977ZM 43.728 7.62605C 42.9693 7.29337 42.0846 7.63873 41.7519 8.39742C 41.4193 9.15612 41.7646 10.0408 42.5233 10.3735L 43.728 7.62605ZM 42.5242 10.3739C 43.2829 10.7066 44.1676 10.3613 44.5003 9.60256C 44.833 8.84387 44.4876 7.95914 43.729 7.62645L 42.5242 10.3739ZM 51.8079 11.5762C 51.0794 11.1818 50.1691 11.4527 49.7747 12.1812C 49.3803 12.9098 49.6512 13.8201 50.3798 14.2144L 51.8079 11.5762ZM 50.3806 14.2149C 51.1091 14.6093 52.0194 14.3384 52.4138 13.6099C 52.8082 12.8813 52.5373 11.971 51.8088 11.5767L 50.3806 14.2149ZM 59.5355 16.1822C 58.842 15.729 57.9125 15.9238 57.4593 16.6173C 57.0061 17.3108 57.201 18.2404 57.8944 18.6935L 59.5355 16.1822ZM 57.8953 18.6941C 58.5887 19.1472 59.5183 18.9524 59.9715 18.259C 60.4247 17.5655 60.2299 16.6359 59.5364 16.1827L 57.8953 18.6941ZM 66.8558 21.4085C 66.2019 20.8997 65.2595 21.0174 64.7508 21.6712C 64.2421 22.3251 64.3597 23.2675 65.0136 23.7762L 66.8558 21.4085ZM 65.0143 23.7768C 65.6682 24.2855 66.6106 24.1679 67.1193 23.5141C 67.628 22.8602 67.5104 21.9178 66.8566 21.4091L 65.0143 23.7768ZM 73.7213 27.2185C 73.1114 26.6578 72.1625 26.6976 71.6018 27.3075C 71.0411 27.9173 71.081 28.8663 71.6909 29.4269L 73.7213 27.2185ZM 71.6916 29.4276C 72.3014 29.9883 73.2503 29.9484 73.811 29.3386C 74.3717 28.7287 74.3319 27.7798 73.722 27.2191L 71.6916 29.4276ZM 80.087 33.5727C 79.5252 32.9639 78.5762 32.9257 77.9674 33.4875C 77.3585 34.0493 77.3203 34.9982 77.8821 35.6071L 80.087 33.5727ZM 77.8828 35.6078C 78.4445 36.2167 79.3935 36.2548 80.0024 35.6931C 80.6112 35.1313 80.6494 34.1823 80.0876 33.5735L 77.8828 35.6078ZM 85.9092 40.428C 85.3993 39.7751 84.4567 39.659 83.8037 40.1689C 83.1508 40.6787 83.0348 41.6214 83.5446 42.2743L 85.9092 40.428ZM 83.5452 42.2751C 84.0551 42.928 84.9977 43.0441 85.6507 42.5342C 86.3036 42.0244 86.4196 41.0817 85.9098 40.4288L 83.5452 42.2751ZM 91.148 47.7395C 90.6937 47.0467 89.7638 46.8534 89.071 47.3078C 88.3783 47.7621 88.185 48.692 88.6394 49.3847L 91.148 47.7395ZM 88.6399 49.3855C 89.0942 50.0782 90.0241 50.2715 90.7168 49.8172C 91.4095 49.3629 91.6028 48.433 91.1485 47.7403L 88.6399 49.3855ZM 95.7663 55.46C 95.3709 54.732 94.4602 54.4625 93.7322 54.858C 93.0043 55.2534 92.7348 56.1642 93.1302 56.8921L 95.7663 55.46ZM 93.1307 56.8929C 93.5262 57.6209 94.4369 57.8904 95.1648 57.4949C 95.8927 57.0995 96.1623 56.1888 95.7668 55.4608L 93.1307 56.8929ZM 99.7281 63.5344C 99.3944 62.7761 98.5092 62.4319 97.7509 62.7656C 96.9927 63.0993 96.6485 63.9845 96.9822 64.7427L 99.7281 63.5344ZM 96.9826 64.7436C 97.3163 65.5019 98.2014 65.8461 98.9597 65.5124C 99.718 65.1787 100.062 64.2935 99.7285 63.5353L 96.9826 64.7436ZM 103.005 71.9111C 102.736 71.1277 101.882 70.7111 101.099 70.9805C 100.315 71.2499 99.8988 72.1033 100.168 72.8867L 103.005 71.9111ZM 100.169 72.8876C 100.438 73.671 101.291 74.0877 102.075 73.8183C 102.858 73.549 103.275 72.6955 103.005 71.9121L 100.169 72.8876ZM 105.574 80.5351C 105.371 79.7319 104.555 79.2455 103.752 79.4487C 102.949 79.6518 102.462 80.4676 102.665 81.2707L 105.574 80.5351ZM 102.666 81.2716C 102.869 82.0748 103.684 82.5612 104.488 82.358C 105.291 82.1549 105.777 81.3392 105.574 80.536L 102.666 81.2716ZM 107.414 89.3383C 107.278 88.5211 106.506 87.9685 105.689 88.1042C 104.871 88.2399 104.319 89.0123 104.455 89.8296L 107.414 89.3383ZM 104.455 89.8305C 104.59 90.6478 105.363 91.2003 106.18 91.0647C 106.997 90.929 107.55 90.1566 107.414 89.3393L 104.455 89.8305ZM 108.518 98.2632C 108.45 97.4376 107.726 96.8231 106.9 96.8908C 106.075 96.9585 105.46 97.6827 105.528 98.5083L 108.518 98.2632ZM 105.528 98.5093C 105.596 99.335 106.32 99.9494 107.146 99.8818C 107.971 99.8141 108.586 99.0899 108.518 98.2642L 105.528 98.5093ZM 108.885 107.256C 108.885 106.428 108.213 105.756 107.385 105.756C 106.557 105.756 105.885 106.428 105.885 107.256L 108.885 107.256ZM 105.885 107.257C 105.885 108.086 106.557 108.757 107.385 108.757C 108.214 108.757 108.885 108.086 108.885 107.257L 105.885 107.257ZM 108.885 116.533C 108.885 115.704 108.214 115.033 107.385 115.033C 106.557 115.033 105.885 115.704 105.885 116.533L 108.885 116.533ZM 105.885 116.534C 105.885 117.362 106.557 118.034 107.385 118.034C 108.214 118.034 108.885 117.362 108.885 116.534L 105.885 116.534ZM 108.885 125.809C 108.885 124.98 108.214 124.309 107.385 124.309C 106.557 124.309 105.885 124.98 105.885 125.809L 108.885 125.809ZM 105.885 125.81C 105.885 126.638 106.557 127.31 107.385 127.31C 108.214 127.31 108.885 126.638 108.885 125.81L 105.885 125.81ZM 108.885 135.085C 108.885 134.257 108.214 133.585 107.385 133.585C 106.557 133.585 105.885 134.257 105.885 135.085L 108.885 135.085ZM 105.885 135.086C 105.885 135.915 106.557 136.586 107.385 136.586C 108.214 136.586 108.885 135.915 108.885 135.086L 105.885 135.086ZM 108.885 144.361C 108.885 143.533 108.214 142.861 107.385 142.861C 106.557 142.861 105.885 143.533 105.885 144.361L 108.885 144.361ZM 105.885 144.362C 105.885 145.191 106.557 145.862 107.385 145.862C 108.214 145.862 108.885 145.191 108.885 144.362L 105.885 144.362ZM 108.885 153.638C 108.885 152.809 108.214 152.138 107.385 152.138C 106.557 152.138 105.885 152.809 105.885 153.638L 108.885 153.638ZM 105.885 153.639C 105.885 154.467 106.557 155.139 107.385 155.139C 108.214 155.139 108.885 154.467 108.885 153.639L 105.885 153.639ZM 108.885 162.914C 108.885 162.085 108.214 161.414 107.385 161.414C 106.557 161.414 105.885 162.085 105.885 162.914L 108.885 162.914ZM 105.885 162.915C 105.885 163.743 106.557 164.415 107.385 164.415C 108.214 164.415 108.885 163.743 108.885 162.915L 105.885 162.915ZM 108.885 172.19C 108.885 171.362 108.214 170.69 107.385 170.69C 106.557 170.69 105.885 171.362 105.885 172.19L 108.885 172.19ZM 105.885 172.191C 105.885 173.02 106.557 173.691 107.385 173.691C 108.214 173.691 108.885 173.02 108.885 172.191L 105.885 172.191ZM 108.885 181.466C 108.885 180.638 108.214 179.966 107.385 179.966C 106.557 179.966 105.885 180.638 105.885 181.466L 108.885 181.466ZM 105.885 181.467C 105.885 182.296 106.557 182.967 107.385 182.967C 108.214 182.967 108.885 182.296 108.885 181.467L 105.885 181.467ZM 108.885 190.743C 108.885 189.914 108.214 189.243 107.385 189.243C 106.557 189.243 105.885 189.914 105.885 190.743L 108.885 190.743ZM 105.885 190.744C 105.885 191.572 106.557 192.244 107.385 192.244C 108.213 192.244 108.885 191.572 108.885 190.744L 105.885 190.744ZM 108.518 199.736C 108.586 198.91 107.971 198.186 107.146 198.118C 106.32 198.051 105.596 198.665 105.528 199.491L 108.518 199.736ZM 105.528 199.492C 105.46 200.317 106.075 201.042 106.9 201.109C 107.726 201.177 108.45 200.562 108.518 199.737L 105.528 199.492ZM 107.414 208.661C 107.55 207.843 106.997 207.071 106.18 206.935C 105.363 206.8 104.59 207.352 104.455 208.169L 107.414 208.661ZM 104.455 208.17C 104.319 208.988 104.871 209.76 105.689 209.896C 106.506 210.031 107.278 209.479 107.414 208.662L 104.455 208.17ZM 105.574 217.464C 105.777 216.661 105.291 215.845 104.488 215.642C 103.684 215.439 102.869 215.925 102.666 216.728L 105.574 217.464ZM 102.665 216.729C 102.462 217.532 102.949 218.348 103.752 218.551C 104.555 218.754 105.371 218.268 105.574 217.465L 102.665 216.729ZM 103.005 226.088C 103.275 225.305 102.858 224.451 102.075 224.182C 101.291 223.912 100.438 224.329 100.169 225.112L 103.005 226.088ZM 100.168 225.113C 99.8988 225.897 100.315 226.75 101.099 227.02C 101.882 227.289 102.736 226.872 103.005 226.089L 100.168 225.113ZM 99.7285 234.465C 100.062 233.706 99.718 232.821 98.9597 232.488C 98.2014 232.154 97.3163 232.498 96.9826 233.256L 99.7285 234.465ZM 96.9822 233.257C 96.6485 234.016 96.9927 234.901 97.7509 235.234C 98.5092 235.568 99.3944 235.224 99.7281 234.466L 96.9822 233.257ZM 95.7668 242.539C 96.1623 241.811 95.8928 240.901 95.1648 240.505C 94.4369 240.11 93.5262 240.379 93.1307 241.107L 95.7668 242.539ZM 93.1302 241.108C 92.7348 241.836 93.0043 242.747 93.7322 243.142C 94.4602 243.537 95.3709 243.268 95.7663 242.54L 93.1302 241.108ZM 91.1485 250.26C 91.6028 249.567 91.4096 248.637 90.7168 248.183C 90.0241 247.728 89.0942 247.922 88.6399 248.615L 91.1485 250.26ZM 88.6394 248.615C 88.185 249.308 88.3783 250.238 89.071 250.692C 89.7638 251.147 90.6937 250.953 91.148 250.261L 88.6394 248.615ZM 85.9098 257.571C 86.4196 256.918 86.3036 255.976 85.6507 255.466C 84.9977 254.956 84.0551 255.072 83.5452 255.725L 85.9098 257.571ZM 83.5446 255.726C 83.0348 256.379 83.1508 257.321 83.8037 257.831C 84.4567 258.341 85.3993 258.225 85.9092 257.572L 83.5446 255.726ZM 80.0876 264.427C 80.6494 263.818 80.6112 262.869 80.0024 262.307C 79.3935 261.745 78.4445 261.783 77.8828 262.392L 80.0876 264.427ZM 77.8821 262.393C 77.3203 263.002 77.3585 263.951 77.9674 264.513C 78.5762 265.074 79.5252 265.036 80.087 264.427L 77.8821 262.393ZM 73.722 270.781C 74.3319 270.22 74.3717 269.271 73.811 268.661C 73.2503 268.052 72.3014 268.012 71.6916 268.572L 73.722 270.781ZM 71.6909 268.573C 71.081 269.134 71.0411 270.083 71.6018 270.693C 72.1625 271.302 73.1114 271.342 73.7213 270.782L 71.6909 268.573ZM 66.8566 276.591C 67.5104 276.082 67.628 275.14 67.1193 274.486C 66.6106 273.832 65.6682 273.714 65.0143 274.223L 66.8566 276.591ZM 65.0136 274.224C 64.3597 274.732 64.2421 275.675 64.7508 276.329C 65.2595 276.983 66.2019 277.1 66.8558 276.592L 65.0136 274.224ZM 59.5364 281.817C 60.2299 281.364 60.4247 280.435 59.9715 279.741C 59.5183 279.048 58.5887 278.853 57.8953 279.306L 59.5364 281.817ZM 57.8944 279.306C 57.201 279.76 57.0061 280.689 57.4593 281.383C 57.9125 282.076 58.842 282.271 59.5355 281.818L 57.8944 279.306ZM 51.8088 286.423C 52.5373 286.029 52.8082 285.119 52.4138 284.39C 52.0194 283.662 51.1091 283.391 50.3806 283.785L 51.8088 286.423ZM 50.3798 283.786C 49.6512 284.18 49.3803 285.09 49.7747 285.819C 50.1691 286.547 51.0794 286.818 51.8079 286.424L 50.3798 283.786ZM 43.729 290.374C 44.4876 290.041 44.833 289.156 44.5003 288.397C 44.1676 287.639 43.2829 287.293 42.5242 287.626L 43.729 290.374ZM 42.5233 287.626C 41.7646 287.959 41.4193 288.844 41.7519 289.603C 42.0846 290.361 42.9693 290.707 43.728 290.374L 42.5233 287.626ZM 35.3485 293.64C 36.1322 293.372 36.5499 292.519 36.2813 291.735C 36.0128 290.951 35.1598 290.534 34.3761 290.802L 35.3485 293.64ZM 34.3752 290.803C 33.5915 291.071 33.1738 291.924 33.4424 292.708C 33.7109 293.492 34.5639 293.909 35.3476 293.641L 34.3752 290.803ZM 26.7225 296.2C 27.5258 295.998 28.0129 295.182 27.8104 294.379C 27.608 293.576 26.7926 293.089 25.9893 293.291L 26.7225 296.2ZM 25.9884 293.291C 25.1851 293.494 24.698 294.309 24.9004 295.113C 25.1029 295.916 25.9182 296.403 26.7215 296.201L 25.9884 293.291ZM 17.9182 298.034C 18.7355 297.899 19.2885 297.127 19.1533 296.31C 19.0181 295.492 18.246 294.939 17.4286 295.074L 17.9182 298.034ZM 17.4277 295.075C 16.6104 295.21 16.0574 295.982 16.1925 296.799C 16.3277 297.617 17.0999 298.17 17.9172 298.034L 17.4277 295.075ZM 8.99324 299.134C 9.81892 299.067 10.4336 298.343 10.3662 297.517C 10.2987 296.691 9.5747 296.077 8.74903 296.144L 8.99324 299.134ZM 8.74806 296.144C 7.92238 296.212 7.3077 296.936 7.37513 297.761C 7.44256 298.587 8.16656 299.202 8.99224 299.134L 8.74806 296.144ZM 0.00051078 299.5C 0.828938 299.5 1.50051 298.828 1.5005 298C 1.5005 297.172 0.828924 296.5 0.000497022 296.5L 0.00051078 299.5ZM 0 1.5C 0.000162998 1.5 0.000325996 1.5 0.000488995 1.5L 0.000502532 -1.5C 0.000335021 -1.5 0.000167511 -1.5 0 -1.5L 0 1.5ZM 8.74804 1.85569C 8.74837 1.85572 8.74869 1.85575 8.74901 1.85577L 8.99323 -1.13427C 8.99289 -1.1343 8.99256 -1.13432 8.99223 -1.13435L 8.74804 1.85569ZM 17.4277 2.9254C 17.428 2.92546 17.4283 2.92551 17.4286 2.92556L 17.9182 -0.0342295C 17.9178 -0.034284 17.9175 -0.0343385 17.9172 -0.034393L 17.4277 2.9254ZM 25.9884 4.70851C 25.9887 4.70859 25.989 4.70867 25.9893 4.70875L 26.7225 1.79972C 26.7221 1.79963 26.7218 1.79955 26.7215 1.79947L 25.9884 4.70851ZM 34.3752 7.19739C 34.3755 7.19749 34.3758 7.1976 34.3761 7.1977L 35.3485 4.35968C 35.3482 4.35957 35.3479 4.35947 35.3476 4.35936L 34.3752 7.19739ZM 42.5233 10.3735C 42.5236 10.3737 42.5239 10.3738 42.5242 10.3739L 43.729 7.62645C 43.7286 7.62632 43.7283 7.62618 43.728 7.62605L 42.5233 10.3735ZM 50.3798 14.2144C 50.38 14.2146 50.3803 14.2147 50.3806 14.2149L 51.8088 11.5767C 51.8085 11.5765 51.8082 11.5763 51.8079 11.5762L 50.3798 14.2144ZM 57.8944 18.6935C 57.8947 18.6937 57.895 18.6939 57.8953 18.6941L 59.5364 16.1827C 59.5361 16.1826 59.5358 16.1824 59.5355 16.1822L 57.8944 18.6935ZM 65.0136 23.7762C 65.0138 23.7764 65.0141 23.7766 65.0143 23.7768L 66.8566 21.4091C 66.8563 21.4089 66.856 21.4087 66.8558 21.4085L 65.0136 23.7762ZM 71.6909 29.4269C 71.6911 29.4272 71.6913 29.4274 71.6916 29.4276L 73.722 27.2191C 73.7218 27.2189 73.7215 27.2187 73.7213 27.2185L 71.6909 29.4269ZM 77.8821 35.6071C 77.8823 35.6073 77.8826 35.6076 77.8828 35.6078L 80.0876 33.5735C 80.0874 33.5732 80.0872 33.573 80.087 33.5727L 77.8821 35.6071ZM 83.5446 42.2743C 83.5448 42.2746 83.545 42.2748 83.5452 42.2751L 85.9098 40.4288C 85.9096 40.4285 85.9094 40.4283 85.9092 40.428L 83.5446 42.2743ZM 88.6394 49.3847C 88.6395 49.385 88.6397 49.3852 88.6399 49.3855L 91.1485 47.7403C 91.1483 47.74 91.1482 47.7397 91.148 47.7395L 88.6394 49.3847ZM 93.1302 56.8921C 93.1304 56.8924 93.1305 56.8927 93.1307 56.8929L 95.7668 55.4608C 95.7667 55.4605 95.7665 55.4603 95.7663 55.46L 93.1302 56.8921ZM 96.9822 64.7427C 96.9823 64.743 96.9825 64.7433 96.9826 64.7436L 99.7285 63.5353C 99.7283 63.535 99.7282 63.5347 99.7281 63.5344L 96.9822 64.7427ZM 100.168 72.8867C 100.168 72.887 100.168 72.8873 100.169 72.8876L 103.005 71.9121C 103.005 71.9118 103.005 71.9115 103.005 71.9111L 100.168 72.8867ZM 102.665 81.2707C 102.665 81.271 102.665 81.2713 102.666 81.2716L 105.574 80.536C 105.574 80.5357 105.574 80.5354 105.574 80.5351L 102.665 81.2707ZM 104.455 89.8296C 104.455 89.8299 104.455 89.8302 104.455 89.8305L 107.414 89.3393C 107.414 89.339 107.414 89.3387 107.414 89.3383L 104.455 89.8296ZM 105.528 98.5083C 105.528 98.5087 105.528 98.509 105.528 98.5093L 108.518 98.2642C 108.518 98.2639 108.518 98.2636 108.518 98.2632L 105.528 98.5083ZM 105.885 107.256C 105.885 107.256 105.885 107.257 105.885 107.257L 108.885 107.257C 108.885 107.257 108.885 107.256 108.885 107.256L 105.885 107.256ZM 105.885 107.257L 105.885 107.257L 108.885 107.257L 108.885 107.257L 105.885 107.257ZM 105.885 116.533L 105.885 116.534L 108.885 116.534L 108.885 116.533L 105.885 116.533ZM 105.885 125.809L 105.885 125.81L 108.885 125.81L 108.885 125.809L 105.885 125.809ZM 105.885 135.085L 105.885 135.086L 108.885 135.086L 108.885 135.085L 105.885 135.085ZM 105.885 144.361L 105.885 144.362L 108.885 144.362L 108.885 144.361L 105.885 144.361ZM 105.885 153.638L 105.885 153.639L 108.885 153.639L 108.885 153.638L 105.885 153.638ZM 105.885 162.914L 105.885 162.915L 108.885 162.915L 108.885 162.914L 105.885 162.914ZM 105.885 172.19L 105.885 172.191L 108.885 172.191L 108.885 172.19L 105.885 172.19ZM 105.885 181.466L 105.885 181.467L 108.885 181.467L 108.885 181.466L 105.885 181.466ZM 105.885 190.743L 105.885 190.743L 108.885 190.743L 108.885 190.743L 105.885 190.743ZM 105.885 190.743C 105.885 190.743 105.885 190.744 105.885 190.744L 108.885 190.744C 108.885 190.744 108.885 190.743 108.885 190.743L 105.885 190.743ZM 105.528 199.491C 105.528 199.491 105.528 199.491 105.528 199.492L 108.518 199.737C 108.518 199.736 108.518 199.736 108.518 199.736L 105.528 199.491ZM 104.455 208.169C 104.455 208.17 104.455 208.17 104.455 208.17L 107.414 208.662C 107.414 208.661 107.414 208.661 107.414 208.661L 104.455 208.169ZM 102.666 216.728C 102.665 216.729 102.665 216.729 102.665 216.729L 105.574 217.465C 105.574 217.465 105.574 217.464 105.574 217.464L 102.666 216.728ZM 100.169 225.112C 100.168 225.113 100.168 225.113 100.168 225.113L 103.005 226.089C 103.005 226.089 103.005 226.088 103.005 226.088L 100.169 225.112ZM 96.9826 233.256C 96.9825 233.257 96.9823 233.257 96.9822 233.257L 99.7281 234.466C 99.7282 234.465 99.7283 234.465 99.7285 234.465L 96.9826 233.256ZM 93.1307 241.107C 93.1305 241.107 93.1304 241.108 93.1302 241.108L 95.7663 242.54C 95.7665 242.54 95.7667 242.539 95.7668 242.539L 93.1307 241.107ZM 88.6399 248.615C 88.6397 248.615 88.6395 248.615 88.6394 248.615L 91.148 250.261C 91.1482 250.26 91.1483 250.26 91.1485 250.26L 88.6399 248.615ZM 83.5452 255.725C 83.545 255.725 83.5448 255.725 83.5446 255.726L 85.9092 257.572C 85.9094 257.572 85.9096 257.571 85.9098 257.571L 83.5452 255.725ZM 77.8828 262.392C 77.8826 262.392 77.8823 262.393 77.8821 262.393L 80.087 264.427C 80.0872 264.427 80.0874 264.427 80.0876 264.427L 77.8828 262.392ZM 71.6916 268.572C 71.6913 268.573 71.6911 268.573 71.6909 268.573L 73.7213 270.782C 73.7215 270.781 73.7218 270.781 73.722 270.781L 71.6916 268.572ZM 65.0143 274.223C 65.0141 274.223 65.0138 274.224 65.0136 274.224L 66.8558 276.592C 66.856 276.591 66.8563 276.591 66.8566 276.591L 65.0143 274.223ZM 57.8953 279.306C 57.895 279.306 57.8947 279.306 57.8944 279.306L 59.5355 281.818C 59.5358 281.818 59.5361 281.817 59.5364 281.817L 57.8953 279.306ZM 50.3806 283.785C 50.3803 283.785 50.38 283.785 50.3798 283.786L 51.8079 286.424C 51.8082 286.424 51.8085 286.423 51.8088 286.423L 50.3806 283.785ZM 42.5242 287.626C 42.5239 287.626 42.5236 287.626 42.5233 287.626L 43.728 290.374C 43.7283 290.374 43.7287 290.374 43.729 290.374L 42.5242 287.626ZM 34.3761 290.802C 34.3758 290.802 34.3755 290.802 34.3752 290.803L 35.3476 293.641C 35.3479 293.641 35.3482 293.64 35.3485 293.64L 34.3761 290.802ZM 25.9893 293.291C 25.989 293.291 25.9887 293.291 25.9884 293.291L 26.7215 296.201C 26.7218 296.2 26.7222 296.2 26.7225 296.2L 25.9893 293.291ZM 17.4286 295.074C 17.4283 295.074 17.428 295.075 17.4277 295.075L 17.9172 298.034C 17.9175 298.034 17.9178 298.034 17.9182 298.034L 17.4286 295.074ZM 8.74903 296.144C 8.7487 296.144 8.74838 296.144 8.74806 296.144L 8.99224 299.134C 8.99257 299.134 8.99291 299.134 8.99324 299.134L 8.74903 296.144ZM 0.000497022 296.5C 0.000331368 296.5 0.000165654 296.5 0 296.5L 0 299.5C 0.000170281 299.5 0.0003405 299.5 0.00051078 299.5L 0.000497022 296.5Z"/>
</defs>
</svg>
