<svg width="6" height="12" viewBox="0 0 6 12" version="1.1" xmlns="http://www.w3.org/2000/svg" xmlns:xlink="http://www.w3.org/1999/xlink">
<title>facebook-letter-logo</title>
<desc>Created using Figma</desc>
<g id="Canvas" transform="translate(3712 -14273)">
<g id="facebook-letter-logo">
<g id="Group">
<g id="Facebook">
<use xlink:href="#path0_fill" transform="translate(-3712 14273)" fill="#fff"/>
</g>
</g>
</g>
</g>
<defs>
<path id="path0_fill" d="M 1.29687 2.32011C 1.29687 2.62201 1.29687 3.9695 1.29687 3.9695L -2.55426e-08 3.9695L -2.55426e-08 5.98637L 1.29687 5.98637L 1.29687 11.9798L 3.96091 11.9798L 3.96091 5.98654L 5.74861 5.98654C 5.74861 5.98654 5.91603 5.01946 5.99719 3.96206C 5.76451 3.96206 3.97098 3.96206 3.97098 3.96206C 3.97098 3.96206 3.97098 2.78871 3.97098 2.58304C 3.97098 2.37693 4.26145 2.09968 4.54853 2.09968C 4.83508 2.09968 5.43985 2.09968 6 2.09968C 6 1.82508 6 0.876277 6 7.20588e-09C 5.25222 7.20588e-09 4.40149 7.20588e-09 4.02649 7.20588e-09C 1.23102 -0.000139257 1.29687 2.01874 1.29687 2.32011Z"/>
</defs>
</svg>
<svg width="6" height="12" viewBox="0 0 6 12" version="1.1" xmlns="http://www.w3.org/2000/svg" xmlns:xlink="http://www.w3.org/1999/xlink">
<title>facebook-letter-logo</title>
<desc>Created using Figma</desc>
<g id="Canvas" transform="translate(3712 -14273)">
<g id="facebook-letter-logo">
<g id="Group">
<g id="Facebook">
<use xlink:href="#path0_fill" transform="translate(-3712 14273)" fill="#fff"/>
</g>
</g>
</g>
</g>
<defs>
<path id="path0_fill" d="M 1.29687 2.32011C 1.29687 2.62201 1.29687 3.9695 1.29687 3.9695L -2.55426e-08 3.9695L -2.55426e-08 5.98637L 1.29687 5.98637L 1.29687 11.9798L 3.96091 11.9798L 3.96091 5.98654L 5.74861 5.98654C 5.74861 5.98654 5.91603 5.01946 5.99719 3.96206C 5.76451 3.96206 3.97098 3.96206 3.97098 3.96206C 3.97098 3.96206 3.97098 2.78871 3.97098 2.58304C 3.97098 2.37693 4.26145 2.09968 4.54853 2.09968C 4.83508 2.09968 5.43985 2.09968 6 2.09968C 6 1.82508 6 0.876277 6 7.20588e-09C 5.25222 7.20588e-09 4.40149 7.20588e-09 4.02649 7.20588e-09C 1.23102 -0.000139257 1.29687 2.01874 1.29687 2.32011Z"/>
</defs>
</svg>
<svg width="6" height="12" viewBox="0 0 6 12" version="1.1" xmlns="http://www.w3.org/2000/svg" xmlns:xlink="http://www.w3.org/1999/xlink">
<title>facebook-letter-logo</title>
<desc>Created using Figma</desc>
<g id="Canvas" transform="translate(3712 -14273)">
<g id="facebook-letter-logo">
<g id="Group">
<g id="Facebook">
<use xlink:href="#path0_fill" transform="translate(-3712 14273)" fill="#fff"/>
</g>
</g>
</g>
</g>
<defs>
<path id="path0_fill" d="M 1.29687 2.32011C 1.29687 2.62201 1.29687 3.9695 1.29687 3.9695L -2.55426e-08 3.9695L -2.55426e-08 5.98637L 1.29687 5.98637L 1.29687 11.9798L 3.96091 11.9798L 3.96091 5.98654L 5.74861 5.98654C 5.74861 5.98654 5.91603 5.01946 5.99719 3.96206C 5.76451 3.96206 3.97098 3.96206 3.97098 3.96206C 3.97098 3.96206 3.97098 2.78871 3.97098 2.58304C 3.97098 2.37693 4.26145 2.09968 4.54853 2.09968C 4.83508 2.09968 5.43985 2.09968 6 2.09968C 6 1.82508 6 0.876277 6 7.20588e-09C 5.25222 7.20588e-09 4.40149 7.20588e-09 4.02649 7.20588e-09C 1.23102 -0.000139257 1.29687 2.01874 1.29687 2.32011Z"/>
</defs>
</svg>
<svg width="6" height="12" viewBox="0 0 6 12" version="1.1" xmlns="http://www.w3.org/2000/svg" xmlns:xlink="http://www.w3.org/1999/xlink">
<title>facebook-letter-logo</title>
<desc>Created using Figma</desc>
<g id="Canvas" transform="translate(3712 -14273)">
<g id="facebook-letter-logo">
<g id="Group">
<g id="Facebook">
<use xlink:href="#path0_fill" transform="translate(-3712 14273)" fill="#fff"/>
</g>
</g>
</g>
</g>
<defs>
<path id="path0_fill" d="M 1.29687 2.32011C 1.29687 2.62201 1.29687 3.9695 1.29687 3.9695L -2.55426e-08 3.9695L -2.55426e-08 5.98637L 1.29687 5.98637L 1.29687 11.9798L 3.96091 11.9798L 3.96091 5.98654L 5.74861 5.98654C 5.74861 5.98654 5.91603 5.01946 5.99719 3.96206C 5.76451 3.96206 3.97098 3.96206 3.97098 3.96206C 3.97098 3.96206 3.97098 2.78871 3.97098 2.58304C 3.97098 2.37693 4.26145 2.09968 4.54853 2.09968C 4.83508 2.09968 5.43985 2.09968 6 2.09968C 6 1.82508 6 0.876277 6 7.20588e-09C 5.25222 7.20588e-09 4.40149 7.20588e-09 4.02649 7.20588e-09C 1.23102 -0.000139257 1.29687 2.01874 1.29687 2.32011Z"/>
</defs>
</svg>
