<svg width="11" height="10" viewBox="0 0 11 10" version="1.1" xmlns="http://www.w3.org/2000/svg" xmlns:xlink="http://www.w3.org/1999/xlink">
<title>linkedin</title>
<desc>Created using Figma</desc>
<g id="Canvas" transform="translate(3714 -14362)">
<g id="linkedin">
<g id="Vector">
<use xlink:href="#path0_fill" transform="translate(-3714 14362)" fill="#fff"/>
</g>
</g>
</g>
<defs>
<path id="path0_fill" d="M 2.46563 3.24932L 2.46563 10L 0.134232 10L 0.134232 3.24932L 2.46563 3.24932ZM 2.61399 1.16485C 2.6187 1.49637 2.49977 1.77339 2.25721 1.99591C 2.01465 2.21844 1.69556 2.3297 1.29993 2.3297L 1.2858 2.3297C 0.899588 2.3297 0.588736 2.21844 0.353241 1.99591C 0.117747 1.77339 0 1.49637 0 1.16485C 0 0.828792 0.12128 0.550636 0.363839 0.330381C 0.606398 0.110127 0.923138 0 1.31406 0C 1.70498 0 2.01819 0.110127 2.25368 0.330381C 2.48917 0.550636 2.60928 0.828792 2.61399 1.16485ZM 10.8516 6.13079L 10.8516 10L 8.52725 10L 8.52725 6.38965C 8.52725 5.91281 8.43187 5.53928 8.24112 5.26907C 8.05037 4.99886 7.75247 4.86376 7.34742 4.86376C 7.0507 4.86376 6.80225 4.9421 6.60208 5.09877C 6.40191 5.25545 6.25237 5.44959 6.15347 5.6812C 6.10166 5.81744 6.07575 6.00136 6.07575 6.23297L 6.07575 10L 3.75142 10C 3.76084 8.18801 3.76555 6.71889 3.76555 5.59264C 3.76555 4.46639 3.7632 3.79428 3.75849 3.57629L 3.75142 3.24932L 6.07575 3.24932L 6.07575 4.23025L 6.06162 4.23025C 6.15582 4.08492 6.25237 3.95777 6.35128 3.84877C 6.45019 3.73978 6.58324 3.62171 6.75044 3.49455C 6.91765 3.36739 7.12253 3.26862 7.36508 3.19823C 7.60764 3.12784 7.87728 3.09264 8.17401 3.09264C 8.9794 3.09264 9.62701 3.35036 10.1168 3.8658C 10.6067 4.38124 10.8516 5.13624 10.8516 6.13079Z"/>
</defs>
</svg>
