<svg xmlns="http://www.w3.org/2000/svg" viewBox="0 0 447 938">
  <defs>
    <style>
      .a {
        fill: #202020;
      }

      .b, .c, .d, .e, .f, .g, .h, .i, .j, .l, .m, .n, .o, .p, .q, .r {
        fill: none;
      }

      .b, .c, .d, .e, .f, .g, .h, .i, .j, .m, .n, .o, .p, .q, .r {
        stroke: #202020;
      }

      .b, .c, .d, .f, .g, .h, .i, .j, .m, .n, .o, .p, .r {
        stroke-linecap: round;
        stroke-linejoin: round;
      }

      .b, .c, .d, .m, .n, .o, .p, .q {
        stroke-width: 2px;
      }

      .c {
        stroke-dasharray: 0 3.94;
      }

      .d {
        stroke-dasharray: 0 4;
      }

      .e {
        stroke-linecap: square;
        stroke-width: 4px;
      }

      .e, .q {
        stroke-miterlimit: 10;
      }

      .g {
        stroke-dasharray: 0 2.06;
      }

      .h {
        stroke-dasharray: 0 1.97;
      }

      .i {
        stroke-dasharray: 0 2;
      }

      .j {
        stroke-dasharray: 0 2.01;
      }

      .k {
        opacity: 0;
      }

      .m {
        stroke-dasharray: 0 4.11;
      }

      .n {
        stroke-dasharray: 0 4.04;
      }

      .o {
        stroke-dasharray: 0 3.99;
      }

      .p {
        stroke-dasharray: 0 3.77;
      }

      .r {
        stroke-dasharray: 0 2.02;
      }
    </style>
  </defs>
  <title>bg</title>
  <g>
    <polygon class="a" points="288 68 276 68 276 56 268 56 268 68 256 68 256 76 268 76 268 88 276 88 276 76 288 76 288 68"/>
    <line class="b" x1="128" y1="160" x2="128" y2="160"/>
    <line class="c" x1="125.22" y1="162.78" x2="65.39" y2="222.61"/>
    <line class="b" x1="64" y1="224" x2="64" y2="224"/>
    <line class="b" x1="288" y1="40" x2="288" y2="40"/>
    <line class="d" x1="284" y1="40" x2="258" y2="40"/>
    <line class="b" x1="256" y1="40" x2="256" y2="40"/>
    <line class="b" x1="288" y1="104" x2="288" y2="104"/>
    <line class="d" x1="284" y1="104" x2="258" y2="104"/>
    <line class="b" x1="256" y1="104" x2="256" y2="104"/>
    <line class="b" x1="144" y1="368" x2="144" y2="368"/>
    <line class="d" x1="144" y1="364" x2="144" y2="306"/>
    <line class="b" x1="144" y1="304" x2="144" y2="304"/>
    <line class="e" x1="128" y1="24" x2="128" y2="88"/>
    <line class="e" x1="120" y1="24" x2="120" y2="88"/>
    <line class="f" x1="184" y1="216" x2="184" y2="216"/>
    <line class="g" x1="185.45" y1="217.45" x2="199.27" y2="231.27"/>
    <line class="f" x1="200" y1="232" x2="200" y2="232"/>
    <line class="f" x1="168" y1="264" x2="168" y2="264"/>
    <line class="g" x1="169.45" y1="265.45" x2="183.27" y2="279.27"/>
    <line class="f" x1="184" y1="280" x2="184" y2="280"/>
    <line class="f" x1="104" y1="264" x2="104" y2="264"/>
    <line class="h" x1="102.61" y1="265.39" x2="72.7" y2="295.3"/>
    <line class="f" x1="72" y1="296" x2="72" y2="296"/>
    <line class="f" x1="232" y1="360" x2="232" y2="360"/>
    <line class="g" x1="233.45" y1="358.55" x2="247.27" y2="344.73"/>
    <line class="f" x1="248" y1="344" x2="248" y2="344"/>
    <line class="f" x1="264" y1="360" x2="264" y2="360"/>
    <line class="i" x1="264" y1="362" x2="264" y2="391"/>
    <line class="f" x1="264" y1="392" x2="264" y2="392"/>
    <line class="f" x1="296" y1="376" x2="296" y2="376"/>
    <line class="i" x1="297.41" y1="374.59" x2="319.29" y2="352.71"/>
    <line class="f" x1="320" y1="352" x2="320" y2="352"/>
    <line class="f" x1="336" y1="352" x2="336" y2="352"/>
    <line class="i" x1="337.41" y1="353.41" x2="359.29" y2="375.29"/>
    <line class="f" x1="360" y1="376" x2="360" y2="376"/>
    <line class="f" x1="312" y1="120" x2="312" y2="120"/>
    <line class="g" x1="313.45" y1="118.55" x2="327.27" y2="104.73"/>
    <line class="f" x1="328" y1="104" x2="328" y2="104"/>
    <line class="f" x1="328" y1="104" x2="328" y2="104"/>
    <line class="i" x1="328" y1="106" x2="328" y2="135"/>
    <line class="f" x1="328" y1="136" x2="328" y2="136"/>
    <line class="f" x1="296" y1="104" x2="296" y2="104"/>
    <line class="g" x1="297.45" y1="105.45" x2="311.27" y2="119.27"/>
    <line class="f" x1="312" y1="120" x2="312" y2="120"/>
    <line class="f" x1="216" y1="104" x2="216" y2="104"/>
    <line class="i" x1="216" y1="106" x2="216" y2="135"/>
    <line class="f" x1="216" y1="136" x2="216" y2="136"/>
    <line class="f" x1="216" y1="136" x2="216" y2="136"/>
    <line class="g" x1="217.45" y1="134.55" x2="231.27" y2="120.73"/>
    <line class="f" x1="232" y1="120" x2="232" y2="120"/>
    <line class="f" x1="216" y1="136" x2="216" y2="136"/>
    <line class="j" x1="214.58" y1="134.58" x2="152.71" y2="72.71"/>
    <line class="f" x1="152" y1="72" x2="152" y2="72"/>
    <line class="f" x1="152" y1="72" x2="152" y2="72"/>
    <line class="i" x1="152" y1="70" x2="152" y2="41"/>
    <line class="f" x1="152" y1="40" x2="152" y2="40"/>
    <line class="f" x1="224" y1="176" x2="224" y2="176"/>
    <line class="j" x1="225.42" y1="177.42" x2="287.29" y2="239.29"/>
    <line class="f" x1="288" y1="240" x2="288" y2="240"/>
    <line class="f" x1="256" y1="144" x2="256" y2="144"/>
    <line class="j" x1="257.42" y1="145.42" x2="319.29" y2="207.29"/>
    <line class="f" x1="320" y1="208" x2="320" y2="208"/>
    <line class="f" x1="240" y1="160" x2="240" y2="160"/>
    <line class="j" x1="241.42" y1="161.42" x2="303.29" y2="223.29"/>
    <line class="f" x1="304" y1="224" x2="304" y2="224"/>
    <line class="f" x1="280" y1="280" x2="280" y2="280"/>
    <line class="g" x1="281.45" y1="278.55" x2="295.27" y2="264.73"/>
    <line class="f" x1="296" y1="264" x2="296" y2="264"/>
    <line class="f" x1="200" y1="424" x2="200" y2="424"/>
    <line class="i" x1="201.41" y1="422.59" x2="247.29" y2="376.71"/>
    <line class="f" x1="248" y1="376" x2="248" y2="376"/>
    <g class="k">
      <rect class="l" x="64" y="288" width="16" height="16"/>
    </g>
    <circle class="a" cx="72" cy="296" r="2"/>
    <g class="k">
      <rect class="l" y="288" width="16" height="16"/>
    </g>
    <circle class="a" cx="8" cy="296" r="2"/>
    <g class="k">
      <rect class="l" y="224" width="16" height="16"/>
    </g>
    <circle class="a" cx="8" cy="232" r="2"/>
    <g class="k">
      <rect class="l" x="64" y="224" width="16" height="16"/>
    </g>
    <circle class="a" cx="72" cy="232" r="2"/>
    <g class="k">
      <rect class="l" x="128" y="160" width="16" height="16"/>
    </g>
    <circle class="a" cx="136" cy="168" r="2"/>
    <g class="k">
      <rect class="l" x="128" y="128" width="16" height="16"/>
    </g>
    <circle class="a" cx="136" cy="136" r="2"/>
    <g class="k">
      <rect class="l" x="192" y="192" width="16" height="16"/>
    </g>
    <circle class="a" cx="200" cy="200" r="2"/>
    <g class="k">
      <rect class="l" x="192" y="176" width="16" height="16"/>
    </g>
    <circle class="a" cx="200" cy="184" r="2"/>
    <g class="k">
      <rect class="l" x="128" y="112" width="16" height="16"/>
    </g>
    <circle class="a" cx="136" cy="120" r="2"/>
    <g class="k">
      <rect class="l" x="128" y="96" width="16" height="16"/>
    </g>
    <circle class="a" cx="136" cy="104" r="2"/>
    <g class="k">
      <rect class="l" x="200" y="168" width="16" height="16"/>
    </g>
    <circle class="a" cx="208" cy="176" r="2"/>
    <g class="k">
      <rect class="l" x="216" y="168" width="16" height="16"/>
    </g>
    <circle class="a" cx="224" cy="176" r="2"/>
    <g class="k">
      <rect class="l" x="128" y="80" width="16" height="16"/>
    </g>
    <circle class="a" cx="136" cy="88" r="2"/>
    <g class="k">
      <rect class="l" x="128" y="16" width="16" height="16"/>
    </g>
    <circle class="a" cx="136" cy="24" r="2"/>
    <g class="k">
      <rect class="l" x="144" width="16" height="16"/>
    </g>
    <circle class="a" cx="152" cy="8" r="2"/>
    <g class="k">
      <rect class="l" x="208" y="64" width="16" height="16"/>
    </g>
    <circle class="a" cx="216" cy="72" r="2"/>
    <g class="k">
      <rect class="l" x="240" y="32" width="16" height="16"/>
    </g>
    <circle class="a" cx="248" cy="40" r="2"/>
    <g class="k">
      <rect class="l" x="240" y="96" width="16" height="16"/>
    </g>
    <circle class="a" cx="248" cy="104" r="2"/>
    <g class="k">
      <rect class="l" x="224" y="112" width="16" height="16"/>
    </g>
    <circle class="a" cx="232" cy="120" r="2"/>
    <g class="k">
      <rect class="l" x="248" y="136" width="16" height="16"/>
    </g>
    <circle class="a" cx="256" cy="144" r="2"/>
    <g class="k">
      <rect class="l" x="288" y="96" width="16" height="16"/>
    </g>
    <circle class="a" cx="296" cy="104" r="2"/>
    <g class="k">
      <rect class="l" x="288" y="32" width="16" height="16"/>
    </g>
    <circle class="a" cx="296" cy="40" r="2"/>
    <g class="k">
      <rect class="l" x="352" y="96" width="16" height="16"/>
    </g>
    <circle class="a" cx="360" cy="104" r="2"/>
    <g class="k">
      <rect class="l" x="352" y="192" width="16" height="16"/>
    </g>
    <circle class="a" cx="360" cy="200" r="2"/>
    <g class="k">
      <rect class="l" x="368" y="192" width="16" height="16"/>
    </g>
    <circle class="a" cx="376" cy="200" r="2"/>
    <g class="k">
      <rect class="l" x="368" y="176" width="16" height="16"/>
    </g>
    <circle class="a" cx="376" cy="184" r="2"/>
    <g class="k">
      <rect class="l" x="416" y="256" width="16" height="16"/>
    </g>
    <circle class="a" cx="424" cy="264" r="2"/>
    <g class="k">
      <rect class="l" x="416" y="288" width="16" height="16"/>
    </g>
    <circle class="a" cx="424" cy="296" r="2"/>
    <g class="k">
      <rect class="l" x="400" y="272" width="16" height="16"/>
    </g>
    <circle class="a" cx="408" cy="280" r="2"/>
    <g class="k">
      <rect class="l" x="400" y="304" width="16" height="16"/>
    </g>
    <circle class="a" cx="408" cy="312" r="2"/>
    <g class="k">
      <rect class="l" x="384" y="288" width="16" height="16"/>
    </g>
    <circle class="a" cx="392" cy="296" r="2"/>
    <g class="k">
      <rect class="l" x="384" y="320" width="16" height="16"/>
    </g>
    <circle class="a" cx="392" cy="328" r="2"/>
    <g class="k">
      <rect class="l" x="256" y="352" width="16" height="16"/>
    </g>
    <circle class="a" cx="264" cy="360" r="2"/>
    <g class="k">
      <rect class="l" x="288" y="384" width="16" height="16"/>
    </g>
    <circle class="a" cx="296" cy="392" r="2"/>
    <g class="k">
      <rect class="l" x="288" y="368" width="16" height="16"/>
    </g>
    <circle class="a" cx="296" cy="376" r="2"/>
    <g class="k">
      <rect class="l" x="288" y="336" width="16" height="16"/>
    </g>
    <circle class="a" cx="296" cy="344" r="2"/>
    <g class="k">
      <rect class="l" x="320" y="304" width="16" height="16"/>
    </g>
    <circle class="a" cx="328" cy="312" r="2"/>
    <g class="k">
      <rect class="l" x="352" y="336" width="16" height="16"/>
    </g>
    <circle class="a" cx="360" cy="344" r="2"/>
    <g class="k">
      <rect class="l" x="352" y="368" width="16" height="16"/>
    </g>
    <circle class="a" cx="360" cy="376" r="2"/>
    <g class="k">
      <rect class="l" x="320" y="400" width="16" height="16"/>
    </g>
    <circle class="a" cx="328" cy="408" r="2"/>
    <g class="k">
      <rect class="l" x="320" y="368" width="16" height="16"/>
    </g>
    <circle class="a" cx="328" cy="376" r="2"/>
    <g class="k">
      <rect class="l" x="320" y="352" width="16" height="16"/>
    </g>
    <circle class="a" cx="328" cy="360" r="2"/>
    <g class="k">
      <rect class="l" x="304" y="336" width="16" height="16"/>
    </g>
    <circle class="a" cx="312" cy="344" r="2"/>
    <g class="k">
      <rect class="l" x="320" y="320" width="16" height="16"/>
    </g>
    <circle class="a" cx="328" cy="328" r="2"/>
    <g class="k">
      <rect class="l" x="336" y="336" width="16" height="16"/>
    </g>
    <circle class="a" cx="344" cy="344" r="2"/>
    <g class="k">
      <rect class="l" x="256" y="416" width="16" height="16"/>
    </g>
    <circle class="a" cx="264" cy="424" r="2"/>
    <g class="k">
      <rect class="l" x="256" y="448" width="16" height="16"/>
    </g>
    <circle class="a" cx="264" cy="456" r="2"/>
    <g class="k">
      <rect class="l" x="240" y="432" width="16" height="16"/>
    </g>
    <circle class="a" cx="248" cy="440" r="2"/>
    <g class="k">
      <rect class="l" x="240" y="464" width="16" height="16"/>
    </g>
    <circle class="a" cx="248" cy="472" r="2"/>
    <g class="k">
      <rect class="l" x="224" y="448" width="16" height="16"/>
    </g>
    <circle class="a" cx="232" cy="456" r="2"/>
    <g class="k">
      <rect class="l" x="224" y="480" width="16" height="16"/>
    </g>
    <circle class="a" cx="232" cy="488" r="2"/>
    <g class="k">
      <rect class="l" x="192" y="480" width="16" height="16"/>
    </g>
    <circle class="a" cx="200" cy="488" r="2"/>
    <g class="k">
      <rect class="l" x="192" y="512" width="16" height="16"/>
    </g>
    <circle class="a" cx="200" cy="520" r="2"/>
    <g class="k">
      <rect class="l" x="288" y="416" width="16" height="16"/>
    </g>
    <circle class="a" cx="296" cy="424" r="2"/>
    <g class="k">
      <rect class="l" x="256" y="384" width="16" height="16"/>
    </g>
    <circle class="a" cx="264" cy="392" r="2"/>
    <g class="k">
      <rect class="l" x="256" y="400" width="16" height="16"/>
    </g>
    <circle class="a" cx="264" cy="408" r="2"/>
    <g class="k">
      <rect class="l" x="192" y="464" width="16" height="16"/>
    </g>
    <circle class="a" cx="200" cy="472" r="2"/>
    <g class="k">
      <rect class="l" x="192" y="416" width="16" height="16"/>
    </g>
    <circle class="a" cx="200" cy="424" r="2"/>
    <g class="k">
      <rect class="l" x="144" y="368" width="16" height="16"/>
    </g>
    <circle class="a" cx="152" cy="376" r="2"/>
    <g class="k">
      <rect class="l" x="144" y="304" width="16" height="16"/>
    </g>
    <circle class="a" cx="152" cy="312" r="2"/>
    <g class="k">
      <rect class="l" x="192" y="352" width="16" height="16"/>
    </g>
    <circle class="a" cx="200" cy="360" r="2"/>
    <g class="k">
      <rect class="l" x="224" y="320" width="16" height="16"/>
    </g>
    <circle class="a" cx="232" cy="328" r="2"/>
    <g class="k">
      <rect class="l" x="256" y="288" width="16" height="16"/>
    </g>
    <circle class="a" cx="264" cy="296" r="2"/>
    <g class="k">
      <rect class="l" x="240" y="272" width="16" height="16"/>
    </g>
    <circle class="a" cx="248" cy="280" r="2"/>
    <g class="k">
      <rect class="l" x="192" y="320" width="16" height="16"/>
    </g>
    <circle class="a" cx="200" cy="328" r="2"/>
    <g class="k">
      <rect class="l" x="160" y="288" width="16" height="16"/>
    </g>
    <circle class="a" cx="168" cy="296" r="2"/>
    <g class="k">
      <rect class="l" x="128" y="256" width="16" height="16"/>
    </g>
    <circle class="a" cx="136" cy="264" r="2"/>
    <g class="k">
      <rect class="l" x="128" y="224" width="16" height="16"/>
    </g>
    <circle class="a" cx="136" cy="232" r="2"/>
    <g class="k">
      <rect class="l" x="96" y="256" width="16" height="16"/>
    </g>
    <circle class="a" cx="104" cy="264" r="2"/>
    <g class="k">
      <rect class="l" x="128" y="288" width="16" height="16"/>
    </g>
    <circle class="a" cx="136" cy="296" r="2"/>
    <g class="k">
      <rect class="l" x="128" y="352" width="16" height="16"/>
    </g>
    <circle class="a" cx="136" cy="360" r="2"/>
    <g class="k">
      <rect class="l" x="320" y="256" width="16" height="16"/>
    </g>
    <circle class="a" cx="328" cy="264" r="2"/>
    <g class="k">
      <rect class="l" x="320" y="272" width="16" height="16"/>
    </g>
    <circle class="a" cx="328" cy="280" r="2"/>
    <g class="k">
      <rect class="l" x="320" y="288" width="16" height="16"/>
    </g>
    <circle class="a" cx="328" cy="296" r="2"/>
    <g class="k">
      <rect class="l" x="384" y="336" width="16" height="16"/>
    </g>
    <circle class="a" cx="392" cy="344" r="2"/>
    <g class="k">
      <rect class="l" x="384" y="352" width="16" height="16"/>
    </g>
    <circle class="a" cx="392" cy="360" r="2"/>
    <g class="k">
      <rect class="l" x="416" y="240" width="16" height="16"/>
    </g>
    <circle class="a" cx="424" cy="248" r="2"/>
    <g class="k">
      <rect class="l" x="416" y="224" width="16" height="16"/>
    </g>
    <circle class="a" cx="424" cy="232" r="2"/>
    <line class="f" x1="328" y1="248" x2="328" y2="248"/>
    <line class="j" x1="329.42" y1="249.42" x2="391.29" y2="311.29"/>
    <line class="f" x1="392" y1="312" x2="392" y2="312"/>
    <line class="f" x1="408" y1="296" x2="408" y2="296"/>
    <line class="j" x1="406.58" y1="294.58" x2="344.71" y2="232.71"/>
    <line class="f" x1="344" y1="232" x2="344" y2="232"/>
    <line class="f" x1="360" y1="216" x2="360" y2="216"/>
    <line class="j" x1="361.42" y1="217.42" x2="423.29" y2="279.29"/>
    <line class="f" x1="424" y1="280" x2="424" y2="280"/>
    <path class="a" d="M40,244.5A19.5,19.5,0,1,0,59.5,264h0A19.5,19.5,0,0,0,40,244.5ZM28.78,278.07v-.83c0-.28-.24-.51-.27-.75s0-.22,0-.42c-.24,0-.12-1.24-.12-1.44-.42,0-.21-.27-.26-.65a1.85,1.85,0,0,0-.58-1.2c-.45-.51-1.14-.65-1.51-1.27a10.35,10.35,0,0,0-1.08-2c-.18-.19-.59-.72-.47-1a2.74,2.74,0,0,1,.36-.27c0-.09.22-.19.09-.25s-.15-.48-.13-.62a1.42,1.42,0,0,1,.39-.7l.23-.38c.59-.2.08-1.22.09-1.55s0-.38-.27-.42-.2.44-.48.38-.25-.21-.4-.26H24c-.15-.06-.08-.19-.25-.28-.39-.18-.44-.69-.66-1s-.73-.22-1-.44q.06-.84.2-1.65a.41.41,0,0,0,.18-.11c.15-.2.2-.44.43-.58a.87.87,0,0,1,.71-.07c.15,0,.22.36.18.34.15.23-.69,1.07-.37,1.24,0,0,1.47.21,1,.52.08.41-.15.93,0,1.31.25.67.82.1,1.18.37s.58-.37.65-.34c0-.26.73-.45.87-.42.46-.28,1.31.32,1.81.34s.67-.1,1,.23.35.5.64.56.34.5.57.64a1.68,1.68,0,0,0,.83.15,2.26,2.26,0,0,1,1,1.39c.12.39,0,.29.44.47.15.07.16.19.34.24a.79.79,0,0,1,.29.15c.33.29.44.57.94.63a1.5,1.5,0,0,1,.83.31,1.68,1.68,0,0,0,.75.36c.43,0,.44,1.11.24,1.37s-.24.31-.4.49-.1.35-.2.46c-.36.39-.16,1-.23,1.54s-.16,1.57-.72,1.79c-.35.15-1.22.17-1.26.78,0,.36.3.56,0,.93s-.19.4-.29.78a2.58,2.58,0,0,1-.37.59c-.27.22-.59.25-.81.45-.09,0,.15.32.19.35a.84.84,0,0,1-.15.49.52.52,0,0,1-.36.16h-.4a.31.31,0,0,0-.14,0v.21a1.18,1.18,0,0,1,0,.17v.12s.11.07.09.13-.09.06-.13.09l-.19.1A18,18,0,0,1,28.78,278.07ZM24.55,259.9c.6-.5,1.11,0,1.71.28h0c.09,0,.82.51.51.52a1.61,1.61,0,0,1-.6,0c-.19,0-.28-.25-.35-.42s-.33-.12-.43-.16a1.54,1.54,0,0,0-.65-.18.67.67,0,0,1-.22.15C24.34,260.08,24.5,260,24.55,259.9Zm2.39,1.29a.09.09,0,0,1,.09-.08h0c.15-.3-.06-.23.37-.41.21-.09,1,.07,1,.43S27,261.43,26.94,261.19ZM40,246a18.15,18.15,0,0,1,2.74.21l.18.1c.32.28-.09.5-.28.75s-.47.26-.51.42-.1.28-.38.44a3.26,3.26,0,0,1-1.2.34h-.12a7.42,7.42,0,0,0-1.07.42c-.31.08-.59.13-.9.23a.16.16,0,0,1,0-.13c-.23,0-.51.4-.65.56a.88.88,0,0,1-.8.39c-.43-.05-1-.29-1-.73,0-.12-.09-.7.07-.74-.1-.18.25-.56.18-.84s-1.26-.31-1.63-.59A18,18,0,0,1,40,246Zm2.76,2.9c-.25.12-.84.3-1.08,0,0,0-.14-.42,0-.42a.26.26,0,0,1,.24-.06H42c.29-.06,1-.17,1.13,0C43.39,248.76,42.94,248.81,42.76,248.9Zm13.18,22.93c-.46-.37,0-1.1.2-1.44s0-1.46.48-1.37.55-.4.68-.62l.24-.31A17.84,17.84,0,0,1,56.15,272,.73.73,0,0,1,55.94,271.83Zm1.39-12.71h0c-.16-.1-.77-.62-.68-.8-.12,0-.56-.18-.55.18s.67.84.85,1.21c.19-.07.09-.25.23,0a2.17,2.17,0,0,1,.12.36.37.37,0,0,0,.35.07,17.9,17.9,0,0,1,.37,2.6l-.25.08c.06,0-.21.33-.21.34a11,11,0,0,0-1,.47c-.25.12-1.2.51-.28.43a7.32,7.32,0,0,0,1-.23c.32,0,.2.2.28.2a2.46,2.46,0,0,1-.15,1c-.08.21-.31.48-.26.72s-.67,1-.83,1.25-.76.64-1,1a4,4,0,0,0-.6.91c-.09.22-.1.82-.31.88.37.32-.06.6,0,.85a2.73,2.73,0,0,1,.25,1c-.12,0-.1.85-.11,1,0,.35-.17.37-.4.62s-.29.2-.42.33h-.3a2.83,2.83,0,0,0-.72.78c-.06.07.13.33.14.42a2,2,0,0,1-.06.53.8.8,0,0,1-.66.6c-.2,0-.21.61-.24.78s-.36.35-.48.53-.21.46-.45.52-.21.32-.35.44a1.38,1.38,0,0,1-1,.45,2,2,0,0,0-1.07.26,1.5,1.5,0,0,0-.48-.15c0-.12-.09-.61.12-.61a7.64,7.64,0,0,0-.36-.69c-.08-.11-.07-.39-.12-.53a2,2,0,0,0-.13-.38c-.1-.15,0-.33,0-.49-.2,0-.12-.33-.12-.41a1.51,1.51,0,0,0-.1-.72.71.71,0,0,1-.16-.33c0-.39-.24-.68-.28-1.06a8.67,8.67,0,0,1,.14-1.12c0-.35.27-.44.38-.75a1,1,0,0,0,0-.58c-.1,0-.13-.06-.12-.15a3.21,3.21,0,0,0-.68-2c-.31-.45-.48-.65-.31-1.17a3.84,3.84,0,0,0,.15-.93c0-.29-.37-.48-.61-.46-.4-.1-.36-.09-.58-.43-.34-.5-1,.15-1.3.15-.11.23-.72.1-.91.1h-.81c-.15,0-.22.15-.4.11-.42-.1-.85-.61-1.21-.85s-.54-.91-.8-1.29a2.06,2.06,0,0,1-.47-1.19c0-.54.32-1,.23-1.56a2.29,2.29,0,0,1,.34-1.79c.12-.22.22-.55.49-.62l.17-.32c.23-.26.75-.34.76-.75a1.39,1.39,0,0,1,.64-1c.2-.11.53-.66.32-.84s-.61,0-.72-.56c0-.21,0-1.37.29-1.38s.85-.08,1.28-.07c1,0-.36-1.26-.35-1.28s.42-.14.5-.24-.34-.23-.25-.32c-.39,0,0-.48-.49-.34a2.51,2.51,0,0,1-.69.09c-.71-.1.43-1.18.53-.84.15-.06.18-.21.21-.35s0-.15,0-.12c.18-.75,1.06.84,1.31.77s.09-.55.15-.62l.37-.17c.26.07.18-.93.31-1,.34-.23.8-.28,1.11-.57a2.88,2.88,0,0,1,1.34-.79,6,6,0,0,1,1.31-.18A18,18,0,0,1,57.33,259.12Zm-25.73-11-.1.05Zm-3.89,2.77.33.21c.2.12.1.53.27.71.62.67.88-.48,1.27-.7,0,0,.69-.44.49-.44-.22-.23,0-.62.16-.8s.35-.51.5-.52c.2-.27.28-.59.64-.65h0a1.42,1.42,0,0,0,.8-.29c.19-.15-.15-.42-.42-.38q.64-.33,1.3-.6c.49.19,1.41.47,1.23,1s-.71.15-1,.4-.18.46-.64.47-.85,0-.67.58.59-.1.88-.09.46.81.59,1.07c0,.06.36.1.23.23.07.1.23,0,.26.18a2.94,2.94,0,0,1-.12.64c0,.24.43.65-.08.8s-.8-.06-.61-.5-.34-.15-.61-.18a2.24,2.24,0,0,0-1.32.25c.18,0,.34.1.22.32s.21.67,0,.75-.48,0-.69.07a2.15,2.15,0,0,1-.56.17c-.5.07-.52.32-.86.59s-.79.44-1.14.7c-.13.1-.37.16-.47.29s0,.43-.1.62-1.32,1.32-1.49,1.16a2.85,2.85,0,0,1-.29.54,1,1,0,0,0,0,.81c.11.47-.26,1.26-.63.56-.18-.33,0-.44,0-.76s-.34-.17-.5-.25a2.37,2.37,0,0,0-1-.06s-.28.25-.37.25a1.54,1.54,0,0,1-.41,0,18,18,0,0,1,4.81-7.19Z"/>
    <path class="a" d="M45.21,251.64c.12,0,.4.06.37-.21s-.12-.51-.31-.5c-.36,0-.27.45-.49.6h0c.07,0-.26.15-.27.15a.34.34,0,0,0-.34.34s0,0,0,0C44.13,252.29,45,251.69,45.21,251.64Z"/>
    <path class="a" d="M47.5,251.36c.24,0,.48-.24.64-.47h0c.23-.34-.12-.32-.28-.61,0-.06-.29-.62-.41-.25s.14.31,0,.48a.86.86,0,0,1-.31.63A.46.46,0,0,0,47.5,251.36Z"/>
    <path class="a" d="M49.48,256.25c-.34-.13-.48-.54-.73-.78s-.28-.57-.5-.78a14.79,14.79,0,0,0-1.27-.77.56.56,0,0,0,.14.54c.15.21.48.18.58.41s.21,0,.23.36c0,.1,0,.53-.22.5a2.09,2.09,0,0,0-.37-.59,3,3,0,0,1-.64-.33c-.21-.2-.43-.6-.73-.64s-.56.21-.88.18-.48.36-.73.55a1.3,1.3,0,0,0-.59.84c0,.19-.58.63-.24.67a2.94,2.94,0,0,1,1.57-.4,4.2,4.2,0,0,1,1.08,0c.13.12.48.53.29.7.17.15-.13.32.27.5s.62,0,.86.25a2.35,2.35,0,0,0,1,.47.16.16,0,0,0,.18-.13h0c.19-1,1.77.18,2.42.07a1.52,1.52,0,0,1,.62,0c.28,0,.42.1.6-.18a1.47,1.47,0,0,0,0-1.3c-.07.08-.51.31-.61.26a.38.38,0,0,0-.52-.15l0,0c-.28.2-1.08-.41-1.07-.71,0-.56-.53-.69-.88-.32,0,.09.27.43.25.44S49.56,256.21,49.48,256.25Zm-2-.12c-.09,0-.62-.24-.57-.35s.27,0,.32,0h0c.13-.05.59.17.22.35Z"/>
    <path class="a" d="M51,255c.34,0,.59-.21,1-.2s.82.35,1.3.26c1.1-.2-.66-.7-.86-1h0a1.66,1.66,0,0,0,0-.5c-.2.12-.42.19-.61.32.06.13.36,0,.37.12a1.77,1.77,0,0,1-.64.2c0-.11-.18-.46-.29-.46C50.56,253.63,50.06,255,51,255Z"/>
    <path class="a" d="M52.83,258.88H52.5c-.14.4.18.45.25.73a2.74,2.74,0,0,0,.53.91h0a3.29,3.29,0,0,1,.39,1.14c0,.07.35.15.43.21a6.5,6.5,0,0,1,.4.68c.12.19.35.48.43.49.1-.21-.09-.5,0-.75l-.25-.36a4.61,4.61,0,0,1-.78-1.21,5.14,5.14,0,0,0-.84-1.37A2.9,2.9,0,0,1,52.83,258.88Z"/>
    <line class="f" x1="140.41" y1="8" x2="140.41" y2="8"/>
    <line class="j" x1="138.41" y1="8" x2="9" y2="8"/>
    <line class="f" x1="8" y1="8" x2="8" y2="8"/>
    <line class="i" x1="8" y1="10" x2="8" y2="219.41"/>
    <line class="f" x1="8" y1="220.41" x2="8" y2="220.41"/>
    <polygon class="a" points="139.68 5.51 144 8 139.68 10.49 139.68 5.51"/>
    <polygon class="a" points="5.51 219.68 8 224 10.49 219.68 5.51 219.68"/>
    <g class="k">
      <rect class="l" x="160" y="224" width="16" height="16"/>
    </g>
    <circle class="a" cx="168" cy="232" r="2"/>
    <g class="k">
      <rect class="l" x="192" y="256" width="16" height="16"/>
    </g>
    <circle class="a" cx="200" cy="264" r="2"/>
    <g class="k">
      <rect class="l" x="192" y="224" width="16" height="16"/>
    </g>
    <circle class="a" cx="200" cy="232" r="2"/>
    <g class="k">
      <rect class="l" x="256" y="256" width="16" height="16"/>
    </g>
    <circle class="a" cx="264" cy="264" r="2"/>
    <g class="k">
      <rect class="l" x="272" y="240" width="16" height="16"/>
    </g>
    <circle class="a" cx="280" cy="248" r="2"/>
    <g class="k">
      <rect class="l" x="272" y="272" width="16" height="16"/>
    </g>
    <circle class="a" cx="280" cy="280" r="2"/>
    <g class="k">
      <rect class="l" x="304" y="304" width="16" height="16"/>
    </g>
    <circle class="a" cx="312" cy="312" r="2"/>
    <g class="k">
      <rect class="l" x="304" y="272" width="16" height="16"/>
    </g>
    <circle class="a" cx="312" cy="280" r="2"/>
    <g class="k">
      <rect class="l" x="320" y="224" width="16" height="16"/>
    </g>
    <circle class="a" cx="328" cy="232" r="2"/>
    <g class="k">
      <rect class="l" x="336" y="208" width="16" height="16"/>
    </g>
    <circle class="a" cx="344" cy="216" r="2"/>
    <g class="k">
      <rect class="l" x="320" y="192" width="16" height="16"/>
    </g>
    <circle class="a" cx="328" cy="200" r="2"/>
    <g class="k">
      <rect class="l" x="336" y="144" width="16" height="16"/>
    </g>
    <circle class="a" cx="344" cy="152" r="2"/>
    <g class="k">
      <rect class="l" x="304" y="112" width="16" height="16"/>
    </g>
    <circle class="a" cx="312" cy="120" r="2"/>
    <g class="k">
      <rect class="l" x="304" y="80" width="16" height="16"/>
    </g>
    <circle class="a" cx="312" cy="88" r="2"/>
    <g class="k">
      <rect class="l" x="320" y="64" width="16" height="16"/>
    </g>
    <circle class="a" cx="328" cy="72" r="2"/>
    <g class="k">
      <rect class="l" x="336" y="112" width="16" height="16"/>
    </g>
    <circle class="a" cx="344" cy="120" r="2"/>
    <g class="k">
      <rect class="l" x="320" y="96" width="16" height="16"/>
    </g>
    <circle class="a" cx="328" cy="104" r="2"/>
    <g class="k">
      <rect class="l" x="192" y="80" width="16" height="16"/>
    </g>
    <circle class="a" cx="200" cy="88" r="2"/>
    <g class="k">
      <rect class="l" x="192" y="144" width="16" height="16"/>
    </g>
    <circle class="a" cx="200" cy="152" r="2"/>
    <path class="a" d="M430.68,233.68a2.16,2.16,0,0,0,1.63.76,1.19,1.19,0,0,0,1.31-1.05s0-.08,0-.12c0-.76-.52-1.27-2-1.27v-.63c1.36,0,1.81-.52,1.81-1.19a1,1,0,0,0-1-1h-.11a1.93,1.93,0,0,0-1.36.65l-.44-.52a2.63,2.63,0,0,1,1.83-.8c1.11,0,1.91.59,1.91,1.62a1.58,1.58,0,0,1-1.16,1.52h0a1.65,1.65,0,0,1,1.38,1.62,1.89,1.89,0,0,1-1.95,1.83h-.15a2.71,2.71,0,0,1-2.1-.9Z"/>
    <path class="a" d="M439.66,233.24h-.87V235H438v-1.76h-2.87v-.54l2.73-4.08h.92v4h.87Zm-1.65-.66V229.5h0c-.16.31-.34.59-.52.9L436,232.58Z"/>
    <path class="a" d="M441.19,233.86a.63.63,0,1,1-.6.66v0a.6.6,0,0,1,.56-.64Z"/>
    <path class="a" d="M446,229.33h-3.18v-.71H447v.51a8.73,8.73,0,0,0-2,5.87h-.85A9.38,9.38,0,0,1,446,229.33Z"/>
    <path class="a" d="M430.68,265.68a2.16,2.16,0,0,0,1.63.76,1.19,1.19,0,0,0,1.31-1.05s0-.08,0-.12c0-.76-.52-1.27-2-1.27v-.63c1.36,0,1.81-.52,1.81-1.19a1,1,0,0,0-1-1h-.11a1.93,1.93,0,0,0-1.36.65l-.44-.52a2.63,2.63,0,0,1,1.83-.8c1.11,0,1.91.59,1.91,1.62a1.58,1.58,0,0,1-1.16,1.52h0a1.65,1.65,0,0,1,1.38,1.62,1.89,1.89,0,0,1-1.95,1.83h-.15a2.71,2.71,0,0,1-2.1-.9Z"/>
    <path class="a" d="M435.37,266.51c1.92-1.91,3-3.06,3-4.09a1.13,1.13,0,0,0-1-1.25h-.21a1.88,1.88,0,0,0-1.36.77l-.47-.47a2.5,2.5,0,0,1,1.93-1,1.77,1.77,0,0,1,1.91,1.88c0,1.2-1.09,2.39-2.6,4,.35,0,.74-.06,1.07-.06h1.85V267h-4.12Z"/>
    <path class="a" d="M441.19,265.86a.63.63,0,1,1-.6.66v0a.6.6,0,0,1,.56-.64Z"/>
    <path class="a" d="M443.08,265.71a2.17,2.17,0,0,0,1.61.73,1.38,1.38,0,0,0,1.4-1.36s0-.07,0-.1a1.28,1.28,0,0,0-1.15-1.4h-.21a1.79,1.79,0,0,0-1.09.39l-.44-.28.21-3.07h3.19v.71h-2.47l-.17,1.89a2,2,0,0,1,1-.26,1.83,1.83,0,0,1,2,2,2.08,2.08,0,0,1-2,2.16h-.15a2.8,2.8,0,0,1-2.09-.87Z"/>
    <path class="a" d="M370.69,377.24h-.87V379H369v-1.76h-2.87v-.54l2.73-4.08h.92v4h.87Zm-1.65-.66V373.5h0c-.16.31-.34.59-.52.9L367,376.58Z"/>
    <path class="a" d="M371.41,375.79c0-2.14.77-3.29,2-3.29s2,1.15,2,3.29-.77,3.33-2,3.33S371.41,377.93,371.41,375.79Zm3.29,0c0-1.87-.5-2.63-1.24-2.63s-1.25.76-1.25,2.63.5,2.67,1.25,2.67S374.7,377.66,374.7,375.79Z"/>
    <path class="a" d="M377.19,377.86a.63.63,0,1,1-.6.66v0a.6.6,0,0,1,.56-.64Z"/>
    <path class="a" d="M382.42,373.69a1.39,1.39,0,0,0-1-.5c-.89,0-1.64.69-1.68,2.71a2,2,0,0,1,1.49-.8,1.73,1.73,0,0,1,1.82,2,1.93,1.93,0,0,1-1.86,2h0c-1.25,0-2.2-1-2.2-3.07,0-2.56,1.16-3.55,2.43-3.55a2,2,0,0,1,1.54.68Zm-.2,3.38c0-.83-.39-1.35-1.18-1.35a1.73,1.73,0,0,0-1.33.84c.1,1.24.59,1.91,1.4,1.91C381.74,378.47,382.22,377.91,382.22,377.07Z"/>
    <path class="a" d="M302.65,425.71a2.17,2.17,0,0,0,1.61.73,1.38,1.38,0,0,0,1.4-1.36s0-.07,0-.1a1.28,1.28,0,0,0-1.15-1.4h-.21a1.79,1.79,0,0,0-1.09.39l-.44-.28.21-3.07h3.19v.71H303.7l-.17,1.89a2,2,0,0,1,1-.26,1.84,1.84,0,0,1,2,2,2.08,2.08,0,0,1-2,2.16h-.15a2.8,2.8,0,0,1-2.09-.87Z"/>
    <path class="a" d="M310.59,421.33h-3.18v-.71h4.11v.51a8.74,8.74,0,0,0-1.93,5.87h-.85A9.39,9.39,0,0,1,310.59,421.33Z"/>
    <path class="a" d="M313.19,425.86a.63.63,0,1,1-.6.66v0a.6.6,0,0,1,.56-.64Z"/>
    <path class="a" d="M318.42,421.69a1.39,1.39,0,0,0-1-.5c-.89,0-1.64.69-1.68,2.71a2,2,0,0,1,1.49-.8,1.73,1.73,0,0,1,1.82,2,1.93,1.93,0,0,1-1.86,2h0c-1.25,0-2.2-1-2.2-3.07,0-2.56,1.16-3.55,2.43-3.55a2,2,0,0,1,1.54.68Zm-.2,3.38c0-.83-.39-1.35-1.18-1.35a1.73,1.73,0,0,0-1.33.84c.1,1.24.59,1.91,1.4,1.91C317.74,426.47,318.22,425.91,318.22,425.07Z"/>
    <path class="a" d="M369.62,101.33h-3.18v-.71h4.11v.51a8.74,8.74,0,0,0-1.93,5.87h-.85A9.39,9.39,0,0,1,369.62,101.33Z"/>
    <path class="a" d="M375.66,105.24h-.87V107H374v-1.76h-2.87v-.54l2.73-4.08h.92v4h.87Zm-1.65-.66V101.5h0c-.16.31-.34.59-.52.9L372,104.58Z"/>
    <path class="a" d="M377.19,105.86a.63.63,0,1,1-.6.66v0a.6.6,0,0,1,.56-.64Z"/>
    <path class="a" d="M379.08,105.71a2.17,2.17,0,0,0,1.61.73,1.38,1.38,0,0,0,1.4-1.36s0-.07,0-.1a1.28,1.28,0,0,0-1.15-1.4h-.21a1.79,1.79,0,0,0-1.09.39l-.44-.28.21-3.07h3.19v.71h-2.47l-.17,1.89a2,2,0,0,1,1-.26,1.83,1.83,0,0,1,2,2,2.08,2.08,0,0,1-2,2.16h-.15a2.8,2.8,0,0,1-2.09-.87Z"/>
    <path class="a" d="M207.61,231.65h0a1.72,1.72,0,1,1,2.72-1.41,2.1,2.1,0,0,1-.88,1.54h0a1.74,1.74,0,1,1-1,3.34,1.89,1.89,0,0,1-2.08-1.67v-.08A2,2,0,0,1,207.61,231.65Zm.91,2.86a1.14,1.14,0,0,0,1.24-1s0-.06,0-.1c0-.82-.81-1.12-1.73-1.49a1.73,1.73,0,0,0-.89,1.39,1.26,1.26,0,0,0,1.29,1.22Zm1.1-4.27a1.06,1.06,0,0,0-1-1.13h-.12a1,1,0,0,0-1,1c0,.76.7,1.08,1.47,1.38a1.72,1.72,0,0,0,.64-1.25Z"/>
    <path class="a" d="M211.94,233.93a1.4,1.4,0,0,0,1,.51c.9,0,1.66-.7,1.69-2.74a2,2,0,0,1-1.5.82,1.72,1.72,0,0,1-1.81-2,1.93,1.93,0,0,1,1.86-2h0c1.26,0,2.2,1,2.2,3.07,0,2.56-1.16,3.55-2.43,3.55a2,2,0,0,1-1.54-.67Zm2.72-2.88c-.11-1.24-.6-1.9-1.41-1.9-.62,0-1.11.56-1.11,1.4s.39,1.35,1.18,1.35a1.72,1.72,0,0,0,1.34-.85Z"/>
    <path class="a" d="M217.19,233.86a.63.63,0,1,1-.6.66v0a.6.6,0,0,1,.56-.64Z"/>
    <path class="a" d="M220,231.65h0a1.72,1.72,0,1,1,2.72-1.41,2.1,2.1,0,0,1-.88,1.54h0a1.74,1.74,0,0,1-.95,3.34,1.89,1.89,0,0,1-2.08-1.67v-.08A2,2,0,0,1,220,231.65Zm.91,2.86a1.14,1.14,0,0,0,1.24-1s0-.06,0-.1c0-.82-.81-1.12-1.73-1.49a1.73,1.73,0,0,0-.89,1.39,1.26,1.26,0,0,0,1.29,1.23h.08Zm1.1-4.27a1.06,1.06,0,0,0-1-1.13h-.12a1,1,0,0,0-1,1c0,.76.7,1.08,1.47,1.38a1.72,1.72,0,0,0,.63-1.25Z"/>
    <path class="a" d="M162,5.69a1.39,1.39,0,0,0-1-.5c-.89,0-1.64.69-1.68,2.71a2,2,0,0,1,1.49-.8,1.73,1.73,0,0,1,1.82,2,1.93,1.93,0,0,1-1.86,2h0c-1.25,0-2.2-1-2.2-3.07,0-2.56,1.16-3.55,2.43-3.55a2,2,0,0,1,1.54.68Zm-.2,3.38c0-.83-.39-1.35-1.18-1.35a1.73,1.73,0,0,0-1.33.84c.1,1.24.59,1.91,1.4,1.91.62,0,1.1-.56,1.1-1.4Z"/>
    <path class="a" d="M167.66,9.24h-.87V11H166V9.24h-2.87V8.7l2.73-4.08h.92v4h.87ZM166,8.58V5.5h0c-.16.31-.34.59-.52.9L164,8.58Z"/>
    <path class="a" d="M169.19,9.86a.63.63,0,1,1-.6.66v0a.6.6,0,0,1,.56-.64Z"/>
    <path class="a" d="M174,5.33h-3.18V4.62H175v.51A8.73,8.73,0,0,0,173,11h-.85A9.38,9.38,0,0,1,174,5.33Z"/>
    <path class="a" d="M177.57,489.93a1.4,1.4,0,0,0,1,.51c.9,0,1.66-.7,1.69-2.74a2,2,0,0,1-1.5.82,1.72,1.72,0,0,1-1.81-2,1.93,1.93,0,0,1,1.86-2h0c1.26,0,2.2,1,2.2,3.07,0,2.56-1.16,3.55-2.43,3.55a2,2,0,0,1-1.54-.67Zm2.72-2.88c-.11-1.24-.6-1.9-1.41-1.9-.62,0-1.11.56-1.11,1.4s.39,1.35,1.18,1.35a1.72,1.72,0,0,0,1.34-.85Z"/>
    <path class="a" d="M186.26,489.24h-.87V491h-.78v-1.76h-2.87v-.54l2.73-4.08h.92v4h.87Zm-1.65-.66V485.5h0c-.16.31-.34.59-.52.9l-1.49,2.18Z"/>
    <path class="a" d="M187.79,489.86a.63.63,0,1,1-.6.66v0a.6.6,0,0,1,.56-.64Z"/>
    <path class="a" d="M189.71,489.68a2.16,2.16,0,0,0,1.63.76,1.19,1.19,0,0,0,1.31-1.05s0-.08,0-.12c0-.76-.52-1.27-2-1.27v-.63c1.36,0,1.81-.52,1.81-1.19a1,1,0,0,0-1-1h-.11a1.93,1.93,0,0,0-1.36.65l-.44-.52a2.63,2.63,0,0,1,1.83-.8c1.11,0,1.91.59,1.91,1.62a1.58,1.58,0,0,1-1.16,1.52h0a1.65,1.65,0,0,1,1.38,1.62,1.89,1.89,0,0,1-1.95,1.83h-.15a2.71,2.71,0,0,1-2.1-.9Z"/>
    <path class="a" d="M116.22,133.33H113v-.71h4.11v.51a8.73,8.73,0,0,0-1.93,5.87h-.85A9.38,9.38,0,0,1,116.22,133.33Z"/>
    <path class="a" d="M118,138.51c1.92-1.91,3-3.06,3-4.09a1.13,1.13,0,0,0-1-1.25h-.21a1.88,1.88,0,0,0-1.36.77l-.47-.47a2.5,2.5,0,0,1,1.93-1,1.77,1.77,0,0,1,1.91,1.88c0,1.2-1.09,2.39-2.6,4,.35,0,.74-.06,1.07-.06h1.85V139H118Z"/>
    <path class="a" d="M123.79,137.86a.63.63,0,1,1-.6.66v0a.6.6,0,0,1,.56-.64Z"/>
    <path class="a" d="M125.47,135.79c0-2.14.77-3.29,2-3.29s2,1.15,2,3.29-.77,3.33-2,3.33S125.47,137.93,125.47,135.79Zm3.29,0c0-1.87-.5-2.63-1.24-2.63s-1.25.76-1.25,2.63.5,2.67,1.25,2.67S128.76,137.66,128.76,135.79Z"/>
  </g>
  <g>
    <polygon class="a" points="313.45 644 301.45 644 301.45 632 293.45 632 293.45 644 281.45 644 281.45 652 293.45 652 293.45 664 301.45 664 301.45 652 313.45 652 313.45 644"/>
    <line class="b" x1="364" y1="448" x2="364" y2="448"/>
    <line class="m" x1="366.91" y1="450.91" x2="394.55" y2="478.55"/>
    <line class="b" x1="396" y1="480" x2="396" y2="480"/>
    <line class="b" x1="321.45" y1="544" x2="321.45" y2="544"/>
    <line class="n" x1="324.31" y1="546.86" x2="360.02" y2="582.57"/>
    <line class="b" x1="361.45" y1="584" x2="361.45" y2="584"/>
    <line class="b" x1="169.45" y1="728" x2="169.45" y2="728"/>
    <line class="o" x1="166.63" y1="730.82" x2="122.86" y2="774.59"/>
    <line class="b" x1="121.45" y1="776" x2="121.45" y2="776"/>
    <line class="b" x1="289.45" y1="816" x2="289.45" y2="816"/>
    <line class="p" x1="286.78" y1="818.67" x2="274.78" y2="830.67"/>
    <line class="b" x1="273.45" y1="832" x2="273.45" y2="832"/>
    <polygon class="a" points="40 422 40 414 48 414 40 422"/>
    <polygon class="a" points="353.45 872 361.45 872 361.45 864 353.45 872"/>
    <line class="e" x1="233.45" y1="512" x2="233.45" y2="528"/>
    <line class="e" x1="225.45" y1="520" x2="241.45" y2="520"/>
    <line class="q" x1="265.45" y1="748" x2="265.45" y2="756"/>
    <line class="q" x1="261.45" y1="752" x2="269.45" y2="752"/>
    <polygon class="a" points="157.45 716 157.45 708 161.45 712 157.45 716"/>
    <line class="e" x1="65.45" y1="744" x2="65.45" y2="808"/>
    <line class="e" x1="57.45" y1="744" x2="57.45" y2="808"/>
    <line class="f" x1="105.45" y1="776" x2="105.45" y2="776"/>
    <line class="h" x1="104.06" y1="777.39" x2="74.15" y2="807.3"/>
    <line class="f" x1="73.45" y1="808" x2="73.45" y2="808"/>
    <line class="f" x1="105.45" y1="840" x2="105.45" y2="840"/>
    <line class="g" x1="106.9" y1="841.45" x2="120.72" y2="855.27"/>
    <line class="f" x1="121.45" y1="856" x2="121.45" y2="856"/>
    <line class="f" x1="177.45" y1="880" x2="177.45" y2="880"/>
    <line class="g" x1="178.9" y1="881.45" x2="192.72" y2="895.27"/>
    <line class="f" x1="193.45" y1="896" x2="193.45" y2="896"/>
    <line class="f" x1="313.45" y1="728" x2="313.45" y2="728"/>
    <line class="g" x1="314.9" y1="726.55" x2="328.72" y2="712.73"/>
    <line class="f" x1="329.45" y1="712" x2="329.45" y2="712"/>
    <line class="f" x1="137.45" y1="680" x2="137.45" y2="680"/>
    <line class="h" x1="136.06" y1="678.61" x2="106.15" y2="648.7"/>
    <line class="f" x1="105.45" y1="648" x2="105.45" y2="648"/>
    <line class="f" x1="297.45" y1="584" x2="297.45" y2="584"/>
    <line class="g" x1="298.9" y1="582.55" x2="312.72" y2="568.73"/>
    <line class="f" x1="313.45" y1="568" x2="313.45" y2="568"/>
    <line class="f" x1="297.45" y1="616" x2="297.45" y2="616"/>
    <line class="h" x1="298.84" y1="614.61" x2="328.75" y2="584.7"/>
    <line class="f" x1="329.45" y1="584" x2="329.45" y2="584"/>
    <line class="f" x1="185.45" y1="664" x2="185.45" y2="664"/>
    <line class="g" x1="186.9" y1="662.55" x2="200.72" y2="648.73"/>
    <line class="f" x1="201.45" y1="648" x2="201.45" y2="648"/>
    <line class="f" x1="201.45" y1="648" x2="201.45" y2="648"/>
    <line class="g" x1="202.9" y1="649.45" x2="216.72" y2="663.27"/>
    <line class="f" x1="217.45" y1="664" x2="217.45" y2="664"/>
    <line class="f" x1="201.45" y1="760" x2="201.45" y2="760"/>
    <line class="j" x1="202.87" y1="758.58" x2="264.74" y2="696.71"/>
    <line class="f" x1="265.45" y1="696" x2="265.45" y2="696"/>
    <line class="f" x1="153.45" y1="792" x2="153.45" y2="792"/>
    <line class="i" x1="153.45" y1="794" x2="153.45" y2="855"/>
    <line class="f" x1="153.45" y1="856" x2="153.45" y2="856"/>
    <line class="f" x1="105.45" y1="680" x2="105.45" y2="680"/>
    <line class="i" x1="105.45" y1="682" x2="105.45" y2="743"/>
    <line class="f" x1="105.45" y1="744" x2="105.45" y2="744"/>
    <line class="f" x1="185.45" y1="584" x2="185.45" y2="584"/>
    <line class="h" x1="186.84" y1="582.61" x2="216.75" y2="552.7"/>
    <line class="f" x1="217.45" y1="552" x2="217.45" y2="552"/>
    <line class="f" x1="265.45" y1="520" x2="265.45" y2="520"/>
    <line class="h" x1="266.84" y1="521.39" x2="296.75" y2="551.3"/>
    <line class="f" x1="297.45" y1="552" x2="297.45" y2="552"/>
    <g class="k">
      <rect class="l" x="33.45" y="640" width="16" height="16"/>
    </g>
    <circle class="a" cx="41.45" cy="648" r="2"/>
    <g class="k">
      <rect class="l" x="65.45" y="672" width="16" height="16"/>
    </g>
    <circle class="a" cx="73.45" cy="680" r="2"/>
    <g class="k">
      <rect class="l" x="129.45" y="608" width="16" height="16"/>
    </g>
    <circle class="a" cx="137.45" cy="616" r="2"/>
    <g class="k">
      <rect class="l" x="96" y="454" width="16" height="16"/>
    </g>
    <circle class="a" cx="104" cy="462" r="2"/>
    <g class="k">
      <rect class="l" x="161.45" y="592" width="16" height="16"/>
    </g>
    <circle class="a" cx="169.45" cy="600" r="2"/>
    <g class="k">
      <rect class="l" x="128" y="438" width="16" height="16"/>
    </g>
    <circle class="a" cx="136" cy="446" r="2"/>
    <g class="k">
      <rect class="l" x="128" y="406" width="16" height="16"/>
    </g>
    <circle class="a" cx="136" cy="414" r="2"/>
    <g class="k">
      <rect class="l" x="348" y="432" width="16" height="16"/>
    </g>
    <circle class="a" cx="356" cy="440" r="2"/>
    <g class="k">
      <rect class="l" x="348" y="464" width="16" height="16"/>
    </g>
    <circle class="a" cx="356" cy="472" r="2"/>
    <g class="k">
      <rect class="l" x="257.45" y="512" width="16" height="16"/>
    </g>
    <circle class="a" cx="265.45" cy="520" r="2"/>
    <g class="k">
      <rect class="l" x="289.45" y="480" width="16" height="16"/>
    </g>
    <circle class="a" cx="297.45" cy="488" r="2"/>
    <g class="k">
      <rect class="l" x="313.45" y="480" width="16" height="16"/>
    </g>
    <circle class="a" cx="321.45" cy="488" r="2"/>
    <g class="k">
      <rect class="l" x="321.45" y="488" width="16" height="16"/>
    </g>
    <circle class="a" cx="329.45" cy="496" r="2"/>
    <g class="k">
      <rect class="l" x="321.45" y="512" width="16" height="16"/>
    </g>
    <circle class="a" cx="329.45" cy="520" r="2"/>
    <g class="k">
      <rect class="l" x="305.45" y="560" width="16" height="16"/>
    </g>
    <circle class="a" cx="313.45" cy="568" r="2"/>
    <g class="k">
      <rect class="l" x="321.45" y="576" width="16" height="16"/>
    </g>
    <circle class="a" cx="329.45" cy="584" r="2"/>
    <g class="k">
      <rect class="l" x="353.45" y="608" width="16" height="16"/>
    </g>
    <circle class="a" cx="361.45" cy="616" r="2"/>
    <g class="k">
      <rect class="l" x="353.45" y="640" width="16" height="16"/>
    </g>
    <circle class="a" cx="361.45" cy="648" r="2"/>
    <g class="k">
      <rect class="l" x="353.45" y="672" width="16" height="16"/>
    </g>
    <circle class="a" cx="361.45" cy="680" r="2"/>
    <g class="k">
      <rect class="l" x="353.45" y="704" width="16" height="16"/>
    </g>
    <circle class="a" cx="361.45" cy="712" r="2"/>
    <g class="k">
      <rect class="l" x="353.45" y="736" width="16" height="16"/>
    </g>
    <circle class="a" cx="361.45" cy="744" r="2"/>
    <g class="k">
      <rect class="l" x="353.45" y="800" width="16" height="16"/>
    </g>
    <circle class="a" cx="361.45" cy="808" r="2"/>
    <g class="k">
      <rect class="l" x="321.45" y="832" width="16" height="16"/>
    </g>
    <circle class="a" cx="329.45" cy="840" r="2"/>
    <g class="k">
      <rect class="l" x="289.45" y="800" width="16" height="16"/>
    </g>
    <circle class="a" cx="297.45" cy="808" r="2"/>
    <g class="k">
      <rect class="l" x="289.45" y="736" width="16" height="16"/>
    </g>
    <circle class="a" cx="297.45" cy="744" r="2"/>
    <g class="k">
      <rect class="l" x="257.45" y="704" width="16" height="16"/>
    </g>
    <circle class="a" cx="265.45" cy="712" r="2"/>
    <g class="k">
      <rect class="l" x="225.45" y="736" width="16" height="16"/>
    </g>
    <circle class="a" cx="233.45" cy="744" r="2"/>
    <g class="k">
      <rect class="l" x="225.45" y="768" width="16" height="16"/>
    </g>
    <circle class="a" cx="233.45" cy="776" r="2"/>
    <g class="k">
      <rect class="l" x="225.45" y="800" width="16" height="16"/>
    </g>
    <circle class="a" cx="233.45" cy="808" r="2"/>
    <g class="k">
      <rect class="l" x="257.45" y="832" width="16" height="16"/>
    </g>
    <circle class="a" cx="265.45" cy="840" r="2"/>
    <g class="k">
      <rect class="l" x="241.45" y="832" width="16" height="16"/>
    </g>
    <circle class="a" cx="249.45" cy="840" r="2"/>
    <g class="k">
      <rect class="l" x="225.45" y="816" width="16" height="16"/>
    </g>
    <circle class="a" cx="233.45" cy="824" r="2"/>
    <g class="k">
      <rect class="l" x="185.45" y="888" width="16" height="16"/>
    </g>
    <circle class="a" cx="193.45" cy="896" r="2"/>
    <g class="k">
      <rect class="l" x="169.45" y="872" width="16" height="16"/>
    </g>
    <circle class="a" cx="177.45" cy="880" r="2"/>
    <g class="k">
      <rect class="l" x="129.45" y="912" width="16" height="16"/>
    </g>
    <circle class="a" cx="137.45" cy="920" r="2"/>
    <circle class="a" cx="153.45" cy="936" r="2"/>
    <g class="k">
      <rect class="l" x="193.45" y="896" width="16" height="16"/>
    </g>
    <circle class="a" cx="201.45" cy="904" r="2"/>
    <circle class="a" cx="201.45" cy="936" r="2"/>
    <g class="k">
      <rect class="l" x="257.45" y="864" width="16" height="16"/>
    </g>
    <circle class="a" cx="265.45" cy="872" r="2"/>
    <g class="k">
      <rect class="l" x="161.45" y="864" width="16" height="16"/>
    </g>
    <circle class="a" cx="169.45" cy="872" r="2"/>
    <g class="k">
      <rect class="l" x="129.45" y="832" width="16" height="16"/>
    </g>
    <circle class="a" cx="137.45" cy="840" r="2"/>
    <g class="k">
      <rect class="l" x="129.45" y="768" width="16" height="16"/>
    </g>
    <circle class="a" cx="137.45" cy="776" r="2"/>
    <g class="k">
      <rect class="l" x="177.45" y="720" width="16" height="16"/>
    </g>
    <circle class="a" cx="185.45" cy="728" r="2"/>
    <g class="k">
      <rect class="l" x="161.45" y="704" width="16" height="16"/>
    </g>
    <circle class="a" cx="169.45" cy="712" r="2"/>
    <g class="k">
      <rect class="l" x="97.45" y="768" width="16" height="16"/>
    </g>
    <circle class="a" cx="105.45" cy="776" r="2"/>
    <g class="k">
      <rect class="l" x="113.45" y="752" width="16" height="16"/>
    </g>
    <circle class="a" cx="121.45" cy="760" r="2"/>
    <g class="k">
      <rect class="l" x="129.45" y="736" width="16" height="16"/>
    </g>
    <circle class="a" cx="137.45" cy="744" r="2"/>
    <g class="k">
      <rect class="l" x="113.45" y="784" width="16" height="16"/>
    </g>
    <circle class="a" cx="121.45" cy="792" r="2"/>
    <g class="k">
      <rect class="l" x="113.45" y="848" width="16" height="16"/>
    </g>
    <circle class="a" cx="121.45" cy="856" r="2"/>
    <g class="k">
      <rect class="l" x="97.45" y="864" width="16" height="16"/>
    </g>
    <circle class="a" cx="105.45" cy="872" r="2"/>
    <g class="k">
      <rect class="l" x="97.45" y="800" width="16" height="16"/>
    </g>
    <circle class="a" cx="105.45" cy="808" r="2"/>
    <g class="k">
      <rect class="l" x="65.45" y="800" width="16" height="16"/>
    </g>
    <circle class="a" cx="73.45" cy="808" r="2"/>
    <g class="k">
      <rect class="l" x="65.45" y="736" width="16" height="16"/>
    </g>
    <circle class="a" cx="73.45" cy="744" r="2"/>
    <g class="k">
      <rect class="l" x="289.45" y="544" width="16" height="16"/>
    </g>
    <circle class="a" cx="297.45" cy="552" r="2"/>
    <line class="f" x1="233.45" y1="808" x2="233.45" y2="808"/>
    <line class="h" x1="232.06" y1="806.61" x2="202.15" y2="776.7"/>
    <line class="f" x1="201.45" y1="776" x2="201.45" y2="776"/>
    <line class="f" x1="249.45" y1="800" x2="249.45" y2="800"/>
    <line class="g" x1="250.9" y1="798.55" x2="264.72" y2="784.73"/>
    <line class="f" x1="265.45" y1="784" x2="265.45" y2="784"/>
    <line class="f" x1="265.45" y1="784" x2="265.45" y2="784"/>
    <line class="g" x1="266.9" y1="785.45" x2="280.72" y2="799.27"/>
    <line class="f" x1="281.45" y1="800" x2="281.45" y2="800"/>
    <line class="f" x1="169.45" y1="768" x2="169.45" y2="768"/>
    <line class="i" x1="169.45" y1="766" x2="169.45" y2="745"/>
    <line class="f" x1="169.45" y1="744" x2="169.45" y2="744"/>
    <line class="f" x1="185.45" y1="728" x2="185.45" y2="728"/>
    <line class="g" x1="186.9" y1="729.45" x2="200.72" y2="743.27"/>
    <line class="f" x1="201.45" y1="744" x2="201.45" y2="744"/>
    <line class="f" x1="73.45" y1="712" x2="73.45" y2="712"/>
    <line class="g" x1="74.9" y1="710.55" x2="88.72" y2="696.73"/>
    <line class="f" x1="89.45" y1="696" x2="89.45" y2="696"/>
    <line class="f" x1="373.04" y1="648" x2="373.04" y2="648"/>
    <line class="r" x1="375.06" y1="648" x2="416.44" y2="648"/>
    <line class="f" x1="417.45" y1="648" x2="417.45" y2="648"/>
    <path class="j" d="M417.45,650v62a32,32,0,0,1-32,32H374"/>
    <line class="f" x1="373.04" y1="744" x2="373.04" y2="744"/>
    <polygon class="a" points="373.77 650.49 369.45 648 373.77 645.51 373.77 650.49"/>
    <polygon class="a" points="373.77 741.51 369.45 744 373.77 746.49 373.77 741.51"/>
    <g class="k">
      <rect class="l" x="193.45" y="608" width="16" height="16"/>
    </g>
    <circle class="a" cx="201.45" cy="616" r="2"/>
    <g class="k">
      <rect class="l" x="177.45" y="624" width="16" height="16"/>
    </g>
    <circle class="a" cx="185.45" cy="632" r="2"/>
    <g class="k">
      <rect class="l" x="193.45" y="624" width="16" height="16"/>
    </g>
    <circle class="a" cx="201.45" cy="632" r="2"/>
    <g class="k">
      <rect class="l" x="209.45" y="624" width="16" height="16"/>
    </g>
    <circle class="a" cx="217.45" cy="632" r="2"/>
    <g class="k">
      <rect class="l" x="193.45" y="640" width="16" height="16"/>
    </g>
    <circle class="a" cx="201.45" cy="648" r="2"/>
    <g class="k">
      <rect class="l" x="257.45" y="552" width="16" height="16"/>
    </g>
    <circle class="a" cx="265.45" cy="560" r="2"/>
    <g class="k">
      <rect class="l" x="249.45" y="544" width="16" height="16"/>
    </g>
    <circle class="a" cx="257.45" cy="552" r="2"/>
    <g class="k">
      <rect class="l" x="257.45" y="576" width="16" height="16"/>
    </g>
    <circle class="a" cx="265.45" cy="584" r="2"/>
    <g class="k">
      <rect class="l" x="225.45" y="544" width="16" height="16"/>
    </g>
    <circle class="a" cx="233.45" cy="552" r="2"/>
    <g class="k">
      <rect class="l" x="225.45" y="608" width="16" height="16"/>
    </g>
    <circle class="a" cx="233.45" cy="616" r="2"/>
    <g class="k">
      <rect class="l" x="289.45" y="576" width="16" height="16"/>
    </g>
    <circle class="a" cx="297.45" cy="584" r="2"/>
    <g class="k">
      <rect class="l" x="289.45" y="608" width="16" height="16"/>
    </g>
    <circle class="a" cx="297.45" cy="616" r="2"/>
    <g class="k">
      <rect class="l" x="193.45" y="704" width="16" height="16"/>
    </g>
    <circle class="a" cx="201.45" cy="712" r="2"/>
    <g class="k">
      <rect class="l" x="193.45" y="736" width="16" height="16"/>
    </g>
    <circle class="a" cx="201.45" cy="744" r="2"/>
    <g class="k">
      <rect class="l" x="129.45" y="672" width="16" height="16"/>
    </g>
    <circle class="a" cx="137.45" cy="680" r="2"/>
    <g class="k">
      <rect class="l" x="129.45" y="640" width="16" height="16"/>
    </g>
    <circle class="a" cx="137.45" cy="648" r="2"/>
    <g class="k">
      <rect class="l" x="113.45" y="688" width="16" height="16"/>
    </g>
    <circle class="a" cx="121.45" cy="696" r="2"/>
    <g class="k">
      <rect class="l" x="81.45" y="656" width="16" height="16"/>
    </g>
    <circle class="a" cx="89.45" cy="664" r="2"/>
    <g class="k">
      <rect class="l" x="81.45" y="720" width="16" height="16"/>
    </g>
    <circle class="a" cx="89.45" cy="728" r="2"/>
    <g class="k">
      <rect class="l" x="321.45" y="704" width="16" height="16"/>
    </g>
    <circle class="a" cx="329.45" cy="712" r="2"/>
    <g class="k">
      <rect class="l" x="321.45" y="736" width="16" height="16"/>
    </g>
    <circle class="a" cx="329.45" cy="744" r="2"/>
    <g class="k">
      <rect class="l" x="353.45" y="720" width="16" height="16"/>
    </g>
    <circle class="a" cx="361.45" cy="728" r="2"/>
    <g class="k">
      <rect class="l" x="321.45" y="752" width="16" height="16"/>
    </g>
    <circle class="a" cx="329.45" cy="760" r="2"/>
    <g class="k">
      <rect class="l" x="289.45" y="704" width="16" height="16"/>
    </g>
    <circle class="a" cx="297.45" cy="712" r="2"/>
    <g class="k">
      <rect class="l" x="273.45" y="720" width="16" height="16"/>
    </g>
    <circle class="a" cx="281.45" cy="728" r="2"/>
    <g class="k">
      <rect class="l" x="273.45" y="688" width="16" height="16"/>
    </g>
    <circle class="a" cx="281.45" cy="696" r="2"/>
    <g class="k">
      <rect class="l" x="289.45" y="672" width="16" height="16"/>
    </g>
    <circle class="a" cx="297.45" cy="680" r="2"/>
    <g class="k">
      <rect class="l" x="257.45" y="608" width="16" height="16"/>
    </g>
    <circle class="a" cx="265.45" cy="616" r="2"/>
    <g class="k">
      <rect class="l" x="257.45" y="640" width="16" height="16"/>
    </g>
    <circle class="a" cx="265.45" cy="648" r="2"/>
    <g class="k">
      <rect class="l" x="193.45" y="768" width="16" height="16"/>
    </g>
    <circle class="a" cx="201.45" cy="776" r="2"/>
    <path class="a" d="M368.1,617.71a2.17,2.17,0,0,0,1.61.73,1.38,1.38,0,0,0,1.4-1.36s0-.07,0-.1a1.28,1.28,0,0,0-1.15-1.4h-.21a1.79,1.79,0,0,0-1.09.39l-.44-.28.21-3.07h3.19v.71h-2.47l-.17,1.89a2,2,0,0,1,1-.26,1.84,1.84,0,0,1,2,2,2.08,2.08,0,0,1-2,2.16h-.15a2.8,2.8,0,0,1-2.09-.87Z"/>
    <path class="a" d="M377.11,617.24h-.87V619h-.78v-1.76h-2.87v-.54l2.73-4.08h.92v4h.87Zm-1.65-.66V613.5h0c-.16.31-.34.59-.52.9l-1.49,2.18Z"/>
    <path class="a" d="M378.64,617.86a.63.63,0,1,1-.6.66v0a.6.6,0,0,1,.56-.64Z"/>
    <path class="a" d="M381.49,615.65h0a1.72,1.72,0,1,1,2.72-1.41,2.1,2.1,0,0,1-.88,1.54h0a1.74,1.74,0,0,1-1,3.34,1.89,1.89,0,0,1-2.08-1.67v-.08A2,2,0,0,1,381.49,615.65Zm.91,2.86a1.14,1.14,0,0,0,1.24-1s0-.06,0-.1c0-.82-.81-1.12-1.73-1.49a1.73,1.73,0,0,0-.89,1.39,1.26,1.26,0,0,0,1.29,1.22Zm1.1-4.27a1.06,1.06,0,0,0-1-1.13h-.12a1,1,0,0,0-1,1c0,.76.7,1.08,1.47,1.38a1.72,1.72,0,0,0,.64-1.25Z"/>
    <path class="a" d="M339.44,493.69a1.39,1.39,0,0,0-1-.5c-.89,0-1.64.69-1.68,2.71a2,2,0,0,1,1.49-.8,1.73,1.73,0,0,1,1.82,2,1.93,1.93,0,0,1-1.86,2h0c-1.25,0-2.2-1-2.2-3.07,0-2.56,1.16-3.55,2.43-3.55a2,2,0,0,1,1.54.68Zm-.2,3.38c0-.83-.39-1.35-1.18-1.35a1.73,1.73,0,0,0-1.33.84c.1,1.24.59,1.91,1.4,1.91C338.76,498.47,339.24,497.91,339.24,497.07Z"/>
    <path class="a" d="M344.41,493.69a1.39,1.39,0,0,0-1-.5c-.89,0-1.64.69-1.68,2.71a2,2,0,0,1,1.49-.8,1.73,1.73,0,0,1,1.82,2,1.93,1.93,0,0,1-1.86,2h0c-1.25,0-2.2-1-2.2-3.07,0-2.56,1.16-3.55,2.43-3.55a2,2,0,0,1,1.54.68Zm-.2,3.38c0-.83-.39-1.35-1.18-1.35a1.73,1.73,0,0,0-1.33.84c.1,1.24.59,1.91,1.4,1.91C343.73,498.47,344.21,497.91,344.21,497.07Z"/>
    <path class="a" d="M346.64,497.86a.63.63,0,1,1-.6.66v0a.6.6,0,0,1,.56-.64Z"/>
    <path class="a" d="M348.56,497.68a2.17,2.17,0,0,0,1.63.76,1.19,1.19,0,0,0,1.31-1.05s0-.08,0-.12c0-.76-.52-1.27-2-1.27v-.63c1.36,0,1.81-.52,1.81-1.19a1,1,0,0,0-1-1h-.11a1.93,1.93,0,0,0-1.36.65l-.44-.52a2.62,2.62,0,0,1,1.83-.8c1.11,0,1.91.59,1.91,1.62a1.58,1.58,0,0,1-1.16,1.52h0a1.65,1.65,0,0,1,1.31,1.65,1.89,1.89,0,0,1-1.95,1.83h-.15a2.71,2.71,0,0,1-2.1-.9Z"/>
    <path class="a" d="M275.44,869.69a1.39,1.39,0,0,0-1-.5c-.89,0-1.64.69-1.68,2.71a2,2,0,0,1,1.49-.8,1.73,1.73,0,0,1,1.82,2,1.93,1.93,0,0,1-1.86,2h0c-1.25,0-2.2-1-2.2-3.07,0-2.56,1.16-3.55,2.43-3.55a2,2,0,0,1,1.54.68Zm-.2,3.38c0-.83-.39-1.35-1.18-1.35a1.73,1.73,0,0,0-1.33.84c.1,1.24.59,1.91,1.4,1.91C274.76,874.47,275.24,873.91,275.24,873.07Z"/>
    <path class="a" d="M277.39,873.93a1.4,1.4,0,0,0,1,.51c.9,0,1.66-.7,1.69-2.74a2,2,0,0,1-1.5.82,1.72,1.72,0,0,1-1.81-2,1.93,1.93,0,0,1,1.86-2h0c1.26,0,2.2,1,2.2,3.07,0,2.56-1.16,3.55-2.43,3.55a2,2,0,0,1-1.54-.67Zm2.72-2.88c-.11-1.24-.6-1.9-1.41-1.9-.62,0-1.11.56-1.11,1.4s.39,1.35,1.18,1.35A1.72,1.72,0,0,0,280.11,871Z"/>
    <path class="a" d="M282.64,873.86a.63.63,0,1,1-.6.66v0a.6.6,0,0,1,.56-.64Z"/>
    <path class="a" d="M284.67,874.32h1.46v-4.7H285v-.53a3.79,3.79,0,0,0,1.35-.47h.63v5.7h1.36V875h-3.6Z"/>
    <path class="a" d="M240.42,617.93a1.4,1.4,0,0,0,1,.51c.9,0,1.66-.7,1.69-2.74a2,2,0,0,1-1.5.82,1.72,1.72,0,0,1-1.81-2,1.93,1.93,0,0,1,1.86-2h0c1.26,0,2.2,1,2.2,3.07,0,2.56-1.16,3.55-2.43,3.55a2,2,0,0,1-1.54-.67Zm2.72-2.88c-.11-1.24-.6-1.9-1.41-1.9-.62,0-1.11.56-1.11,1.4s.39,1.35,1.18,1.35a1.72,1.72,0,0,0,1.34-.85Z"/>
    <path class="a" d="M248.41,613.69a1.39,1.39,0,0,0-1-.5c-.89,0-1.64.69-1.68,2.71a2,2,0,0,1,1.49-.8,1.73,1.73,0,0,1,1.82,2,1.93,1.93,0,0,1-1.86,2h0c-1.25,0-2.2-1-2.2-3.07,0-2.56,1.16-3.55,2.43-3.55a2,2,0,0,1,1.54.68Zm-.2,3.38c0-.83-.39-1.35-1.18-1.35a1.73,1.73,0,0,0-1.33.84c.1,1.24.59,1.91,1.4,1.91.63,0,1.11-.56,1.11-1.4Z"/>
    <path class="a" d="M250.64,617.86a.63.63,0,1,1-.6.66v0a.6.6,0,0,1,.56-.64Z"/>
    <path class="a" d="M252.67,618.32h1.46v-4.7H253v-.53a3.79,3.79,0,0,0,1.35-.47H255v5.7h1.36V619h-3.6Z"/>
    <path class="a" d="M82.45,874.51c1.92-1.91,3-3.06,3-4.09a1.13,1.13,0,0,0-1-1.25h-.21a1.88,1.88,0,0,0-1.36.77l-.47-.47a2.5,2.5,0,0,1,1.93-1,1.77,1.77,0,0,1,1.91,1.88c0,1.2-1.09,2.39-2.6,4,.35,0,.74-.06,1.07-.06h1.85V875H82.45Z"/>
    <path class="a" d="M87.81,874.32h1.5v-4.7h-1.2v-.53a3.79,3.79,0,0,0,1.35-.47h.63v5.7h1.32V875h-3.6Z"/>
    <path class="a" d="M93.24,873.86a.63.63,0,1,1-.6.66v0a.6.6,0,0,1,.56-.64Z"/>
    <path class="a" d="M95.45,873.93a1.4,1.4,0,0,0,1,.51c.9,0,1.66-.7,1.69-2.74a2,2,0,0,1-1.5.82,1.72,1.72,0,0,1-1.81-2,1.93,1.93,0,0,1,1.86-2h0c1.26,0,2.2,1,2.2,3.07,0,2.56-1.16,3.55-2.43,3.55a2,2,0,0,1-1.54-.67ZM98.17,871c-.11-1.24-.6-1.9-1.41-1.9-.62,0-1.11.56-1.11,1.4s.39,1.35,1.18,1.35A1.72,1.72,0,0,0,98.17,871Z"/>
    <path class="a" d="M18.73,649.68a2.17,2.17,0,0,0,1.63.76,1.19,1.19,0,0,0,1.31-1.05s0-.08,0-.12c0-.76-.52-1.27-2-1.27v-.63c1.36,0,1.81-.52,1.81-1.19a1,1,0,0,0-1-1h-.11a1.93,1.93,0,0,0-1.36.65l-.44-.52a2.62,2.62,0,0,1,1.83-.8c1.11,0,1.91.59,1.91,1.62a1.58,1.58,0,0,1-1.16,1.52h0a1.65,1.65,0,0,1,1.34,1.65,1.89,1.89,0,0,1-1.95,1.83h-.15a2.71,2.71,0,0,1-2.1-.9Z"/>
    <path class="a" d="M24,649.93a1.4,1.4,0,0,0,1,.51c.9,0,1.66-.7,1.69-2.74a2,2,0,0,1-1.5.82,1.72,1.72,0,0,1-1.81-2,1.93,1.93,0,0,1,1.86-2h0c1.26,0,2.2,1,2.2,3.07,0,2.56-1.16,3.55-2.43,3.55a2,2,0,0,1-1.54-.67ZM26.71,647c-.11-1.24-.6-1.9-1.41-1.9-.62,0-1.11.56-1.11,1.4s.39,1.35,1.18,1.35a1.72,1.72,0,0,0,1.34-.85Z"/>
    <path class="a" d="M29.24,649.86a.63.63,0,1,1-.6.66v0a.6.6,0,0,1,.56-.64Z"/>
    <path class="a" d="M30.92,647.79c0-2.14.77-3.29,2-3.29s2,1.15,2,3.29-.77,3.33-2,3.33S30.92,649.93,30.92,647.79Zm3.29,0c0-1.87-.5-2.63-1.24-2.63s-1.25.76-1.25,2.63.5,2.67,1.25,2.67S34.21,649.66,34.21,647.79Z"/>
  </g>
  <line class="f" x1="63.45" y1="506" x2="63.45" y2="506"/>
  <line class="g" x1="64.9" y1="507.45" x2="78.72" y2="521.27"/>
  <line class="f" x1="79.45" y1="522" x2="79.45" y2="522"/>
  <g class="k">
    <rect class="l" x="71.45" y="514" width="16" height="16"/>
  </g>
  <circle class="a" cx="79.45" cy="522" r="2"/>
  <g class="k">
    <rect class="l" x="55.45" y="498" width="16" height="16"/>
  </g>
  <circle class="a" cx="63.45" cy="506" r="2"/>
  <polyline class="l" points="15.45 538 31.45 538 31.45 554 15.45 554"/>
  <circle class="a" cx="23.45" cy="546" r="2"/>
  <circle class="a" cx="39.45" cy="562" r="2"/>
  <g class="k">
    <rect class="l" x="79.45" y="522" width="16" height="16"/>
  </g>
  <circle class="a" cx="87.45" cy="530" r="2"/>
  <circle class="a" cx="87.45" cy="562" r="2"/>
  <g class="k">
    <rect class="l" x="47.45" y="490" width="16" height="16"/>
  </g>
  <circle class="a" cx="55.45" cy="498" r="2"/>
  <line class="b" x1="122" y1="550.55" x2="122" y2="550.55"/>
  <line class="o" x1="119.18" y1="553.37" x2="75.41" y2="597.14"/>
  <polygon class="a" points="110 538.55 110 530.55 114 534.55 110 538.55"/>
  <g class="k">
    <rect class="l" x="130" y="542.55" width="16" height="16"/>
  </g>
  <circle class="a" cx="138" cy="550.55" r="2"/>
  <g class="k">
    <rect class="l" x="114" y="526.55" width="16" height="16"/>
  </g>
  <circle class="a" cx="122" cy="534.55" r="2"/>
  <line class="i" x1="122" y1="588.55" x2="122" y2="567.55"/>
  <line class="f" x1="122" y1="566.55" x2="122" y2="566.55"/>
  <line class="f" x1="138" y1="550.55" x2="138" y2="550.55"/>
  <line class="g" x1="139.45" y1="552" x2="153.27" y2="565.82"/>
  <line class="f" x1="154" y1="566.55" x2="154" y2="566.55"/>
  <g class="k">
    <rect class="l" x="146" y="526.55" width="16" height="16"/>
  </g>
  <circle class="a" cx="154" cy="534.55" r="2"/>
  <polyline class="l" points="146 574.55 146 558.55 162 558.55 162 574.55"/>
  <circle class="a" cx="154" cy="566.55" r="2"/>
</svg>
