<svg width="125" height="148" viewBox="0 0 125 148" version="1.1" xmlns="http://www.w3.org/2000/svg" xmlns:xlink="http://www.w3.org/1999/xlink">
<title>a5@3x</title>
<desc>Created using Figma</desc>
<g id="Canvas" transform="translate(2236 230)">
<g id="a5@3x">
<g id="&#208;&#160;&#208;&#181;&#209;&#129;&#209;&#131;&#209;&#128;&#209;&#129; 8@1x">
<g id="&#208;&#161;&#208;&#187;&#208;&#190;&#208;&#185; 2">
<g id="&#208;&#161;&#208;&#187;&#208;&#190;&#208;&#185; 1">
<g id="Vector">
<use xlink:href="#path0_fill" transform="translate(-2236 -230)" fill="#F2F2F2"/>
<use xlink:href="#path1_fill" transform="translate(-2236 -230)" fill="#F2F2F2"/>
<use xlink:href="#path2_fill" transform="translate(-2236 -230)" fill="#F2F2F2"/>
<use xlink:href="#path3_fill" transform="translate(-2236 -230)" fill="#F2F2F2"/>
<use xlink:href="#path4_fill" transform="translate(-2236 -230)" fill="#F2F2F2"/>
<use xlink:href="#path5_fill" transform="translate(-2236 -230)" fill="#F2F2F2"/>
<use xlink:href="#path6_fill" transform="translate(-2236 -230)" fill="#F2F2F2"/>
<use xlink:href="#path7_fill" transform="translate(-2236 -230)" fill="#F2F2F2"/>
<use xlink:href="#path8_fill" transform="translate(-2236 -230)" fill="#F2F2F2"/>
<use xlink:href="#path9_fill" transform="translate(-2236 -230)" fill="#F2F2F2"/>
<use xlink:href="#path10_fill" transform="translate(-2236 -230)" fill="#F2F2F2"/>
<use xlink:href="#path11_fill" transform="translate(-2236 -230)" fill="#F2F2F2"/>
<use xlink:href="#path12_fill" transform="translate(-2236 -230)" fill="#F2F2F2"/>
<use xlink:href="#path13_fill" transform="translate(-2236 -230)" fill="#F2F2F2"/>
<use xlink:href="#path14_fill" transform="translate(-2236 -230)" fill="#F2F2F2"/>
<use xlink:href="#path15_fill" transform="translate(-2236 -230)" fill="#F2F2F2"/>
<use xlink:href="#path16_fill" transform="translate(-2236 -230)" fill="#F2F2F2"/>
<use xlink:href="#path17_fill" transform="translate(-2236 -230)" fill="#F2F2F2"/>
<use xlink:href="#path18_fill" transform="translate(-2236 -230)" fill="#F2F2F2"/>
<use xlink:href="#path19_fill" transform="translate(-2236 -230)" fill="#F2F2F2"/>
<use xlink:href="#path20_fill" transform="translate(-2236 -230)" fill="#F2F2F2"/>
<use xlink:href="#path21_fill" transform="translate(-2236 -230)" fill="#F2F2F2"/>
<use xlink:href="#path22_fill" transform="translate(-2236 -230)" fill="#F2F2F2"/>
<use xlink:href="#path23_fill" transform="translate(-2236 -230)" fill="#F2F2F2"/>
<use xlink:href="#path24_fill" transform="translate(-2236 -230)" fill="#F2F2F2"/>
<use xlink:href="#path25_fill" transform="translate(-2236 -230)" fill="#F2F2F2"/>
<use xlink:href="#path26_fill" transform="translate(-2236 -230)" fill="#F2F2F2"/>
<use xlink:href="#path27_fill" transform="translate(-2236 -230)" fill="#F2F2F2"/>
<use xlink:href="#path28_fill" transform="translate(-2236 -230)" fill="#F2F2F2"/>
<use xlink:href="#path29_fill" transform="translate(-2236 -230)" fill="#F2F2F2"/>
<use xlink:href="#path30_fill" transform="translate(-2236 -230)" fill="#F2F2F2"/>
<use xlink:href="#path31_fill" transform="translate(-2236 -230)" fill="#F2F2F2"/>
<use xlink:href="#path32_fill" transform="translate(-2236 -230)" fill="#F2F2F2"/>
<use xlink:href="#path33_fill" transform="translate(-2236 -230)" fill="#F2F2F2"/>
<use xlink:href="#path34_fill" transform="translate(-2236 -230)" fill="#F2F2F2"/>
<use xlink:href="#path35_fill" transform="translate(-2236 -230)" fill="#F2F2F2"/>
<use xlink:href="#path36_fill" transform="translate(-2236 -230)" fill="#F2F2F2"/>
<use xlink:href="#path37_fill" transform="translate(-2236 -230)" fill="#F2F2F2"/>
<use xlink:href="#path38_fill" transform="translate(-2236 -230)" fill="#F2F2F2"/>
<use xlink:href="#path39_fill" transform="translate(-2236 -230)" fill="#F2F2F2"/>
<use xlink:href="#path40_fill" transform="translate(-2236 -230)" fill="#F2F2F2"/>
<use xlink:href="#path41_fill" transform="translate(-2236 -230)" fill="#F2F2F2"/>
<use xlink:href="#path42_fill" transform="translate(-2236 -230)" fill="#F2F2F2"/>
<use xlink:href="#path43_fill" transform="translate(-2236 -230)" fill="#F2F2F2"/>
<use xlink:href="#path44_fill" transform="translate(-2236 -230)" fill="#F2F2F2"/>
<use xlink:href="#path45_fill" transform="translate(-2236 -230)" fill="#F2F2F2"/>
</g>
</g>
</g>
</g>
</g>
</g>
<defs>
<path id="path0_fill" d="M 115.37 57.7638C 117.603 57.2492 118.999 55.0044 118.49 52.7499C 117.98 50.4955 115.757 49.0852 113.525 49.5999C 111.292 50.1145 109.896 52.3593 110.405 54.6137C 110.915 56.8682 113.138 58.2785 115.37 57.7638Z"/>
<path id="path1_fill" d="M 120.482 118.632C 122.772 118.632 124.628 116.757 124.628 114.445C 124.628 112.133 122.772 110.258 120.482 110.258C 118.192 110.258 116.336 112.133 116.336 114.445C 116.336 116.757 118.192 118.632 120.482 118.632Z"/>
<path id="path2_fill" d="M 114.493 147.941C 116.783 147.941 118.639 146.066 118.639 143.754C 118.639 141.442 116.783 139.567 114.493 139.567C 112.203 139.567 110.347 141.442 110.347 143.754C 110.347 146.066 112.203 147.941 114.493 147.941Z"/>
<path id="path3_fill" d="M 101.594 145.15C 103.884 145.15 105.74 143.275 105.74 140.963C 105.74 138.65 103.884 136.776 101.594 136.776C 99.3041 136.776 97.4479 138.65 97.4479 140.963C 97.4479 143.275 99.3041 145.15 101.594 145.15Z"/>
<path id="path4_fill" d="M 93.8104 35.533C 96.0428 35.0183 97.4394 32.7735 96.9298 30.5191C 96.4201 28.2647 94.1972 26.8544 91.9648 27.369C 89.7324 27.8837 88.3359 30.1285 88.8455 32.3829C 89.3552 34.6373 91.578 36.0477 93.8104 35.533Z"/>
<path id="path5_fill" d="M 102.055 18.6089C 104.344 18.6089 106.201 16.7343 106.201 14.4219C 106.201 12.1095 104.344 10.2349 102.055 10.2349C 99.7648 10.2349 97.9085 12.1095 97.9085 14.4219C 97.9085 16.7343 99.7648 18.6089 102.055 18.6089Z"/>
<path id="path6_fill" d="M 112.19 8.37402C 114.479 8.37402 116.336 6.49943 116.336 4.18701C 116.336 1.87459 114.479 0 112.19 0C 109.9 0 108.043 1.87459 108.043 4.18701C 108.043 6.49943 109.9 8.37402 112.19 8.37402Z"/>
<path id="path7_fill" d="M 113.309 121.283C 113.508 118.979 111.821 116.948 109.539 116.747C 107.258 116.546 105.248 118.25 105.048 120.554C 104.849 122.858 106.537 124.888 108.818 125.089C 111.099 125.291 113.11 123.586 113.309 121.283Z"/>
<path id="path8_fill" d="M 108.043 90.7185C 110.333 90.7185 112.19 88.844 112.19 86.5315C 112.19 84.2191 110.333 82.3445 108.043 82.3445C 105.754 82.3445 103.897 84.2191 103.897 86.5315C 103.897 88.844 105.754 90.7185 108.043 90.7185Z"/>
<path id="path9_fill" d="M 52.762 133.519C 55.0518 133.519 56.9081 131.645 56.9081 129.332C 56.9081 127.02 55.0518 125.145 52.762 125.145C 50.4721 125.145 48.6158 127.02 48.6158 129.332C 48.6158 131.645 50.4721 133.519 52.762 133.519Z"/>
<path id="path10_fill" d="M 30.6493 121.889C 32.9392 121.889 34.7955 120.014 34.7955 117.701C 34.7955 115.389 32.9392 113.514 30.6493 113.514C 28.3595 113.514 26.5032 115.389 26.5032 117.701C 26.5032 120.014 28.3595 121.889 30.6493 121.889Z"/>
<path id="path11_fill" d="M 65.2003 134.45C 67.4901 134.45 69.3464 132.575 69.3464 130.263C 69.3464 127.95 67.4901 126.076 65.2003 126.076C 62.9105 126.076 61.0542 127.95 61.0542 130.263C 61.0542 132.575 62.9105 134.45 65.2003 134.45Z"/>
<path id="path12_fill" d="M 61.2961 144.177C 61.4953 141.873 59.8075 139.843 57.5264 139.642C 55.2452 139.44 53.2345 141.145 53.0353 143.449C 52.8361 145.752 54.5239 147.783 56.8051 147.984C 59.0862 148.185 61.0969 146.481 61.2961 144.177Z"/>
<path id="path13_fill" d="M 21.4358 108.862C 23.7256 108.862 25.5819 106.988 25.5819 104.675C 25.5819 102.363 23.7256 100.488 21.4358 100.488C 19.1459 100.488 17.2896 102.363 17.2896 104.675C 17.2896 106.988 19.1459 108.862 21.4358 108.862Z"/>
<path id="path14_fill" d="M 55.0936 40.1717C 56.0023 38.0491 55.035 35.5846 52.9332 34.6669C 50.8314 33.7493 48.3909 34.7261 47.4822 36.8486C 46.5735 38.9712 47.5408 41.4358 49.6426 42.3534C 51.7444 43.271 54.1849 42.2942 55.0936 40.1717Z"/>
<path id="path15_fill" d="M 104.027 59.5075C 104.936 57.3849 103.969 54.9204 101.867 54.0027C 99.7651 53.0851 97.3246 54.0619 96.4159 56.1844C 95.5072 58.307 96.4745 60.7715 98.5763 61.6892C 100.678 62.6068 103.119 61.63 104.027 59.5075Z"/>
<path id="path16_fill" d="M 8.99742 115.841C 11.2873 115.841 13.1435 113.966 13.1435 111.654C 13.1435 109.341 11.2873 107.467 8.99742 107.467C 6.70758 107.467 4.8513 109.341 4.8513 111.654C 4.8513 113.966 6.70758 115.841 8.99742 115.841Z"/>
<path id="path17_fill" d="M 62.4362 27.4482C 64.7261 27.4482 66.5823 25.5736 66.5823 23.2612C 66.5823 20.9487 64.7261 19.0742 62.4362 19.0742C 60.1464 19.0742 58.2901 20.9487 58.2901 23.2612C 58.2901 25.5736 60.1464 27.4482 62.4362 27.4482Z"/>
<path id="path18_fill" fill-rule="evenodd" d="M 78.1706 42.4379C 69.8285 39.1657 60.6937 38.5533 51.9964 40.6834L 50.9107 36.1622C 60.523 33.808 70.6188 34.4848 79.8386 38.1014C 89.0585 41.7179 96.9596 48.1005 102.478 56.3898L 98.655 58.9855C 93.6618 51.4853 86.5128 45.7102 78.1706 42.4379Z"/>
<path id="path19_fill" fill-rule="evenodd" d="M 30.7575 52.8753C 24.52 59.3533 20.3972 67.6055 18.9442 76.5212C 17.4911 85.4369 18.7775 94.5881 22.6302 102.743L 18.4724 104.746C 14.2143 95.7334 12.7926 85.6194 14.3985 75.7656C 16.0044 65.9119 20.5609 56.7916 27.4548 49.632L 30.7575 52.8753Z"/>
<path id="path20_fill" fill-rule="evenodd" d="M 33.8878 117.325C 40.2714 122.809 48.0862 126.316 56.3947 127.426L 55.7907 132.038C 46.6033 130.811 37.9617 126.933 30.9029 120.869L 33.8878 117.325Z"/>
<path id="path21_fill" fill-rule="evenodd" d="M 18.4414 83.5112C 18.4306 90.5582 20.0963 97.5047 23.2982 103.766L 19.2049 105.901C 15.6645 98.9772 13.8227 91.2962 13.8346 83.504L 18.4414 83.5112Z"/>
<path id="path22_fill" d="M 30.2703 55.9444C 31.7358 54.1639 31.4944 51.5207 29.7313 50.0407C 27.9681 48.5608 25.3507 48.8045 23.8853 50.5851C 22.4198 52.3656 22.6611 55.0088 24.4242 56.4887C 26.1874 57.9687 28.8048 57.725 30.2703 55.9444Z"/>
<path id="path23_fill" fill-rule="evenodd" d="M 93.1521 114.759C 101.36 106.471 105.97 95.2291 105.97 83.5076L 110.577 83.5076C 110.577 96.463 105.481 108.888 96.4096 118.049C 87.3382 127.21 75.0348 132.356 62.2059 132.356L 62.2059 127.704C 73.813 127.704 84.9446 123.047 93.1521 114.759Z"/>
<path id="path24_fill" fill-rule="evenodd" d="M 112.465 54.7592C 107.871 45.6816 100.686 38.2051 91.838 33.2971L 94.056 29.2196C 103.712 34.5759 111.554 42.7354 116.567 52.6422L 112.465 54.7592Z"/>
<path id="path25_fill" d="M 18.4359 126.551C 20.5192 125.591 21.4377 123.107 20.4874 121.003C 19.5371 118.9 17.0778 117.972 14.9945 118.932C 12.9112 119.891 11.9927 122.375 12.943 124.479C 13.8933 126.583 16.3525 127.51 18.4359 126.551Z"/>
<path id="path26_fill" d="M 44.0043 143.922C 46.0876 142.962 47.0061 140.479 46.0558 138.375C 45.1055 136.271 42.6462 135.343 40.5629 136.303C 38.4796 137.263 37.5611 139.746 38.5114 141.85C 39.4617 143.954 41.9209 144.881 44.0043 143.922Z"/>
<path id="path27_fill" fill-rule="evenodd" d="M 18.4369 121.28C 24.7533 129.233 33.2879 135.088 42.9362 138.088L 41.5806 142.534C 31.0509 139.26 21.7366 132.87 14.8432 124.191L 18.4369 121.28Z"/>
<path id="path28_fill" d="M 123.493 103.188C 124.724 101.238 124.156 98.6492 122.225 97.4064C 120.294 96.1636 117.731 96.7369 116.501 98.687C 115.27 100.637 115.838 103.225 117.769 104.468C 119.7 105.711 122.263 105.138 123.493 103.188Z"/>
<path id="path29_fill" d="M 124.01 72.0693C 125.241 70.1192 124.673 67.5309 122.742 66.2881C 120.811 65.0453 118.248 65.6186 117.018 67.5687C 115.787 69.5188 116.355 72.1071 118.286 73.3499C 120.217 74.5927 122.78 74.0194 124.01 72.0693Z"/>
<path id="path30_fill" fill-rule="evenodd" d="M 117.843 100.26C 121.013 90.5801 121.233 80.1618 118.473 70.3541L 122.905 69.0827C 125.916 79.7864 125.677 91.1563 122.217 101.721L 117.843 100.26Z"/>
<path id="path31_fill" fill-rule="evenodd" d="M 84.7451 136.817C 93.4413 133.072 101.089 127.22 107.013 119.78L 110.603 122.695C 104.205 130.731 95.9448 137.051 86.5522 141.096C 77.1597 145.141 66.9247 146.786 56.7529 145.885L 57.1553 141.251C 66.573 142.085 76.049 140.562 84.7451 136.817Z"/>
<path id="path32_fill" fill-rule="evenodd" d="M 62.2053 25.3547C 52.2812 25.3523 42.5249 27.9401 33.8828 32.8669C 25.2406 37.7938 18.006 44.8925 12.8807 53.4746C 7.75541 62.0566 4.91336 71.8306 4.63024 81.8486C 4.34711 91.8665 6.63253 101.788 11.2648 110.652L 7.19066 112.823C 2.1878 103.251 -0.280454 92.5352 0.0253185 81.7158C 0.331091 70.8965 3.40051 60.3405 8.93585 51.0719C 14.4712 41.8033 22.2845 34.1367 31.618 28.8157C 40.9515 23.4947 51.4883 20.6999 62.2064 20.7024L 62.2053 25.3547Z"/>
<path id="path33_fill" fill-rule="evenodd" d="M 116.669 7.65259C 115.343 6.758 113.784 6.28051 112.19 6.28051L 112.19 1.62828C 114.695 1.62828 117.145 2.37862 119.228 3.7844C 121.311 5.19018 122.935 7.18828 123.894 9.52601C 124.853 11.8637 125.104 14.4361 124.615 16.9178C 124.126 19.3996 122.919 21.6792 121.148 23.4684C 119.376 25.2576 117.119 26.4761 114.661 26.9697C 112.204 27.4634 109.656 27.21 107.341 26.2417C 105.027 25.2734 103.048 23.6336 101.656 21.5297C 100.264 19.4258 99.5209 16.9523 99.5209 14.4219L 104.128 14.4219C 104.128 16.0321 104.601 17.6062 105.486 18.945C 106.372 20.2839 107.631 21.3274 109.104 21.9436C 110.578 22.5598 112.199 22.721 113.762 22.4069C 115.326 22.0928 116.763 21.3174 117.89 20.1788C 119.018 19.0402 119.785 17.5895 120.097 16.0102C 120.408 14.4309 120.248 12.794 119.638 11.3063C 119.028 9.81869 117.994 8.54718 116.669 7.65259Z"/>
<path id="path34_fill" fill-rule="evenodd" d="M 102.285 129.765L 102.285 134.914L 102.285 134.915C 102.286 135.982 102.495 137.039 102.901 138.024C 103.307 139.01 103.902 139.905 104.651 140.658L 101.402 143.956C 100.223 142.771 99.2864 141.362 98.6474 139.811C 98.0084 138.26 97.679 136.596 97.6782 134.916L 97.6782 129.765L 102.285 129.765Z"/>
<path id="path35_fill" fill-rule="evenodd" d="M 117.793 137.094C 118.199 136.108 118.408 135.051 118.409 133.983L 123.016 133.985C 123.015 135.666 122.685 137.329 122.046 138.881C 121.408 140.431 120.472 141.839 119.294 143.023C 118.912 143.41 118.606 143.773 118.274 144.168L 118.231 144.218C 117.915 144.594 117.515 145.07 117.046 145.488C 115.905 146.503 114.555 147.011 112.65 147.011L 112.65 142.358C 113.594 142.358 113.815 142.162 113.999 141.998L 114.001 141.997C 114.186 141.832 114.383 141.608 114.736 141.188C 114.752 141.169 114.769 141.149 114.786 141.129C 115.107 140.747 115.52 140.256 116.038 139.732L 116.042 139.728C 116.792 138.975 117.387 138.08 117.793 137.094Z"/>
<path id="path36_fill" fill-rule="evenodd" d="M 118.409 133.984L 118.409 113.04L 123.016 113.04L 123.016 133.984L 118.409 133.984Z"/>
<path id="path37_fill" fill-rule="evenodd" d="M 66.6105 113.514C 71.0266 112.96 75.2673 111.429 79.0303 109.031L 81.4892 112.965C 77.1531 115.729 72.2667 117.492 67.1782 118.13C 62.0897 118.768 56.9244 118.265 52.0507 116.656L 53.4822 112.234C 57.7119 113.63 62.1945 114.067 66.6105 113.514Z"/>
<path id="path38_fill" fill-rule="evenodd" d="M 77.1749 56.4215C 72.7846 54.044 67.8797 52.8008 62.8979 52.8028L 62.896 48.1506C 68.6381 48.1482 74.2916 49.5812 79.3521 52.3216C 84.4125 55.0621 88.7226 59.0248 91.8978 63.8564C 95.0731 68.6879 97.0147 74.238 97.5496 80.0116C 98.0845 85.7852 97.196 91.6027 94.9633 96.9452L 90.719 95.1362C 92.656 90.5012 93.4269 85.454 92.9629 80.4449C 92.4988 75.4359 90.8142 70.6207 88.0594 66.4289C 85.3046 62.2371 81.5653 58.7991 77.1749 56.4215Z"/>
<path id="path39_fill" fill-rule="evenodd" d="M 48.7745 56.3414C 45.201 58.2575 42.044 60.8776 39.4903 64.0469C 36.9366 67.2161 35.0379 70.8702 33.9065 74.7931L 29.4835 73.4922C 30.7871 68.9723 32.9747 64.7621 35.9171 61.1105C 38.8594 57.459 42.4968 54.4401 46.6142 52.2324L 48.7745 56.3414Z"/>
<path id="path40_fill" d="M 52.762 118.632C 55.0518 118.632 56.9081 116.757 56.9081 114.445C 56.9081 112.133 55.0518 110.258 52.762 110.258C 50.4721 110.258 48.6158 112.133 48.6158 114.445C 48.6158 116.757 50.4721 118.632 52.762 118.632Z"/>
<path id="path41_fill" d="M 80.4027 115.375C 82.6926 115.375 84.5488 113.501 84.5488 111.188C 84.5488 108.876 82.6926 107.001 80.4027 107.001C 78.1129 107.001 76.2566 108.876 76.2566 111.188C 76.2566 113.501 78.1129 115.375 80.4027 115.375Z"/>
<path id="path42_fill" d="M 92.8411 99.5578C 95.1309 99.5578 96.9872 97.6832 96.9872 95.3708C 96.9872 93.0584 95.1309 91.1838 92.8411 91.1838C 90.5512 91.1838 88.6949 93.0584 88.6949 95.3708C 88.6949 97.6832 90.5512 99.5578 92.8411 99.5578Z"/>
<path id="path43_fill" d="M 63.8183 54.8964C 66.1081 54.8964 67.9644 53.0218 67.9644 50.7093C 67.9644 48.3969 66.1081 46.5223 63.8183 46.5223C 61.5284 46.5223 59.6721 48.3969 59.6721 50.7093C 59.6721 53.0218 61.5284 54.8964 63.8183 54.8964Z"/>
<path id="path44_fill" d="M 32.0314 78.1575C 34.3212 78.1575 36.1775 76.2829 36.1775 73.9705C 36.1775 71.6581 34.3212 69.7835 32.0314 69.7835C 29.7416 69.7835 27.8853 71.6581 27.8853 73.9705C 27.8853 76.2829 29.7416 78.1575 32.0314 78.1575Z"/>
<path id="path45_fill" d="M 48.1552 58.1529C 50.445 58.1529 52.3013 56.2783 52.3013 53.9659C 52.3013 51.6535 50.445 49.7789 48.1552 49.7789C 45.8653 49.7789 44.009 51.6535 44.009 53.9659C 44.009 56.2783 45.8653 58.1529 48.1552 58.1529Z"/>
</defs>
</svg>
<svg width="125" height="148" viewBox="0 0 125 148" version="1.1" xmlns="http://www.w3.org/2000/svg" xmlns:xlink="http://www.w3.org/1999/xlink">
<title>a5@3x</title>
<desc>Created using Figma</desc>
<g id="Canvas" transform="translate(2236 230)">
<g id="a5@3x">
<g id="&#208;&#160;&#208;&#181;&#209;&#129;&#209;&#131;&#209;&#128;&#209;&#129; 8@1x">
<g id="&#208;&#161;&#208;&#187;&#208;&#190;&#208;&#185; 2">
<g id="&#208;&#161;&#208;&#187;&#208;&#190;&#208;&#185; 1">
<g id="Vector">
<use xlink:href="#path0_fill" transform="translate(-2236 -230)" fill="#F2F2F2"/>
<use xlink:href="#path1_fill" transform="translate(-2236 -230)" fill="#F2F2F2"/>
<use xlink:href="#path2_fill" transform="translate(-2236 -230)" fill="#F2F2F2"/>
<use xlink:href="#path3_fill" transform="translate(-2236 -230)" fill="#F2F2F2"/>
<use xlink:href="#path4_fill" transform="translate(-2236 -230)" fill="#F2F2F2"/>
<use xlink:href="#path5_fill" transform="translate(-2236 -230)" fill="#F2F2F2"/>
<use xlink:href="#path6_fill" transform="translate(-2236 -230)" fill="#F2F2F2"/>
<use xlink:href="#path7_fill" transform="translate(-2236 -230)" fill="#F2F2F2"/>
<use xlink:href="#path8_fill" transform="translate(-2236 -230)" fill="#F2F2F2"/>
<use xlink:href="#path9_fill" transform="translate(-2236 -230)" fill="#F2F2F2"/>
<use xlink:href="#path10_fill" transform="translate(-2236 -230)" fill="#F2F2F2"/>
<use xlink:href="#path11_fill" transform="translate(-2236 -230)" fill="#F2F2F2"/>
<use xlink:href="#path12_fill" transform="translate(-2236 -230)" fill="#F2F2F2"/>
<use xlink:href="#path13_fill" transform="translate(-2236 -230)" fill="#F2F2F2"/>
<use xlink:href="#path14_fill" transform="translate(-2236 -230)" fill="#F2F2F2"/>
<use xlink:href="#path15_fill" transform="translate(-2236 -230)" fill="#F2F2F2"/>
<use xlink:href="#path16_fill" transform="translate(-2236 -230)" fill="#F2F2F2"/>
<use xlink:href="#path17_fill" transform="translate(-2236 -230)" fill="#F2F2F2"/>
<use xlink:href="#path18_fill" transform="translate(-2236 -230)" fill="#F2F2F2"/>
<use xlink:href="#path19_fill" transform="translate(-2236 -230)" fill="#F2F2F2"/>
<use xlink:href="#path20_fill" transform="translate(-2236 -230)" fill="#F2F2F2"/>
<use xlink:href="#path21_fill" transform="translate(-2236 -230)" fill="#F2F2F2"/>
<use xlink:href="#path22_fill" transform="translate(-2236 -230)" fill="#F2F2F2"/>
<use xlink:href="#path23_fill" transform="translate(-2236 -230)" fill="#F2F2F2"/>
<use xlink:href="#path24_fill" transform="translate(-2236 -230)" fill="#F2F2F2"/>
<use xlink:href="#path25_fill" transform="translate(-2236 -230)" fill="#F2F2F2"/>
<use xlink:href="#path26_fill" transform="translate(-2236 -230)" fill="#F2F2F2"/>
<use xlink:href="#path27_fill" transform="translate(-2236 -230)" fill="#F2F2F2"/>
<use xlink:href="#path28_fill" transform="translate(-2236 -230)" fill="#F2F2F2"/>
<use xlink:href="#path29_fill" transform="translate(-2236 -230)" fill="#F2F2F2"/>
<use xlink:href="#path30_fill" transform="translate(-2236 -230)" fill="#F2F2F2"/>
<use xlink:href="#path31_fill" transform="translate(-2236 -230)" fill="#F2F2F2"/>
<use xlink:href="#path32_fill" transform="translate(-2236 -230)" fill="#F2F2F2"/>
<use xlink:href="#path33_fill" transform="translate(-2236 -230)" fill="#F2F2F2"/>
<use xlink:href="#path34_fill" transform="translate(-2236 -230)" fill="#F2F2F2"/>
<use xlink:href="#path35_fill" transform="translate(-2236 -230)" fill="#F2F2F2"/>
<use xlink:href="#path36_fill" transform="translate(-2236 -230)" fill="#F2F2F2"/>
<use xlink:href="#path37_fill" transform="translate(-2236 -230)" fill="#F2F2F2"/>
<use xlink:href="#path38_fill" transform="translate(-2236 -230)" fill="#F2F2F2"/>
<use xlink:href="#path39_fill" transform="translate(-2236 -230)" fill="#F2F2F2"/>
<use xlink:href="#path40_fill" transform="translate(-2236 -230)" fill="#F2F2F2"/>
<use xlink:href="#path41_fill" transform="translate(-2236 -230)" fill="#F2F2F2"/>
<use xlink:href="#path42_fill" transform="translate(-2236 -230)" fill="#F2F2F2"/>
<use xlink:href="#path43_fill" transform="translate(-2236 -230)" fill="#F2F2F2"/>
<use xlink:href="#path44_fill" transform="translate(-2236 -230)" fill="#F2F2F2"/>
<use xlink:href="#path45_fill" transform="translate(-2236 -230)" fill="#F2F2F2"/>
</g>
</g>
</g>
</g>
</g>
</g>
<defs>
<path id="path0_fill" d="M 115.37 57.7638C 117.603 57.2492 118.999 55.0044 118.49 52.7499C 117.98 50.4955 115.757 49.0852 113.525 49.5999C 111.292 50.1145 109.896 52.3593 110.405 54.6137C 110.915 56.8682 113.138 58.2785 115.37 57.7638Z"/>
<path id="path1_fill" d="M 120.482 118.632C 122.772 118.632 124.628 116.757 124.628 114.445C 124.628 112.133 122.772 110.258 120.482 110.258C 118.192 110.258 116.336 112.133 116.336 114.445C 116.336 116.757 118.192 118.632 120.482 118.632Z"/>
<path id="path2_fill" d="M 114.493 147.941C 116.783 147.941 118.639 146.066 118.639 143.754C 118.639 141.442 116.783 139.567 114.493 139.567C 112.203 139.567 110.347 141.442 110.347 143.754C 110.347 146.066 112.203 147.941 114.493 147.941Z"/>
<path id="path3_fill" d="M 101.594 145.15C 103.884 145.15 105.74 143.275 105.74 140.963C 105.74 138.65 103.884 136.776 101.594 136.776C 99.3041 136.776 97.4479 138.65 97.4479 140.963C 97.4479 143.275 99.3041 145.15 101.594 145.15Z"/>
<path id="path4_fill" d="M 93.8104 35.533C 96.0428 35.0183 97.4394 32.7735 96.9298 30.5191C 96.4201 28.2647 94.1972 26.8544 91.9648 27.369C 89.7324 27.8837 88.3359 30.1285 88.8455 32.3829C 89.3552 34.6373 91.578 36.0477 93.8104 35.533Z"/>
<path id="path5_fill" d="M 102.055 18.6089C 104.344 18.6089 106.201 16.7343 106.201 14.4219C 106.201 12.1095 104.344 10.2349 102.055 10.2349C 99.7648 10.2349 97.9085 12.1095 97.9085 14.4219C 97.9085 16.7343 99.7648 18.6089 102.055 18.6089Z"/>
<path id="path6_fill" d="M 112.19 8.37402C 114.479 8.37402 116.336 6.49943 116.336 4.18701C 116.336 1.87459 114.479 0 112.19 0C 109.9 0 108.043 1.87459 108.043 4.18701C 108.043 6.49943 109.9 8.37402 112.19 8.37402Z"/>
<path id="path7_fill" d="M 113.309 121.283C 113.508 118.979 111.821 116.948 109.539 116.747C 107.258 116.546 105.248 118.25 105.048 120.554C 104.849 122.858 106.537 124.888 108.818 125.089C 111.099 125.291 113.11 123.586 113.309 121.283Z"/>
<path id="path8_fill" d="M 108.043 90.7185C 110.333 90.7185 112.19 88.844 112.19 86.5315C 112.19 84.2191 110.333 82.3445 108.043 82.3445C 105.754 82.3445 103.897 84.2191 103.897 86.5315C 103.897 88.844 105.754 90.7185 108.043 90.7185Z"/>
<path id="path9_fill" d="M 52.762 133.519C 55.0518 133.519 56.9081 131.645 56.9081 129.332C 56.9081 127.02 55.0518 125.145 52.762 125.145C 50.4721 125.145 48.6158 127.02 48.6158 129.332C 48.6158 131.645 50.4721 133.519 52.762 133.519Z"/>
<path id="path10_fill" d="M 30.6493 121.889C 32.9392 121.889 34.7955 120.014 34.7955 117.701C 34.7955 115.389 32.9392 113.514 30.6493 113.514C 28.3595 113.514 26.5032 115.389 26.5032 117.701C 26.5032 120.014 28.3595 121.889 30.6493 121.889Z"/>
<path id="path11_fill" d="M 65.2003 134.45C 67.4901 134.45 69.3464 132.575 69.3464 130.263C 69.3464 127.95 67.4901 126.076 65.2003 126.076C 62.9105 126.076 61.0542 127.95 61.0542 130.263C 61.0542 132.575 62.9105 134.45 65.2003 134.45Z"/>
<path id="path12_fill" d="M 61.2961 144.177C 61.4953 141.873 59.8075 139.843 57.5264 139.642C 55.2452 139.44 53.2345 141.145 53.0353 143.449C 52.8361 145.752 54.5239 147.783 56.8051 147.984C 59.0862 148.185 61.0969 146.481 61.2961 144.177Z"/>
<path id="path13_fill" d="M 21.4358 108.862C 23.7256 108.862 25.5819 106.988 25.5819 104.675C 25.5819 102.363 23.7256 100.488 21.4358 100.488C 19.1459 100.488 17.2896 102.363 17.2896 104.675C 17.2896 106.988 19.1459 108.862 21.4358 108.862Z"/>
<path id="path14_fill" d="M 55.0936 40.1717C 56.0023 38.0491 55.035 35.5846 52.9332 34.6669C 50.8314 33.7493 48.3909 34.7261 47.4822 36.8486C 46.5735 38.9712 47.5408 41.4358 49.6426 42.3534C 51.7444 43.271 54.1849 42.2942 55.0936 40.1717Z"/>
<path id="path15_fill" d="M 104.027 59.5075C 104.936 57.3849 103.969 54.9204 101.867 54.0027C 99.7651 53.0851 97.3246 54.0619 96.4159 56.1844C 95.5072 58.307 96.4745 60.7715 98.5763 61.6892C 100.678 62.6068 103.119 61.63 104.027 59.5075Z"/>
<path id="path16_fill" d="M 8.99742 115.841C 11.2873 115.841 13.1435 113.966 13.1435 111.654C 13.1435 109.341 11.2873 107.467 8.99742 107.467C 6.70758 107.467 4.8513 109.341 4.8513 111.654C 4.8513 113.966 6.70758 115.841 8.99742 115.841Z"/>
<path id="path17_fill" d="M 62.4362 27.4482C 64.7261 27.4482 66.5823 25.5736 66.5823 23.2612C 66.5823 20.9487 64.7261 19.0742 62.4362 19.0742C 60.1464 19.0742 58.2901 20.9487 58.2901 23.2612C 58.2901 25.5736 60.1464 27.4482 62.4362 27.4482Z"/>
<path id="path18_fill" fill-rule="evenodd" d="M 78.1706 42.4379C 69.8285 39.1657 60.6937 38.5533 51.9964 40.6834L 50.9107 36.1622C 60.523 33.808 70.6188 34.4848 79.8386 38.1014C 89.0585 41.7179 96.9596 48.1005 102.478 56.3898L 98.655 58.9855C 93.6618 51.4853 86.5128 45.7102 78.1706 42.4379Z"/>
<path id="path19_fill" fill-rule="evenodd" d="M 30.7575 52.8753C 24.52 59.3533 20.3972 67.6055 18.9442 76.5212C 17.4911 85.4369 18.7775 94.5881 22.6302 102.743L 18.4724 104.746C 14.2143 95.7334 12.7926 85.6194 14.3985 75.7656C 16.0044 65.9119 20.5609 56.7916 27.4548 49.632L 30.7575 52.8753Z"/>
<path id="path20_fill" fill-rule="evenodd" d="M 33.8878 117.325C 40.2714 122.809 48.0862 126.316 56.3947 127.426L 55.7907 132.038C 46.6033 130.811 37.9617 126.933 30.9029 120.869L 33.8878 117.325Z"/>
<path id="path21_fill" fill-rule="evenodd" d="M 18.4414 83.5112C 18.4306 90.5582 20.0963 97.5047 23.2982 103.766L 19.2049 105.901C 15.6645 98.9772 13.8227 91.2962 13.8346 83.504L 18.4414 83.5112Z"/>
<path id="path22_fill" d="M 30.2703 55.9444C 31.7358 54.1639 31.4944 51.5207 29.7313 50.0407C 27.9681 48.5608 25.3507 48.8045 23.8853 50.5851C 22.4198 52.3656 22.6611 55.0088 24.4242 56.4887C 26.1874 57.9687 28.8048 57.725 30.2703 55.9444Z"/>
<path id="path23_fill" fill-rule="evenodd" d="M 93.1521 114.759C 101.36 106.471 105.97 95.2291 105.97 83.5076L 110.577 83.5076C 110.577 96.463 105.481 108.888 96.4096 118.049C 87.3382 127.21 75.0348 132.356 62.2059 132.356L 62.2059 127.704C 73.813 127.704 84.9446 123.047 93.1521 114.759Z"/>
<path id="path24_fill" fill-rule="evenodd" d="M 112.465 54.7592C 107.871 45.6816 100.686 38.2051 91.838 33.2971L 94.056 29.2196C 103.712 34.5759 111.554 42.7354 116.567 52.6422L 112.465 54.7592Z"/>
<path id="path25_fill" d="M 18.4359 126.551C 20.5192 125.591 21.4377 123.107 20.4874 121.003C 19.5371 118.9 17.0778 117.972 14.9945 118.932C 12.9112 119.891 11.9927 122.375 12.943 124.479C 13.8933 126.583 16.3525 127.51 18.4359 126.551Z"/>
<path id="path26_fill" d="M 44.0043 143.922C 46.0876 142.962 47.0061 140.479 46.0558 138.375C 45.1055 136.271 42.6462 135.343 40.5629 136.303C 38.4796 137.263 37.5611 139.746 38.5114 141.85C 39.4617 143.954 41.9209 144.881 44.0043 143.922Z"/>
<path id="path27_fill" fill-rule="evenodd" d="M 18.4369 121.28C 24.7533 129.233 33.2879 135.088 42.9362 138.088L 41.5806 142.534C 31.0509 139.26 21.7366 132.87 14.8432 124.191L 18.4369 121.28Z"/>
<path id="path28_fill" d="M 123.493 103.188C 124.724 101.238 124.156 98.6492 122.225 97.4064C 120.294 96.1636 117.731 96.7369 116.501 98.687C 115.27 100.637 115.838 103.225 117.769 104.468C 119.7 105.711 122.263 105.138 123.493 103.188Z"/>
<path id="path29_fill" d="M 124.01 72.0693C 125.241 70.1192 124.673 67.5309 122.742 66.2881C 120.811 65.0453 118.248 65.6186 117.018 67.5687C 115.787 69.5188 116.355 72.1071 118.286 73.3499C 120.217 74.5927 122.78 74.0194 124.01 72.0693Z"/>
<path id="path30_fill" fill-rule="evenodd" d="M 117.843 100.26C 121.013 90.5801 121.233 80.1618 118.473 70.3541L 122.905 69.0827C 125.916 79.7864 125.677 91.1563 122.217 101.721L 117.843 100.26Z"/>
<path id="path31_fill" fill-rule="evenodd" d="M 84.7451 136.817C 93.4413 133.072 101.089 127.22 107.013 119.78L 110.603 122.695C 104.205 130.731 95.9448 137.051 86.5522 141.096C 77.1597 145.141 66.9247 146.786 56.7529 145.885L 57.1553 141.251C 66.573 142.085 76.049 140.562 84.7451 136.817Z"/>
<path id="path32_fill" fill-rule="evenodd" d="M 62.2053 25.3547C 52.2812 25.3523 42.5249 27.9401 33.8828 32.8669C 25.2406 37.7938 18.006 44.8925 12.8807 53.4746C 7.75541 62.0566 4.91336 71.8306 4.63024 81.8486C 4.34711 91.8665 6.63253 101.788 11.2648 110.652L 7.19066 112.823C 2.1878 103.251 -0.280454 92.5352 0.0253185 81.7158C 0.331091 70.8965 3.40051 60.3405 8.93585 51.0719C 14.4712 41.8033 22.2845 34.1367 31.618 28.8157C 40.9515 23.4947 51.4883 20.6999 62.2064 20.7024L 62.2053 25.3547Z"/>
<path id="path33_fill" fill-rule="evenodd" d="M 116.669 7.65259C 115.343 6.758 113.784 6.28051 112.19 6.28051L 112.19 1.62828C 114.695 1.62828 117.145 2.37862 119.228 3.7844C 121.311 5.19018 122.935 7.18828 123.894 9.52601C 124.853 11.8637 125.104 14.4361 124.615 16.9178C 124.126 19.3996 122.919 21.6792 121.148 23.4684C 119.376 25.2576 117.119 26.4761 114.661 26.9697C 112.204 27.4634 109.656 27.21 107.341 26.2417C 105.027 25.2734 103.048 23.6336 101.656 21.5297C 100.264 19.4258 99.5209 16.9523 99.5209 14.4219L 104.128 14.4219C 104.128 16.0321 104.601 17.6062 105.486 18.945C 106.372 20.2839 107.631 21.3274 109.104 21.9436C 110.578 22.5598 112.199 22.721 113.762 22.4069C 115.326 22.0928 116.763 21.3174 117.89 20.1788C 119.018 19.0402 119.785 17.5895 120.097 16.0102C 120.408 14.4309 120.248 12.794 119.638 11.3063C 119.028 9.81869 117.994 8.54718 116.669 7.65259Z"/>
<path id="path34_fill" fill-rule="evenodd" d="M 102.285 129.765L 102.285 134.914L 102.285 134.915C 102.286 135.982 102.495 137.039 102.901 138.024C 103.307 139.01 103.902 139.905 104.651 140.658L 101.402 143.956C 100.223 142.771 99.2864 141.362 98.6474 139.811C 98.0084 138.26 97.679 136.596 97.6782 134.916L 97.6782 129.765L 102.285 129.765Z"/>
<path id="path35_fill" fill-rule="evenodd" d="M 117.793 137.094C 118.199 136.108 118.408 135.051 118.409 133.983L 123.016 133.985C 123.015 135.666 122.685 137.329 122.046 138.881C 121.408 140.431 120.472 141.839 119.294 143.023C 118.912 143.41 118.606 143.773 118.274 144.168L 118.231 144.218C 117.915 144.594 117.515 145.07 117.046 145.488C 115.905 146.503 114.555 147.011 112.65 147.011L 112.65 142.358C 113.594 142.358 113.815 142.162 113.999 141.998L 114.001 141.997C 114.186 141.832 114.383 141.608 114.736 141.188C 114.752 141.169 114.769 141.149 114.786 141.129C 115.107 140.747 115.52 140.256 116.038 139.732L 116.042 139.728C 116.792 138.975 117.387 138.08 117.793 137.094Z"/>
<path id="path36_fill" fill-rule="evenodd" d="M 118.409 133.984L 118.409 113.04L 123.016 113.04L 123.016 133.984L 118.409 133.984Z"/>
<path id="path37_fill" fill-rule="evenodd" d="M 66.6105 113.514C 71.0266 112.96 75.2673 111.429 79.0303 109.031L 81.4892 112.965C 77.1531 115.729 72.2667 117.492 67.1782 118.13C 62.0897 118.768 56.9244 118.265 52.0507 116.656L 53.4822 112.234C 57.7119 113.63 62.1945 114.067 66.6105 113.514Z"/>
<path id="path38_fill" fill-rule="evenodd" d="M 77.1749 56.4215C 72.7846 54.044 67.8797 52.8008 62.8979 52.8028L 62.896 48.1506C 68.6381 48.1482 74.2916 49.5812 79.3521 52.3216C 84.4125 55.0621 88.7226 59.0248 91.8978 63.8564C 95.0731 68.6879 97.0147 74.238 97.5496 80.0116C 98.0845 85.7852 97.196 91.6027 94.9633 96.9452L 90.719 95.1362C 92.656 90.5012 93.4269 85.454 92.9629 80.4449C 92.4988 75.4359 90.8142 70.6207 88.0594 66.4289C 85.3046 62.2371 81.5653 58.7991 77.1749 56.4215Z"/>
<path id="path39_fill" fill-rule="evenodd" d="M 48.7745 56.3414C 45.201 58.2575 42.044 60.8776 39.4903 64.0469C 36.9366 67.2161 35.0379 70.8702 33.9065 74.7931L 29.4835 73.4922C 30.7871 68.9723 32.9747 64.7621 35.9171 61.1105C 38.8594 57.459 42.4968 54.4401 46.6142 52.2324L 48.7745 56.3414Z"/>
<path id="path40_fill" d="M 52.762 118.632C 55.0518 118.632 56.9081 116.757 56.9081 114.445C 56.9081 112.133 55.0518 110.258 52.762 110.258C 50.4721 110.258 48.6158 112.133 48.6158 114.445C 48.6158 116.757 50.4721 118.632 52.762 118.632Z"/>
<path id="path41_fill" d="M 80.4027 115.375C 82.6926 115.375 84.5488 113.501 84.5488 111.188C 84.5488 108.876 82.6926 107.001 80.4027 107.001C 78.1129 107.001 76.2566 108.876 76.2566 111.188C 76.2566 113.501 78.1129 115.375 80.4027 115.375Z"/>
<path id="path42_fill" d="M 92.8411 99.5578C 95.1309 99.5578 96.9872 97.6832 96.9872 95.3708C 96.9872 93.0584 95.1309 91.1838 92.8411 91.1838C 90.5512 91.1838 88.6949 93.0584 88.6949 95.3708C 88.6949 97.6832 90.5512 99.5578 92.8411 99.5578Z"/>
<path id="path43_fill" d="M 63.8183 54.8964C 66.1081 54.8964 67.9644 53.0218 67.9644 50.7093C 67.9644 48.3969 66.1081 46.5223 63.8183 46.5223C 61.5284 46.5223 59.6721 48.3969 59.6721 50.7093C 59.6721 53.0218 61.5284 54.8964 63.8183 54.8964Z"/>
<path id="path44_fill" d="M 32.0314 78.1575C 34.3212 78.1575 36.1775 76.2829 36.1775 73.9705C 36.1775 71.6581 34.3212 69.7835 32.0314 69.7835C 29.7416 69.7835 27.8853 71.6581 27.8853 73.9705C 27.8853 76.2829 29.7416 78.1575 32.0314 78.1575Z"/>
<path id="path45_fill" d="M 48.1552 58.1529C 50.445 58.1529 52.3013 56.2783 52.3013 53.9659C 52.3013 51.6535 50.445 49.7789 48.1552 49.7789C 45.8653 49.7789 44.009 51.6535 44.009 53.9659C 44.009 56.2783 45.8653 58.1529 48.1552 58.1529Z"/>
</defs>
</svg>
<svg width="125" height="148" viewBox="0 0 125 148" version="1.1" xmlns="http://www.w3.org/2000/svg" xmlns:xlink="http://www.w3.org/1999/xlink">
<title>a5@3x</title>
<desc>Created using Figma</desc>
<g id="Canvas" transform="translate(2236 230)">
<g id="a5@3x">
<g id="&#208;&#160;&#208;&#181;&#209;&#129;&#209;&#131;&#209;&#128;&#209;&#129; 8@1x">
<g id="&#208;&#161;&#208;&#187;&#208;&#190;&#208;&#185; 2">
<g id="&#208;&#161;&#208;&#187;&#208;&#190;&#208;&#185; 1">
<g id="Vector">
<use xlink:href="#path0_fill" transform="translate(-2236 -230)" fill="#F2F2F2"/>
<use xlink:href="#path1_fill" transform="translate(-2236 -230)" fill="#F2F2F2"/>
<use xlink:href="#path2_fill" transform="translate(-2236 -230)" fill="#F2F2F2"/>
<use xlink:href="#path3_fill" transform="translate(-2236 -230)" fill="#F2F2F2"/>
<use xlink:href="#path4_fill" transform="translate(-2236 -230)" fill="#F2F2F2"/>
<use xlink:href="#path5_fill" transform="translate(-2236 -230)" fill="#F2F2F2"/>
<use xlink:href="#path6_fill" transform="translate(-2236 -230)" fill="#F2F2F2"/>
<use xlink:href="#path7_fill" transform="translate(-2236 -230)" fill="#F2F2F2"/>
<use xlink:href="#path8_fill" transform="translate(-2236 -230)" fill="#F2F2F2"/>
<use xlink:href="#path9_fill" transform="translate(-2236 -230)" fill="#F2F2F2"/>
<use xlink:href="#path10_fill" transform="translate(-2236 -230)" fill="#F2F2F2"/>
<use xlink:href="#path11_fill" transform="translate(-2236 -230)" fill="#F2F2F2"/>
<use xlink:href="#path12_fill" transform="translate(-2236 -230)" fill="#F2F2F2"/>
<use xlink:href="#path13_fill" transform="translate(-2236 -230)" fill="#F2F2F2"/>
<use xlink:href="#path14_fill" transform="translate(-2236 -230)" fill="#F2F2F2"/>
<use xlink:href="#path15_fill" transform="translate(-2236 -230)" fill="#F2F2F2"/>
<use xlink:href="#path16_fill" transform="translate(-2236 -230)" fill="#F2F2F2"/>
<use xlink:href="#path17_fill" transform="translate(-2236 -230)" fill="#F2F2F2"/>
<use xlink:href="#path18_fill" transform="translate(-2236 -230)" fill="#F2F2F2"/>
<use xlink:href="#path19_fill" transform="translate(-2236 -230)" fill="#F2F2F2"/>
<use xlink:href="#path20_fill" transform="translate(-2236 -230)" fill="#F2F2F2"/>
<use xlink:href="#path21_fill" transform="translate(-2236 -230)" fill="#F2F2F2"/>
<use xlink:href="#path22_fill" transform="translate(-2236 -230)" fill="#F2F2F2"/>
<use xlink:href="#path23_fill" transform="translate(-2236 -230)" fill="#F2F2F2"/>
<use xlink:href="#path24_fill" transform="translate(-2236 -230)" fill="#F2F2F2"/>
<use xlink:href="#path25_fill" transform="translate(-2236 -230)" fill="#F2F2F2"/>
<use xlink:href="#path26_fill" transform="translate(-2236 -230)" fill="#F2F2F2"/>
<use xlink:href="#path27_fill" transform="translate(-2236 -230)" fill="#F2F2F2"/>
<use xlink:href="#path28_fill" transform="translate(-2236 -230)" fill="#F2F2F2"/>
<use xlink:href="#path29_fill" transform="translate(-2236 -230)" fill="#F2F2F2"/>
<use xlink:href="#path30_fill" transform="translate(-2236 -230)" fill="#F2F2F2"/>
<use xlink:href="#path31_fill" transform="translate(-2236 -230)" fill="#F2F2F2"/>
<use xlink:href="#path32_fill" transform="translate(-2236 -230)" fill="#F2F2F2"/>
<use xlink:href="#path33_fill" transform="translate(-2236 -230)" fill="#F2F2F2"/>
<use xlink:href="#path34_fill" transform="translate(-2236 -230)" fill="#F2F2F2"/>
<use xlink:href="#path35_fill" transform="translate(-2236 -230)" fill="#F2F2F2"/>
<use xlink:href="#path36_fill" transform="translate(-2236 -230)" fill="#F2F2F2"/>
<use xlink:href="#path37_fill" transform="translate(-2236 -230)" fill="#F2F2F2"/>
<use xlink:href="#path38_fill" transform="translate(-2236 -230)" fill="#F2F2F2"/>
<use xlink:href="#path39_fill" transform="translate(-2236 -230)" fill="#F2F2F2"/>
<use xlink:href="#path40_fill" transform="translate(-2236 -230)" fill="#F2F2F2"/>
<use xlink:href="#path41_fill" transform="translate(-2236 -230)" fill="#F2F2F2"/>
<use xlink:href="#path42_fill" transform="translate(-2236 -230)" fill="#F2F2F2"/>
<use xlink:href="#path43_fill" transform="translate(-2236 -230)" fill="#F2F2F2"/>
<use xlink:href="#path44_fill" transform="translate(-2236 -230)" fill="#F2F2F2"/>
<use xlink:href="#path45_fill" transform="translate(-2236 -230)" fill="#F2F2F2"/>
</g>
</g>
</g>
</g>
</g>
</g>
<defs>
<path id="path0_fill" d="M 115.37 57.7638C 117.603 57.2492 118.999 55.0044 118.49 52.7499C 117.98 50.4955 115.757 49.0852 113.525 49.5999C 111.292 50.1145 109.896 52.3593 110.405 54.6137C 110.915 56.8682 113.138 58.2785 115.37 57.7638Z"/>
<path id="path1_fill" d="M 120.482 118.632C 122.772 118.632 124.628 116.757 124.628 114.445C 124.628 112.133 122.772 110.258 120.482 110.258C 118.192 110.258 116.336 112.133 116.336 114.445C 116.336 116.757 118.192 118.632 120.482 118.632Z"/>
<path id="path2_fill" d="M 114.493 147.941C 116.783 147.941 118.639 146.066 118.639 143.754C 118.639 141.442 116.783 139.567 114.493 139.567C 112.203 139.567 110.347 141.442 110.347 143.754C 110.347 146.066 112.203 147.941 114.493 147.941Z"/>
<path id="path3_fill" d="M 101.594 145.15C 103.884 145.15 105.74 143.275 105.74 140.963C 105.74 138.65 103.884 136.776 101.594 136.776C 99.3041 136.776 97.4479 138.65 97.4479 140.963C 97.4479 143.275 99.3041 145.15 101.594 145.15Z"/>
<path id="path4_fill" d="M 93.8104 35.533C 96.0428 35.0183 97.4394 32.7735 96.9298 30.5191C 96.4201 28.2647 94.1972 26.8544 91.9648 27.369C 89.7324 27.8837 88.3359 30.1285 88.8455 32.3829C 89.3552 34.6373 91.578 36.0477 93.8104 35.533Z"/>
<path id="path5_fill" d="M 102.055 18.6089C 104.344 18.6089 106.201 16.7343 106.201 14.4219C 106.201 12.1095 104.344 10.2349 102.055 10.2349C 99.7648 10.2349 97.9085 12.1095 97.9085 14.4219C 97.9085 16.7343 99.7648 18.6089 102.055 18.6089Z"/>
<path id="path6_fill" d="M 112.19 8.37402C 114.479 8.37402 116.336 6.49943 116.336 4.18701C 116.336 1.87459 114.479 0 112.19 0C 109.9 0 108.043 1.87459 108.043 4.18701C 108.043 6.49943 109.9 8.37402 112.19 8.37402Z"/>
<path id="path7_fill" d="M 113.309 121.283C 113.508 118.979 111.821 116.948 109.539 116.747C 107.258 116.546 105.248 118.25 105.048 120.554C 104.849 122.858 106.537 124.888 108.818 125.089C 111.099 125.291 113.11 123.586 113.309 121.283Z"/>
<path id="path8_fill" d="M 108.043 90.7185C 110.333 90.7185 112.19 88.844 112.19 86.5315C 112.19 84.2191 110.333 82.3445 108.043 82.3445C 105.754 82.3445 103.897 84.2191 103.897 86.5315C 103.897 88.844 105.754 90.7185 108.043 90.7185Z"/>
<path id="path9_fill" d="M 52.762 133.519C 55.0518 133.519 56.9081 131.645 56.9081 129.332C 56.9081 127.02 55.0518 125.145 52.762 125.145C 50.4721 125.145 48.6158 127.02 48.6158 129.332C 48.6158 131.645 50.4721 133.519 52.762 133.519Z"/>
<path id="path10_fill" d="M 30.6493 121.889C 32.9392 121.889 34.7955 120.014 34.7955 117.701C 34.7955 115.389 32.9392 113.514 30.6493 113.514C 28.3595 113.514 26.5032 115.389 26.5032 117.701C 26.5032 120.014 28.3595 121.889 30.6493 121.889Z"/>
<path id="path11_fill" d="M 65.2003 134.45C 67.4901 134.45 69.3464 132.575 69.3464 130.263C 69.3464 127.95 67.4901 126.076 65.2003 126.076C 62.9105 126.076 61.0542 127.95 61.0542 130.263C 61.0542 132.575 62.9105 134.45 65.2003 134.45Z"/>
<path id="path12_fill" d="M 61.2961 144.177C 61.4953 141.873 59.8075 139.843 57.5264 139.642C 55.2452 139.44 53.2345 141.145 53.0353 143.449C 52.8361 145.752 54.5239 147.783 56.8051 147.984C 59.0862 148.185 61.0969 146.481 61.2961 144.177Z"/>
<path id="path13_fill" d="M 21.4358 108.862C 23.7256 108.862 25.5819 106.988 25.5819 104.675C 25.5819 102.363 23.7256 100.488 21.4358 100.488C 19.1459 100.488 17.2896 102.363 17.2896 104.675C 17.2896 106.988 19.1459 108.862 21.4358 108.862Z"/>
<path id="path14_fill" d="M 55.0936 40.1717C 56.0023 38.0491 55.035 35.5846 52.9332 34.6669C 50.8314 33.7493 48.3909 34.7261 47.4822 36.8486C 46.5735 38.9712 47.5408 41.4358 49.6426 42.3534C 51.7444 43.271 54.1849 42.2942 55.0936 40.1717Z"/>
<path id="path15_fill" d="M 104.027 59.5075C 104.936 57.3849 103.969 54.9204 101.867 54.0027C 99.7651 53.0851 97.3246 54.0619 96.4159 56.1844C 95.5072 58.307 96.4745 60.7715 98.5763 61.6892C 100.678 62.6068 103.119 61.63 104.027 59.5075Z"/>
<path id="path16_fill" d="M 8.99742 115.841C 11.2873 115.841 13.1435 113.966 13.1435 111.654C 13.1435 109.341 11.2873 107.467 8.99742 107.467C 6.70758 107.467 4.8513 109.341 4.8513 111.654C 4.8513 113.966 6.70758 115.841 8.99742 115.841Z"/>
<path id="path17_fill" d="M 62.4362 27.4482C 64.7261 27.4482 66.5823 25.5736 66.5823 23.2612C 66.5823 20.9487 64.7261 19.0742 62.4362 19.0742C 60.1464 19.0742 58.2901 20.9487 58.2901 23.2612C 58.2901 25.5736 60.1464 27.4482 62.4362 27.4482Z"/>
<path id="path18_fill" fill-rule="evenodd" d="M 78.1706 42.4379C 69.8285 39.1657 60.6937 38.5533 51.9964 40.6834L 50.9107 36.1622C 60.523 33.808 70.6188 34.4848 79.8386 38.1014C 89.0585 41.7179 96.9596 48.1005 102.478 56.3898L 98.655 58.9855C 93.6618 51.4853 86.5128 45.7102 78.1706 42.4379Z"/>
<path id="path19_fill" fill-rule="evenodd" d="M 30.7575 52.8753C 24.52 59.3533 20.3972 67.6055 18.9442 76.5212C 17.4911 85.4369 18.7775 94.5881 22.6302 102.743L 18.4724 104.746C 14.2143 95.7334 12.7926 85.6194 14.3985 75.7656C 16.0044 65.9119 20.5609 56.7916 27.4548 49.632L 30.7575 52.8753Z"/>
<path id="path20_fill" fill-rule="evenodd" d="M 33.8878 117.325C 40.2714 122.809 48.0862 126.316 56.3947 127.426L 55.7907 132.038C 46.6033 130.811 37.9617 126.933 30.9029 120.869L 33.8878 117.325Z"/>
<path id="path21_fill" fill-rule="evenodd" d="M 18.4414 83.5112C 18.4306 90.5582 20.0963 97.5047 23.2982 103.766L 19.2049 105.901C 15.6645 98.9772 13.8227 91.2962 13.8346 83.504L 18.4414 83.5112Z"/>
<path id="path22_fill" d="M 30.2703 55.9444C 31.7358 54.1639 31.4944 51.5207 29.7313 50.0407C 27.9681 48.5608 25.3507 48.8045 23.8853 50.5851C 22.4198 52.3656 22.6611 55.0088 24.4242 56.4887C 26.1874 57.9687 28.8048 57.725 30.2703 55.9444Z"/>
<path id="path23_fill" fill-rule="evenodd" d="M 93.1521 114.759C 101.36 106.471 105.97 95.2291 105.97 83.5076L 110.577 83.5076C 110.577 96.463 105.481 108.888 96.4096 118.049C 87.3382 127.21 75.0348 132.356 62.2059 132.356L 62.2059 127.704C 73.813 127.704 84.9446 123.047 93.1521 114.759Z"/>
<path id="path24_fill" fill-rule="evenodd" d="M 112.465 54.7592C 107.871 45.6816 100.686 38.2051 91.838 33.2971L 94.056 29.2196C 103.712 34.5759 111.554 42.7354 116.567 52.6422L 112.465 54.7592Z"/>
<path id="path25_fill" d="M 18.4359 126.551C 20.5192 125.591 21.4377 123.107 20.4874 121.003C 19.5371 118.9 17.0778 117.972 14.9945 118.932C 12.9112 119.891 11.9927 122.375 12.943 124.479C 13.8933 126.583 16.3525 127.51 18.4359 126.551Z"/>
<path id="path26_fill" d="M 44.0043 143.922C 46.0876 142.962 47.0061 140.479 46.0558 138.375C 45.1055 136.271 42.6462 135.343 40.5629 136.303C 38.4796 137.263 37.5611 139.746 38.5114 141.85C 39.4617 143.954 41.9209 144.881 44.0043 143.922Z"/>
<path id="path27_fill" fill-rule="evenodd" d="M 18.4369 121.28C 24.7533 129.233 33.2879 135.088 42.9362 138.088L 41.5806 142.534C 31.0509 139.26 21.7366 132.87 14.8432 124.191L 18.4369 121.28Z"/>
<path id="path28_fill" d="M 123.493 103.188C 124.724 101.238 124.156 98.6492 122.225 97.4064C 120.294 96.1636 117.731 96.7369 116.501 98.687C 115.27 100.637 115.838 103.225 117.769 104.468C 119.7 105.711 122.263 105.138 123.493 103.188Z"/>
<path id="path29_fill" d="M 124.01 72.0693C 125.241 70.1192 124.673 67.5309 122.742 66.2881C 120.811 65.0453 118.248 65.6186 117.018 67.5687C 115.787 69.5188 116.355 72.1071 118.286 73.3499C 120.217 74.5927 122.78 74.0194 124.01 72.0693Z"/>
<path id="path30_fill" fill-rule="evenodd" d="M 117.843 100.26C 121.013 90.5801 121.233 80.1618 118.473 70.3541L 122.905 69.0827C 125.916 79.7864 125.677 91.1563 122.217 101.721L 117.843 100.26Z"/>
<path id="path31_fill" fill-rule="evenodd" d="M 84.7451 136.817C 93.4413 133.072 101.089 127.22 107.013 119.78L 110.603 122.695C 104.205 130.731 95.9448 137.051 86.5522 141.096C 77.1597 145.141 66.9247 146.786 56.7529 145.885L 57.1553 141.251C 66.573 142.085 76.049 140.562 84.7451 136.817Z"/>
<path id="path32_fill" fill-rule="evenodd" d="M 62.2053 25.3547C 52.2812 25.3523 42.5249 27.9401 33.8828 32.8669C 25.2406 37.7938 18.006 44.8925 12.8807 53.4746C 7.75541 62.0566 4.91336 71.8306 4.63024 81.8486C 4.34711 91.8665 6.63253 101.788 11.2648 110.652L 7.19066 112.823C 2.1878 103.251 -0.280454 92.5352 0.0253185 81.7158C 0.331091 70.8965 3.40051 60.3405 8.93585 51.0719C 14.4712 41.8033 22.2845 34.1367 31.618 28.8157C 40.9515 23.4947 51.4883 20.6999 62.2064 20.7024L 62.2053 25.3547Z"/>
<path id="path33_fill" fill-rule="evenodd" d="M 116.669 7.65259C 115.343 6.758 113.784 6.28051 112.19 6.28051L 112.19 1.62828C 114.695 1.62828 117.145 2.37862 119.228 3.7844C 121.311 5.19018 122.935 7.18828 123.894 9.52601C 124.853 11.8637 125.104 14.4361 124.615 16.9178C 124.126 19.3996 122.919 21.6792 121.148 23.4684C 119.376 25.2576 117.119 26.4761 114.661 26.9697C 112.204 27.4634 109.656 27.21 107.341 26.2417C 105.027 25.2734 103.048 23.6336 101.656 21.5297C 100.264 19.4258 99.5209 16.9523 99.5209 14.4219L 104.128 14.4219C 104.128 16.0321 104.601 17.6062 105.486 18.945C 106.372 20.2839 107.631 21.3274 109.104 21.9436C 110.578 22.5598 112.199 22.721 113.762 22.4069C 115.326 22.0928 116.763 21.3174 117.89 20.1788C 119.018 19.0402 119.785 17.5895 120.097 16.0102C 120.408 14.4309 120.248 12.794 119.638 11.3063C 119.028 9.81869 117.994 8.54718 116.669 7.65259Z"/>
<path id="path34_fill" fill-rule="evenodd" d="M 102.285 129.765L 102.285 134.914L 102.285 134.915C 102.286 135.982 102.495 137.039 102.901 138.024C 103.307 139.01 103.902 139.905 104.651 140.658L 101.402 143.956C 100.223 142.771 99.2864 141.362 98.6474 139.811C 98.0084 138.26 97.679 136.596 97.6782 134.916L 97.6782 129.765L 102.285 129.765Z"/>
<path id="path35_fill" fill-rule="evenodd" d="M 117.793 137.094C 118.199 136.108 118.408 135.051 118.409 133.983L 123.016 133.985C 123.015 135.666 122.685 137.329 122.046 138.881C 121.408 140.431 120.472 141.839 119.294 143.023C 118.912 143.41 118.606 143.773 118.274 144.168L 118.231 144.218C 117.915 144.594 117.515 145.07 117.046 145.488C 115.905 146.503 114.555 147.011 112.65 147.011L 112.65 142.358C 113.594 142.358 113.815 142.162 113.999 141.998L 114.001 141.997C 114.186 141.832 114.383 141.608 114.736 141.188C 114.752 141.169 114.769 141.149 114.786 141.129C 115.107 140.747 115.52 140.256 116.038 139.732L 116.042 139.728C 116.792 138.975 117.387 138.08 117.793 137.094Z"/>
<path id="path36_fill" fill-rule="evenodd" d="M 118.409 133.984L 118.409 113.04L 123.016 113.04L 123.016 133.984L 118.409 133.984Z"/>
<path id="path37_fill" fill-rule="evenodd" d="M 66.6105 113.514C 71.0266 112.96 75.2673 111.429 79.0303 109.031L 81.4892 112.965C 77.1531 115.729 72.2667 117.492 67.1782 118.13C 62.0897 118.768 56.9244 118.265 52.0507 116.656L 53.4822 112.234C 57.7119 113.63 62.1945 114.067 66.6105 113.514Z"/>
<path id="path38_fill" fill-rule="evenodd" d="M 77.1749 56.4215C 72.7846 54.044 67.8797 52.8008 62.8979 52.8028L 62.896 48.1506C 68.6381 48.1482 74.2916 49.5812 79.3521 52.3216C 84.4125 55.0621 88.7226 59.0248 91.8978 63.8564C 95.0731 68.6879 97.0147 74.238 97.5496 80.0116C 98.0845 85.7852 97.196 91.6027 94.9633 96.9452L 90.719 95.1362C 92.656 90.5012 93.4269 85.454 92.9629 80.4449C 92.4988 75.4359 90.8142 70.6207 88.0594 66.4289C 85.3046 62.2371 81.5653 58.7991 77.1749 56.4215Z"/>
<path id="path39_fill" fill-rule="evenodd" d="M 48.7745 56.3414C 45.201 58.2575 42.044 60.8776 39.4903 64.0469C 36.9366 67.2161 35.0379 70.8702 33.9065 74.7931L 29.4835 73.4922C 30.7871 68.9723 32.9747 64.7621 35.9171 61.1105C 38.8594 57.459 42.4968 54.4401 46.6142 52.2324L 48.7745 56.3414Z"/>
<path id="path40_fill" d="M 52.762 118.632C 55.0518 118.632 56.9081 116.757 56.9081 114.445C 56.9081 112.133 55.0518 110.258 52.762 110.258C 50.4721 110.258 48.6158 112.133 48.6158 114.445C 48.6158 116.757 50.4721 118.632 52.762 118.632Z"/>
<path id="path41_fill" d="M 80.4027 115.375C 82.6926 115.375 84.5488 113.501 84.5488 111.188C 84.5488 108.876 82.6926 107.001 80.4027 107.001C 78.1129 107.001 76.2566 108.876 76.2566 111.188C 76.2566 113.501 78.1129 115.375 80.4027 115.375Z"/>
<path id="path42_fill" d="M 92.8411 99.5578C 95.1309 99.5578 96.9872 97.6832 96.9872 95.3708C 96.9872 93.0584 95.1309 91.1838 92.8411 91.1838C 90.5512 91.1838 88.6949 93.0584 88.6949 95.3708C 88.6949 97.6832 90.5512 99.5578 92.8411 99.5578Z"/>
<path id="path43_fill" d="M 63.8183 54.8964C 66.1081 54.8964 67.9644 53.0218 67.9644 50.7093C 67.9644 48.3969 66.1081 46.5223 63.8183 46.5223C 61.5284 46.5223 59.6721 48.3969 59.6721 50.7093C 59.6721 53.0218 61.5284 54.8964 63.8183 54.8964Z"/>
<path id="path44_fill" d="M 32.0314 78.1575C 34.3212 78.1575 36.1775 76.2829 36.1775 73.9705C 36.1775 71.6581 34.3212 69.7835 32.0314 69.7835C 29.7416 69.7835 27.8853 71.6581 27.8853 73.9705C 27.8853 76.2829 29.7416 78.1575 32.0314 78.1575Z"/>
<path id="path45_fill" d="M 48.1552 58.1529C 50.445 58.1529 52.3013 56.2783 52.3013 53.9659C 52.3013 51.6535 50.445 49.7789 48.1552 49.7789C 45.8653 49.7789 44.009 51.6535 44.009 53.9659C 44.009 56.2783 45.8653 58.1529 48.1552 58.1529Z"/>
</defs>
</svg>
<svg width="125" height="148" viewBox="0 0 125 148" version="1.1" xmlns="http://www.w3.org/2000/svg" xmlns:xlink="http://www.w3.org/1999/xlink">
<title>a5@3x</title>
<desc>Created using Figma</desc>
<g id="Canvas" transform="translate(2236 230)">
<g id="a5@3x">
<g id="&#208;&#160;&#208;&#181;&#209;&#129;&#209;&#131;&#209;&#128;&#209;&#129; 8@1x">
<g id="&#208;&#161;&#208;&#187;&#208;&#190;&#208;&#185; 2">
<g id="&#208;&#161;&#208;&#187;&#208;&#190;&#208;&#185; 1">
<g id="Vector">
<use xlink:href="#path0_fill" transform="translate(-2236 -230)" fill="#F2F2F2"/>
<use xlink:href="#path1_fill" transform="translate(-2236 -230)" fill="#F2F2F2"/>
<use xlink:href="#path2_fill" transform="translate(-2236 -230)" fill="#F2F2F2"/>
<use xlink:href="#path3_fill" transform="translate(-2236 -230)" fill="#F2F2F2"/>
<use xlink:href="#path4_fill" transform="translate(-2236 -230)" fill="#F2F2F2"/>
<use xlink:href="#path5_fill" transform="translate(-2236 -230)" fill="#F2F2F2"/>
<use xlink:href="#path6_fill" transform="translate(-2236 -230)" fill="#F2F2F2"/>
<use xlink:href="#path7_fill" transform="translate(-2236 -230)" fill="#F2F2F2"/>
<use xlink:href="#path8_fill" transform="translate(-2236 -230)" fill="#F2F2F2"/>
<use xlink:href="#path9_fill" transform="translate(-2236 -230)" fill="#F2F2F2"/>
<use xlink:href="#path10_fill" transform="translate(-2236 -230)" fill="#F2F2F2"/>
<use xlink:href="#path11_fill" transform="translate(-2236 -230)" fill="#F2F2F2"/>
<use xlink:href="#path12_fill" transform="translate(-2236 -230)" fill="#F2F2F2"/>
<use xlink:href="#path13_fill" transform="translate(-2236 -230)" fill="#F2F2F2"/>
<use xlink:href="#path14_fill" transform="translate(-2236 -230)" fill="#F2F2F2"/>
<use xlink:href="#path15_fill" transform="translate(-2236 -230)" fill="#F2F2F2"/>
<use xlink:href="#path16_fill" transform="translate(-2236 -230)" fill="#F2F2F2"/>
<use xlink:href="#path17_fill" transform="translate(-2236 -230)" fill="#F2F2F2"/>
<use xlink:href="#path18_fill" transform="translate(-2236 -230)" fill="#F2F2F2"/>
<use xlink:href="#path19_fill" transform="translate(-2236 -230)" fill="#F2F2F2"/>
<use xlink:href="#path20_fill" transform="translate(-2236 -230)" fill="#F2F2F2"/>
<use xlink:href="#path21_fill" transform="translate(-2236 -230)" fill="#F2F2F2"/>
<use xlink:href="#path22_fill" transform="translate(-2236 -230)" fill="#F2F2F2"/>
<use xlink:href="#path23_fill" transform="translate(-2236 -230)" fill="#F2F2F2"/>
<use xlink:href="#path24_fill" transform="translate(-2236 -230)" fill="#F2F2F2"/>
<use xlink:href="#path25_fill" transform="translate(-2236 -230)" fill="#F2F2F2"/>
<use xlink:href="#path26_fill" transform="translate(-2236 -230)" fill="#F2F2F2"/>
<use xlink:href="#path27_fill" transform="translate(-2236 -230)" fill="#F2F2F2"/>
<use xlink:href="#path28_fill" transform="translate(-2236 -230)" fill="#F2F2F2"/>
<use xlink:href="#path29_fill" transform="translate(-2236 -230)" fill="#F2F2F2"/>
<use xlink:href="#path30_fill" transform="translate(-2236 -230)" fill="#F2F2F2"/>
<use xlink:href="#path31_fill" transform="translate(-2236 -230)" fill="#F2F2F2"/>
<use xlink:href="#path32_fill" transform="translate(-2236 -230)" fill="#F2F2F2"/>
<use xlink:href="#path33_fill" transform="translate(-2236 -230)" fill="#F2F2F2"/>
<use xlink:href="#path34_fill" transform="translate(-2236 -230)" fill="#F2F2F2"/>
<use xlink:href="#path35_fill" transform="translate(-2236 -230)" fill="#F2F2F2"/>
<use xlink:href="#path36_fill" transform="translate(-2236 -230)" fill="#F2F2F2"/>
<use xlink:href="#path37_fill" transform="translate(-2236 -230)" fill="#F2F2F2"/>
<use xlink:href="#path38_fill" transform="translate(-2236 -230)" fill="#F2F2F2"/>
<use xlink:href="#path39_fill" transform="translate(-2236 -230)" fill="#F2F2F2"/>
<use xlink:href="#path40_fill" transform="translate(-2236 -230)" fill="#F2F2F2"/>
<use xlink:href="#path41_fill" transform="translate(-2236 -230)" fill="#F2F2F2"/>
<use xlink:href="#path42_fill" transform="translate(-2236 -230)" fill="#F2F2F2"/>
<use xlink:href="#path43_fill" transform="translate(-2236 -230)" fill="#F2F2F2"/>
<use xlink:href="#path44_fill" transform="translate(-2236 -230)" fill="#F2F2F2"/>
<use xlink:href="#path45_fill" transform="translate(-2236 -230)" fill="#F2F2F2"/>
</g>
</g>
</g>
</g>
</g>
</g>
<defs>
<path id="path0_fill" d="M 115.37 57.7638C 117.603 57.2492 118.999 55.0044 118.49 52.7499C 117.98 50.4955 115.757 49.0852 113.525 49.5999C 111.292 50.1145 109.896 52.3593 110.405 54.6137C 110.915 56.8682 113.138 58.2785 115.37 57.7638Z"/>
<path id="path1_fill" d="M 120.482 118.632C 122.772 118.632 124.628 116.757 124.628 114.445C 124.628 112.133 122.772 110.258 120.482 110.258C 118.192 110.258 116.336 112.133 116.336 114.445C 116.336 116.757 118.192 118.632 120.482 118.632Z"/>
<path id="path2_fill" d="M 114.493 147.941C 116.783 147.941 118.639 146.066 118.639 143.754C 118.639 141.442 116.783 139.567 114.493 139.567C 112.203 139.567 110.347 141.442 110.347 143.754C 110.347 146.066 112.203 147.941 114.493 147.941Z"/>
<path id="path3_fill" d="M 101.594 145.15C 103.884 145.15 105.74 143.275 105.74 140.963C 105.74 138.65 103.884 136.776 101.594 136.776C 99.3041 136.776 97.4479 138.65 97.4479 140.963C 97.4479 143.275 99.3041 145.15 101.594 145.15Z"/>
<path id="path4_fill" d="M 93.8104 35.533C 96.0428 35.0183 97.4394 32.7735 96.9298 30.5191C 96.4201 28.2647 94.1972 26.8544 91.9648 27.369C 89.7324 27.8837 88.3359 30.1285 88.8455 32.3829C 89.3552 34.6373 91.578 36.0477 93.8104 35.533Z"/>
<path id="path5_fill" d="M 102.055 18.6089C 104.344 18.6089 106.201 16.7343 106.201 14.4219C 106.201 12.1095 104.344 10.2349 102.055 10.2349C 99.7648 10.2349 97.9085 12.1095 97.9085 14.4219C 97.9085 16.7343 99.7648 18.6089 102.055 18.6089Z"/>
<path id="path6_fill" d="M 112.19 8.37402C 114.479 8.37402 116.336 6.49943 116.336 4.18701C 116.336 1.87459 114.479 0 112.19 0C 109.9 0 108.043 1.87459 108.043 4.18701C 108.043 6.49943 109.9 8.37402 112.19 8.37402Z"/>
<path id="path7_fill" d="M 113.309 121.283C 113.508 118.979 111.821 116.948 109.539 116.747C 107.258 116.546 105.248 118.25 105.048 120.554C 104.849 122.858 106.537 124.888 108.818 125.089C 111.099 125.291 113.11 123.586 113.309 121.283Z"/>
<path id="path8_fill" d="M 108.043 90.7185C 110.333 90.7185 112.19 88.844 112.19 86.5315C 112.19 84.2191 110.333 82.3445 108.043 82.3445C 105.754 82.3445 103.897 84.2191 103.897 86.5315C 103.897 88.844 105.754 90.7185 108.043 90.7185Z"/>
<path id="path9_fill" d="M 52.762 133.519C 55.0518 133.519 56.9081 131.645 56.9081 129.332C 56.9081 127.02 55.0518 125.145 52.762 125.145C 50.4721 125.145 48.6158 127.02 48.6158 129.332C 48.6158 131.645 50.4721 133.519 52.762 133.519Z"/>
<path id="path10_fill" d="M 30.6493 121.889C 32.9392 121.889 34.7955 120.014 34.7955 117.701C 34.7955 115.389 32.9392 113.514 30.6493 113.514C 28.3595 113.514 26.5032 115.389 26.5032 117.701C 26.5032 120.014 28.3595 121.889 30.6493 121.889Z"/>
<path id="path11_fill" d="M 65.2003 134.45C 67.4901 134.45 69.3464 132.575 69.3464 130.263C 69.3464 127.95 67.4901 126.076 65.2003 126.076C 62.9105 126.076 61.0542 127.95 61.0542 130.263C 61.0542 132.575 62.9105 134.45 65.2003 134.45Z"/>
<path id="path12_fill" d="M 61.2961 144.177C 61.4953 141.873 59.8075 139.843 57.5264 139.642C 55.2452 139.44 53.2345 141.145 53.0353 143.449C 52.8361 145.752 54.5239 147.783 56.8051 147.984C 59.0862 148.185 61.0969 146.481 61.2961 144.177Z"/>
<path id="path13_fill" d="M 21.4358 108.862C 23.7256 108.862 25.5819 106.988 25.5819 104.675C 25.5819 102.363 23.7256 100.488 21.4358 100.488C 19.1459 100.488 17.2896 102.363 17.2896 104.675C 17.2896 106.988 19.1459 108.862 21.4358 108.862Z"/>
<path id="path14_fill" d="M 55.0936 40.1717C 56.0023 38.0491 55.035 35.5846 52.9332 34.6669C 50.8314 33.7493 48.3909 34.7261 47.4822 36.8486C 46.5735 38.9712 47.5408 41.4358 49.6426 42.3534C 51.7444 43.271 54.1849 42.2942 55.0936 40.1717Z"/>
<path id="path15_fill" d="M 104.027 59.5075C 104.936 57.3849 103.969 54.9204 101.867 54.0027C 99.7651 53.0851 97.3246 54.0619 96.4159 56.1844C 95.5072 58.307 96.4745 60.7715 98.5763 61.6892C 100.678 62.6068 103.119 61.63 104.027 59.5075Z"/>
<path id="path16_fill" d="M 8.99742 115.841C 11.2873 115.841 13.1435 113.966 13.1435 111.654C 13.1435 109.341 11.2873 107.467 8.99742 107.467C 6.70758 107.467 4.8513 109.341 4.8513 111.654C 4.8513 113.966 6.70758 115.841 8.99742 115.841Z"/>
<path id="path17_fill" d="M 62.4362 27.4482C 64.7261 27.4482 66.5823 25.5736 66.5823 23.2612C 66.5823 20.9487 64.7261 19.0742 62.4362 19.0742C 60.1464 19.0742 58.2901 20.9487 58.2901 23.2612C 58.2901 25.5736 60.1464 27.4482 62.4362 27.4482Z"/>
<path id="path18_fill" fill-rule="evenodd" d="M 78.1706 42.4379C 69.8285 39.1657 60.6937 38.5533 51.9964 40.6834L 50.9107 36.1622C 60.523 33.808 70.6188 34.4848 79.8386 38.1014C 89.0585 41.7179 96.9596 48.1005 102.478 56.3898L 98.655 58.9855C 93.6618 51.4853 86.5128 45.7102 78.1706 42.4379Z"/>
<path id="path19_fill" fill-rule="evenodd" d="M 30.7575 52.8753C 24.52 59.3533 20.3972 67.6055 18.9442 76.5212C 17.4911 85.4369 18.7775 94.5881 22.6302 102.743L 18.4724 104.746C 14.2143 95.7334 12.7926 85.6194 14.3985 75.7656C 16.0044 65.9119 20.5609 56.7916 27.4548 49.632L 30.7575 52.8753Z"/>
<path id="path20_fill" fill-rule="evenodd" d="M 33.8878 117.325C 40.2714 122.809 48.0862 126.316 56.3947 127.426L 55.7907 132.038C 46.6033 130.811 37.9617 126.933 30.9029 120.869L 33.8878 117.325Z"/>
<path id="path21_fill" fill-rule="evenodd" d="M 18.4414 83.5112C 18.4306 90.5582 20.0963 97.5047 23.2982 103.766L 19.2049 105.901C 15.6645 98.9772 13.8227 91.2962 13.8346 83.504L 18.4414 83.5112Z"/>
<path id="path22_fill" d="M 30.2703 55.9444C 31.7358 54.1639 31.4944 51.5207 29.7313 50.0407C 27.9681 48.5608 25.3507 48.8045 23.8853 50.5851C 22.4198 52.3656 22.6611 55.0088 24.4242 56.4887C 26.1874 57.9687 28.8048 57.725 30.2703 55.9444Z"/>
<path id="path23_fill" fill-rule="evenodd" d="M 93.1521 114.759C 101.36 106.471 105.97 95.2291 105.97 83.5076L 110.577 83.5076C 110.577 96.463 105.481 108.888 96.4096 118.049C 87.3382 127.21 75.0348 132.356 62.2059 132.356L 62.2059 127.704C 73.813 127.704 84.9446 123.047 93.1521 114.759Z"/>
<path id="path24_fill" fill-rule="evenodd" d="M 112.465 54.7592C 107.871 45.6816 100.686 38.2051 91.838 33.2971L 94.056 29.2196C 103.712 34.5759 111.554 42.7354 116.567 52.6422L 112.465 54.7592Z"/>
<path id="path25_fill" d="M 18.4359 126.551C 20.5192 125.591 21.4377 123.107 20.4874 121.003C 19.5371 118.9 17.0778 117.972 14.9945 118.932C 12.9112 119.891 11.9927 122.375 12.943 124.479C 13.8933 126.583 16.3525 127.51 18.4359 126.551Z"/>
<path id="path26_fill" d="M 44.0043 143.922C 46.0876 142.962 47.0061 140.479 46.0558 138.375C 45.1055 136.271 42.6462 135.343 40.5629 136.303C 38.4796 137.263 37.5611 139.746 38.5114 141.85C 39.4617 143.954 41.9209 144.881 44.0043 143.922Z"/>
<path id="path27_fill" fill-rule="evenodd" d="M 18.4369 121.28C 24.7533 129.233 33.2879 135.088 42.9362 138.088L 41.5806 142.534C 31.0509 139.26 21.7366 132.87 14.8432 124.191L 18.4369 121.28Z"/>
<path id="path28_fill" d="M 123.493 103.188C 124.724 101.238 124.156 98.6492 122.225 97.4064C 120.294 96.1636 117.731 96.7369 116.501 98.687C 115.27 100.637 115.838 103.225 117.769 104.468C 119.7 105.711 122.263 105.138 123.493 103.188Z"/>
<path id="path29_fill" d="M 124.01 72.0693C 125.241 70.1192 124.673 67.5309 122.742 66.2881C 120.811 65.0453 118.248 65.6186 117.018 67.5687C 115.787 69.5188 116.355 72.1071 118.286 73.3499C 120.217 74.5927 122.78 74.0194 124.01 72.0693Z"/>
<path id="path30_fill" fill-rule="evenodd" d="M 117.843 100.26C 121.013 90.5801 121.233 80.1618 118.473 70.3541L 122.905 69.0827C 125.916 79.7864 125.677 91.1563 122.217 101.721L 117.843 100.26Z"/>
<path id="path31_fill" fill-rule="evenodd" d="M 84.7451 136.817C 93.4413 133.072 101.089 127.22 107.013 119.78L 110.603 122.695C 104.205 130.731 95.9448 137.051 86.5522 141.096C 77.1597 145.141 66.9247 146.786 56.7529 145.885L 57.1553 141.251C 66.573 142.085 76.049 140.562 84.7451 136.817Z"/>
<path id="path32_fill" fill-rule="evenodd" d="M 62.2053 25.3547C 52.2812 25.3523 42.5249 27.9401 33.8828 32.8669C 25.2406 37.7938 18.006 44.8925 12.8807 53.4746C 7.75541 62.0566 4.91336 71.8306 4.63024 81.8486C 4.34711 91.8665 6.63253 101.788 11.2648 110.652L 7.19066 112.823C 2.1878 103.251 -0.280454 92.5352 0.0253185 81.7158C 0.331091 70.8965 3.40051 60.3405 8.93585 51.0719C 14.4712 41.8033 22.2845 34.1367 31.618 28.8157C 40.9515 23.4947 51.4883 20.6999 62.2064 20.7024L 62.2053 25.3547Z"/>
<path id="path33_fill" fill-rule="evenodd" d="M 116.669 7.65259C 115.343 6.758 113.784 6.28051 112.19 6.28051L 112.19 1.62828C 114.695 1.62828 117.145 2.37862 119.228 3.7844C 121.311 5.19018 122.935 7.18828 123.894 9.52601C 124.853 11.8637 125.104 14.4361 124.615 16.9178C 124.126 19.3996 122.919 21.6792 121.148 23.4684C 119.376 25.2576 117.119 26.4761 114.661 26.9697C 112.204 27.4634 109.656 27.21 107.341 26.2417C 105.027 25.2734 103.048 23.6336 101.656 21.5297C 100.264 19.4258 99.5209 16.9523 99.5209 14.4219L 104.128 14.4219C 104.128 16.0321 104.601 17.6062 105.486 18.945C 106.372 20.2839 107.631 21.3274 109.104 21.9436C 110.578 22.5598 112.199 22.721 113.762 22.4069C 115.326 22.0928 116.763 21.3174 117.89 20.1788C 119.018 19.0402 119.785 17.5895 120.097 16.0102C 120.408 14.4309 120.248 12.794 119.638 11.3063C 119.028 9.81869 117.994 8.54718 116.669 7.65259Z"/>
<path id="path34_fill" fill-rule="evenodd" d="M 102.285 129.765L 102.285 134.914L 102.285 134.915C 102.286 135.982 102.495 137.039 102.901 138.024C 103.307 139.01 103.902 139.905 104.651 140.658L 101.402 143.956C 100.223 142.771 99.2864 141.362 98.6474 139.811C 98.0084 138.26 97.679 136.596 97.6782 134.916L 97.6782 129.765L 102.285 129.765Z"/>
<path id="path35_fill" fill-rule="evenodd" d="M 117.793 137.094C 118.199 136.108 118.408 135.051 118.409 133.983L 123.016 133.985C 123.015 135.666 122.685 137.329 122.046 138.881C 121.408 140.431 120.472 141.839 119.294 143.023C 118.912 143.41 118.606 143.773 118.274 144.168L 118.231 144.218C 117.915 144.594 117.515 145.07 117.046 145.488C 115.905 146.503 114.555 147.011 112.65 147.011L 112.65 142.358C 113.594 142.358 113.815 142.162 113.999 141.998L 114.001 141.997C 114.186 141.832 114.383 141.608 114.736 141.188C 114.752 141.169 114.769 141.149 114.786 141.129C 115.107 140.747 115.52 140.256 116.038 139.732L 116.042 139.728C 116.792 138.975 117.387 138.08 117.793 137.094Z"/>
<path id="path36_fill" fill-rule="evenodd" d="M 118.409 133.984L 118.409 113.04L 123.016 113.04L 123.016 133.984L 118.409 133.984Z"/>
<path id="path37_fill" fill-rule="evenodd" d="M 66.6105 113.514C 71.0266 112.96 75.2673 111.429 79.0303 109.031L 81.4892 112.965C 77.1531 115.729 72.2667 117.492 67.1782 118.13C 62.0897 118.768 56.9244 118.265 52.0507 116.656L 53.4822 112.234C 57.7119 113.63 62.1945 114.067 66.6105 113.514Z"/>
<path id="path38_fill" fill-rule="evenodd" d="M 77.1749 56.4215C 72.7846 54.044 67.8797 52.8008 62.8979 52.8028L 62.896 48.1506C 68.6381 48.1482 74.2916 49.5812 79.3521 52.3216C 84.4125 55.0621 88.7226 59.0248 91.8978 63.8564C 95.0731 68.6879 97.0147 74.238 97.5496 80.0116C 98.0845 85.7852 97.196 91.6027 94.9633 96.9452L 90.719 95.1362C 92.656 90.5012 93.4269 85.454 92.9629 80.4449C 92.4988 75.4359 90.8142 70.6207 88.0594 66.4289C 85.3046 62.2371 81.5653 58.7991 77.1749 56.4215Z"/>
<path id="path39_fill" fill-rule="evenodd" d="M 48.7745 56.3414C 45.201 58.2575 42.044 60.8776 39.4903 64.0469C 36.9366 67.2161 35.0379 70.8702 33.9065 74.7931L 29.4835 73.4922C 30.7871 68.9723 32.9747 64.7621 35.9171 61.1105C 38.8594 57.459 42.4968 54.4401 46.6142 52.2324L 48.7745 56.3414Z"/>
<path id="path40_fill" d="M 52.762 118.632C 55.0518 118.632 56.9081 116.757 56.9081 114.445C 56.9081 112.133 55.0518 110.258 52.762 110.258C 50.4721 110.258 48.6158 112.133 48.6158 114.445C 48.6158 116.757 50.4721 118.632 52.762 118.632Z"/>
<path id="path41_fill" d="M 80.4027 115.375C 82.6926 115.375 84.5488 113.501 84.5488 111.188C 84.5488 108.876 82.6926 107.001 80.4027 107.001C 78.1129 107.001 76.2566 108.876 76.2566 111.188C 76.2566 113.501 78.1129 115.375 80.4027 115.375Z"/>
<path id="path42_fill" d="M 92.8411 99.5578C 95.1309 99.5578 96.9872 97.6832 96.9872 95.3708C 96.9872 93.0584 95.1309 91.1838 92.8411 91.1838C 90.5512 91.1838 88.6949 93.0584 88.6949 95.3708C 88.6949 97.6832 90.5512 99.5578 92.8411 99.5578Z"/>
<path id="path43_fill" d="M 63.8183 54.8964C 66.1081 54.8964 67.9644 53.0218 67.9644 50.7093C 67.9644 48.3969 66.1081 46.5223 63.8183 46.5223C 61.5284 46.5223 59.6721 48.3969 59.6721 50.7093C 59.6721 53.0218 61.5284 54.8964 63.8183 54.8964Z"/>
<path id="path44_fill" d="M 32.0314 78.1575C 34.3212 78.1575 36.1775 76.2829 36.1775 73.9705C 36.1775 71.6581 34.3212 69.7835 32.0314 69.7835C 29.7416 69.7835 27.8853 71.6581 27.8853 73.9705C 27.8853 76.2829 29.7416 78.1575 32.0314 78.1575Z"/>
<path id="path45_fill" d="M 48.1552 58.1529C 50.445 58.1529 52.3013 56.2783 52.3013 53.9659C 52.3013 51.6535 50.445 49.7789 48.1552 49.7789C 45.8653 49.7789 44.009 51.6535 44.009 53.9659C 44.009 56.2783 45.8653 58.1529 48.1552 58.1529Z"/>
</defs>
</svg>
