<svg width="648" height="647" viewBox="0 0 648 647" version="1.1" xmlns="http://www.w3.org/2000/svg" xmlns:xlink="http://www.w3.org/1999/xlink">
<title>pie-chart-6</title>
<desc>Created using Figma</desc>
<g id="Canvas" transform="translate(3950 -11366)">
<g id="pie-chart-6">
<g id="Group">
<g id="Vector">
<use xlink:href="#path0_fill" transform="translate(-3950 11366)" fill="#FAFAFA"/>
</g>
<g id="Vector">
<use xlink:href="#path1_fill" transform="translate(-3610.71 11883.6)" fill="#FAFAFA"/>
</g>
<g id="Vector">
<use xlink:href="#path1_fill" transform="translate(-3567.37 11916)" fill="#FAFAFA"/>
</g>
<g id="Vector">
<use xlink:href="#path1_fill" transform="translate(-3534.99 11883.6)" fill="#FAFAFA"/>
</g>
<g id="Vector">
<use xlink:href="#path1_fill" transform="translate(-3675.4 11883.6)" fill="#FAFAFA"/>
</g>
<g id="Vector">
<use xlink:href="#path1_fill" transform="translate(-3643.07 11916)" fill="#FAFAFA"/>
</g>
<g id="Vector">
<use xlink:href="#path1_fill" transform="translate(-3824.8 11883.6)" fill="#FAFAFA"/>
</g>
<g id="Vector">
<use xlink:href="#path1_fill" transform="translate(-3751.1 11883.6)" fill="#FAFAFA"/>
</g>
<g id="Vector">
<use xlink:href="#path1_fill" transform="translate(-3783.45 11851.2)" fill="#FAFAFA"/>
</g>
<g id="Vector">
<use xlink:href="#path1_fill" transform="translate(-3757.45 11916)" fill="#FAFAFA"/>
</g>
<g id="Vector">
<use xlink:href="#path1_fill" transform="translate(-3718.75 11916)" fill="#FAFAFA"/>
</g>
<g id="Vector">
<use xlink:href="#path1_fill" transform="translate(-3502.64 11851.2)" fill="#FAFAFA"/>
</g>
<g id="Vector">
<use xlink:href="#path1_fill" transform="translate(-3502.64 11916)" fill="#FAFAFA"/>
</g>
<g id="Vector">
<use xlink:href="#path1_fill" transform="translate(-3459.29 11883.6)" fill="#FAFAFA"/>
</g>
<g id="Vector">
<use xlink:href="#path1_fill" transform="translate(-3610.71 11948.3)" fill="#FAFAFA"/>
</g>
<g id="Vector">
<use xlink:href="#path1_fill" transform="translate(-3534.99 11948.3)" fill="#FAFAFA"/>
</g>
<g id="Vector">
<use xlink:href="#path1_fill" transform="translate(-3675.4 11948.3)" fill="#FAFAFA"/>
</g>
<g id="Vector">
<use xlink:href="#path1_fill" transform="translate(-3751.1 11948.3)" fill="#FAFAFA"/>
</g>
</g>
</g>
</g>
<defs>
<path id="path0_fill" d="M 553.3 550.942C 611.185 492.453 647.008 412.096 647.008 323.5C 647.008 145.122 501.884 0 323.504 0C 145.124 0 0 145.122 0 323.5C 0 412.128 35.8442 492.507 93.773 550.996C 94.0965 551.438 94.2691 551.945 94.6681 552.344C 95.067 552.743 95.5739 552.915 96.0052 553.239C 154.495 611.156 234.885 647 323.504 647C 412.101 647 492.459 611.178 550.949 553.293C 551.413 552.959 551.941 552.775 552.362 552.355C 552.782 551.934 552.965 551.406 553.3 550.942ZM 625.441 323.5C 625.441 402.876 594.611 475.146 544.349 529.095L 460.335 445.082C 489.149 412.678 506.823 370.17 506.823 323.5C 506.823 226.062 430.347 146.362 334.287 140.733L 334.287 21.8363C 495.791 27.5514 625.441 160.629 625.441 323.5ZM 323.504 485.25C 234.314 485.25 161.752 412.689 161.752 323.5C 161.752 234.311 234.314 161.75 323.504 161.75C 412.694 161.75 485.256 234.311 485.256 323.5C 485.256 412.689 412.694 485.25 323.504 485.25ZM 312.721 21.8363L 312.721 140.723C 216.661 146.362 140.185 226.062 140.185 323.5C 140.185 370.17 157.859 412.678 186.673 445.082L 102.659 529.095C 52.3969 475.146 21.5669 402.876 21.5669 323.5C 21.5669 160.629 151.217 27.5514 312.721 21.8363ZM 312.721 614.65C 307.059 614.65 302.562 619.05 302.11 624.592C 286.129 623.471 270.492 621.098 255.288 617.572C 253.358 615.793 250.845 614.65 248.02 614.65C 247.125 614.65 246.327 614.952 245.496 615.157C 197.122 602.206 153.524 577.523 117.906 544.343L 201.92 460.33C 202.956 461.246 203.937 462.228 204.994 463.123C 204.994 463.317 204.886 463.478 204.886 463.683C 204.886 469.636 209.717 474.467 215.669 474.467C 216.802 474.467 217.848 474.143 218.872 473.82C 226.162 478.909 233.872 483.395 241.884 487.407C 239.145 489.358 237.236 492.41 237.236 496.033C 237.236 501.986 242.067 506.817 248.02 506.817C 253.972 506.817 258.803 501.986 258.803 496.033C 258.803 495.559 258.598 495.16 258.534 494.707C 278.763 502.406 300.6 506.817 323.504 506.817C 338.903 506.817 353.773 504.703 368.072 501.112C 369.905 504.455 373.334 506.817 377.421 506.817C 383.374 506.817 388.205 501.986 388.205 496.033C 388.205 495.624 388.021 495.279 387.978 494.89C 409.168 486.889 428.46 475.124 445.088 460.33L 529.102 544.343C 524.907 548.246 520.637 552.074 516.226 555.741C 514.404 552.344 510.942 549.95 506.823 549.95C 500.87 549.95 496.039 554.781 496.039 560.733C 496.039 563.86 497.409 566.61 499.533 568.584C 492.47 573.673 485.202 578.483 477.708 582.958C 476.672 582.624 475.616 582.3 474.473 582.3C 469.426 582.3 465.371 585.848 464.207 590.528C 439.836 603.414 413.524 613.097 385.811 618.931C 383.837 616.397 380.894 614.65 377.421 614.65C 372.601 614.65 368.665 617.863 367.285 622.22C 352.986 624.312 338.374 625.433 323.504 625.433C 323.504 619.481 318.673 614.65 312.721 614.65Z"/>
<path id="path1_fill" d="M 10.8053 21.5667C 16.7729 21.5667 21.6106 16.7388 21.6106 10.7833C 21.6106 4.82786 16.7729 0 10.8053 0C 4.83769 0 0 4.82786 0 10.7833C 0 16.7388 4.83769 21.5667 10.8053 21.5667Z"/>
</defs>
</svg>
<svg width="648" height="647" viewBox="0 0 648 647" version="1.1" xmlns="http://www.w3.org/2000/svg" xmlns:xlink="http://www.w3.org/1999/xlink">
<title>pie-chart-6</title>
<desc>Created using Figma</desc>
<g id="Canvas" transform="translate(3950 -11366)">
<g id="pie-chart-6">
<g id="Group">
<g id="Vector">
<use xlink:href="#path0_fill" transform="translate(-3950 11366)" fill="#FAFAFA"/>
</g>
<g id="Vector">
<use xlink:href="#path1_fill" transform="translate(-3610.71 11883.6)" fill="#FAFAFA"/>
</g>
<g id="Vector">
<use xlink:href="#path1_fill" transform="translate(-3567.37 11916)" fill="#FAFAFA"/>
</g>
<g id="Vector">
<use xlink:href="#path1_fill" transform="translate(-3534.99 11883.6)" fill="#FAFAFA"/>
</g>
<g id="Vector">
<use xlink:href="#path1_fill" transform="translate(-3675.4 11883.6)" fill="#FAFAFA"/>
</g>
<g id="Vector">
<use xlink:href="#path1_fill" transform="translate(-3643.07 11916)" fill="#FAFAFA"/>
</g>
<g id="Vector">
<use xlink:href="#path1_fill" transform="translate(-3824.8 11883.6)" fill="#FAFAFA"/>
</g>
<g id="Vector">
<use xlink:href="#path1_fill" transform="translate(-3751.1 11883.6)" fill="#FAFAFA"/>
</g>
<g id="Vector">
<use xlink:href="#path1_fill" transform="translate(-3783.45 11851.2)" fill="#FAFAFA"/>
</g>
<g id="Vector">
<use xlink:href="#path1_fill" transform="translate(-3757.45 11916)" fill="#FAFAFA"/>
</g>
<g id="Vector">
<use xlink:href="#path1_fill" transform="translate(-3718.75 11916)" fill="#FAFAFA"/>
</g>
<g id="Vector">
<use xlink:href="#path1_fill" transform="translate(-3502.64 11851.2)" fill="#FAFAFA"/>
</g>
<g id="Vector">
<use xlink:href="#path1_fill" transform="translate(-3502.64 11916)" fill="#FAFAFA"/>
</g>
<g id="Vector">
<use xlink:href="#path1_fill" transform="translate(-3459.29 11883.6)" fill="#FAFAFA"/>
</g>
<g id="Vector">
<use xlink:href="#path1_fill" transform="translate(-3610.71 11948.3)" fill="#FAFAFA"/>
</g>
<g id="Vector">
<use xlink:href="#path1_fill" transform="translate(-3534.99 11948.3)" fill="#FAFAFA"/>
</g>
<g id="Vector">
<use xlink:href="#path1_fill" transform="translate(-3675.4 11948.3)" fill="#FAFAFA"/>
</g>
<g id="Vector">
<use xlink:href="#path1_fill" transform="translate(-3751.1 11948.3)" fill="#FAFAFA"/>
</g>
</g>
</g>
</g>
<defs>
<path id="path0_fill" d="M 553.3 550.942C 611.185 492.453 647.008 412.096 647.008 323.5C 647.008 145.122 501.884 0 323.504 0C 145.124 0 0 145.122 0 323.5C 0 412.128 35.8442 492.507 93.773 550.996C 94.0965 551.438 94.2691 551.945 94.6681 552.344C 95.067 552.743 95.5739 552.915 96.0052 553.239C 154.495 611.156 234.885 647 323.504 647C 412.101 647 492.459 611.178 550.949 553.293C 551.413 552.959 551.941 552.775 552.362 552.355C 552.782 551.934 552.965 551.406 553.3 550.942ZM 625.441 323.5C 625.441 402.876 594.611 475.146 544.349 529.095L 460.335 445.082C 489.149 412.678 506.823 370.17 506.823 323.5C 506.823 226.062 430.347 146.362 334.287 140.733L 334.287 21.8363C 495.791 27.5514 625.441 160.629 625.441 323.5ZM 323.504 485.25C 234.314 485.25 161.752 412.689 161.752 323.5C 161.752 234.311 234.314 161.75 323.504 161.75C 412.694 161.75 485.256 234.311 485.256 323.5C 485.256 412.689 412.694 485.25 323.504 485.25ZM 312.721 21.8363L 312.721 140.723C 216.661 146.362 140.185 226.062 140.185 323.5C 140.185 370.17 157.859 412.678 186.673 445.082L 102.659 529.095C 52.3969 475.146 21.5669 402.876 21.5669 323.5C 21.5669 160.629 151.217 27.5514 312.721 21.8363ZM 312.721 614.65C 307.059 614.65 302.562 619.05 302.11 624.592C 286.129 623.471 270.492 621.098 255.288 617.572C 253.358 615.793 250.845 614.65 248.02 614.65C 247.125 614.65 246.327 614.952 245.496 615.157C 197.122 602.206 153.524 577.523 117.906 544.343L 201.92 460.33C 202.956 461.246 203.937 462.228 204.994 463.123C 204.994 463.317 204.886 463.478 204.886 463.683C 204.886 469.636 209.717 474.467 215.669 474.467C 216.802 474.467 217.848 474.143 218.872 473.82C 226.162 478.909 233.872 483.395 241.884 487.407C 239.145 489.358 237.236 492.41 237.236 496.033C 237.236 501.986 242.067 506.817 248.02 506.817C 253.972 506.817 258.803 501.986 258.803 496.033C 258.803 495.559 258.598 495.16 258.534 494.707C 278.763 502.406 300.6 506.817 323.504 506.817C 338.903 506.817 353.773 504.703 368.072 501.112C 369.905 504.455 373.334 506.817 377.421 506.817C 383.374 506.817 388.205 501.986 388.205 496.033C 388.205 495.624 388.021 495.279 387.978 494.89C 409.168 486.889 428.46 475.124 445.088 460.33L 529.102 544.343C 524.907 548.246 520.637 552.074 516.226 555.741C 514.404 552.344 510.942 549.95 506.823 549.95C 500.87 549.95 496.039 554.781 496.039 560.733C 496.039 563.86 497.409 566.61 499.533 568.584C 492.47 573.673 485.202 578.483 477.708 582.958C 476.672 582.624 475.616 582.3 474.473 582.3C 469.426 582.3 465.371 585.848 464.207 590.528C 439.836 603.414 413.524 613.097 385.811 618.931C 383.837 616.397 380.894 614.65 377.421 614.65C 372.601 614.65 368.665 617.863 367.285 622.22C 352.986 624.312 338.374 625.433 323.504 625.433C 323.504 619.481 318.673 614.65 312.721 614.65Z"/>
<path id="path1_fill" d="M 10.8053 21.5667C 16.7729 21.5667 21.6106 16.7388 21.6106 10.7833C 21.6106 4.82786 16.7729 0 10.8053 0C 4.83769 0 0 4.82786 0 10.7833C 0 16.7388 4.83769 21.5667 10.8053 21.5667Z"/>
</defs>
</svg>
<svg width="648" height="647" viewBox="0 0 648 647" version="1.1" xmlns="http://www.w3.org/2000/svg" xmlns:xlink="http://www.w3.org/1999/xlink">
<title>pie-chart-6</title>
<desc>Created using Figma</desc>
<g id="Canvas" transform="translate(3950 -11366)">
<g id="pie-chart-6">
<g id="Group">
<g id="Vector">
<use xlink:href="#path0_fill" transform="translate(-3950 11366)" fill="#FAFAFA"/>
</g>
<g id="Vector">
<use xlink:href="#path1_fill" transform="translate(-3610.71 11883.6)" fill="#FAFAFA"/>
</g>
<g id="Vector">
<use xlink:href="#path1_fill" transform="translate(-3567.37 11916)" fill="#FAFAFA"/>
</g>
<g id="Vector">
<use xlink:href="#path1_fill" transform="translate(-3534.99 11883.6)" fill="#FAFAFA"/>
</g>
<g id="Vector">
<use xlink:href="#path1_fill" transform="translate(-3675.4 11883.6)" fill="#FAFAFA"/>
</g>
<g id="Vector">
<use xlink:href="#path1_fill" transform="translate(-3643.07 11916)" fill="#FAFAFA"/>
</g>
<g id="Vector">
<use xlink:href="#path1_fill" transform="translate(-3824.8 11883.6)" fill="#FAFAFA"/>
</g>
<g id="Vector">
<use xlink:href="#path1_fill" transform="translate(-3751.1 11883.6)" fill="#FAFAFA"/>
</g>
<g id="Vector">
<use xlink:href="#path1_fill" transform="translate(-3783.45 11851.2)" fill="#FAFAFA"/>
</g>
<g id="Vector">
<use xlink:href="#path1_fill" transform="translate(-3757.45 11916)" fill="#FAFAFA"/>
</g>
<g id="Vector">
<use xlink:href="#path1_fill" transform="translate(-3718.75 11916)" fill="#FAFAFA"/>
</g>
<g id="Vector">
<use xlink:href="#path1_fill" transform="translate(-3502.64 11851.2)" fill="#FAFAFA"/>
</g>
<g id="Vector">
<use xlink:href="#path1_fill" transform="translate(-3502.64 11916)" fill="#FAFAFA"/>
</g>
<g id="Vector">
<use xlink:href="#path1_fill" transform="translate(-3459.29 11883.6)" fill="#FAFAFA"/>
</g>
<g id="Vector">
<use xlink:href="#path1_fill" transform="translate(-3610.71 11948.3)" fill="#FAFAFA"/>
</g>
<g id="Vector">
<use xlink:href="#path1_fill" transform="translate(-3534.99 11948.3)" fill="#FAFAFA"/>
</g>
<g id="Vector">
<use xlink:href="#path1_fill" transform="translate(-3675.4 11948.3)" fill="#FAFAFA"/>
</g>
<g id="Vector">
<use xlink:href="#path1_fill" transform="translate(-3751.1 11948.3)" fill="#FAFAFA"/>
</g>
</g>
</g>
</g>
<defs>
<path id="path0_fill" d="M 553.3 550.942C 611.185 492.453 647.008 412.096 647.008 323.5C 647.008 145.122 501.884 0 323.504 0C 145.124 0 0 145.122 0 323.5C 0 412.128 35.8442 492.507 93.773 550.996C 94.0965 551.438 94.2691 551.945 94.6681 552.344C 95.067 552.743 95.5739 552.915 96.0052 553.239C 154.495 611.156 234.885 647 323.504 647C 412.101 647 492.459 611.178 550.949 553.293C 551.413 552.959 551.941 552.775 552.362 552.355C 552.782 551.934 552.965 551.406 553.3 550.942ZM 625.441 323.5C 625.441 402.876 594.611 475.146 544.349 529.095L 460.335 445.082C 489.149 412.678 506.823 370.17 506.823 323.5C 506.823 226.062 430.347 146.362 334.287 140.733L 334.287 21.8363C 495.791 27.5514 625.441 160.629 625.441 323.5ZM 323.504 485.25C 234.314 485.25 161.752 412.689 161.752 323.5C 161.752 234.311 234.314 161.75 323.504 161.75C 412.694 161.75 485.256 234.311 485.256 323.5C 485.256 412.689 412.694 485.25 323.504 485.25ZM 312.721 21.8363L 312.721 140.723C 216.661 146.362 140.185 226.062 140.185 323.5C 140.185 370.17 157.859 412.678 186.673 445.082L 102.659 529.095C 52.3969 475.146 21.5669 402.876 21.5669 323.5C 21.5669 160.629 151.217 27.5514 312.721 21.8363ZM 312.721 614.65C 307.059 614.65 302.562 619.05 302.11 624.592C 286.129 623.471 270.492 621.098 255.288 617.572C 253.358 615.793 250.845 614.65 248.02 614.65C 247.125 614.65 246.327 614.952 245.496 615.157C 197.122 602.206 153.524 577.523 117.906 544.343L 201.92 460.33C 202.956 461.246 203.937 462.228 204.994 463.123C 204.994 463.317 204.886 463.478 204.886 463.683C 204.886 469.636 209.717 474.467 215.669 474.467C 216.802 474.467 217.848 474.143 218.872 473.82C 226.162 478.909 233.872 483.395 241.884 487.407C 239.145 489.358 237.236 492.41 237.236 496.033C 237.236 501.986 242.067 506.817 248.02 506.817C 253.972 506.817 258.803 501.986 258.803 496.033C 258.803 495.559 258.598 495.16 258.534 494.707C 278.763 502.406 300.6 506.817 323.504 506.817C 338.903 506.817 353.773 504.703 368.072 501.112C 369.905 504.455 373.334 506.817 377.421 506.817C 383.374 506.817 388.205 501.986 388.205 496.033C 388.205 495.624 388.021 495.279 387.978 494.89C 409.168 486.889 428.46 475.124 445.088 460.33L 529.102 544.343C 524.907 548.246 520.637 552.074 516.226 555.741C 514.404 552.344 510.942 549.95 506.823 549.95C 500.87 549.95 496.039 554.781 496.039 560.733C 496.039 563.86 497.409 566.61 499.533 568.584C 492.47 573.673 485.202 578.483 477.708 582.958C 476.672 582.624 475.616 582.3 474.473 582.3C 469.426 582.3 465.371 585.848 464.207 590.528C 439.836 603.414 413.524 613.097 385.811 618.931C 383.837 616.397 380.894 614.65 377.421 614.65C 372.601 614.65 368.665 617.863 367.285 622.22C 352.986 624.312 338.374 625.433 323.504 625.433C 323.504 619.481 318.673 614.65 312.721 614.65Z"/>
<path id="path1_fill" d="M 10.8053 21.5667C 16.7729 21.5667 21.6106 16.7388 21.6106 10.7833C 21.6106 4.82786 16.7729 0 10.8053 0C 4.83769 0 0 4.82786 0 10.7833C 0 16.7388 4.83769 21.5667 10.8053 21.5667Z"/>
</defs>
</svg>
<svg width="648" height="647" viewBox="0 0 648 647" version="1.1" xmlns="http://www.w3.org/2000/svg" xmlns:xlink="http://www.w3.org/1999/xlink">
<title>pie-chart-6</title>
<desc>Created using Figma</desc>
<g id="Canvas" transform="translate(3950 -11366)">
<g id="pie-chart-6">
<g id="Group">
<g id="Vector">
<use xlink:href="#path0_fill" transform="translate(-3950 11366)" fill="#FAFAFA"/>
</g>
<g id="Vector">
<use xlink:href="#path1_fill" transform="translate(-3610.71 11883.6)" fill="#FAFAFA"/>
</g>
<g id="Vector">
<use xlink:href="#path1_fill" transform="translate(-3567.37 11916)" fill="#FAFAFA"/>
</g>
<g id="Vector">
<use xlink:href="#path1_fill" transform="translate(-3534.99 11883.6)" fill="#FAFAFA"/>
</g>
<g id="Vector">
<use xlink:href="#path1_fill" transform="translate(-3675.4 11883.6)" fill="#FAFAFA"/>
</g>
<g id="Vector">
<use xlink:href="#path1_fill" transform="translate(-3643.07 11916)" fill="#FAFAFA"/>
</g>
<g id="Vector">
<use xlink:href="#path1_fill" transform="translate(-3824.8 11883.6)" fill="#FAFAFA"/>
</g>
<g id="Vector">
<use xlink:href="#path1_fill" transform="translate(-3751.1 11883.6)" fill="#FAFAFA"/>
</g>
<g id="Vector">
<use xlink:href="#path1_fill" transform="translate(-3783.45 11851.2)" fill="#FAFAFA"/>
</g>
<g id="Vector">
<use xlink:href="#path1_fill" transform="translate(-3757.45 11916)" fill="#FAFAFA"/>
</g>
<g id="Vector">
<use xlink:href="#path1_fill" transform="translate(-3718.75 11916)" fill="#FAFAFA"/>
</g>
<g id="Vector">
<use xlink:href="#path1_fill" transform="translate(-3502.64 11851.2)" fill="#FAFAFA"/>
</g>
<g id="Vector">
<use xlink:href="#path1_fill" transform="translate(-3502.64 11916)" fill="#FAFAFA"/>
</g>
<g id="Vector">
<use xlink:href="#path1_fill" transform="translate(-3459.29 11883.6)" fill="#FAFAFA"/>
</g>
<g id="Vector">
<use xlink:href="#path1_fill" transform="translate(-3610.71 11948.3)" fill="#FAFAFA"/>
</g>
<g id="Vector">
<use xlink:href="#path1_fill" transform="translate(-3534.99 11948.3)" fill="#FAFAFA"/>
</g>
<g id="Vector">
<use xlink:href="#path1_fill" transform="translate(-3675.4 11948.3)" fill="#FAFAFA"/>
</g>
<g id="Vector">
<use xlink:href="#path1_fill" transform="translate(-3751.1 11948.3)" fill="#FAFAFA"/>
</g>
</g>
</g>
</g>
<defs>
<path id="path0_fill" d="M 553.3 550.942C 611.185 492.453 647.008 412.096 647.008 323.5C 647.008 145.122 501.884 0 323.504 0C 145.124 0 0 145.122 0 323.5C 0 412.128 35.8442 492.507 93.773 550.996C 94.0965 551.438 94.2691 551.945 94.6681 552.344C 95.067 552.743 95.5739 552.915 96.0052 553.239C 154.495 611.156 234.885 647 323.504 647C 412.101 647 492.459 611.178 550.949 553.293C 551.413 552.959 551.941 552.775 552.362 552.355C 552.782 551.934 552.965 551.406 553.3 550.942ZM 625.441 323.5C 625.441 402.876 594.611 475.146 544.349 529.095L 460.335 445.082C 489.149 412.678 506.823 370.17 506.823 323.5C 506.823 226.062 430.347 146.362 334.287 140.733L 334.287 21.8363C 495.791 27.5514 625.441 160.629 625.441 323.5ZM 323.504 485.25C 234.314 485.25 161.752 412.689 161.752 323.5C 161.752 234.311 234.314 161.75 323.504 161.75C 412.694 161.75 485.256 234.311 485.256 323.5C 485.256 412.689 412.694 485.25 323.504 485.25ZM 312.721 21.8363L 312.721 140.723C 216.661 146.362 140.185 226.062 140.185 323.5C 140.185 370.17 157.859 412.678 186.673 445.082L 102.659 529.095C 52.3969 475.146 21.5669 402.876 21.5669 323.5C 21.5669 160.629 151.217 27.5514 312.721 21.8363ZM 312.721 614.65C 307.059 614.65 302.562 619.05 302.11 624.592C 286.129 623.471 270.492 621.098 255.288 617.572C 253.358 615.793 250.845 614.65 248.02 614.65C 247.125 614.65 246.327 614.952 245.496 615.157C 197.122 602.206 153.524 577.523 117.906 544.343L 201.92 460.33C 202.956 461.246 203.937 462.228 204.994 463.123C 204.994 463.317 204.886 463.478 204.886 463.683C 204.886 469.636 209.717 474.467 215.669 474.467C 216.802 474.467 217.848 474.143 218.872 473.82C 226.162 478.909 233.872 483.395 241.884 487.407C 239.145 489.358 237.236 492.41 237.236 496.033C 237.236 501.986 242.067 506.817 248.02 506.817C 253.972 506.817 258.803 501.986 258.803 496.033C 258.803 495.559 258.598 495.16 258.534 494.707C 278.763 502.406 300.6 506.817 323.504 506.817C 338.903 506.817 353.773 504.703 368.072 501.112C 369.905 504.455 373.334 506.817 377.421 506.817C 383.374 506.817 388.205 501.986 388.205 496.033C 388.205 495.624 388.021 495.279 387.978 494.89C 409.168 486.889 428.46 475.124 445.088 460.33L 529.102 544.343C 524.907 548.246 520.637 552.074 516.226 555.741C 514.404 552.344 510.942 549.95 506.823 549.95C 500.87 549.95 496.039 554.781 496.039 560.733C 496.039 563.86 497.409 566.61 499.533 568.584C 492.47 573.673 485.202 578.483 477.708 582.958C 476.672 582.624 475.616 582.3 474.473 582.3C 469.426 582.3 465.371 585.848 464.207 590.528C 439.836 603.414 413.524 613.097 385.811 618.931C 383.837 616.397 380.894 614.65 377.421 614.65C 372.601 614.65 368.665 617.863 367.285 622.22C 352.986 624.312 338.374 625.433 323.504 625.433C 323.504 619.481 318.673 614.65 312.721 614.65Z"/>
<path id="path1_fill" d="M 10.8053 21.5667C 16.7729 21.5667 21.6106 16.7388 21.6106 10.7833C 21.6106 4.82786 16.7729 0 10.8053 0C 4.83769 0 0 4.82786 0 10.7833C 0 16.7388 4.83769 21.5667 10.8053 21.5667Z"/>
</defs>
</svg>
