<?xml version="1.0" encoding="utf-8"?>
<!-- Generator: Adobe Illustrator 21.0.0, SVG Export Plug-In . SVG Version: 6.00 Build 0)  -->
<svg version="1.1" id="Слой_1" xmlns="http://www.w3.org/2000/svg" xmlns:xlink="http://www.w3.org/1999/xlink" x="0px" y="0px"
     viewBox="0 0 283.5 283.5" style="enable-background:new 0 0 283.5 283.5;opacity:0.05" xml:space="preserve">
<style type="text/css">
	.st0{display:none;fill:#F8F8F9;}
	.st1{fill:#D1D3D4;}
	.st2{fill:#231F20;}
</style>
<rect x="-0.4" y="25.2" class="st0" width="283.5" height="283.5"/>
<path class="st1" d="M6.8,72.7l10.7-6.2V54.1L6.7,47.8L-0.5,52v0.3l7.2-4.2l10.5,6v12.2l-10.5,6l-7.2-4.2v0.3L6.8,72.7L6.8,72.7z"/>
<polygon class="st1" points="17.3,66.5 31.1,74.5 31.2,74.2 17.4,66.3 "/>
<path class="st1" d="M57.6,120.1L84,104.9V74.3C75.1,69.2,66.3,64.1,57.5,59C48.7,64.1,39.8,69.2,31,74.3v30.6
	C39.8,110,48.7,115.1,57.6,120.1L57.6,120.1L57.6,120.1z M83.7,104.7l-26.2,15.1l-26.2-15.1V74.4l26.2-15.1l26.2,15.1L83.7,104.7z"
	/>
<rect x="57.3" y="40.7" class="st1" width="0.3" height="18.4"/>
<path class="st1" d="M57.6,40.8l8.1-4.7v-9.5l-8.2-4.7l-8.2,4.8v9.5L57.6,40.8L57.6,40.8L57.6,40.8z M65.4,36l-7.9,4.6l-8-4.6v-9.2
	l8-4.6l7.9,4.6L65.4,36z"/>
<rect x="6.6" y="17" class="st1" width="0.3" height="31"/>
<path class="st1" d="M6.8,17.1l6-3.5v-7L6.7,3.2L0.7,6.7v7L6.8,17.1L6.8,17.1L6.8,17.1z M12.5,13.5l-5.8,3.3L1,13.5V6.8l5.8-3.3
	l5.8,3.3V13.5z"/>
<path class="st1" d="M94.3,27.5l14.9-8.6V1.5l-2.3-1.3h-0.6l2.6,1.5v17l-14.7,8.5l-14.7-8.5v-17l2.6-1.5h-0.6l-2.3,1.3v17.3
	C84.2,21.7,89.2,24.6,94.3,27.5L94.3,27.5z"/>
<polygon class="st1" points="79.3,18.6 65.5,26.6 65.6,26.8 79.4,18.9 "/>
<polygon class="st1" points="76.6,0.2 79.3,1.7 79.4,1.5 77.1,0.2 "/>
<polygon class="st1" points="109,18.9 122.7,26.8 122.9,26.6 109.1,18.6 "/>
<path class="st1" d="M128.8,37.1l6-3.5v-7l-6.1-3.5l-6.1,3.5v7L128.8,37.1L128.8,37.1L128.8,37.1z M134.5,33.5l-5.8,3.3l-5.8-3.3
	v-6.7l5.8-3.3l5.8,3.3V33.5z"/>
<rect x="128.6" y="37" class="st1" width="0.3" height="18.4"/>
<path class="st1" d="M128.8,89.8l14.9-8.6V63.9l-15-8.7l-15,8.7v17.3C118.7,84.1,123.7,87,128.8,89.8L128.8,89.8L128.8,89.8z
	 M143.4,81.1l-14.7,8.5L114,81.1v-17l14.7-8.5l14.7,8.5V81.1z"/>
<polygon class="st1" points="100,56.2 113.8,64.1 113.9,63.9 100.2,55.9 "/>
<path class="st1" d="M94.3,59.6l6-3.5v-7l-6.1-3.5l-6.1,3.5v7L94.3,59.6L94.3,59.6L94.3,59.6z M100,56l-5.8,3.3L88.4,56v-6.7
	l5.8-3.3l5.8,3.3V56z"/>
<path class="st1" d="M64.3,185.6l17.7,10.2v20.5c-5.9,3.4-11.8,6.8-17.7,10.2c-5.9-3.4-11.8-6.8-17.7-10.2v-20.5
	C52.4,192.4,58.3,189,64.3,185.6L64.3,185.6L64.3,185.6z M81.6,196l-17.4-10.1L46.8,196v20.1l17.4,10.1l17.4-10.1V196z"/>
<polygon class="st1" points="81.7,195.8 95.5,187.8 95.6,188.1 81.9,196 "/>
<path class="st1" d="M106.2,169.4l10.7,6.2V188l-10.8,6.2L95.4,188v-12.4C99,173.5,102.6,171.4,106.2,169.4L106.2,169.4L106.2,169.4
	z M116.7,175.7l-10.5-6.1l-10.5,6.1v12.1l10.5,6.1l10.5-6.1L116.7,175.7z"/>
<polygon class="st1" points="116.7,175.5 130.5,167.6 130.6,167.8 116.9,175.8 "/>
<path class="st1" d="M157,122l26.4,15.2v30.6c-8.8,5.1-17.6,10.2-26.5,15.3c-8.8-5.1-17.7-10.2-26.5-15.3v-30.6
	C139.3,132.1,148.1,127,157,122L157,122L157,122z M183.1,137.4l-26.2-15.1l-26.2,15.1v30.3l26.2,15.1l26.2-15.1V137.4z"/>
<polygon class="st1" points="46.5,196 21.6,181.6 21.8,181.4 46.7,195.8 "/>
<path class="st1" d="M-0.5,110.8l22.3,12.9v57.9l-22.3,12.9v-0.3l22.1-12.7v-57.6l-22.1-12.7V110.8z"/>
<path class="st1" d="M64.3,244.7l8.2,4.7v9.5l-8.2,4.8l-8.2-4.8v-9.5L64.3,244.7L64.3,244.7L64.3,244.7z M72.1,249.5l-7.9-4.6
	l-7.9,4.6v9.2l7.9,4.6l7.9-4.6V249.5z"/>
<rect x="64.1" y="226.3" class="st1" width="0.3" height="18.4"/>
<polygon class="st1" points="36,270.3 56,258.7 56.2,258.9 36.1,270.5 "/>
<path class="st1" d="M21.2,261.7l14.9,8.6v13.4h-0.3v-13.2L21.2,262l-14.7,8.5v13.2H6.2v-13.4C11.2,267.4,16.2,264.5,21.2,261.7
	L21.2,261.7z"/>
<rect x="21" y="243.4" class="st1" width="0.3" height="18.4"/>
<path class="st1" d="M21.2,224.6l8.1,4.7v9.5l-8.2,4.8l-8.2-4.8v-9.5L21.2,224.6L21.2,224.6L21.2,224.6z M29.1,229.4l-7.9-4.6
	l-7.9,4.6v9.2l7.9,4.6l7.9-4.6L29.1,229.4z"/>
<polygon class="st1" points="92.3,270.5 72.2,258.9 72.4,258.7 92.4,270.3 "/>
<path class="st1" d="M115.5,257l23,13.3v13.4h-0.3v-13.2l-22.9-13.2l-22.9,13.2v13.2h-0.3v-13.4c7.7-4.4,15.4-8.9,23.2-13.4
	L115.5,257z"/>
<rect x="156.8" y="182.9" class="st1" width="0.3" height="18.4"/>
<path class="st1" d="M157,201.2l8.1,4.7v9.5l-8.2,4.8l-8.2-4.8v-9.5L157,201.2L157,201.2z M164.9,206.1l-7.9-4.6l-7.9,4.6v9.2
	l7.9,4.6l7.9-4.6V206.1z"/>
<rect x="106" y="194.1" class="st1" width="0.3" height="31"/>
<path class="st1" d="M106.2,224.9l6,3.5v7l-6.1,3.5l-6.1-3.5v-7L106.2,224.9L106.2,224.9L106.2,224.9z M112,228.6l-5.8-3.4l-5.8,3.3
	v6.7l5.8,3.3l5.8-3.3V228.6z"/>
<path class="st1" d="M193.7,214.6l14.9,8.6v17.3c-5,2.9-10,5.8-15,8.7c-5-2.9-10-5.8-15-8.7v-17.3
	C183.6,220.3,188.6,217.4,193.7,214.6L193.7,214.6L193.7,214.6z M208.3,223.4l-14.7-8.5l-14.7,8.5v17l14.7,8.5l14.7-8.5V223.4z"/>
<polygon class="st1" points="178.7,223.4 164.9,215.5 165.1,215.2 178.8,223.2 "/>
<polygon class="st1" points="164.9,248.3 178.7,240.3 178.8,240.6 165.1,248.5 "/>
<path class="st1" d="M159.1,244.9l6,3.5v7l-6.1,3.5l-6.1-3.5v-7L159.1,244.9L159.1,244.9L159.1,244.9z M164.9,248.5l-5.8-3.3
	l-5.8,3.3v6.7l5.8,3.3l5.8-3.3V248.5z"/>
<rect x="193.5" y="249" class="st1" width="0.3" height="33.2"/>
<path class="st1" d="M193.7,282.1l2.6,1.5h-0.6l-2.2-1.2l-2.1,1.2h-0.6L193.7,282.1L193.7,282.1z"/>
<polygon class="st1" points="208.4,223.2 222.2,215.2 222.3,215.5 208.5,223.4 "/>
<path class="st1" d="M228.2,205l6,3.5v7l-6.1,3.5l-6.1-3.5v-7L228.2,205L228.2,205L228.2,205z M233.9,208.6l-5.8-3.3l-5.8,3.3v6.7
	l5.8,3.3l5.8-3.3V208.6z"/>
<rect x="228" y="186.7" class="st1" width="0.3" height="18.4"/>
<path class="st1" d="M228.2,152.2l14.9,8.6v17.4c-5,2.9-10,5.8-15,8.7c-5-2.9-10-5.8-15-8.7v-17.3
	C218.2,158,223.2,155.1,228.2,152.2L228.2,152.2L228.2,152.2z M242.9,161l-14.7-8.5l-14.7,8.5v17l14.7,8.5l14.7-8.5V161z"/>
<polygon class="st1" points="199.5,185.9 213.2,178 213.4,178.2 199.6,186.2 "/>
<path class="st1" d="M193.7,182.5l6,3.5v7l-6.1,3.5l-6.1-3.5v-7L193.7,182.5L193.7,182.5L193.7,182.5z M199.4,186.1l-5.8-3.3
	l-5.8,3.3v6.7l5.8,3.3l5.8-3.3V186.1z"/>
<rect x="64.1" y="167.3" class="st1" width="0.3" height="18.4"/>
<path class="st1" d="M64.3,153.5l6,3.5v7l-6.1,3.5l-6.1-3.5v-7L64.3,153.5L64.3,153.5L64.3,153.5z M70,157.1l-5.8-3.3l-5.8,3.3v6.7
	l5.8,3.3l5.8-3.3V157.1z"/>
<path class="st1" d="M283,21.6l-10.2,5.9v12.4l10.2,5.9v-0.3l-9.9-5.7V27.7L283,22V21.6z"/>
<polygon class="st1" points="273,27.5 259.3,19.5 259.1,19.8 272.9,27.7 "/>
<path class="st1" d="M206.4,0.2v19.5c8.8,5.1,17.7,10.2,26.5,15.3c8.8-5.1,17.7-10.2,26.5-15.3V0.2h-0.3v19.4l-26.2,15.1l-26.2-15.1
	V0.2H206.4z"/>
<path class="st1" d="M274.3,108.9l-23.1,13.3v26.7c7.7,4.5,15.4,8.9,23.1,13.4l8.6-5V157l-8.6,5l-22.9-13.2v-26.4l22.9-13.2l8.6,5
	v-0.3L274.3,108.9L274.3,108.9z"/>
<rect x="232.7" y="34.8" class="st1" width="0.3" height="18.4"/>
<path class="st1" d="M232.8,53.2l-8.2,4.7v9.5l8.2,4.8l8.2-4.8v-9.5L232.8,53.2L232.8,53.2L232.8,53.2z M224.9,58.1l7.9-4.6l7.9,4.6
	v9.1l-7.9,4.6l-7.9-4.6L224.9,58.1z"/>
<path class="st1" d="M283,77.2l-5.5,3.1v7l5.5,3.2v-0.3l-5.2-3v-6.7l5.2-3L283,77.2z"/>
<path class="st1" d="M196.1,66.5l-14.9,8.7v17.3l15,8.7l15-8.7V75.2C206.1,72.3,201.1,69.4,196.1,66.5L196.1,66.5L196.1,66.5z
	 M181.4,75.3l14.7-8.5l14.7,8.5v17l-14.7,8.5l-14.7-8.5V75.3z"/>
<polygon class="st1" points="211.1,75.4 224.8,67.4 224.7,67.2 210.9,75.1 "/>
<polygon class="st1" points="224.8,100.2 211.1,92.3 210.9,92.5 224.7,100.5 "/>
<path class="st1" d="M230.6,96.8l-6,3.5v7l6.1,3.5l6.1-3.5v-7L230.6,96.8L230.6,96.8L230.6,96.8z M224.9,100.4l5.8-3.3l5.8,3.3v6.7
	l-5.8,3.3l-5.8-3.3V100.4z"/>
<rect x="196" y="101" class="st1" width="0.3" height="33.2"/>
<path class="st1" d="M196.1,134l-6,3.5v7l6.1,3.5l6.1-3.5v-7L196.1,134L196.1,134L196.1,134z M190.4,137.7l5.8-3.3l5.8,3.3v6.7
	l-5.8,3.3l-5.8-3.3V137.7z"/>
<polygon class="st1" points="181.4,75.1 167.6,67.2 167.5,67.4 181.2,75.4 "/>
<path class="st1" d="M161.5,56.9l-6,3.5v7l6.1,3.5l6.1-3.5v-7L161.5,56.9L161.5,56.9L161.5,56.9z M155.8,60.5l5.8-3.3l5.8,3.3v6.7
	l-5.8,3.3l-5.8-3.3L155.8,60.5z"/>
<rect x="161.5" y="38.6" class="st1" width="0.3" height="18.4"/>
<path class="st1" d="M161.5,4.2l-14.9,8.6v17.3l15,8.7l15-8.7V12.8C171.6,9.9,166.6,7,161.5,4.2L161.5,4.2z M146.9,12.9l14.7-8.5
	l14.7,8.5v17l-14.7,8.5l-14.7-8.5V12.9z"/>
<polygon class="st1" points="190.3,37.8 176.5,29.9 176.4,30.1 190.1,38.1 "/>
<path class="st1" d="M196.1,34.4l-6,3.5v7l6.1,3.5l6.1-3.5v-7L196.1,34.4L196.1,34.4L196.1,34.4z M190.4,38l5.8-3.3l5.8,3.3v6.7
	l-5.8,3.3l-5.8-3.3V38z"/>
<path class="st2" d="M92.1,48.4l17.7,10.2V79c-5.9,3.4-11.8,6.8-17.7,10.2c-5.9-3.4-11.8-6.8-17.7-10.2V58.6
	C80.2,55.2,86.1,51.7,92.1,48.4L92.1,48.4L92.1,48.4z M109.4,58.7L92,48.7L74.5,58.7v20.2L92,89l17.4-10.1V58.7z"/>
<rect x="87.9" y="53.5" transform="matrix(0.866 -0.5 0.5 0.866 -10.965 66.3315)" class="st2" width="60.7" height="0.3"/>
<path class="st2" d="M134,32.2l10.7,6.2v12.4c-3.6,2.1-7.2,4.1-10.8,6.2c-3.6-2.1-7.2-4.2-10.8-6.2V38.4L134,32.2L134,32.2L134,32.2
	z M144.5,38.5l-10.5-6l-10.5,6v12.1l10.5,6.1l10.5-6.1V38.5z"/>
<polygon class="st2" points="144.5,38.3 210.6,0.2 211.1,0.2 144.7,38.6 "/>
<path class="st2" d="M211.2,0.2v30.4c-8.8,5.1-17.7,10.2-26.5,15.3c-8.8-5.1-17.6-10.2-26.5-15.3V0.2h0.3v30.2l26.2,15.1l26.2-15.1
	V0.2H211.2z"/>
<polygon class="st2" points="91.9,68.9 25.8,30.7 25.9,30.5 92.1,68.7 "/>
<path class="st2" d="M49.6,0.2v44.2C32.9,54,16.2,63.6-0.5,73.3V73l49.8-28.8v-44H49.6z"/>
<path class="st2" d="M92.1,107.4l8.2,4.7v9.5l-8.2,4.8l-8.2-4.8v-9.5L92.1,107.4L92.1,107.4L92.1,107.4z M99.9,112.3l-7.9-4.6
	l-7.9,4.6v9.2l7.9,4.6l7.9-4.6V112.3z"/>
<rect x="91.9" y="89.1" class="st2" width="0.3" height="18.4"/>
<polygon class="st2" points="63.8,133 83.8,121.4 84,121.7 63.9,133.3 "/>
<path class="st2" d="M49,124.5l14.9,8.6v17.3l-15,8.7l-15-8.7v-17.3C39,130.2,44,127.3,49,124.5L49,124.5L49,124.5z M63.7,133.2
	L49,124.7l-14.7,8.5v17l14.7,8.5l14.7-8.5V133.2z"/>
<rect x="48.8" y="106.1" class="st2" width="0.3" height="35.6"/>
<rect x="48.8" y="158.9" class="st2" width="0.3" height="18.4"/>
<polygon class="st2" points="120.1,133.3 100,121.7 100.1,121.4 120.2,133 "/>
<path class="st2" d="M143.2,119.7l23.1,13.3v26.7c-7.7,4.5-15.4,8.9-23.1,13.4c-7.7-4.5-15.4-8.9-23.2-13.4v-26.7
	C127.7,128.6,135.5,124.2,143.2,119.7L143.2,119.7L143.2,119.7z M166,133.2L143.2,120l-22.9,13.2v26.4l22.9,13.2l22.9-13.2
	L166,133.2z"/>
<rect x="184.6" y="15.3" class="st2" width="0.3" height="48.9"/>
<path class="st2" d="M184.8,64l8.1,4.7v9.5l-8.2,4.8l-8.2-4.8v-9.5L184.8,64L184.8,64L184.8,64z M192.6,68.9l-7.9-4.6l-7.9,4.6v9.2
	l7.9,4.6l7.9-4.6V68.9z"/>
<rect x="133.8" y="56.8" class="st2" width="0.3" height="31"/>
<path class="st2" d="M221.5,77.4l14.9,8.6v17.3c-5,2.9-10,5.8-15,8.7c-5-2.9-10-5.8-15-8.7V86C211.4,83.1,216.4,80.2,221.5,77.4
	L221.5,77.4L221.5,77.4z M236.1,86.2l-14.7-8.5l-14.7,8.5v17l14.7,8.5l14.7-8.5V86.2z"/>
<polygon class="st2" points="206.5,86.2 192.7,78.3 192.9,78 206.6,86 "/>
<polygon class="st2" points="192.7,111.1 215.6,97.8 215.8,98.1 192.9,111.3 "/>
<path class="st2" d="M186.9,107.6l6,3.5v7l-6.1,3.5l-6.1-3.5v-7L186.9,107.6L186.9,107.6L186.9,107.6z M192.6,111.3l-5.8-3.3
	l-5.8,3.3v6.7l5.8,3.3l5.8-3.3V111.3z"/>
<rect x="221.3" y="111.8" class="st2" width="0.3" height="33.2"/>
<path class="st2" d="M221.5,144.9l6,3.5v7l-6.1,3.5l-6.1-3.5v-7L221.5,144.9L221.5,144.9L221.5,144.9z M227.2,148.5l-5.8-3.3
	l-5.8,3.3v6.7l5.8,3.3l5.8-3.3L227.2,148.5z"/>
<polygon class="st2" points="227,91.3 249.9,78 250.1,78.3 227.2,91.5 "/>
<rect x="255.8" y="49.4" class="st2" width="0.3" height="18.4"/>
<path class="st2" d="M256,15l14.9,8.6V41c-5,2.9-10,5.8-15,8.7c-5-2.9-10-5.8-15-8.7V23.6C245.9,20.7,250.9,17.9,256,15L256,15
	L256,15z M270.6,23.8l-14.7-8.5l-14.7,8.5v17l14.7,8.5l14.7-8.5V23.8z"/>
<polygon class="st2" points="227.3,48.7 241,40.7 241.2,41 227.4,48.9 "/>
<path class="st2" d="M221.5,45.3l6,3.5v7l-6.1,3.5l-6.1-3.5v-7L221.5,45.3L221.5,45.3L221.5,45.3z M227.2,48.9l-5.8-3.3l-5.8,3.3
	v6.7l5.8,3.3l5.8-3.3V48.9z"/>
<rect x="91.9" y="30.1" class="st2" width="0.3" height="59"/>
<path class="st2" d="M92.1,16.3l6,3.5v7L92,30.2l-6.1-3.5v-7L92.1,16.3L92.1,16.3L92.1,16.3z M97.8,19.9L92,16.6l-5.8,3.3v6.7
	l5.8,3.3l5.8-3.3V19.9z"/>
<path class="st2" d="M-0.5,153.4l14.7,8.5v30.6l-14.7,8.5v-0.3l14.4-8.4V162l-14.4-8.3V153.4z"/>
<polygon class="st2" points="14,161.8 48.9,141.6 49,141.9 14.1,162 "/>
<rect x="91.9" y="8.9" class="st2" width="0.3" height="7.5"/>
<polygon class="st2" points="110.3,12.8 98,19.9 97.8,19.7 110.1,12.6 "/>
<polygon class="st2" points="108.2,32.7 97.8,26.8 98,26.5 108.3,32.5 "/>
<polygon class="st2" points="64.3,7.1 86.1,19.7 86,19.9 64.2,7.3 "/>
<polygon class="st2" points="74.5,33.2 86,26.5 86.1,26.8 74.6,33.4 "/>
<path class="st2" d="M49,86.6l8.5,4.9v9.9l-8.5,4.9l-8.5-4.9v-9.9L49,86.6L49,86.6L49,86.6z M57.2,91.7L49,86.9l-8.3,4.8v9.5L49,106
	l8.3-4.8V91.7z"/>
<rect x="48.8" y="66.1" class="st2" width="0.3" height="20.6"/>
<polygon class="st2" points="66.6,86.4 57.4,91.7 57.3,91.5 66.5,86.2 "/>
<polygon class="st2" points="66.5,106.7 57.3,101.4 57.4,101.2 66.6,106.5 "/>
<polygon class="st2" points="17.6,78.2 40.6,91.5 40.5,91.7 17.4,78.4 "/>
<polygon class="st2" points="28.4,108.2 40.5,101.2 40.6,101.4 28.5,108.4 "/>
<path class="st2" d="M49,177.2l8.3,4.8v9.6l-8.3,4.8c-2.8-1.6-5.6-3.2-8.3-4.8V182L49,177.2L49,177.2z M57,182.1l-8.1-4.7l-8.1,4.7
	v9.3l8.1,4.7l8.1-4.7V182.1z"/>
<polygon class="st2" points="89.8,163.4 57.2,182.2 57.1,181.9 89.6,163.2 "/>
<polygon class="st2" points="66.1,196.8 57.1,191.7 57.2,191.4 66.2,196.6 "/>
<polygon class="st2" points="31.9,176.8 40.8,181.9 40.7,182.2 31.7,177 "/>
<polygon class="st2" points="25.2,200.3 40.7,191.4 40.8,191.7 25.4,200.6 "/>
<rect x="48.8" y="196.3" class="st2" width="0.3" height="32.2"/>
<path class="st2" d="M134,87.7l6,3.5v7l-6.1,3.5l-6.1-3.5v-7L134,87.7L134,87.7L134,87.7z M139.7,91.3L134,88l-5.8,3.3V98l5.8,3.3
	l5.8-3.3V91.3z"/>
<polygon class="st2" points="165,77 140,91.4 139.8,91.1 164.8,76.7 "/>
<polygon class="st2" points="154.6,106.7 139.8,98.2 140,98 154.7,106.5 "/>
<polygon class="st2" points="124,88.7 128.1,91.1 128,91.4 123.8,89 "/>
<polygon class="st2" points="113.6,106.3 128,98 128.1,98.2 113.7,106.5 "/>
<rect x="133.8" y="101.5" class="st2" width="0.3" height="7.5"/>
<path class="st2" d="M256,67.8l6,3.5v7l-6.1,3.5l-6.1-3.5v-7L256,67.8L256,67.8L256,67.8z M261.7,71.4l-5.8-3.3l-5.8,3.3v6.7
	l5.8,3.3l5.8-3.3V71.4z"/>
<polygon class="st2" points="270.9,66.3 261.9,71.4 261.8,71.2 270.7,66 "/>
<polygon class="st2" points="266.8,81.2 261.8,78.3 261.9,78 267,80.9 "/>
<polygon class="st2" points="243.6,67.5 250.1,71.2 249.9,71.4 243.5,67.7 "/>
<rect x="255.8" y="81.6" class="st2" width="0.3" height="38.4"/>
<rect x="221.3" y="13.3" class="st2" width="0.3" height="32.1"/>
<polygon class="st2" points="233.7,59.5 227.3,55.8 227.4,55.5 233.9,59.3 "/>
<polygon class="st2" points="211.4,46.3 215.6,48.7 215.4,48.9 211.3,46.5 "/>
<polygon class="st2" points="192.7,68.6 215.4,55.5 215.6,55.8 192.9,68.9 "/>
<rect x="221.3" y="59.1" class="st2" width="0.3" height="6.7"/>
<rect x="186.7" y="100.3" class="st2" width="0.3" height="7.5"/>
<polygon class="st2" points="206,125.8 192.7,118.1 192.9,117.9 206.1,125.6 "/>
<polygon class="st2" points="169.4,104.3 181,111.1 180.9,111.3 169.2,104.6 "/>
<polygon class="st2" points="174.4,121.6 180.9,117.9 181,118.1 174.6,121.9 "/>
<rect x="186.7" y="121.4" class="st2" width="0.3" height="14.6"/>
<polygon class="st2" points="243.9,139 227.4,148.6 227.3,148.3 243.8,138.8 "/>
<polygon class="st2" points="233.7,159.1 227.3,155.4 227.4,155.2 233.9,158.9 "/>
<polygon class="st2" points="209.1,144.6 215.6,148.3 215.4,148.6 208.9,144.8 "/>
<polygon class="st2" points="189.7,170 215.4,155.2 215.6,155.4 189.8,170.3 "/>
<rect x="221.3" y="158.7" class="st2" width="0.3" height="7.5"/>
<rect x="116.6" y="146.3" transform="matrix(0.866 -0.5 0.5 0.866 -54.0362 91.2042)" class="st2" width="53.1" height="0.3"/>
<path class="st2" d="M143.2,130.3l13.9,8v16.2l-14,8.1l-14-8.1v-16.1L143.2,130.3L143.2,130.3L143.2,130.3z M156.9,138.5l-13.7-7.9
	l-13.7,7.9v15.8l13.7,7.9l13.7-7.9L156.9,138.5z"/>
<path class="st2" d="M194.1,0.2l8.4,4.8v20.5c-5.9,3.4-11.8,6.8-17.8,10.3c-5.9-3.4-11.8-6.9-17.8-10.3V5l8.4-4.8h0.6l-8.6,5v20.2
	l17.5,10.1l17.5-10.1V5.2l-8.7-5H194.1z"/>
<rect x="255.8" y="15.1" transform="matrix(0.5 -0.866 0.866 0.5 99.9934 237.8014)" class="st2" width="0.3" height="34.3"/>
<path class="st2" d="M256,25.3l6,3.5v7l-6.1,3.5l-6.1-3.5v-7L256,25.3L256,25.3L256,25.3z M261.7,29l-5.8-3.3l-5.8,3.3v6.7l5.8,3.3
	l5.8-3.3V29z"/>
<path class="st2" d="M26,0.2v30.5C17.2,35.8,8.3,40.9-0.5,46v-0.3l26.2-15.1V0.3l-0.1-0.1H26z"/>
<rect x="91.9" y="126.2" class="st2" width="0.3" height="7.5"/>
<circle class="st2" cx="221.4" cy="166.2" r="0.5"/>
<circle class="st2" cx="233.8" cy="159" r="0.9"/>
<path class="st2" d="M246.2,134.7c1.6,0,2.8,1.3,2.8,2.8c0,1.6-1.3,2.8-2.8,2.8c-1.6,0-2.8-1.3-2.8-2.8c0-0.7,0.3-1.5,0.8-2
	C244.7,135,245.4,134.7,246.2,134.7z M248,135.7c-1-1-2.6-1-3.6,0c-1,1-1,2.6,0,3.6s2.6,1,3.6,0c0.5-0.5,0.7-1.1,0.7-1.8
	C248.7,136.9,248.4,136.2,248,135.7L248,135.7z"/>
<path class="st2" d="M188.3,169.2c1,0,1.8,0.8,1.8,1.8s-0.8,1.8-1.8,1.8c-1,0-1.8-0.8-1.8-1.8c0-0.5,0.2-0.9,0.5-1.3
	C187.4,169.4,187.8,169.2,188.3,169.2z M189.4,169.9c-0.6-0.6-1.5-0.6-2.1,0s-0.6,1.5,0,2.1s1.5,0.6,2.1,0c0.3-0.3,0.4-0.7,0.4-1.1
	C189.8,170.6,189.7,170.2,189.4,169.9L189.4,169.9z"/>
<circle class="st2" cx="209" cy="144.7" r="0.5"/>
<circle class="st2" cx="255.9" cy="120" r="0.6"/>
<path class="st2" d="M186.9,94.8c1.6,0,2.8,1.3,2.8,2.8c0,1.6-1.3,2.8-2.8,2.8c-1.6,0-2.8-1.3-2.8-2.8c0-0.7,0.3-1.5,0.8-2
	C185.4,95.1,186.1,94.8,186.9,94.8z M188.7,95.8c-1-1-2.6-1-3.6,0s-1,2.6,0,3.6s2.6,1,3.6,0c0.5-0.5,0.7-1.1,0.7-1.8
	C189.4,97,189.1,96.3,188.7,95.8L188.7,95.8z"/>
<circle class="st2" cx="206.1" cy="125.7" r="0.9"/>
<path class="st2" d="M221.4,87.9c3.7,0,6.7,3,6.7,6.7s-3,6.7-6.7,6.7c-3.7,0-6.7-3-6.7-6.7c0-1.8,0.7-3.5,1.9-4.7
	C217.9,88.7,219.6,88,221.4,87.9z M226,90.1c-2.5-2.5-6.6-2.5-9.1,0c-2.5,2.5-2.5,6.6,0,9.1c2.5,2.5,6.6,2.5,9.1,0
	c1.2-1.2,1.9-2.8,1.9-4.5C227.8,93,227.2,91.3,226,90.1z"/>
<circle class="st2" cx="270.8" cy="66.1" r="0.9"/>
<path class="st2" d="M268.3,80.1c1,0,1.8,0.8,1.8,1.8c0,1-0.8,1.8-1.8,1.8c-1,0-1.8-0.8-1.8-1.8c0-0.5,0.2-0.9,0.5-1.3
	C267.4,80.3,267.9,80.1,268.3,80.1z M269.4,80.8c-0.6-0.6-1.5-0.6-2.1,0c-0.6,0.6-0.6,1.5,0,2.1c0.6,0.6,1.5,0.6,2.1,0
	c0.3-0.3,0.4-0.7,0.4-1.1C269.8,81.5,269.7,81.1,269.4,80.8L269.4,80.8z"/>
<circle class="st2" cx="243.6" cy="67.6" r="0.6"/>
<circle class="st2" cx="233.8" cy="59.4" r="0.4"/>
<circle class="st2" cx="221.4" cy="65.8" r="0.6"/>
<path class="st2" d="M209,42.3c1.5,0,2.8,1.3,2.8,2.8c0,1.5-1.3,2.8-2.8,2.8c-1.5,0-2.8-1.3-2.8-2.8c0-0.7,0.3-1.4,0.8-2
	C207.5,42.6,208.3,42.3,209,42.3z M210.8,43.3c-1-1-2.6-1-3.6,0s-1,2.6,0,3.6s2.6,1,3.6,0c0.5-0.5,0.7-1.1,0.7-1.8
	C211.5,44.4,211.3,43.8,210.8,43.3L210.8,43.3z"/>
<path class="st2" d="M221.4,9.6c1.1,0,1.9,0.9,1.9,1.9c0,1.1-0.9,1.9-1.9,1.9c-1.1,0-1.9-0.9-1.9-1.9c0-0.5,0.2-1,0.6-1.4
	C220.4,9.8,220.9,9.6,221.4,9.6z M222.6,10.4c-0.6-0.6-1.7-0.6-2.3,0c-0.6,0.6-0.6,1.7,0,2.3c0.6,0.6,1.7,0.6,2.3,0
	c0.3-0.3,0.5-0.7,0.5-1.2C223,11.1,222.9,10.7,222.6,10.4z"/>
<path class="st2" d="M184.7,7.5c4.3,0,7.8,3.5,7.8,7.8c0,4.3-3.5,7.8-7.8,7.8c-4.3,0-7.8-3.5-7.8-7.8c0-2.1,0.8-4,2.3-5.5
	C180.7,8.3,182.6,7.5,184.7,7.5z M190,10c-2.9-2.9-7.7-2.9-10.6,0s-2.9,7.7,0,10.6s7.7,2.9,10.6,0c1.4-1.4,2.2-3.3,2.2-5.3
	C192.2,13.3,191.4,11.4,190,10L190,10z"/>
<circle class="st2" cx="164.9" cy="76.8" r="0.8"/>
<circle class="st2" cx="154.6" cy="106.6" r="0.9"/>
<circle class="st2" cx="169.3" cy="104.5" r="0.6"/>
<circle class="st2" cx="174.5" cy="121.8" r="0.5"/>
<circle class="st2" cx="186.9" cy="136" r="0.5"/>
<path class="st2" d="M121.6,84.7c1.6,0,2.8,1.3,2.8,2.8c0,1.6-1.3,2.8-2.8,2.8c-1.6,0-2.8-1.3-2.8-2.8c0-0.7,0.3-1.5,0.8-2
	C120.1,85,120.8,84.7,121.6,84.7z M123.4,85.7c-1-1-2.6-1-3.6,0c-1,1-1,2.6,0,3.6c1,1,2.6,1,3.6,0c0.5-0.5,0.7-1.1,0.7-1.8
	C124.1,86.9,123.8,86.2,123.4,85.7L123.4,85.7z"/>
<circle class="st2" cx="113.6" cy="106.4" r="0.6"/>
<circle class="st2" cx="134" cy="109" r="0.4"/>
<path class="st2" d="M92,133.5c2.4,0,4.3,1.9,4.3,4.2s-1.9,4.3-4.2,4.3c-2.4,0-4.3-1.9-4.3-4.2c0-1.1,0.4-2.2,1.2-3
	C89.8,134,90.9,133.5,92,133.5z M94.8,135c-1.6-1.6-4.1-1.6-5.7,0c-1.6,1.6-1.6,4.1,0,5.7c1.6,1.6,4.1,1.6,5.7,0
	c0.8-0.8,1.2-1.8,1.2-2.8C96,136.8,95.6,135.7,94.8,135L94.8,135z"/>
<path class="st2" d="M92,159.1c1.6,0,2.8,1.3,2.8,2.8c0,1.6-1.3,2.8-2.8,2.8c-1.6,0-2.8-1.3-2.8-2.8c0-0.7,0.3-1.5,0.8-2
	C90.5,159.4,91.2,159.1,92,159.1z M93.8,160.1c-1-1-2.6-1-3.6,0c-1,1-1,2.6,0,3.6c1,1,2.6,1,3.6,0c0.5-0.5,0.7-1.1,0.7-1.8
	C94.5,161.2,94.2,160.6,93.8,160.1L93.8,160.1z"/>
<path class="st2" d="M-0.5,5.5c2.6,0,5.1,1,7,2.9c1.9,1.9,2.9,4.4,2.9,7c0,2.6-1,5.1-2.9,7c-1.9,1.9-4.4,2.9-7,2.9V25
	c2.5,0,5-1,6.8-2.8c1.8-1.8,2.8-4.2,2.8-6.8c0-2.5-1-5-2.8-6.8C4.5,6.8,2,5.8-0.5,5.8V5.5z"/>
<circle class="st2" cx="64.3" cy="7.2" r="1.2"/>
<circle class="st2" cx="92" cy="8.9" r="0.6"/>
<path class="st2" d="M72.3,31.8c1.6,0,2.8,1.3,2.8,2.8c0,1.6-1.3,2.8-2.8,2.8s-2.8-1.3-2.8-2.8c0-0.7,0.3-1.5,0.8-2
	C70.8,32.1,71.5,31.8,72.3,31.8z M74,32.8c-1-1-2.6-1-3.6,0c-1,1-1,2.6,0,3.6s2.6,1,3.6,0c0.5-0.5,0.7-1.1,0.7-1.8
	C74.8,33.9,74.5,33.3,74,32.8L74,32.8z"/>
<path class="st2" d="M113.8,6.4c2.4,0,4.3,1.9,4.3,4.2s-1.9,4.3-4.2,4.3c-2.4,0-4.3-1.9-4.3-4.2c0-1.1,0.4-2.2,1.2-3
	C111.5,6.8,112.6,6.4,113.8,6.4z M116.6,7.8c-1.6-1.6-4.1-1.6-5.7,0s-1.6,4.1,0,5.7c1.6,1.6,4.1,1.6,5.7,0c0.8-0.8,1.2-1.8,1.2-2.8
	C117.7,9.6,117.3,8.6,116.6,7.8L116.6,7.8z"/>
<circle class="st2" cx="108.3" cy="32.6" r="0.9"/>
<circle class="st2" cx="49" cy="141.7" r="0.9"/>
<path class="st2" d="M49,132.9c4.9,0,8.9,4,8.8,8.9c0,4.9-4,8.9-8.9,8.8c-4.9,0-8.9-4-8.8-8.9c0-2.3,0.9-4.6,2.6-6.3
	C44.4,133.8,46.6,132.9,49,132.9z M55,135.7c-3.3-3.4-8.8-3.4-12.1-0.1c-3.4,3.3-3.4,8.8-0.1,12.1c3.3,3.4,8.8,3.4,12.1,0.1
	c1.6-1.6,2.5-3.8,2.6-6C57.5,139.5,56.6,137.3,55,135.7L55,135.7z"/>
<path class="st2" d="M49,228.3c2.2,0,3.9,1.8,3.9,3.9c0,2.2-1.8,3.9-3.9,3.9s-3.9-1.8-3.9-3.9c0-1,0.4-2,1.1-2.8
	C46.9,228.7,47.9,228.3,49,228.3z M51.5,229.6c-1.4-1.4-3.7-1.3-5.1,0.1s-1.3,3.7,0.1,5.1s3.7,1.3,5.1-0.1c0.7-0.7,1-1.6,1-2.6
	C52.6,231.2,52.2,230.3,51.5,229.6z"/>
<circle class="st2" cx="31.8" cy="176.9" r="0.9"/>
<circle class="st2" cx="66.1" cy="196.7" r="0.4"/>
<circle class="st2" cx="25.3" cy="200.5" r="0.6"/>
<path class="st2" d="M24.9,106.1c2.4,0,4.3,1.9,4.3,4.2c0,2.4-1.9,4.3-4.2,4.3s-4.3-1.9-4.3-4.2c0-1.1,0.4-2.2,1.2-3
	C22.7,106.5,23.7,106.1,24.9,106.1z M27.7,107.5c-1.6-1.6-4.1-1.6-5.7,0c-1.6,1.6-1.6,4.1,0,5.7c1.6,1.6,4.1,1.6,5.7,0
	c0.8-0.8,1.2-1.8,1.2-2.8C28.9,109.3,28.4,108.3,27.7,107.5L27.7,107.5z"/>
<circle class="st2" cx="66.5" cy="86.3" r="0.6"/>
<circle class="st2" cx="66.5" cy="106.6" r="0.9"/>
<path class="st2" d="M49,62.4c1.1,0,1.9,0.9,1.9,1.9c0,1.1-0.9,1.9-1.9,1.9c-1.1,0-1.9-0.9-1.9-1.9c0-0.5,0.2-1,0.6-1.4
	C48,62.6,48.5,62.4,49,62.4z M50.1,63.2c-0.6-0.6-1.7-0.6-2.3,0c-0.6,0.6-0.6,1.7,0,2.3s1.7,0.6,2.3,0c0.3-0.3,0.5-0.7,0.5-1.2
	C50.6,63.9,50.4,63.5,50.1,63.2L50.1,63.2z"/>
<circle class="st2" cx="17.5" cy="78.3" r="0.6"/>
<circle class="st2" cx="158.6" cy="80.4" r="0.7"/>
<circle class="st2" cx="152.4" cy="84" r="0.6"/>
<circle class="st2" cx="146.1" cy="87.7" r="0.5"/>
<circle class="st2" cx="139.9" cy="91.3" r="0.4"/>
<circle class="st2" cx="123.3" cy="38.4" r="0.5"/>
<circle class="st2" cx="128.7" cy="41.5" r="0.6"/>
<circle class="st2" cx="134" cy="44.6" r="0.6"/>
<circle class="st2" cx="139.3" cy="47.6" r="0.6"/>
<circle class="st2" cx="144.6" cy="50.7" r="0.7"/>
<circle class="st2" cx="40.8" cy="191.5" r="0.4"/>
<circle class="st2" cx="44.9" cy="189.2" r="0.5"/>
<circle class="st2" cx="49" cy="186.8" r="0.5"/>
<circle class="st2" cx="53.1" cy="184.4" r="0.6"/>
<circle class="st2" cx="57.2" cy="182.1" r="0.6"/>
<circle class="st2" cx="92" cy="116.9" r="0.9"/>
<circle class="st2" cx="221.4" cy="94.7" r="0.9"/>
</svg>
<?xml version="1.0" encoding="utf-8"?>
<!-- Generator: Adobe Illustrator 21.0.0, SVG Export Plug-In . SVG Version: 6.00 Build 0)  -->
<svg version="1.1" id="Слой_1" xmlns="http://www.w3.org/2000/svg" xmlns:xlink="http://www.w3.org/1999/xlink" x="0px" y="0px"
     viewBox="0 0 283.5 283.5" style="enable-background:new 0 0 283.5 283.5;opacity:0.05" xml:space="preserve">
<style type="text/css">
	.st0{display:none;fill:#F8F8F9;}
	.st1{fill:#D1D3D4;}
	.st2{fill:#231F20;}
</style>
<rect x="-0.4" y="25.2" class="st0" width="283.5" height="283.5"/>
<path class="st1" d="M6.8,72.7l10.7-6.2V54.1L6.7,47.8L-0.5,52v0.3l7.2-4.2l10.5,6v12.2l-10.5,6l-7.2-4.2v0.3L6.8,72.7L6.8,72.7z"/>
<polygon class="st1" points="17.3,66.5 31.1,74.5 31.2,74.2 17.4,66.3 "/>
<path class="st1" d="M57.6,120.1L84,104.9V74.3C75.1,69.2,66.3,64.1,57.5,59C48.7,64.1,39.8,69.2,31,74.3v30.6
	C39.8,110,48.7,115.1,57.6,120.1L57.6,120.1L57.6,120.1z M83.7,104.7l-26.2,15.1l-26.2-15.1V74.4l26.2-15.1l26.2,15.1L83.7,104.7z"
	/>
<rect x="57.3" y="40.7" class="st1" width="0.3" height="18.4"/>
<path class="st1" d="M57.6,40.8l8.1-4.7v-9.5l-8.2-4.7l-8.2,4.8v9.5L57.6,40.8L57.6,40.8L57.6,40.8z M65.4,36l-7.9,4.6l-8-4.6v-9.2
	l8-4.6l7.9,4.6L65.4,36z"/>
<rect x="6.6" y="17" class="st1" width="0.3" height="31"/>
<path class="st1" d="M6.8,17.1l6-3.5v-7L6.7,3.2L0.7,6.7v7L6.8,17.1L6.8,17.1L6.8,17.1z M12.5,13.5l-5.8,3.3L1,13.5V6.8l5.8-3.3
	l5.8,3.3V13.5z"/>
<path class="st1" d="M94.3,27.5l14.9-8.6V1.5l-2.3-1.3h-0.6l2.6,1.5v17l-14.7,8.5l-14.7-8.5v-17l2.6-1.5h-0.6l-2.3,1.3v17.3
	C84.2,21.7,89.2,24.6,94.3,27.5L94.3,27.5z"/>
<polygon class="st1" points="79.3,18.6 65.5,26.6 65.6,26.8 79.4,18.9 "/>
<polygon class="st1" points="76.6,0.2 79.3,1.7 79.4,1.5 77.1,0.2 "/>
<polygon class="st1" points="109,18.9 122.7,26.8 122.9,26.6 109.1,18.6 "/>
<path class="st1" d="M128.8,37.1l6-3.5v-7l-6.1-3.5l-6.1,3.5v7L128.8,37.1L128.8,37.1L128.8,37.1z M134.5,33.5l-5.8,3.3l-5.8-3.3
	v-6.7l5.8-3.3l5.8,3.3V33.5z"/>
<rect x="128.6" y="37" class="st1" width="0.3" height="18.4"/>
<path class="st1" d="M128.8,89.8l14.9-8.6V63.9l-15-8.7l-15,8.7v17.3C118.7,84.1,123.7,87,128.8,89.8L128.8,89.8L128.8,89.8z
	 M143.4,81.1l-14.7,8.5L114,81.1v-17l14.7-8.5l14.7,8.5V81.1z"/>
<polygon class="st1" points="100,56.2 113.8,64.1 113.9,63.9 100.2,55.9 "/>
<path class="st1" d="M94.3,59.6l6-3.5v-7l-6.1-3.5l-6.1,3.5v7L94.3,59.6L94.3,59.6L94.3,59.6z M100,56l-5.8,3.3L88.4,56v-6.7
	l5.8-3.3l5.8,3.3V56z"/>
<path class="st1" d="M64.3,185.6l17.7,10.2v20.5c-5.9,3.4-11.8,6.8-17.7,10.2c-5.9-3.4-11.8-6.8-17.7-10.2v-20.5
	C52.4,192.4,58.3,189,64.3,185.6L64.3,185.6L64.3,185.6z M81.6,196l-17.4-10.1L46.8,196v20.1l17.4,10.1l17.4-10.1V196z"/>
<polygon class="st1" points="81.7,195.8 95.5,187.8 95.6,188.1 81.9,196 "/>
<path class="st1" d="M106.2,169.4l10.7,6.2V188l-10.8,6.2L95.4,188v-12.4C99,173.5,102.6,171.4,106.2,169.4L106.2,169.4L106.2,169.4
	z M116.7,175.7l-10.5-6.1l-10.5,6.1v12.1l10.5,6.1l10.5-6.1L116.7,175.7z"/>
<polygon class="st1" points="116.7,175.5 130.5,167.6 130.6,167.8 116.9,175.8 "/>
<path class="st1" d="M157,122l26.4,15.2v30.6c-8.8,5.1-17.6,10.2-26.5,15.3c-8.8-5.1-17.7-10.2-26.5-15.3v-30.6
	C139.3,132.1,148.1,127,157,122L157,122L157,122z M183.1,137.4l-26.2-15.1l-26.2,15.1v30.3l26.2,15.1l26.2-15.1V137.4z"/>
<polygon class="st1" points="46.5,196 21.6,181.6 21.8,181.4 46.7,195.8 "/>
<path class="st1" d="M-0.5,110.8l22.3,12.9v57.9l-22.3,12.9v-0.3l22.1-12.7v-57.6l-22.1-12.7V110.8z"/>
<path class="st1" d="M64.3,244.7l8.2,4.7v9.5l-8.2,4.8l-8.2-4.8v-9.5L64.3,244.7L64.3,244.7L64.3,244.7z M72.1,249.5l-7.9-4.6
	l-7.9,4.6v9.2l7.9,4.6l7.9-4.6V249.5z"/>
<rect x="64.1" y="226.3" class="st1" width="0.3" height="18.4"/>
<polygon class="st1" points="36,270.3 56,258.7 56.2,258.9 36.1,270.5 "/>
<path class="st1" d="M21.2,261.7l14.9,8.6v13.4h-0.3v-13.2L21.2,262l-14.7,8.5v13.2H6.2v-13.4C11.2,267.4,16.2,264.5,21.2,261.7
	L21.2,261.7z"/>
<rect x="21" y="243.4" class="st1" width="0.3" height="18.4"/>
<path class="st1" d="M21.2,224.6l8.1,4.7v9.5l-8.2,4.8l-8.2-4.8v-9.5L21.2,224.6L21.2,224.6L21.2,224.6z M29.1,229.4l-7.9-4.6
	l-7.9,4.6v9.2l7.9,4.6l7.9-4.6L29.1,229.4z"/>
<polygon class="st1" points="92.3,270.5 72.2,258.9 72.4,258.7 92.4,270.3 "/>
<path class="st1" d="M115.5,257l23,13.3v13.4h-0.3v-13.2l-22.9-13.2l-22.9,13.2v13.2h-0.3v-13.4c7.7-4.4,15.4-8.9,23.2-13.4
	L115.5,257z"/>
<rect x="156.8" y="182.9" class="st1" width="0.3" height="18.4"/>
<path class="st1" d="M157,201.2l8.1,4.7v9.5l-8.2,4.8l-8.2-4.8v-9.5L157,201.2L157,201.2z M164.9,206.1l-7.9-4.6l-7.9,4.6v9.2
	l7.9,4.6l7.9-4.6V206.1z"/>
<rect x="106" y="194.1" class="st1" width="0.3" height="31"/>
<path class="st1" d="M106.2,224.9l6,3.5v7l-6.1,3.5l-6.1-3.5v-7L106.2,224.9L106.2,224.9L106.2,224.9z M112,228.6l-5.8-3.4l-5.8,3.3
	v6.7l5.8,3.3l5.8-3.3V228.6z"/>
<path class="st1" d="M193.7,214.6l14.9,8.6v17.3c-5,2.9-10,5.8-15,8.7c-5-2.9-10-5.8-15-8.7v-17.3
	C183.6,220.3,188.6,217.4,193.7,214.6L193.7,214.6L193.7,214.6z M208.3,223.4l-14.7-8.5l-14.7,8.5v17l14.7,8.5l14.7-8.5V223.4z"/>
<polygon class="st1" points="178.7,223.4 164.9,215.5 165.1,215.2 178.8,223.2 "/>
<polygon class="st1" points="164.9,248.3 178.7,240.3 178.8,240.6 165.1,248.5 "/>
<path class="st1" d="M159.1,244.9l6,3.5v7l-6.1,3.5l-6.1-3.5v-7L159.1,244.9L159.1,244.9L159.1,244.9z M164.9,248.5l-5.8-3.3
	l-5.8,3.3v6.7l5.8,3.3l5.8-3.3V248.5z"/>
<rect x="193.5" y="249" class="st1" width="0.3" height="33.2"/>
<path class="st1" d="M193.7,282.1l2.6,1.5h-0.6l-2.2-1.2l-2.1,1.2h-0.6L193.7,282.1L193.7,282.1z"/>
<polygon class="st1" points="208.4,223.2 222.2,215.2 222.3,215.5 208.5,223.4 "/>
<path class="st1" d="M228.2,205l6,3.5v7l-6.1,3.5l-6.1-3.5v-7L228.2,205L228.2,205L228.2,205z M233.9,208.6l-5.8-3.3l-5.8,3.3v6.7
	l5.8,3.3l5.8-3.3V208.6z"/>
<rect x="228" y="186.7" class="st1" width="0.3" height="18.4"/>
<path class="st1" d="M228.2,152.2l14.9,8.6v17.4c-5,2.9-10,5.8-15,8.7c-5-2.9-10-5.8-15-8.7v-17.3
	C218.2,158,223.2,155.1,228.2,152.2L228.2,152.2L228.2,152.2z M242.9,161l-14.7-8.5l-14.7,8.5v17l14.7,8.5l14.7-8.5V161z"/>
<polygon class="st1" points="199.5,185.9 213.2,178 213.4,178.2 199.6,186.2 "/>
<path class="st1" d="M193.7,182.5l6,3.5v7l-6.1,3.5l-6.1-3.5v-7L193.7,182.5L193.7,182.5L193.7,182.5z M199.4,186.1l-5.8-3.3
	l-5.8,3.3v6.7l5.8,3.3l5.8-3.3V186.1z"/>
<rect x="64.1" y="167.3" class="st1" width="0.3" height="18.4"/>
<path class="st1" d="M64.3,153.5l6,3.5v7l-6.1,3.5l-6.1-3.5v-7L64.3,153.5L64.3,153.5L64.3,153.5z M70,157.1l-5.8-3.3l-5.8,3.3v6.7
	l5.8,3.3l5.8-3.3V157.1z"/>
<path class="st1" d="M283,21.6l-10.2,5.9v12.4l10.2,5.9v-0.3l-9.9-5.7V27.7L283,22V21.6z"/>
<polygon class="st1" points="273,27.5 259.3,19.5 259.1,19.8 272.9,27.7 "/>
<path class="st1" d="M206.4,0.2v19.5c8.8,5.1,17.7,10.2,26.5,15.3c8.8-5.1,17.7-10.2,26.5-15.3V0.2h-0.3v19.4l-26.2,15.1l-26.2-15.1
	V0.2H206.4z"/>
<path class="st1" d="M274.3,108.9l-23.1,13.3v26.7c7.7,4.5,15.4,8.9,23.1,13.4l8.6-5V157l-8.6,5l-22.9-13.2v-26.4l22.9-13.2l8.6,5
	v-0.3L274.3,108.9L274.3,108.9z"/>
<rect x="232.7" y="34.8" class="st1" width="0.3" height="18.4"/>
<path class="st1" d="M232.8,53.2l-8.2,4.7v9.5l8.2,4.8l8.2-4.8v-9.5L232.8,53.2L232.8,53.2L232.8,53.2z M224.9,58.1l7.9-4.6l7.9,4.6
	v9.1l-7.9,4.6l-7.9-4.6L224.9,58.1z"/>
<path class="st1" d="M283,77.2l-5.5,3.1v7l5.5,3.2v-0.3l-5.2-3v-6.7l5.2-3L283,77.2z"/>
<path class="st1" d="M196.1,66.5l-14.9,8.7v17.3l15,8.7l15-8.7V75.2C206.1,72.3,201.1,69.4,196.1,66.5L196.1,66.5L196.1,66.5z
	 M181.4,75.3l14.7-8.5l14.7,8.5v17l-14.7,8.5l-14.7-8.5V75.3z"/>
<polygon class="st1" points="211.1,75.4 224.8,67.4 224.7,67.2 210.9,75.1 "/>
<polygon class="st1" points="224.8,100.2 211.1,92.3 210.9,92.5 224.7,100.5 "/>
<path class="st1" d="M230.6,96.8l-6,3.5v7l6.1,3.5l6.1-3.5v-7L230.6,96.8L230.6,96.8L230.6,96.8z M224.9,100.4l5.8-3.3l5.8,3.3v6.7
	l-5.8,3.3l-5.8-3.3V100.4z"/>
<rect x="196" y="101" class="st1" width="0.3" height="33.2"/>
<path class="st1" d="M196.1,134l-6,3.5v7l6.1,3.5l6.1-3.5v-7L196.1,134L196.1,134L196.1,134z M190.4,137.7l5.8-3.3l5.8,3.3v6.7
	l-5.8,3.3l-5.8-3.3V137.7z"/>
<polygon class="st1" points="181.4,75.1 167.6,67.2 167.5,67.4 181.2,75.4 "/>
<path class="st1" d="M161.5,56.9l-6,3.5v7l6.1,3.5l6.1-3.5v-7L161.5,56.9L161.5,56.9L161.5,56.9z M155.8,60.5l5.8-3.3l5.8,3.3v6.7
	l-5.8,3.3l-5.8-3.3L155.8,60.5z"/>
<rect x="161.5" y="38.6" class="st1" width="0.3" height="18.4"/>
<path class="st1" d="M161.5,4.2l-14.9,8.6v17.3l15,8.7l15-8.7V12.8C171.6,9.9,166.6,7,161.5,4.2L161.5,4.2z M146.9,12.9l14.7-8.5
	l14.7,8.5v17l-14.7,8.5l-14.7-8.5V12.9z"/>
<polygon class="st1" points="190.3,37.8 176.5,29.9 176.4,30.1 190.1,38.1 "/>
<path class="st1" d="M196.1,34.4l-6,3.5v7l6.1,3.5l6.1-3.5v-7L196.1,34.4L196.1,34.4L196.1,34.4z M190.4,38l5.8-3.3l5.8,3.3v6.7
	l-5.8,3.3l-5.8-3.3V38z"/>
<path class="st2" d="M92.1,48.4l17.7,10.2V79c-5.9,3.4-11.8,6.8-17.7,10.2c-5.9-3.4-11.8-6.8-17.7-10.2V58.6
	C80.2,55.2,86.1,51.7,92.1,48.4L92.1,48.4L92.1,48.4z M109.4,58.7L92,48.7L74.5,58.7v20.2L92,89l17.4-10.1V58.7z"/>
<rect x="87.9" y="53.5" transform="matrix(0.866 -0.5 0.5 0.866 -10.965 66.3315)" class="st2" width="60.7" height="0.3"/>
<path class="st2" d="M134,32.2l10.7,6.2v12.4c-3.6,2.1-7.2,4.1-10.8,6.2c-3.6-2.1-7.2-4.2-10.8-6.2V38.4L134,32.2L134,32.2L134,32.2
	z M144.5,38.5l-10.5-6l-10.5,6v12.1l10.5,6.1l10.5-6.1V38.5z"/>
<polygon class="st2" points="144.5,38.3 210.6,0.2 211.1,0.2 144.7,38.6 "/>
<path class="st2" d="M211.2,0.2v30.4c-8.8,5.1-17.7,10.2-26.5,15.3c-8.8-5.1-17.6-10.2-26.5-15.3V0.2h0.3v30.2l26.2,15.1l26.2-15.1
	V0.2H211.2z"/>
<polygon class="st2" points="91.9,68.9 25.8,30.7 25.9,30.5 92.1,68.7 "/>
<path class="st2" d="M49.6,0.2v44.2C32.9,54,16.2,63.6-0.5,73.3V73l49.8-28.8v-44H49.6z"/>
<path class="st2" d="M92.1,107.4l8.2,4.7v9.5l-8.2,4.8l-8.2-4.8v-9.5L92.1,107.4L92.1,107.4L92.1,107.4z M99.9,112.3l-7.9-4.6
	l-7.9,4.6v9.2l7.9,4.6l7.9-4.6V112.3z"/>
<rect x="91.9" y="89.1" class="st2" width="0.3" height="18.4"/>
<polygon class="st2" points="63.8,133 83.8,121.4 84,121.7 63.9,133.3 "/>
<path class="st2" d="M49,124.5l14.9,8.6v17.3l-15,8.7l-15-8.7v-17.3C39,130.2,44,127.3,49,124.5L49,124.5L49,124.5z M63.7,133.2
	L49,124.7l-14.7,8.5v17l14.7,8.5l14.7-8.5V133.2z"/>
<rect x="48.8" y="106.1" class="st2" width="0.3" height="35.6"/>
<rect x="48.8" y="158.9" class="st2" width="0.3" height="18.4"/>
<polygon class="st2" points="120.1,133.3 100,121.7 100.1,121.4 120.2,133 "/>
<path class="st2" d="M143.2,119.7l23.1,13.3v26.7c-7.7,4.5-15.4,8.9-23.1,13.4c-7.7-4.5-15.4-8.9-23.2-13.4v-26.7
	C127.7,128.6,135.5,124.2,143.2,119.7L143.2,119.7L143.2,119.7z M166,133.2L143.2,120l-22.9,13.2v26.4l22.9,13.2l22.9-13.2
	L166,133.2z"/>
<rect x="184.6" y="15.3" class="st2" width="0.3" height="48.9"/>
<path class="st2" d="M184.8,64l8.1,4.7v9.5l-8.2,4.8l-8.2-4.8v-9.5L184.8,64L184.8,64L184.8,64z M192.6,68.9l-7.9-4.6l-7.9,4.6v9.2
	l7.9,4.6l7.9-4.6V68.9z"/>
<rect x="133.8" y="56.8" class="st2" width="0.3" height="31"/>
<path class="st2" d="M221.5,77.4l14.9,8.6v17.3c-5,2.9-10,5.8-15,8.7c-5-2.9-10-5.8-15-8.7V86C211.4,83.1,216.4,80.2,221.5,77.4
	L221.5,77.4L221.5,77.4z M236.1,86.2l-14.7-8.5l-14.7,8.5v17l14.7,8.5l14.7-8.5V86.2z"/>
<polygon class="st2" points="206.5,86.2 192.7,78.3 192.9,78 206.6,86 "/>
<polygon class="st2" points="192.7,111.1 215.6,97.8 215.8,98.1 192.9,111.3 "/>
<path class="st2" d="M186.9,107.6l6,3.5v7l-6.1,3.5l-6.1-3.5v-7L186.9,107.6L186.9,107.6L186.9,107.6z M192.6,111.3l-5.8-3.3
	l-5.8,3.3v6.7l5.8,3.3l5.8-3.3V111.3z"/>
<rect x="221.3" y="111.8" class="st2" width="0.3" height="33.2"/>
<path class="st2" d="M221.5,144.9l6,3.5v7l-6.1,3.5l-6.1-3.5v-7L221.5,144.9L221.5,144.9L221.5,144.9z M227.2,148.5l-5.8-3.3
	l-5.8,3.3v6.7l5.8,3.3l5.8-3.3L227.2,148.5z"/>
<polygon class="st2" points="227,91.3 249.9,78 250.1,78.3 227.2,91.5 "/>
<rect x="255.8" y="49.4" class="st2" width="0.3" height="18.4"/>
<path class="st2" d="M256,15l14.9,8.6V41c-5,2.9-10,5.8-15,8.7c-5-2.9-10-5.8-15-8.7V23.6C245.9,20.7,250.9,17.9,256,15L256,15
	L256,15z M270.6,23.8l-14.7-8.5l-14.7,8.5v17l14.7,8.5l14.7-8.5V23.8z"/>
<polygon class="st2" points="227.3,48.7 241,40.7 241.2,41 227.4,48.9 "/>
<path class="st2" d="M221.5,45.3l6,3.5v7l-6.1,3.5l-6.1-3.5v-7L221.5,45.3L221.5,45.3L221.5,45.3z M227.2,48.9l-5.8-3.3l-5.8,3.3
	v6.7l5.8,3.3l5.8-3.3V48.9z"/>
<rect x="91.9" y="30.1" class="st2" width="0.3" height="59"/>
<path class="st2" d="M92.1,16.3l6,3.5v7L92,30.2l-6.1-3.5v-7L92.1,16.3L92.1,16.3L92.1,16.3z M97.8,19.9L92,16.6l-5.8,3.3v6.7
	l5.8,3.3l5.8-3.3V19.9z"/>
<path class="st2" d="M-0.5,153.4l14.7,8.5v30.6l-14.7,8.5v-0.3l14.4-8.4V162l-14.4-8.3V153.4z"/>
<polygon class="st2" points="14,161.8 48.9,141.6 49,141.9 14.1,162 "/>
<rect x="91.9" y="8.9" class="st2" width="0.3" height="7.5"/>
<polygon class="st2" points="110.3,12.8 98,19.9 97.8,19.7 110.1,12.6 "/>
<polygon class="st2" points="108.2,32.7 97.8,26.8 98,26.5 108.3,32.5 "/>
<polygon class="st2" points="64.3,7.1 86.1,19.7 86,19.9 64.2,7.3 "/>
<polygon class="st2" points="74.5,33.2 86,26.5 86.1,26.8 74.6,33.4 "/>
<path class="st2" d="M49,86.6l8.5,4.9v9.9l-8.5,4.9l-8.5-4.9v-9.9L49,86.6L49,86.6L49,86.6z M57.2,91.7L49,86.9l-8.3,4.8v9.5L49,106
	l8.3-4.8V91.7z"/>
<rect x="48.8" y="66.1" class="st2" width="0.3" height="20.6"/>
<polygon class="st2" points="66.6,86.4 57.4,91.7 57.3,91.5 66.5,86.2 "/>
<polygon class="st2" points="66.5,106.7 57.3,101.4 57.4,101.2 66.6,106.5 "/>
<polygon class="st2" points="17.6,78.2 40.6,91.5 40.5,91.7 17.4,78.4 "/>
<polygon class="st2" points="28.4,108.2 40.5,101.2 40.6,101.4 28.5,108.4 "/>
<path class="st2" d="M49,177.2l8.3,4.8v9.6l-8.3,4.8c-2.8-1.6-5.6-3.2-8.3-4.8V182L49,177.2L49,177.2z M57,182.1l-8.1-4.7l-8.1,4.7
	v9.3l8.1,4.7l8.1-4.7V182.1z"/>
<polygon class="st2" points="89.8,163.4 57.2,182.2 57.1,181.9 89.6,163.2 "/>
<polygon class="st2" points="66.1,196.8 57.1,191.7 57.2,191.4 66.2,196.6 "/>
<polygon class="st2" points="31.9,176.8 40.8,181.9 40.7,182.2 31.7,177 "/>
<polygon class="st2" points="25.2,200.3 40.7,191.4 40.8,191.7 25.4,200.6 "/>
<rect x="48.8" y="196.3" class="st2" width="0.3" height="32.2"/>
<path class="st2" d="M134,87.7l6,3.5v7l-6.1,3.5l-6.1-3.5v-7L134,87.7L134,87.7L134,87.7z M139.7,91.3L134,88l-5.8,3.3V98l5.8,3.3
	l5.8-3.3V91.3z"/>
<polygon class="st2" points="165,77 140,91.4 139.8,91.1 164.8,76.7 "/>
<polygon class="st2" points="154.6,106.7 139.8,98.2 140,98 154.7,106.5 "/>
<polygon class="st2" points="124,88.7 128.1,91.1 128,91.4 123.8,89 "/>
<polygon class="st2" points="113.6,106.3 128,98 128.1,98.2 113.7,106.5 "/>
<rect x="133.8" y="101.5" class="st2" width="0.3" height="7.5"/>
<path class="st2" d="M256,67.8l6,3.5v7l-6.1,3.5l-6.1-3.5v-7L256,67.8L256,67.8L256,67.8z M261.7,71.4l-5.8-3.3l-5.8,3.3v6.7
	l5.8,3.3l5.8-3.3V71.4z"/>
<polygon class="st2" points="270.9,66.3 261.9,71.4 261.8,71.2 270.7,66 "/>
<polygon class="st2" points="266.8,81.2 261.8,78.3 261.9,78 267,80.9 "/>
<polygon class="st2" points="243.6,67.5 250.1,71.2 249.9,71.4 243.5,67.7 "/>
<rect x="255.8" y="81.6" class="st2" width="0.3" height="38.4"/>
<rect x="221.3" y="13.3" class="st2" width="0.3" height="32.1"/>
<polygon class="st2" points="233.7,59.5 227.3,55.8 227.4,55.5 233.9,59.3 "/>
<polygon class="st2" points="211.4,46.3 215.6,48.7 215.4,48.9 211.3,46.5 "/>
<polygon class="st2" points="192.7,68.6 215.4,55.5 215.6,55.8 192.9,68.9 "/>
<rect x="221.3" y="59.1" class="st2" width="0.3" height="6.7"/>
<rect x="186.7" y="100.3" class="st2" width="0.3" height="7.5"/>
<polygon class="st2" points="206,125.8 192.7,118.1 192.9,117.9 206.1,125.6 "/>
<polygon class="st2" points="169.4,104.3 181,111.1 180.9,111.3 169.2,104.6 "/>
<polygon class="st2" points="174.4,121.6 180.9,117.9 181,118.1 174.6,121.9 "/>
<rect x="186.7" y="121.4" class="st2" width="0.3" height="14.6"/>
<polygon class="st2" points="243.9,139 227.4,148.6 227.3,148.3 243.8,138.8 "/>
<polygon class="st2" points="233.7,159.1 227.3,155.4 227.4,155.2 233.9,158.9 "/>
<polygon class="st2" points="209.1,144.6 215.6,148.3 215.4,148.6 208.9,144.8 "/>
<polygon class="st2" points="189.7,170 215.4,155.2 215.6,155.4 189.8,170.3 "/>
<rect x="221.3" y="158.7" class="st2" width="0.3" height="7.5"/>
<rect x="116.6" y="146.3" transform="matrix(0.866 -0.5 0.5 0.866 -54.0362 91.2042)" class="st2" width="53.1" height="0.3"/>
<path class="st2" d="M143.2,130.3l13.9,8v16.2l-14,8.1l-14-8.1v-16.1L143.2,130.3L143.2,130.3L143.2,130.3z M156.9,138.5l-13.7-7.9
	l-13.7,7.9v15.8l13.7,7.9l13.7-7.9L156.9,138.5z"/>
<path class="st2" d="M194.1,0.2l8.4,4.8v20.5c-5.9,3.4-11.8,6.8-17.8,10.3c-5.9-3.4-11.8-6.9-17.8-10.3V5l8.4-4.8h0.6l-8.6,5v20.2
	l17.5,10.1l17.5-10.1V5.2l-8.7-5H194.1z"/>
<rect x="255.8" y="15.1" transform="matrix(0.5 -0.866 0.866 0.5 99.9934 237.8014)" class="st2" width="0.3" height="34.3"/>
<path class="st2" d="M256,25.3l6,3.5v7l-6.1,3.5l-6.1-3.5v-7L256,25.3L256,25.3L256,25.3z M261.7,29l-5.8-3.3l-5.8,3.3v6.7l5.8,3.3
	l5.8-3.3V29z"/>
<path class="st2" d="M26,0.2v30.5C17.2,35.8,8.3,40.9-0.5,46v-0.3l26.2-15.1V0.3l-0.1-0.1H26z"/>
<rect x="91.9" y="126.2" class="st2" width="0.3" height="7.5"/>
<circle class="st2" cx="221.4" cy="166.2" r="0.5"/>
<circle class="st2" cx="233.8" cy="159" r="0.9"/>
<path class="st2" d="M246.2,134.7c1.6,0,2.8,1.3,2.8,2.8c0,1.6-1.3,2.8-2.8,2.8c-1.6,0-2.8-1.3-2.8-2.8c0-0.7,0.3-1.5,0.8-2
	C244.7,135,245.4,134.7,246.2,134.7z M248,135.7c-1-1-2.6-1-3.6,0c-1,1-1,2.6,0,3.6s2.6,1,3.6,0c0.5-0.5,0.7-1.1,0.7-1.8
	C248.7,136.9,248.4,136.2,248,135.7L248,135.7z"/>
<path class="st2" d="M188.3,169.2c1,0,1.8,0.8,1.8,1.8s-0.8,1.8-1.8,1.8c-1,0-1.8-0.8-1.8-1.8c0-0.5,0.2-0.9,0.5-1.3
	C187.4,169.4,187.8,169.2,188.3,169.2z M189.4,169.9c-0.6-0.6-1.5-0.6-2.1,0s-0.6,1.5,0,2.1s1.5,0.6,2.1,0c0.3-0.3,0.4-0.7,0.4-1.1
	C189.8,170.6,189.7,170.2,189.4,169.9L189.4,169.9z"/>
<circle class="st2" cx="209" cy="144.7" r="0.5"/>
<circle class="st2" cx="255.9" cy="120" r="0.6"/>
<path class="st2" d="M186.9,94.8c1.6,0,2.8,1.3,2.8,2.8c0,1.6-1.3,2.8-2.8,2.8c-1.6,0-2.8-1.3-2.8-2.8c0-0.7,0.3-1.5,0.8-2
	C185.4,95.1,186.1,94.8,186.9,94.8z M188.7,95.8c-1-1-2.6-1-3.6,0s-1,2.6,0,3.6s2.6,1,3.6,0c0.5-0.5,0.7-1.1,0.7-1.8
	C189.4,97,189.1,96.3,188.7,95.8L188.7,95.8z"/>
<circle class="st2" cx="206.1" cy="125.7" r="0.9"/>
<path class="st2" d="M221.4,87.9c3.7,0,6.7,3,6.7,6.7s-3,6.7-6.7,6.7c-3.7,0-6.7-3-6.7-6.7c0-1.8,0.7-3.5,1.9-4.7
	C217.9,88.7,219.6,88,221.4,87.9z M226,90.1c-2.5-2.5-6.6-2.5-9.1,0c-2.5,2.5-2.5,6.6,0,9.1c2.5,2.5,6.6,2.5,9.1,0
	c1.2-1.2,1.9-2.8,1.9-4.5C227.8,93,227.2,91.3,226,90.1z"/>
<circle class="st2" cx="270.8" cy="66.1" r="0.9"/>
<path class="st2" d="M268.3,80.1c1,0,1.8,0.8,1.8,1.8c0,1-0.8,1.8-1.8,1.8c-1,0-1.8-0.8-1.8-1.8c0-0.5,0.2-0.9,0.5-1.3
	C267.4,80.3,267.9,80.1,268.3,80.1z M269.4,80.8c-0.6-0.6-1.5-0.6-2.1,0c-0.6,0.6-0.6,1.5,0,2.1c0.6,0.6,1.5,0.6,2.1,0
	c0.3-0.3,0.4-0.7,0.4-1.1C269.8,81.5,269.7,81.1,269.4,80.8L269.4,80.8z"/>
<circle class="st2" cx="243.6" cy="67.6" r="0.6"/>
<circle class="st2" cx="233.8" cy="59.4" r="0.4"/>
<circle class="st2" cx="221.4" cy="65.8" r="0.6"/>
<path class="st2" d="M209,42.3c1.5,0,2.8,1.3,2.8,2.8c0,1.5-1.3,2.8-2.8,2.8c-1.5,0-2.8-1.3-2.8-2.8c0-0.7,0.3-1.4,0.8-2
	C207.5,42.6,208.3,42.3,209,42.3z M210.8,43.3c-1-1-2.6-1-3.6,0s-1,2.6,0,3.6s2.6,1,3.6,0c0.5-0.5,0.7-1.1,0.7-1.8
	C211.5,44.4,211.3,43.8,210.8,43.3L210.8,43.3z"/>
<path class="st2" d="M221.4,9.6c1.1,0,1.9,0.9,1.9,1.9c0,1.1-0.9,1.9-1.9,1.9c-1.1,0-1.9-0.9-1.9-1.9c0-0.5,0.2-1,0.6-1.4
	C220.4,9.8,220.9,9.6,221.4,9.6z M222.6,10.4c-0.6-0.6-1.7-0.6-2.3,0c-0.6,0.6-0.6,1.7,0,2.3c0.6,0.6,1.7,0.6,2.3,0
	c0.3-0.3,0.5-0.7,0.5-1.2C223,11.1,222.9,10.7,222.6,10.4z"/>
<path class="st2" d="M184.7,7.5c4.3,0,7.8,3.5,7.8,7.8c0,4.3-3.5,7.8-7.8,7.8c-4.3,0-7.8-3.5-7.8-7.8c0-2.1,0.8-4,2.3-5.5
	C180.7,8.3,182.6,7.5,184.7,7.5z M190,10c-2.9-2.9-7.7-2.9-10.6,0s-2.9,7.7,0,10.6s7.7,2.9,10.6,0c1.4-1.4,2.2-3.3,2.2-5.3
	C192.2,13.3,191.4,11.4,190,10L190,10z"/>
<circle class="st2" cx="164.9" cy="76.8" r="0.8"/>
<circle class="st2" cx="154.6" cy="106.6" r="0.9"/>
<circle class="st2" cx="169.3" cy="104.5" r="0.6"/>
<circle class="st2" cx="174.5" cy="121.8" r="0.5"/>
<circle class="st2" cx="186.9" cy="136" r="0.5"/>
<path class="st2" d="M121.6,84.7c1.6,0,2.8,1.3,2.8,2.8c0,1.6-1.3,2.8-2.8,2.8c-1.6,0-2.8-1.3-2.8-2.8c0-0.7,0.3-1.5,0.8-2
	C120.1,85,120.8,84.7,121.6,84.7z M123.4,85.7c-1-1-2.6-1-3.6,0c-1,1-1,2.6,0,3.6c1,1,2.6,1,3.6,0c0.5-0.5,0.7-1.1,0.7-1.8
	C124.1,86.9,123.8,86.2,123.4,85.7L123.4,85.7z"/>
<circle class="st2" cx="113.6" cy="106.4" r="0.6"/>
<circle class="st2" cx="134" cy="109" r="0.4"/>
<path class="st2" d="M92,133.5c2.4,0,4.3,1.9,4.3,4.2s-1.9,4.3-4.2,4.3c-2.4,0-4.3-1.9-4.3-4.2c0-1.1,0.4-2.2,1.2-3
	C89.8,134,90.9,133.5,92,133.5z M94.8,135c-1.6-1.6-4.1-1.6-5.7,0c-1.6,1.6-1.6,4.1,0,5.7c1.6,1.6,4.1,1.6,5.7,0
	c0.8-0.8,1.2-1.8,1.2-2.8C96,136.8,95.6,135.7,94.8,135L94.8,135z"/>
<path class="st2" d="M92,159.1c1.6,0,2.8,1.3,2.8,2.8c0,1.6-1.3,2.8-2.8,2.8c-1.6,0-2.8-1.3-2.8-2.8c0-0.7,0.3-1.5,0.8-2
	C90.5,159.4,91.2,159.1,92,159.1z M93.8,160.1c-1-1-2.6-1-3.6,0c-1,1-1,2.6,0,3.6c1,1,2.6,1,3.6,0c0.5-0.5,0.7-1.1,0.7-1.8
	C94.5,161.2,94.2,160.6,93.8,160.1L93.8,160.1z"/>
<path class="st2" d="M-0.5,5.5c2.6,0,5.1,1,7,2.9c1.9,1.9,2.9,4.4,2.9,7c0,2.6-1,5.1-2.9,7c-1.9,1.9-4.4,2.9-7,2.9V25
	c2.5,0,5-1,6.8-2.8c1.8-1.8,2.8-4.2,2.8-6.8c0-2.5-1-5-2.8-6.8C4.5,6.8,2,5.8-0.5,5.8V5.5z"/>
<circle class="st2" cx="64.3" cy="7.2" r="1.2"/>
<circle class="st2" cx="92" cy="8.9" r="0.6"/>
<path class="st2" d="M72.3,31.8c1.6,0,2.8,1.3,2.8,2.8c0,1.6-1.3,2.8-2.8,2.8s-2.8-1.3-2.8-2.8c0-0.7,0.3-1.5,0.8-2
	C70.8,32.1,71.5,31.8,72.3,31.8z M74,32.8c-1-1-2.6-1-3.6,0c-1,1-1,2.6,0,3.6s2.6,1,3.6,0c0.5-0.5,0.7-1.1,0.7-1.8
	C74.8,33.9,74.5,33.3,74,32.8L74,32.8z"/>
<path class="st2" d="M113.8,6.4c2.4,0,4.3,1.9,4.3,4.2s-1.9,4.3-4.2,4.3c-2.4,0-4.3-1.9-4.3-4.2c0-1.1,0.4-2.2,1.2-3
	C111.5,6.8,112.6,6.4,113.8,6.4z M116.6,7.8c-1.6-1.6-4.1-1.6-5.7,0s-1.6,4.1,0,5.7c1.6,1.6,4.1,1.6,5.7,0c0.8-0.8,1.2-1.8,1.2-2.8
	C117.7,9.6,117.3,8.6,116.6,7.8L116.6,7.8z"/>
<circle class="st2" cx="108.3" cy="32.6" r="0.9"/>
<circle class="st2" cx="49" cy="141.7" r="0.9"/>
<path class="st2" d="M49,132.9c4.9,0,8.9,4,8.8,8.9c0,4.9-4,8.9-8.9,8.8c-4.9,0-8.9-4-8.8-8.9c0-2.3,0.9-4.6,2.6-6.3
	C44.4,133.8,46.6,132.9,49,132.9z M55,135.7c-3.3-3.4-8.8-3.4-12.1-0.1c-3.4,3.3-3.4,8.8-0.1,12.1c3.3,3.4,8.8,3.4,12.1,0.1
	c1.6-1.6,2.5-3.8,2.6-6C57.5,139.5,56.6,137.3,55,135.7L55,135.7z"/>
<path class="st2" d="M49,228.3c2.2,0,3.9,1.8,3.9,3.9c0,2.2-1.8,3.9-3.9,3.9s-3.9-1.8-3.9-3.9c0-1,0.4-2,1.1-2.8
	C46.9,228.7,47.9,228.3,49,228.3z M51.5,229.6c-1.4-1.4-3.7-1.3-5.1,0.1s-1.3,3.7,0.1,5.1s3.7,1.3,5.1-0.1c0.7-0.7,1-1.6,1-2.6
	C52.6,231.2,52.2,230.3,51.5,229.6z"/>
<circle class="st2" cx="31.8" cy="176.9" r="0.9"/>
<circle class="st2" cx="66.1" cy="196.7" r="0.4"/>
<circle class="st2" cx="25.3" cy="200.5" r="0.6"/>
<path class="st2" d="M24.9,106.1c2.4,0,4.3,1.9,4.3,4.2c0,2.4-1.9,4.3-4.2,4.3s-4.3-1.9-4.3-4.2c0-1.1,0.4-2.2,1.2-3
	C22.7,106.5,23.7,106.1,24.9,106.1z M27.7,107.5c-1.6-1.6-4.1-1.6-5.7,0c-1.6,1.6-1.6,4.1,0,5.7c1.6,1.6,4.1,1.6,5.7,0
	c0.8-0.8,1.2-1.8,1.2-2.8C28.9,109.3,28.4,108.3,27.7,107.5L27.7,107.5z"/>
<circle class="st2" cx="66.5" cy="86.3" r="0.6"/>
<circle class="st2" cx="66.5" cy="106.6" r="0.9"/>
<path class="st2" d="M49,62.4c1.1,0,1.9,0.9,1.9,1.9c0,1.1-0.9,1.9-1.9,1.9c-1.1,0-1.9-0.9-1.9-1.9c0-0.5,0.2-1,0.6-1.4
	C48,62.6,48.5,62.4,49,62.4z M50.1,63.2c-0.6-0.6-1.7-0.6-2.3,0c-0.6,0.6-0.6,1.7,0,2.3s1.7,0.6,2.3,0c0.3-0.3,0.5-0.7,0.5-1.2
	C50.6,63.9,50.4,63.5,50.1,63.2L50.1,63.2z"/>
<circle class="st2" cx="17.5" cy="78.3" r="0.6"/>
<circle class="st2" cx="158.6" cy="80.4" r="0.7"/>
<circle class="st2" cx="152.4" cy="84" r="0.6"/>
<circle class="st2" cx="146.1" cy="87.7" r="0.5"/>
<circle class="st2" cx="139.9" cy="91.3" r="0.4"/>
<circle class="st2" cx="123.3" cy="38.4" r="0.5"/>
<circle class="st2" cx="128.7" cy="41.5" r="0.6"/>
<circle class="st2" cx="134" cy="44.6" r="0.6"/>
<circle class="st2" cx="139.3" cy="47.6" r="0.6"/>
<circle class="st2" cx="144.6" cy="50.7" r="0.7"/>
<circle class="st2" cx="40.8" cy="191.5" r="0.4"/>
<circle class="st2" cx="44.9" cy="189.2" r="0.5"/>
<circle class="st2" cx="49" cy="186.8" r="0.5"/>
<circle class="st2" cx="53.1" cy="184.4" r="0.6"/>
<circle class="st2" cx="57.2" cy="182.1" r="0.6"/>
<circle class="st2" cx="92" cy="116.9" r="0.9"/>
<circle class="st2" cx="221.4" cy="94.7" r="0.9"/>
</svg>
<?xml version="1.0" encoding="utf-8"?>
<!-- Generator: Adobe Illustrator 21.0.0, SVG Export Plug-In . SVG Version: 6.00 Build 0)  -->
<svg version="1.1" id="Слой_1" xmlns="http://www.w3.org/2000/svg" xmlns:xlink="http://www.w3.org/1999/xlink" x="0px" y="0px"
     viewBox="0 0 283.5 283.5" style="enable-background:new 0 0 283.5 283.5;opacity:0.05" xml:space="preserve">
<style type="text/css">
	.st0{display:none;fill:#F8F8F9;}
	.st1{fill:#D1D3D4;}
	.st2{fill:#231F20;}
</style>
<rect x="-0.4" y="25.2" class="st0" width="283.5" height="283.5"/>
<path class="st1" d="M6.8,72.7l10.7-6.2V54.1L6.7,47.8L-0.5,52v0.3l7.2-4.2l10.5,6v12.2l-10.5,6l-7.2-4.2v0.3L6.8,72.7L6.8,72.7z"/>
<polygon class="st1" points="17.3,66.5 31.1,74.5 31.2,74.2 17.4,66.3 "/>
<path class="st1" d="M57.6,120.1L84,104.9V74.3C75.1,69.2,66.3,64.1,57.5,59C48.7,64.1,39.8,69.2,31,74.3v30.6
	C39.8,110,48.7,115.1,57.6,120.1L57.6,120.1L57.6,120.1z M83.7,104.7l-26.2,15.1l-26.2-15.1V74.4l26.2-15.1l26.2,15.1L83.7,104.7z"
	/>
<rect x="57.3" y="40.7" class="st1" width="0.3" height="18.4"/>
<path class="st1" d="M57.6,40.8l8.1-4.7v-9.5l-8.2-4.7l-8.2,4.8v9.5L57.6,40.8L57.6,40.8L57.6,40.8z M65.4,36l-7.9,4.6l-8-4.6v-9.2
	l8-4.6l7.9,4.6L65.4,36z"/>
<rect x="6.6" y="17" class="st1" width="0.3" height="31"/>
<path class="st1" d="M6.8,17.1l6-3.5v-7L6.7,3.2L0.7,6.7v7L6.8,17.1L6.8,17.1L6.8,17.1z M12.5,13.5l-5.8,3.3L1,13.5V6.8l5.8-3.3
	l5.8,3.3V13.5z"/>
<path class="st1" d="M94.3,27.5l14.9-8.6V1.5l-2.3-1.3h-0.6l2.6,1.5v17l-14.7,8.5l-14.7-8.5v-17l2.6-1.5h-0.6l-2.3,1.3v17.3
	C84.2,21.7,89.2,24.6,94.3,27.5L94.3,27.5z"/>
<polygon class="st1" points="79.3,18.6 65.5,26.6 65.6,26.8 79.4,18.9 "/>
<polygon class="st1" points="76.6,0.2 79.3,1.7 79.4,1.5 77.1,0.2 "/>
<polygon class="st1" points="109,18.9 122.7,26.8 122.9,26.6 109.1,18.6 "/>
<path class="st1" d="M128.8,37.1l6-3.5v-7l-6.1-3.5l-6.1,3.5v7L128.8,37.1L128.8,37.1L128.8,37.1z M134.5,33.5l-5.8,3.3l-5.8-3.3
	v-6.7l5.8-3.3l5.8,3.3V33.5z"/>
<rect x="128.6" y="37" class="st1" width="0.3" height="18.4"/>
<path class="st1" d="M128.8,89.8l14.9-8.6V63.9l-15-8.7l-15,8.7v17.3C118.7,84.1,123.7,87,128.8,89.8L128.8,89.8L128.8,89.8z
	 M143.4,81.1l-14.7,8.5L114,81.1v-17l14.7-8.5l14.7,8.5V81.1z"/>
<polygon class="st1" points="100,56.2 113.8,64.1 113.9,63.9 100.2,55.9 "/>
<path class="st1" d="M94.3,59.6l6-3.5v-7l-6.1-3.5l-6.1,3.5v7L94.3,59.6L94.3,59.6L94.3,59.6z M100,56l-5.8,3.3L88.4,56v-6.7
	l5.8-3.3l5.8,3.3V56z"/>
<path class="st1" d="M64.3,185.6l17.7,10.2v20.5c-5.9,3.4-11.8,6.8-17.7,10.2c-5.9-3.4-11.8-6.8-17.7-10.2v-20.5
	C52.4,192.4,58.3,189,64.3,185.6L64.3,185.6L64.3,185.6z M81.6,196l-17.4-10.1L46.8,196v20.1l17.4,10.1l17.4-10.1V196z"/>
<polygon class="st1" points="81.7,195.8 95.5,187.8 95.6,188.1 81.9,196 "/>
<path class="st1" d="M106.2,169.4l10.7,6.2V188l-10.8,6.2L95.4,188v-12.4C99,173.5,102.6,171.4,106.2,169.4L106.2,169.4L106.2,169.4
	z M116.7,175.7l-10.5-6.1l-10.5,6.1v12.1l10.5,6.1l10.5-6.1L116.7,175.7z"/>
<polygon class="st1" points="116.7,175.5 130.5,167.6 130.6,167.8 116.9,175.8 "/>
<path class="st1" d="M157,122l26.4,15.2v30.6c-8.8,5.1-17.6,10.2-26.5,15.3c-8.8-5.1-17.7-10.2-26.5-15.3v-30.6
	C139.3,132.1,148.1,127,157,122L157,122L157,122z M183.1,137.4l-26.2-15.1l-26.2,15.1v30.3l26.2,15.1l26.2-15.1V137.4z"/>
<polygon class="st1" points="46.5,196 21.6,181.6 21.8,181.4 46.7,195.8 "/>
<path class="st1" d="M-0.5,110.8l22.3,12.9v57.9l-22.3,12.9v-0.3l22.1-12.7v-57.6l-22.1-12.7V110.8z"/>
<path class="st1" d="M64.3,244.7l8.2,4.7v9.5l-8.2,4.8l-8.2-4.8v-9.5L64.3,244.7L64.3,244.7L64.3,244.7z M72.1,249.5l-7.9-4.6
	l-7.9,4.6v9.2l7.9,4.6l7.9-4.6V249.5z"/>
<rect x="64.1" y="226.3" class="st1" width="0.3" height="18.4"/>
<polygon class="st1" points="36,270.3 56,258.7 56.2,258.9 36.1,270.5 "/>
<path class="st1" d="M21.2,261.7l14.9,8.6v13.4h-0.3v-13.2L21.2,262l-14.7,8.5v13.2H6.2v-13.4C11.2,267.4,16.2,264.5,21.2,261.7
	L21.2,261.7z"/>
<rect x="21" y="243.4" class="st1" width="0.3" height="18.4"/>
<path class="st1" d="M21.2,224.6l8.1,4.7v9.5l-8.2,4.8l-8.2-4.8v-9.5L21.2,224.6L21.2,224.6L21.2,224.6z M29.1,229.4l-7.9-4.6
	l-7.9,4.6v9.2l7.9,4.6l7.9-4.6L29.1,229.4z"/>
<polygon class="st1" points="92.3,270.5 72.2,258.9 72.4,258.7 92.4,270.3 "/>
<path class="st1" d="M115.5,257l23,13.3v13.4h-0.3v-13.2l-22.9-13.2l-22.9,13.2v13.2h-0.3v-13.4c7.7-4.4,15.4-8.9,23.2-13.4
	L115.5,257z"/>
<rect x="156.8" y="182.9" class="st1" width="0.3" height="18.4"/>
<path class="st1" d="M157,201.2l8.1,4.7v9.5l-8.2,4.8l-8.2-4.8v-9.5L157,201.2L157,201.2z M164.9,206.1l-7.9-4.6l-7.9,4.6v9.2
	l7.9,4.6l7.9-4.6V206.1z"/>
<rect x="106" y="194.1" class="st1" width="0.3" height="31"/>
<path class="st1" d="M106.2,224.9l6,3.5v7l-6.1,3.5l-6.1-3.5v-7L106.2,224.9L106.2,224.9L106.2,224.9z M112,228.6l-5.8-3.4l-5.8,3.3
	v6.7l5.8,3.3l5.8-3.3V228.6z"/>
<path class="st1" d="M193.7,214.6l14.9,8.6v17.3c-5,2.9-10,5.8-15,8.7c-5-2.9-10-5.8-15-8.7v-17.3
	C183.6,220.3,188.6,217.4,193.7,214.6L193.7,214.6L193.7,214.6z M208.3,223.4l-14.7-8.5l-14.7,8.5v17l14.7,8.5l14.7-8.5V223.4z"/>
<polygon class="st1" points="178.7,223.4 164.9,215.5 165.1,215.2 178.8,223.2 "/>
<polygon class="st1" points="164.9,248.3 178.7,240.3 178.8,240.6 165.1,248.5 "/>
<path class="st1" d="M159.1,244.9l6,3.5v7l-6.1,3.5l-6.1-3.5v-7L159.1,244.9L159.1,244.9L159.1,244.9z M164.9,248.5l-5.8-3.3
	l-5.8,3.3v6.7l5.8,3.3l5.8-3.3V248.5z"/>
<rect x="193.5" y="249" class="st1" width="0.3" height="33.2"/>
<path class="st1" d="M193.7,282.1l2.6,1.5h-0.6l-2.2-1.2l-2.1,1.2h-0.6L193.7,282.1L193.7,282.1z"/>
<polygon class="st1" points="208.4,223.2 222.2,215.2 222.3,215.5 208.5,223.4 "/>
<path class="st1" d="M228.2,205l6,3.5v7l-6.1,3.5l-6.1-3.5v-7L228.2,205L228.2,205L228.2,205z M233.9,208.6l-5.8-3.3l-5.8,3.3v6.7
	l5.8,3.3l5.8-3.3V208.6z"/>
<rect x="228" y="186.7" class="st1" width="0.3" height="18.4"/>
<path class="st1" d="M228.2,152.2l14.9,8.6v17.4c-5,2.9-10,5.8-15,8.7c-5-2.9-10-5.8-15-8.7v-17.3
	C218.2,158,223.2,155.1,228.2,152.2L228.2,152.2L228.2,152.2z M242.9,161l-14.7-8.5l-14.7,8.5v17l14.7,8.5l14.7-8.5V161z"/>
<polygon class="st1" points="199.5,185.9 213.2,178 213.4,178.2 199.6,186.2 "/>
<path class="st1" d="M193.7,182.5l6,3.5v7l-6.1,3.5l-6.1-3.5v-7L193.7,182.5L193.7,182.5L193.7,182.5z M199.4,186.1l-5.8-3.3
	l-5.8,3.3v6.7l5.8,3.3l5.8-3.3V186.1z"/>
<rect x="64.1" y="167.3" class="st1" width="0.3" height="18.4"/>
<path class="st1" d="M64.3,153.5l6,3.5v7l-6.1,3.5l-6.1-3.5v-7L64.3,153.5L64.3,153.5L64.3,153.5z M70,157.1l-5.8-3.3l-5.8,3.3v6.7
	l5.8,3.3l5.8-3.3V157.1z"/>
<path class="st1" d="M283,21.6l-10.2,5.9v12.4l10.2,5.9v-0.3l-9.9-5.7V27.7L283,22V21.6z"/>
<polygon class="st1" points="273,27.5 259.3,19.5 259.1,19.8 272.9,27.7 "/>
<path class="st1" d="M206.4,0.2v19.5c8.8,5.1,17.7,10.2,26.5,15.3c8.8-5.1,17.7-10.2,26.5-15.3V0.2h-0.3v19.4l-26.2,15.1l-26.2-15.1
	V0.2H206.4z"/>
<path class="st1" d="M274.3,108.9l-23.1,13.3v26.7c7.7,4.5,15.4,8.9,23.1,13.4l8.6-5V157l-8.6,5l-22.9-13.2v-26.4l22.9-13.2l8.6,5
	v-0.3L274.3,108.9L274.3,108.9z"/>
<rect x="232.7" y="34.8" class="st1" width="0.3" height="18.4"/>
<path class="st1" d="M232.8,53.2l-8.2,4.7v9.5l8.2,4.8l8.2-4.8v-9.5L232.8,53.2L232.8,53.2L232.8,53.2z M224.9,58.1l7.9-4.6l7.9,4.6
	v9.1l-7.9,4.6l-7.9-4.6L224.9,58.1z"/>
<path class="st1" d="M283,77.2l-5.5,3.1v7l5.5,3.2v-0.3l-5.2-3v-6.7l5.2-3L283,77.2z"/>
<path class="st1" d="M196.1,66.5l-14.9,8.7v17.3l15,8.7l15-8.7V75.2C206.1,72.3,201.1,69.4,196.1,66.5L196.1,66.5L196.1,66.5z
	 M181.4,75.3l14.7-8.5l14.7,8.5v17l-14.7,8.5l-14.7-8.5V75.3z"/>
<polygon class="st1" points="211.1,75.4 224.8,67.4 224.7,67.2 210.9,75.1 "/>
<polygon class="st1" points="224.8,100.2 211.1,92.3 210.9,92.5 224.7,100.5 "/>
<path class="st1" d="M230.6,96.8l-6,3.5v7l6.1,3.5l6.1-3.5v-7L230.6,96.8L230.6,96.8L230.6,96.8z M224.9,100.4l5.8-3.3l5.8,3.3v6.7
	l-5.8,3.3l-5.8-3.3V100.4z"/>
<rect x="196" y="101" class="st1" width="0.3" height="33.2"/>
<path class="st1" d="M196.1,134l-6,3.5v7l6.1,3.5l6.1-3.5v-7L196.1,134L196.1,134L196.1,134z M190.4,137.7l5.8-3.3l5.8,3.3v6.7
	l-5.8,3.3l-5.8-3.3V137.7z"/>
<polygon class="st1" points="181.4,75.1 167.6,67.2 167.5,67.4 181.2,75.4 "/>
<path class="st1" d="M161.5,56.9l-6,3.5v7l6.1,3.5l6.1-3.5v-7L161.5,56.9L161.5,56.9L161.5,56.9z M155.8,60.5l5.8-3.3l5.8,3.3v6.7
	l-5.8,3.3l-5.8-3.3L155.8,60.5z"/>
<rect x="161.5" y="38.6" class="st1" width="0.3" height="18.4"/>
<path class="st1" d="M161.5,4.2l-14.9,8.6v17.3l15,8.7l15-8.7V12.8C171.6,9.9,166.6,7,161.5,4.2L161.5,4.2z M146.9,12.9l14.7-8.5
	l14.7,8.5v17l-14.7,8.5l-14.7-8.5V12.9z"/>
<polygon class="st1" points="190.3,37.8 176.5,29.9 176.4,30.1 190.1,38.1 "/>
<path class="st1" d="M196.1,34.4l-6,3.5v7l6.1,3.5l6.1-3.5v-7L196.1,34.4L196.1,34.4L196.1,34.4z M190.4,38l5.8-3.3l5.8,3.3v6.7
	l-5.8,3.3l-5.8-3.3V38z"/>
<path class="st2" d="M92.1,48.4l17.7,10.2V79c-5.9,3.4-11.8,6.8-17.7,10.2c-5.9-3.4-11.8-6.8-17.7-10.2V58.6
	C80.2,55.2,86.1,51.7,92.1,48.4L92.1,48.4L92.1,48.4z M109.4,58.7L92,48.7L74.5,58.7v20.2L92,89l17.4-10.1V58.7z"/>
<rect x="87.9" y="53.5" transform="matrix(0.866 -0.5 0.5 0.866 -10.965 66.3315)" class="st2" width="60.7" height="0.3"/>
<path class="st2" d="M134,32.2l10.7,6.2v12.4c-3.6,2.1-7.2,4.1-10.8,6.2c-3.6-2.1-7.2-4.2-10.8-6.2V38.4L134,32.2L134,32.2L134,32.2
	z M144.5,38.5l-10.5-6l-10.5,6v12.1l10.5,6.1l10.5-6.1V38.5z"/>
<polygon class="st2" points="144.5,38.3 210.6,0.2 211.1,0.2 144.7,38.6 "/>
<path class="st2" d="M211.2,0.2v30.4c-8.8,5.1-17.7,10.2-26.5,15.3c-8.8-5.1-17.6-10.2-26.5-15.3V0.2h0.3v30.2l26.2,15.1l26.2-15.1
	V0.2H211.2z"/>
<polygon class="st2" points="91.9,68.9 25.8,30.7 25.9,30.5 92.1,68.7 "/>
<path class="st2" d="M49.6,0.2v44.2C32.9,54,16.2,63.6-0.5,73.3V73l49.8-28.8v-44H49.6z"/>
<path class="st2" d="M92.1,107.4l8.2,4.7v9.5l-8.2,4.8l-8.2-4.8v-9.5L92.1,107.4L92.1,107.4L92.1,107.4z M99.9,112.3l-7.9-4.6
	l-7.9,4.6v9.2l7.9,4.6l7.9-4.6V112.3z"/>
<rect x="91.9" y="89.1" class="st2" width="0.3" height="18.4"/>
<polygon class="st2" points="63.8,133 83.8,121.4 84,121.7 63.9,133.3 "/>
<path class="st2" d="M49,124.5l14.9,8.6v17.3l-15,8.7l-15-8.7v-17.3C39,130.2,44,127.3,49,124.5L49,124.5L49,124.5z M63.7,133.2
	L49,124.7l-14.7,8.5v17l14.7,8.5l14.7-8.5V133.2z"/>
<rect x="48.8" y="106.1" class="st2" width="0.3" height="35.6"/>
<rect x="48.8" y="158.9" class="st2" width="0.3" height="18.4"/>
<polygon class="st2" points="120.1,133.3 100,121.7 100.1,121.4 120.2,133 "/>
<path class="st2" d="M143.2,119.7l23.1,13.3v26.7c-7.7,4.5-15.4,8.9-23.1,13.4c-7.7-4.5-15.4-8.9-23.2-13.4v-26.7
	C127.7,128.6,135.5,124.2,143.2,119.7L143.2,119.7L143.2,119.7z M166,133.2L143.2,120l-22.9,13.2v26.4l22.9,13.2l22.9-13.2
	L166,133.2z"/>
<rect x="184.6" y="15.3" class="st2" width="0.3" height="48.9"/>
<path class="st2" d="M184.8,64l8.1,4.7v9.5l-8.2,4.8l-8.2-4.8v-9.5L184.8,64L184.8,64L184.8,64z M192.6,68.9l-7.9-4.6l-7.9,4.6v9.2
	l7.9,4.6l7.9-4.6V68.9z"/>
<rect x="133.8" y="56.8" class="st2" width="0.3" height="31"/>
<path class="st2" d="M221.5,77.4l14.9,8.6v17.3c-5,2.9-10,5.8-15,8.7c-5-2.9-10-5.8-15-8.7V86C211.4,83.1,216.4,80.2,221.5,77.4
	L221.5,77.4L221.5,77.4z M236.1,86.2l-14.7-8.5l-14.7,8.5v17l14.7,8.5l14.7-8.5V86.2z"/>
<polygon class="st2" points="206.5,86.2 192.7,78.3 192.9,78 206.6,86 "/>
<polygon class="st2" points="192.7,111.1 215.6,97.8 215.8,98.1 192.9,111.3 "/>
<path class="st2" d="M186.9,107.6l6,3.5v7l-6.1,3.5l-6.1-3.5v-7L186.9,107.6L186.9,107.6L186.9,107.6z M192.6,111.3l-5.8-3.3
	l-5.8,3.3v6.7l5.8,3.3l5.8-3.3V111.3z"/>
<rect x="221.3" y="111.8" class="st2" width="0.3" height="33.2"/>
<path class="st2" d="M221.5,144.9l6,3.5v7l-6.1,3.5l-6.1-3.5v-7L221.5,144.9L221.5,144.9L221.5,144.9z M227.2,148.5l-5.8-3.3
	l-5.8,3.3v6.7l5.8,3.3l5.8-3.3L227.2,148.5z"/>
<polygon class="st2" points="227,91.3 249.9,78 250.1,78.3 227.2,91.5 "/>
<rect x="255.8" y="49.4" class="st2" width="0.3" height="18.4"/>
<path class="st2" d="M256,15l14.9,8.6V41c-5,2.9-10,5.8-15,8.7c-5-2.9-10-5.8-15-8.7V23.6C245.9,20.7,250.9,17.9,256,15L256,15
	L256,15z M270.6,23.8l-14.7-8.5l-14.7,8.5v17l14.7,8.5l14.7-8.5V23.8z"/>
<polygon class="st2" points="227.3,48.7 241,40.7 241.2,41 227.4,48.9 "/>
<path class="st2" d="M221.5,45.3l6,3.5v7l-6.1,3.5l-6.1-3.5v-7L221.5,45.3L221.5,45.3L221.5,45.3z M227.2,48.9l-5.8-3.3l-5.8,3.3
	v6.7l5.8,3.3l5.8-3.3V48.9z"/>
<rect x="91.9" y="30.1" class="st2" width="0.3" height="59"/>
<path class="st2" d="M92.1,16.3l6,3.5v7L92,30.2l-6.1-3.5v-7L92.1,16.3L92.1,16.3L92.1,16.3z M97.8,19.9L92,16.6l-5.8,3.3v6.7
	l5.8,3.3l5.8-3.3V19.9z"/>
<path class="st2" d="M-0.5,153.4l14.7,8.5v30.6l-14.7,8.5v-0.3l14.4-8.4V162l-14.4-8.3V153.4z"/>
<polygon class="st2" points="14,161.8 48.9,141.6 49,141.9 14.1,162 "/>
<rect x="91.9" y="8.9" class="st2" width="0.3" height="7.5"/>
<polygon class="st2" points="110.3,12.8 98,19.9 97.8,19.7 110.1,12.6 "/>
<polygon class="st2" points="108.2,32.7 97.8,26.8 98,26.5 108.3,32.5 "/>
<polygon class="st2" points="64.3,7.1 86.1,19.7 86,19.9 64.2,7.3 "/>
<polygon class="st2" points="74.5,33.2 86,26.5 86.1,26.8 74.6,33.4 "/>
<path class="st2" d="M49,86.6l8.5,4.9v9.9l-8.5,4.9l-8.5-4.9v-9.9L49,86.6L49,86.6L49,86.6z M57.2,91.7L49,86.9l-8.3,4.8v9.5L49,106
	l8.3-4.8V91.7z"/>
<rect x="48.8" y="66.1" class="st2" width="0.3" height="20.6"/>
<polygon class="st2" points="66.6,86.4 57.4,91.7 57.3,91.5 66.5,86.2 "/>
<polygon class="st2" points="66.5,106.7 57.3,101.4 57.4,101.2 66.6,106.5 "/>
<polygon class="st2" points="17.6,78.2 40.6,91.5 40.5,91.7 17.4,78.4 "/>
<polygon class="st2" points="28.4,108.2 40.5,101.2 40.6,101.4 28.5,108.4 "/>
<path class="st2" d="M49,177.2l8.3,4.8v9.6l-8.3,4.8c-2.8-1.6-5.6-3.2-8.3-4.8V182L49,177.2L49,177.2z M57,182.1l-8.1-4.7l-8.1,4.7
	v9.3l8.1,4.7l8.1-4.7V182.1z"/>
<polygon class="st2" points="89.8,163.4 57.2,182.2 57.1,181.9 89.6,163.2 "/>
<polygon class="st2" points="66.1,196.8 57.1,191.7 57.2,191.4 66.2,196.6 "/>
<polygon class="st2" points="31.9,176.8 40.8,181.9 40.7,182.2 31.7,177 "/>
<polygon class="st2" points="25.2,200.3 40.7,191.4 40.8,191.7 25.4,200.6 "/>
<rect x="48.8" y="196.3" class="st2" width="0.3" height="32.2"/>
<path class="st2" d="M134,87.7l6,3.5v7l-6.1,3.5l-6.1-3.5v-7L134,87.7L134,87.7L134,87.7z M139.7,91.3L134,88l-5.8,3.3V98l5.8,3.3
	l5.8-3.3V91.3z"/>
<polygon class="st2" points="165,77 140,91.4 139.8,91.1 164.8,76.7 "/>
<polygon class="st2" points="154.6,106.7 139.8,98.2 140,98 154.7,106.5 "/>
<polygon class="st2" points="124,88.7 128.1,91.1 128,91.4 123.8,89 "/>
<polygon class="st2" points="113.6,106.3 128,98 128.1,98.2 113.7,106.5 "/>
<rect x="133.8" y="101.5" class="st2" width="0.3" height="7.5"/>
<path class="st2" d="M256,67.8l6,3.5v7l-6.1,3.5l-6.1-3.5v-7L256,67.8L256,67.8L256,67.8z M261.7,71.4l-5.8-3.3l-5.8,3.3v6.7
	l5.8,3.3l5.8-3.3V71.4z"/>
<polygon class="st2" points="270.9,66.3 261.9,71.4 261.8,71.2 270.7,66 "/>
<polygon class="st2" points="266.8,81.2 261.8,78.3 261.9,78 267,80.9 "/>
<polygon class="st2" points="243.6,67.5 250.1,71.2 249.9,71.4 243.5,67.7 "/>
<rect x="255.8" y="81.6" class="st2" width="0.3" height="38.4"/>
<rect x="221.3" y="13.3" class="st2" width="0.3" height="32.1"/>
<polygon class="st2" points="233.7,59.5 227.3,55.8 227.4,55.5 233.9,59.3 "/>
<polygon class="st2" points="211.4,46.3 215.6,48.7 215.4,48.9 211.3,46.5 "/>
<polygon class="st2" points="192.7,68.6 215.4,55.5 215.6,55.8 192.9,68.9 "/>
<rect x="221.3" y="59.1" class="st2" width="0.3" height="6.7"/>
<rect x="186.7" y="100.3" class="st2" width="0.3" height="7.5"/>
<polygon class="st2" points="206,125.8 192.7,118.1 192.9,117.9 206.1,125.6 "/>
<polygon class="st2" points="169.4,104.3 181,111.1 180.9,111.3 169.2,104.6 "/>
<polygon class="st2" points="174.4,121.6 180.9,117.9 181,118.1 174.6,121.9 "/>
<rect x="186.7" y="121.4" class="st2" width="0.3" height="14.6"/>
<polygon class="st2" points="243.9,139 227.4,148.6 227.3,148.3 243.8,138.8 "/>
<polygon class="st2" points="233.7,159.1 227.3,155.4 227.4,155.2 233.9,158.9 "/>
<polygon class="st2" points="209.1,144.6 215.6,148.3 215.4,148.6 208.9,144.8 "/>
<polygon class="st2" points="189.7,170 215.4,155.2 215.6,155.4 189.8,170.3 "/>
<rect x="221.3" y="158.7" class="st2" width="0.3" height="7.5"/>
<rect x="116.6" y="146.3" transform="matrix(0.866 -0.5 0.5 0.866 -54.0362 91.2042)" class="st2" width="53.1" height="0.3"/>
<path class="st2" d="M143.2,130.3l13.9,8v16.2l-14,8.1l-14-8.1v-16.1L143.2,130.3L143.2,130.3L143.2,130.3z M156.9,138.5l-13.7-7.9
	l-13.7,7.9v15.8l13.7,7.9l13.7-7.9L156.9,138.5z"/>
<path class="st2" d="M194.1,0.2l8.4,4.8v20.5c-5.9,3.4-11.8,6.8-17.8,10.3c-5.9-3.4-11.8-6.9-17.8-10.3V5l8.4-4.8h0.6l-8.6,5v20.2
	l17.5,10.1l17.5-10.1V5.2l-8.7-5H194.1z"/>
<rect x="255.8" y="15.1" transform="matrix(0.5 -0.866 0.866 0.5 99.9934 237.8014)" class="st2" width="0.3" height="34.3"/>
<path class="st2" d="M256,25.3l6,3.5v7l-6.1,3.5l-6.1-3.5v-7L256,25.3L256,25.3L256,25.3z M261.7,29l-5.8-3.3l-5.8,3.3v6.7l5.8,3.3
	l5.8-3.3V29z"/>
<path class="st2" d="M26,0.2v30.5C17.2,35.8,8.3,40.9-0.5,46v-0.3l26.2-15.1V0.3l-0.1-0.1H26z"/>
<rect x="91.9" y="126.2" class="st2" width="0.3" height="7.5"/>
<circle class="st2" cx="221.4" cy="166.2" r="0.5"/>
<circle class="st2" cx="233.8" cy="159" r="0.9"/>
<path class="st2" d="M246.2,134.7c1.6,0,2.8,1.3,2.8,2.8c0,1.6-1.3,2.8-2.8,2.8c-1.6,0-2.8-1.3-2.8-2.8c0-0.7,0.3-1.5,0.8-2
	C244.7,135,245.4,134.7,246.2,134.7z M248,135.7c-1-1-2.6-1-3.6,0c-1,1-1,2.6,0,3.6s2.6,1,3.6,0c0.5-0.5,0.7-1.1,0.7-1.8
	C248.7,136.9,248.4,136.2,248,135.7L248,135.7z"/>
<path class="st2" d="M188.3,169.2c1,0,1.8,0.8,1.8,1.8s-0.8,1.8-1.8,1.8c-1,0-1.8-0.8-1.8-1.8c0-0.5,0.2-0.9,0.5-1.3
	C187.4,169.4,187.8,169.2,188.3,169.2z M189.4,169.9c-0.6-0.6-1.5-0.6-2.1,0s-0.6,1.5,0,2.1s1.5,0.6,2.1,0c0.3-0.3,0.4-0.7,0.4-1.1
	C189.8,170.6,189.7,170.2,189.4,169.9L189.4,169.9z"/>
<circle class="st2" cx="209" cy="144.7" r="0.5"/>
<circle class="st2" cx="255.9" cy="120" r="0.6"/>
<path class="st2" d="M186.9,94.8c1.6,0,2.8,1.3,2.8,2.8c0,1.6-1.3,2.8-2.8,2.8c-1.6,0-2.8-1.3-2.8-2.8c0-0.7,0.3-1.5,0.8-2
	C185.4,95.1,186.1,94.8,186.9,94.8z M188.7,95.8c-1-1-2.6-1-3.6,0s-1,2.6,0,3.6s2.6,1,3.6,0c0.5-0.5,0.7-1.1,0.7-1.8
	C189.4,97,189.1,96.3,188.7,95.8L188.7,95.8z"/>
<circle class="st2" cx="206.1" cy="125.7" r="0.9"/>
<path class="st2" d="M221.4,87.9c3.7,0,6.7,3,6.7,6.7s-3,6.7-6.7,6.7c-3.7,0-6.7-3-6.7-6.7c0-1.8,0.7-3.5,1.9-4.7
	C217.9,88.7,219.6,88,221.4,87.9z M226,90.1c-2.5-2.5-6.6-2.5-9.1,0c-2.5,2.5-2.5,6.6,0,9.1c2.5,2.5,6.6,2.5,9.1,0
	c1.2-1.2,1.9-2.8,1.9-4.5C227.8,93,227.2,91.3,226,90.1z"/>
<circle class="st2" cx="270.8" cy="66.1" r="0.9"/>
<path class="st2" d="M268.3,80.1c1,0,1.8,0.8,1.8,1.8c0,1-0.8,1.8-1.8,1.8c-1,0-1.8-0.8-1.8-1.8c0-0.5,0.2-0.9,0.5-1.3
	C267.4,80.3,267.9,80.1,268.3,80.1z M269.4,80.8c-0.6-0.6-1.5-0.6-2.1,0c-0.6,0.6-0.6,1.5,0,2.1c0.6,0.6,1.5,0.6,2.1,0
	c0.3-0.3,0.4-0.7,0.4-1.1C269.8,81.5,269.7,81.1,269.4,80.8L269.4,80.8z"/>
<circle class="st2" cx="243.6" cy="67.6" r="0.6"/>
<circle class="st2" cx="233.8" cy="59.4" r="0.4"/>
<circle class="st2" cx="221.4" cy="65.8" r="0.6"/>
<path class="st2" d="M209,42.3c1.5,0,2.8,1.3,2.8,2.8c0,1.5-1.3,2.8-2.8,2.8c-1.5,0-2.8-1.3-2.8-2.8c0-0.7,0.3-1.4,0.8-2
	C207.5,42.6,208.3,42.3,209,42.3z M210.8,43.3c-1-1-2.6-1-3.6,0s-1,2.6,0,3.6s2.6,1,3.6,0c0.5-0.5,0.7-1.1,0.7-1.8
	C211.5,44.4,211.3,43.8,210.8,43.3L210.8,43.3z"/>
<path class="st2" d="M221.4,9.6c1.1,0,1.9,0.9,1.9,1.9c0,1.1-0.9,1.9-1.9,1.9c-1.1,0-1.9-0.9-1.9-1.9c0-0.5,0.2-1,0.6-1.4
	C220.4,9.8,220.9,9.6,221.4,9.6z M222.6,10.4c-0.6-0.6-1.7-0.6-2.3,0c-0.6,0.6-0.6,1.7,0,2.3c0.6,0.6,1.7,0.6,2.3,0
	c0.3-0.3,0.5-0.7,0.5-1.2C223,11.1,222.9,10.7,222.6,10.4z"/>
<path class="st2" d="M184.7,7.5c4.3,0,7.8,3.5,7.8,7.8c0,4.3-3.5,7.8-7.8,7.8c-4.3,0-7.8-3.5-7.8-7.8c0-2.1,0.8-4,2.3-5.5
	C180.7,8.3,182.6,7.5,184.7,7.5z M190,10c-2.9-2.9-7.7-2.9-10.6,0s-2.9,7.7,0,10.6s7.7,2.9,10.6,0c1.4-1.4,2.2-3.3,2.2-5.3
	C192.2,13.3,191.4,11.4,190,10L190,10z"/>
<circle class="st2" cx="164.9" cy="76.8" r="0.8"/>
<circle class="st2" cx="154.6" cy="106.6" r="0.9"/>
<circle class="st2" cx="169.3" cy="104.5" r="0.6"/>
<circle class="st2" cx="174.5" cy="121.8" r="0.5"/>
<circle class="st2" cx="186.9" cy="136" r="0.5"/>
<path class="st2" d="M121.6,84.7c1.6,0,2.8,1.3,2.8,2.8c0,1.6-1.3,2.8-2.8,2.8c-1.6,0-2.8-1.3-2.8-2.8c0-0.7,0.3-1.5,0.8-2
	C120.1,85,120.8,84.7,121.6,84.7z M123.4,85.7c-1-1-2.6-1-3.6,0c-1,1-1,2.6,0,3.6c1,1,2.6,1,3.6,0c0.5-0.5,0.7-1.1,0.7-1.8
	C124.1,86.9,123.8,86.2,123.4,85.7L123.4,85.7z"/>
<circle class="st2" cx="113.6" cy="106.4" r="0.6"/>
<circle class="st2" cx="134" cy="109" r="0.4"/>
<path class="st2" d="M92,133.5c2.4,0,4.3,1.9,4.3,4.2s-1.9,4.3-4.2,4.3c-2.4,0-4.3-1.9-4.3-4.2c0-1.1,0.4-2.2,1.2-3
	C89.8,134,90.9,133.5,92,133.5z M94.8,135c-1.6-1.6-4.1-1.6-5.7,0c-1.6,1.6-1.6,4.1,0,5.7c1.6,1.6,4.1,1.6,5.7,0
	c0.8-0.8,1.2-1.8,1.2-2.8C96,136.8,95.6,135.7,94.8,135L94.8,135z"/>
<path class="st2" d="M92,159.1c1.6,0,2.8,1.3,2.8,2.8c0,1.6-1.3,2.8-2.8,2.8c-1.6,0-2.8-1.3-2.8-2.8c0-0.7,0.3-1.5,0.8-2
	C90.5,159.4,91.2,159.1,92,159.1z M93.8,160.1c-1-1-2.6-1-3.6,0c-1,1-1,2.6,0,3.6c1,1,2.6,1,3.6,0c0.5-0.5,0.7-1.1,0.7-1.8
	C94.5,161.2,94.2,160.6,93.8,160.1L93.8,160.1z"/>
<path class="st2" d="M-0.5,5.5c2.6,0,5.1,1,7,2.9c1.9,1.9,2.9,4.4,2.9,7c0,2.6-1,5.1-2.9,7c-1.9,1.9-4.4,2.9-7,2.9V25
	c2.5,0,5-1,6.8-2.8c1.8-1.8,2.8-4.2,2.8-6.8c0-2.5-1-5-2.8-6.8C4.5,6.8,2,5.8-0.5,5.8V5.5z"/>
<circle class="st2" cx="64.3" cy="7.2" r="1.2"/>
<circle class="st2" cx="92" cy="8.9" r="0.6"/>
<path class="st2" d="M72.3,31.8c1.6,0,2.8,1.3,2.8,2.8c0,1.6-1.3,2.8-2.8,2.8s-2.8-1.3-2.8-2.8c0-0.7,0.3-1.5,0.8-2
	C70.8,32.1,71.5,31.8,72.3,31.8z M74,32.8c-1-1-2.6-1-3.6,0c-1,1-1,2.6,0,3.6s2.6,1,3.6,0c0.5-0.5,0.7-1.1,0.7-1.8
	C74.8,33.9,74.5,33.3,74,32.8L74,32.8z"/>
<path class="st2" d="M113.8,6.4c2.4,0,4.3,1.9,4.3,4.2s-1.9,4.3-4.2,4.3c-2.4,0-4.3-1.9-4.3-4.2c0-1.1,0.4-2.2,1.2-3
	C111.5,6.8,112.6,6.4,113.8,6.4z M116.6,7.8c-1.6-1.6-4.1-1.6-5.7,0s-1.6,4.1,0,5.7c1.6,1.6,4.1,1.6,5.7,0c0.8-0.8,1.2-1.8,1.2-2.8
	C117.7,9.6,117.3,8.6,116.6,7.8L116.6,7.8z"/>
<circle class="st2" cx="108.3" cy="32.6" r="0.9"/>
<circle class="st2" cx="49" cy="141.7" r="0.9"/>
<path class="st2" d="M49,132.9c4.9,0,8.9,4,8.8,8.9c0,4.9-4,8.9-8.9,8.8c-4.9,0-8.9-4-8.8-8.9c0-2.3,0.9-4.6,2.6-6.3
	C44.4,133.8,46.6,132.9,49,132.9z M55,135.7c-3.3-3.4-8.8-3.4-12.1-0.1c-3.4,3.3-3.4,8.8-0.1,12.1c3.3,3.4,8.8,3.4,12.1,0.1
	c1.6-1.6,2.5-3.8,2.6-6C57.5,139.5,56.6,137.3,55,135.7L55,135.7z"/>
<path class="st2" d="M49,228.3c2.2,0,3.9,1.8,3.9,3.9c0,2.2-1.8,3.9-3.9,3.9s-3.9-1.8-3.9-3.9c0-1,0.4-2,1.1-2.8
	C46.9,228.7,47.9,228.3,49,228.3z M51.5,229.6c-1.4-1.4-3.7-1.3-5.1,0.1s-1.3,3.7,0.1,5.1s3.7,1.3,5.1-0.1c0.7-0.7,1-1.6,1-2.6
	C52.6,231.2,52.2,230.3,51.5,229.6z"/>
<circle class="st2" cx="31.8" cy="176.9" r="0.9"/>
<circle class="st2" cx="66.1" cy="196.7" r="0.4"/>
<circle class="st2" cx="25.3" cy="200.5" r="0.6"/>
<path class="st2" d="M24.9,106.1c2.4,0,4.3,1.9,4.3,4.2c0,2.4-1.9,4.3-4.2,4.3s-4.3-1.9-4.3-4.2c0-1.1,0.4-2.2,1.2-3
	C22.7,106.5,23.7,106.1,24.9,106.1z M27.7,107.5c-1.6-1.6-4.1-1.6-5.7,0c-1.6,1.6-1.6,4.1,0,5.7c1.6,1.6,4.1,1.6,5.7,0
	c0.8-0.8,1.2-1.8,1.2-2.8C28.9,109.3,28.4,108.3,27.7,107.5L27.7,107.5z"/>
<circle class="st2" cx="66.5" cy="86.3" r="0.6"/>
<circle class="st2" cx="66.5" cy="106.6" r="0.9"/>
<path class="st2" d="M49,62.4c1.1,0,1.9,0.9,1.9,1.9c0,1.1-0.9,1.9-1.9,1.9c-1.1,0-1.9-0.9-1.9-1.9c0-0.5,0.2-1,0.6-1.4
	C48,62.6,48.5,62.4,49,62.4z M50.1,63.2c-0.6-0.6-1.7-0.6-2.3,0c-0.6,0.6-0.6,1.7,0,2.3s1.7,0.6,2.3,0c0.3-0.3,0.5-0.7,0.5-1.2
	C50.6,63.9,50.4,63.5,50.1,63.2L50.1,63.2z"/>
<circle class="st2" cx="17.5" cy="78.3" r="0.6"/>
<circle class="st2" cx="158.6" cy="80.4" r="0.7"/>
<circle class="st2" cx="152.4" cy="84" r="0.6"/>
<circle class="st2" cx="146.1" cy="87.7" r="0.5"/>
<circle class="st2" cx="139.9" cy="91.3" r="0.4"/>
<circle class="st2" cx="123.3" cy="38.4" r="0.5"/>
<circle class="st2" cx="128.7" cy="41.5" r="0.6"/>
<circle class="st2" cx="134" cy="44.6" r="0.6"/>
<circle class="st2" cx="139.3" cy="47.6" r="0.6"/>
<circle class="st2" cx="144.6" cy="50.7" r="0.7"/>
<circle class="st2" cx="40.8" cy="191.5" r="0.4"/>
<circle class="st2" cx="44.9" cy="189.2" r="0.5"/>
<circle class="st2" cx="49" cy="186.8" r="0.5"/>
<circle class="st2" cx="53.1" cy="184.4" r="0.6"/>
<circle class="st2" cx="57.2" cy="182.1" r="0.6"/>
<circle class="st2" cx="92" cy="116.9" r="0.9"/>
<circle class="st2" cx="221.4" cy="94.7" r="0.9"/>
</svg>
<?xml version="1.0" encoding="utf-8"?>
<!-- Generator: Adobe Illustrator 21.0.0, SVG Export Plug-In . SVG Version: 6.00 Build 0)  -->
<svg version="1.1" id="Слой_1" xmlns="http://www.w3.org/2000/svg" xmlns:xlink="http://www.w3.org/1999/xlink" x="0px" y="0px"
     viewBox="0 0 283.5 283.5" style="enable-background:new 0 0 283.5 283.5;opacity:0.05" xml:space="preserve">
<style type="text/css">
	.st0{display:none;fill:#F8F8F9;}
	.st1{fill:#D1D3D4;}
	.st2{fill:#231F20;}
</style>
<rect x="-0.4" y="25.2" class="st0" width="283.5" height="283.5"/>
<path class="st1" d="M6.8,72.7l10.7-6.2V54.1L6.7,47.8L-0.5,52v0.3l7.2-4.2l10.5,6v12.2l-10.5,6l-7.2-4.2v0.3L6.8,72.7L6.8,72.7z"/>
<polygon class="st1" points="17.3,66.5 31.1,74.5 31.2,74.2 17.4,66.3 "/>
<path class="st1" d="M57.6,120.1L84,104.9V74.3C75.1,69.2,66.3,64.1,57.5,59C48.7,64.1,39.8,69.2,31,74.3v30.6
	C39.8,110,48.7,115.1,57.6,120.1L57.6,120.1L57.6,120.1z M83.7,104.7l-26.2,15.1l-26.2-15.1V74.4l26.2-15.1l26.2,15.1L83.7,104.7z"
	/>
<rect x="57.3" y="40.7" class="st1" width="0.3" height="18.4"/>
<path class="st1" d="M57.6,40.8l8.1-4.7v-9.5l-8.2-4.7l-8.2,4.8v9.5L57.6,40.8L57.6,40.8L57.6,40.8z M65.4,36l-7.9,4.6l-8-4.6v-9.2
	l8-4.6l7.9,4.6L65.4,36z"/>
<rect x="6.6" y="17" class="st1" width="0.3" height="31"/>
<path class="st1" d="M6.8,17.1l6-3.5v-7L6.7,3.2L0.7,6.7v7L6.8,17.1L6.8,17.1L6.8,17.1z M12.5,13.5l-5.8,3.3L1,13.5V6.8l5.8-3.3
	l5.8,3.3V13.5z"/>
<path class="st1" d="M94.3,27.5l14.9-8.6V1.5l-2.3-1.3h-0.6l2.6,1.5v17l-14.7,8.5l-14.7-8.5v-17l2.6-1.5h-0.6l-2.3,1.3v17.3
	C84.2,21.7,89.2,24.6,94.3,27.5L94.3,27.5z"/>
<polygon class="st1" points="79.3,18.6 65.5,26.6 65.6,26.8 79.4,18.9 "/>
<polygon class="st1" points="76.6,0.2 79.3,1.7 79.4,1.5 77.1,0.2 "/>
<polygon class="st1" points="109,18.9 122.7,26.8 122.9,26.6 109.1,18.6 "/>
<path class="st1" d="M128.8,37.1l6-3.5v-7l-6.1-3.5l-6.1,3.5v7L128.8,37.1L128.8,37.1L128.8,37.1z M134.5,33.5l-5.8,3.3l-5.8-3.3
	v-6.7l5.8-3.3l5.8,3.3V33.5z"/>
<rect x="128.6" y="37" class="st1" width="0.3" height="18.4"/>
<path class="st1" d="M128.8,89.8l14.9-8.6V63.9l-15-8.7l-15,8.7v17.3C118.7,84.1,123.7,87,128.8,89.8L128.8,89.8L128.8,89.8z
	 M143.4,81.1l-14.7,8.5L114,81.1v-17l14.7-8.5l14.7,8.5V81.1z"/>
<polygon class="st1" points="100,56.2 113.8,64.1 113.9,63.9 100.2,55.9 "/>
<path class="st1" d="M94.3,59.6l6-3.5v-7l-6.1-3.5l-6.1,3.5v7L94.3,59.6L94.3,59.6L94.3,59.6z M100,56l-5.8,3.3L88.4,56v-6.7
	l5.8-3.3l5.8,3.3V56z"/>
<path class="st1" d="M64.3,185.6l17.7,10.2v20.5c-5.9,3.4-11.8,6.8-17.7,10.2c-5.9-3.4-11.8-6.8-17.7-10.2v-20.5
	C52.4,192.4,58.3,189,64.3,185.6L64.3,185.6L64.3,185.6z M81.6,196l-17.4-10.1L46.8,196v20.1l17.4,10.1l17.4-10.1V196z"/>
<polygon class="st1" points="81.7,195.8 95.5,187.8 95.6,188.1 81.9,196 "/>
<path class="st1" d="M106.2,169.4l10.7,6.2V188l-10.8,6.2L95.4,188v-12.4C99,173.5,102.6,171.4,106.2,169.4L106.2,169.4L106.2,169.4
	z M116.7,175.7l-10.5-6.1l-10.5,6.1v12.1l10.5,6.1l10.5-6.1L116.7,175.7z"/>
<polygon class="st1" points="116.7,175.5 130.5,167.6 130.6,167.8 116.9,175.8 "/>
<path class="st1" d="M157,122l26.4,15.2v30.6c-8.8,5.1-17.6,10.2-26.5,15.3c-8.8-5.1-17.7-10.2-26.5-15.3v-30.6
	C139.3,132.1,148.1,127,157,122L157,122L157,122z M183.1,137.4l-26.2-15.1l-26.2,15.1v30.3l26.2,15.1l26.2-15.1V137.4z"/>
<polygon class="st1" points="46.5,196 21.6,181.6 21.8,181.4 46.7,195.8 "/>
<path class="st1" d="M-0.5,110.8l22.3,12.9v57.9l-22.3,12.9v-0.3l22.1-12.7v-57.6l-22.1-12.7V110.8z"/>
<path class="st1" d="M64.3,244.7l8.2,4.7v9.5l-8.2,4.8l-8.2-4.8v-9.5L64.3,244.7L64.3,244.7L64.3,244.7z M72.1,249.5l-7.9-4.6
	l-7.9,4.6v9.2l7.9,4.6l7.9-4.6V249.5z"/>
<rect x="64.1" y="226.3" class="st1" width="0.3" height="18.4"/>
<polygon class="st1" points="36,270.3 56,258.7 56.2,258.9 36.1,270.5 "/>
<path class="st1" d="M21.2,261.7l14.9,8.6v13.4h-0.3v-13.2L21.2,262l-14.7,8.5v13.2H6.2v-13.4C11.2,267.4,16.2,264.5,21.2,261.7
	L21.2,261.7z"/>
<rect x="21" y="243.4" class="st1" width="0.3" height="18.4"/>
<path class="st1" d="M21.2,224.6l8.1,4.7v9.5l-8.2,4.8l-8.2-4.8v-9.5L21.2,224.6L21.2,224.6L21.2,224.6z M29.1,229.4l-7.9-4.6
	l-7.9,4.6v9.2l7.9,4.6l7.9-4.6L29.1,229.4z"/>
<polygon class="st1" points="92.3,270.5 72.2,258.9 72.4,258.7 92.4,270.3 "/>
<path class="st1" d="M115.5,257l23,13.3v13.4h-0.3v-13.2l-22.9-13.2l-22.9,13.2v13.2h-0.3v-13.4c7.7-4.4,15.4-8.9,23.2-13.4
	L115.5,257z"/>
<rect x="156.8" y="182.9" class="st1" width="0.3" height="18.4"/>
<path class="st1" d="M157,201.2l8.1,4.7v9.5l-8.2,4.8l-8.2-4.8v-9.5L157,201.2L157,201.2z M164.9,206.1l-7.9-4.6l-7.9,4.6v9.2
	l7.9,4.6l7.9-4.6V206.1z"/>
<rect x="106" y="194.1" class="st1" width="0.3" height="31"/>
<path class="st1" d="M106.2,224.9l6,3.5v7l-6.1,3.5l-6.1-3.5v-7L106.2,224.9L106.2,224.9L106.2,224.9z M112,228.6l-5.8-3.4l-5.8,3.3
	v6.7l5.8,3.3l5.8-3.3V228.6z"/>
<path class="st1" d="M193.7,214.6l14.9,8.6v17.3c-5,2.9-10,5.8-15,8.7c-5-2.9-10-5.8-15-8.7v-17.3
	C183.6,220.3,188.6,217.4,193.7,214.6L193.7,214.6L193.7,214.6z M208.3,223.4l-14.7-8.5l-14.7,8.5v17l14.7,8.5l14.7-8.5V223.4z"/>
<polygon class="st1" points="178.7,223.4 164.9,215.5 165.1,215.2 178.8,223.2 "/>
<polygon class="st1" points="164.9,248.3 178.7,240.3 178.8,240.6 165.1,248.5 "/>
<path class="st1" d="M159.1,244.9l6,3.5v7l-6.1,3.5l-6.1-3.5v-7L159.1,244.9L159.1,244.9L159.1,244.9z M164.9,248.5l-5.8-3.3
	l-5.8,3.3v6.7l5.8,3.3l5.8-3.3V248.5z"/>
<rect x="193.5" y="249" class="st1" width="0.3" height="33.2"/>
<path class="st1" d="M193.7,282.1l2.6,1.5h-0.6l-2.2-1.2l-2.1,1.2h-0.6L193.7,282.1L193.7,282.1z"/>
<polygon class="st1" points="208.4,223.2 222.2,215.2 222.3,215.5 208.5,223.4 "/>
<path class="st1" d="M228.2,205l6,3.5v7l-6.1,3.5l-6.1-3.5v-7L228.2,205L228.2,205L228.2,205z M233.9,208.6l-5.8-3.3l-5.8,3.3v6.7
	l5.8,3.3l5.8-3.3V208.6z"/>
<rect x="228" y="186.7" class="st1" width="0.3" height="18.4"/>
<path class="st1" d="M228.2,152.2l14.9,8.6v17.4c-5,2.9-10,5.8-15,8.7c-5-2.9-10-5.8-15-8.7v-17.3
	C218.2,158,223.2,155.1,228.2,152.2L228.2,152.2L228.2,152.2z M242.9,161l-14.7-8.5l-14.7,8.5v17l14.7,8.5l14.7-8.5V161z"/>
<polygon class="st1" points="199.5,185.9 213.2,178 213.4,178.2 199.6,186.2 "/>
<path class="st1" d="M193.7,182.5l6,3.5v7l-6.1,3.5l-6.1-3.5v-7L193.7,182.5L193.7,182.5L193.7,182.5z M199.4,186.1l-5.8-3.3
	l-5.8,3.3v6.7l5.8,3.3l5.8-3.3V186.1z"/>
<rect x="64.1" y="167.3" class="st1" width="0.3" height="18.4"/>
<path class="st1" d="M64.3,153.5l6,3.5v7l-6.1,3.5l-6.1-3.5v-7L64.3,153.5L64.3,153.5L64.3,153.5z M70,157.1l-5.8-3.3l-5.8,3.3v6.7
	l5.8,3.3l5.8-3.3V157.1z"/>
<path class="st1" d="M283,21.6l-10.2,5.9v12.4l10.2,5.9v-0.3l-9.9-5.7V27.7L283,22V21.6z"/>
<polygon class="st1" points="273,27.5 259.3,19.5 259.1,19.8 272.9,27.7 "/>
<path class="st1" d="M206.4,0.2v19.5c8.8,5.1,17.7,10.2,26.5,15.3c8.8-5.1,17.7-10.2,26.5-15.3V0.2h-0.3v19.4l-26.2,15.1l-26.2-15.1
	V0.2H206.4z"/>
<path class="st1" d="M274.3,108.9l-23.1,13.3v26.7c7.7,4.5,15.4,8.9,23.1,13.4l8.6-5V157l-8.6,5l-22.9-13.2v-26.4l22.9-13.2l8.6,5
	v-0.3L274.3,108.9L274.3,108.9z"/>
<rect x="232.7" y="34.8" class="st1" width="0.3" height="18.4"/>
<path class="st1" d="M232.8,53.2l-8.2,4.7v9.5l8.2,4.8l8.2-4.8v-9.5L232.8,53.2L232.8,53.2L232.8,53.2z M224.9,58.1l7.9-4.6l7.9,4.6
	v9.1l-7.9,4.6l-7.9-4.6L224.9,58.1z"/>
<path class="st1" d="M283,77.2l-5.5,3.1v7l5.5,3.2v-0.3l-5.2-3v-6.7l5.2-3L283,77.2z"/>
<path class="st1" d="M196.1,66.5l-14.9,8.7v17.3l15,8.7l15-8.7V75.2C206.1,72.3,201.1,69.4,196.1,66.5L196.1,66.5L196.1,66.5z
	 M181.4,75.3l14.7-8.5l14.7,8.5v17l-14.7,8.5l-14.7-8.5V75.3z"/>
<polygon class="st1" points="211.1,75.4 224.8,67.4 224.7,67.2 210.9,75.1 "/>
<polygon class="st1" points="224.8,100.2 211.1,92.3 210.9,92.5 224.7,100.5 "/>
<path class="st1" d="M230.6,96.8l-6,3.5v7l6.1,3.5l6.1-3.5v-7L230.6,96.8L230.6,96.8L230.6,96.8z M224.9,100.4l5.8-3.3l5.8,3.3v6.7
	l-5.8,3.3l-5.8-3.3V100.4z"/>
<rect x="196" y="101" class="st1" width="0.3" height="33.2"/>
<path class="st1" d="M196.1,134l-6,3.5v7l6.1,3.5l6.1-3.5v-7L196.1,134L196.1,134L196.1,134z M190.4,137.7l5.8-3.3l5.8,3.3v6.7
	l-5.8,3.3l-5.8-3.3V137.7z"/>
<polygon class="st1" points="181.4,75.1 167.6,67.2 167.5,67.4 181.2,75.4 "/>
<path class="st1" d="M161.5,56.9l-6,3.5v7l6.1,3.5l6.1-3.5v-7L161.5,56.9L161.5,56.9L161.5,56.9z M155.8,60.5l5.8-3.3l5.8,3.3v6.7
	l-5.8,3.3l-5.8-3.3L155.8,60.5z"/>
<rect x="161.5" y="38.6" class="st1" width="0.3" height="18.4"/>
<path class="st1" d="M161.5,4.2l-14.9,8.6v17.3l15,8.7l15-8.7V12.8C171.6,9.9,166.6,7,161.5,4.2L161.5,4.2z M146.9,12.9l14.7-8.5
	l14.7,8.5v17l-14.7,8.5l-14.7-8.5V12.9z"/>
<polygon class="st1" points="190.3,37.8 176.5,29.9 176.4,30.1 190.1,38.1 "/>
<path class="st1" d="M196.1,34.4l-6,3.5v7l6.1,3.5l6.1-3.5v-7L196.1,34.4L196.1,34.4L196.1,34.4z M190.4,38l5.8-3.3l5.8,3.3v6.7
	l-5.8,3.3l-5.8-3.3V38z"/>
<path class="st2" d="M92.1,48.4l17.7,10.2V79c-5.9,3.4-11.8,6.8-17.7,10.2c-5.9-3.4-11.8-6.8-17.7-10.2V58.6
	C80.2,55.2,86.1,51.7,92.1,48.4L92.1,48.4L92.1,48.4z M109.4,58.7L92,48.7L74.5,58.7v20.2L92,89l17.4-10.1V58.7z"/>
<rect x="87.9" y="53.5" transform="matrix(0.866 -0.5 0.5 0.866 -10.965 66.3315)" class="st2" width="60.7" height="0.3"/>
<path class="st2" d="M134,32.2l10.7,6.2v12.4c-3.6,2.1-7.2,4.1-10.8,6.2c-3.6-2.1-7.2-4.2-10.8-6.2V38.4L134,32.2L134,32.2L134,32.2
	z M144.5,38.5l-10.5-6l-10.5,6v12.1l10.5,6.1l10.5-6.1V38.5z"/>
<polygon class="st2" points="144.5,38.3 210.6,0.2 211.1,0.2 144.7,38.6 "/>
<path class="st2" d="M211.2,0.2v30.4c-8.8,5.1-17.7,10.2-26.5,15.3c-8.8-5.1-17.6-10.2-26.5-15.3V0.2h0.3v30.2l26.2,15.1l26.2-15.1
	V0.2H211.2z"/>
<polygon class="st2" points="91.9,68.9 25.8,30.7 25.9,30.5 92.1,68.7 "/>
<path class="st2" d="M49.6,0.2v44.2C32.9,54,16.2,63.6-0.5,73.3V73l49.8-28.8v-44H49.6z"/>
<path class="st2" d="M92.1,107.4l8.2,4.7v9.5l-8.2,4.8l-8.2-4.8v-9.5L92.1,107.4L92.1,107.4L92.1,107.4z M99.9,112.3l-7.9-4.6
	l-7.9,4.6v9.2l7.9,4.6l7.9-4.6V112.3z"/>
<rect x="91.9" y="89.1" class="st2" width="0.3" height="18.4"/>
<polygon class="st2" points="63.8,133 83.8,121.4 84,121.7 63.9,133.3 "/>
<path class="st2" d="M49,124.5l14.9,8.6v17.3l-15,8.7l-15-8.7v-17.3C39,130.2,44,127.3,49,124.5L49,124.5L49,124.5z M63.7,133.2
	L49,124.7l-14.7,8.5v17l14.7,8.5l14.7-8.5V133.2z"/>
<rect x="48.8" y="106.1" class="st2" width="0.3" height="35.6"/>
<rect x="48.8" y="158.9" class="st2" width="0.3" height="18.4"/>
<polygon class="st2" points="120.1,133.3 100,121.7 100.1,121.4 120.2,133 "/>
<path class="st2" d="M143.2,119.7l23.1,13.3v26.7c-7.7,4.5-15.4,8.9-23.1,13.4c-7.7-4.5-15.4-8.9-23.2-13.4v-26.7
	C127.7,128.6,135.5,124.2,143.2,119.7L143.2,119.7L143.2,119.7z M166,133.2L143.2,120l-22.9,13.2v26.4l22.9,13.2l22.9-13.2
	L166,133.2z"/>
<rect x="184.6" y="15.3" class="st2" width="0.3" height="48.9"/>
<path class="st2" d="M184.8,64l8.1,4.7v9.5l-8.2,4.8l-8.2-4.8v-9.5L184.8,64L184.8,64L184.8,64z M192.6,68.9l-7.9-4.6l-7.9,4.6v9.2
	l7.9,4.6l7.9-4.6V68.9z"/>
<rect x="133.8" y="56.8" class="st2" width="0.3" height="31"/>
<path class="st2" d="M221.5,77.4l14.9,8.6v17.3c-5,2.9-10,5.8-15,8.7c-5-2.9-10-5.8-15-8.7V86C211.4,83.1,216.4,80.2,221.5,77.4
	L221.5,77.4L221.5,77.4z M236.1,86.2l-14.7-8.5l-14.7,8.5v17l14.7,8.5l14.7-8.5V86.2z"/>
<polygon class="st2" points="206.5,86.2 192.7,78.3 192.9,78 206.6,86 "/>
<polygon class="st2" points="192.7,111.1 215.6,97.8 215.8,98.1 192.9,111.3 "/>
<path class="st2" d="M186.9,107.6l6,3.5v7l-6.1,3.5l-6.1-3.5v-7L186.9,107.6L186.9,107.6L186.9,107.6z M192.6,111.3l-5.8-3.3
	l-5.8,3.3v6.7l5.8,3.3l5.8-3.3V111.3z"/>
<rect x="221.3" y="111.8" class="st2" width="0.3" height="33.2"/>
<path class="st2" d="M221.5,144.9l6,3.5v7l-6.1,3.5l-6.1-3.5v-7L221.5,144.9L221.5,144.9L221.5,144.9z M227.2,148.5l-5.8-3.3
	l-5.8,3.3v6.7l5.8,3.3l5.8-3.3L227.2,148.5z"/>
<polygon class="st2" points="227,91.3 249.9,78 250.1,78.3 227.2,91.5 "/>
<rect x="255.8" y="49.4" class="st2" width="0.3" height="18.4"/>
<path class="st2" d="M256,15l14.9,8.6V41c-5,2.9-10,5.8-15,8.7c-5-2.9-10-5.8-15-8.7V23.6C245.9,20.7,250.9,17.9,256,15L256,15
	L256,15z M270.6,23.8l-14.7-8.5l-14.7,8.5v17l14.7,8.5l14.7-8.5V23.8z"/>
<polygon class="st2" points="227.3,48.7 241,40.7 241.2,41 227.4,48.9 "/>
<path class="st2" d="M221.5,45.3l6,3.5v7l-6.1,3.5l-6.1-3.5v-7L221.5,45.3L221.5,45.3L221.5,45.3z M227.2,48.9l-5.8-3.3l-5.8,3.3
	v6.7l5.8,3.3l5.8-3.3V48.9z"/>
<rect x="91.9" y="30.1" class="st2" width="0.3" height="59"/>
<path class="st2" d="M92.1,16.3l6,3.5v7L92,30.2l-6.1-3.5v-7L92.1,16.3L92.1,16.3L92.1,16.3z M97.8,19.9L92,16.6l-5.8,3.3v6.7
	l5.8,3.3l5.8-3.3V19.9z"/>
<path class="st2" d="M-0.5,153.4l14.7,8.5v30.6l-14.7,8.5v-0.3l14.4-8.4V162l-14.4-8.3V153.4z"/>
<polygon class="st2" points="14,161.8 48.9,141.6 49,141.9 14.1,162 "/>
<rect x="91.9" y="8.9" class="st2" width="0.3" height="7.5"/>
<polygon class="st2" points="110.3,12.8 98,19.9 97.8,19.7 110.1,12.6 "/>
<polygon class="st2" points="108.2,32.7 97.8,26.8 98,26.5 108.3,32.5 "/>
<polygon class="st2" points="64.3,7.1 86.1,19.7 86,19.9 64.2,7.3 "/>
<polygon class="st2" points="74.5,33.2 86,26.5 86.1,26.8 74.6,33.4 "/>
<path class="st2" d="M49,86.6l8.5,4.9v9.9l-8.5,4.9l-8.5-4.9v-9.9L49,86.6L49,86.6L49,86.6z M57.2,91.7L49,86.9l-8.3,4.8v9.5L49,106
	l8.3-4.8V91.7z"/>
<rect x="48.8" y="66.1" class="st2" width="0.3" height="20.6"/>
<polygon class="st2" points="66.6,86.4 57.4,91.7 57.3,91.5 66.5,86.2 "/>
<polygon class="st2" points="66.5,106.7 57.3,101.4 57.4,101.2 66.6,106.5 "/>
<polygon class="st2" points="17.6,78.2 40.6,91.5 40.5,91.7 17.4,78.4 "/>
<polygon class="st2" points="28.4,108.2 40.5,101.2 40.6,101.4 28.5,108.4 "/>
<path class="st2" d="M49,177.2l8.3,4.8v9.6l-8.3,4.8c-2.8-1.6-5.6-3.2-8.3-4.8V182L49,177.2L49,177.2z M57,182.1l-8.1-4.7l-8.1,4.7
	v9.3l8.1,4.7l8.1-4.7V182.1z"/>
<polygon class="st2" points="89.8,163.4 57.2,182.2 57.1,181.9 89.6,163.2 "/>
<polygon class="st2" points="66.1,196.8 57.1,191.7 57.2,191.4 66.2,196.6 "/>
<polygon class="st2" points="31.9,176.8 40.8,181.9 40.7,182.2 31.7,177 "/>
<polygon class="st2" points="25.2,200.3 40.7,191.4 40.8,191.7 25.4,200.6 "/>
<rect x="48.8" y="196.3" class="st2" width="0.3" height="32.2"/>
<path class="st2" d="M134,87.7l6,3.5v7l-6.1,3.5l-6.1-3.5v-7L134,87.7L134,87.7L134,87.7z M139.7,91.3L134,88l-5.8,3.3V98l5.8,3.3
	l5.8-3.3V91.3z"/>
<polygon class="st2" points="165,77 140,91.4 139.8,91.1 164.8,76.7 "/>
<polygon class="st2" points="154.6,106.7 139.8,98.2 140,98 154.7,106.5 "/>
<polygon class="st2" points="124,88.7 128.1,91.1 128,91.4 123.8,89 "/>
<polygon class="st2" points="113.6,106.3 128,98 128.1,98.2 113.7,106.5 "/>
<rect x="133.8" y="101.5" class="st2" width="0.3" height="7.5"/>
<path class="st2" d="M256,67.8l6,3.5v7l-6.1,3.5l-6.1-3.5v-7L256,67.8L256,67.8L256,67.8z M261.7,71.4l-5.8-3.3l-5.8,3.3v6.7
	l5.8,3.3l5.8-3.3V71.4z"/>
<polygon class="st2" points="270.9,66.3 261.9,71.4 261.8,71.2 270.7,66 "/>
<polygon class="st2" points="266.8,81.2 261.8,78.3 261.9,78 267,80.9 "/>
<polygon class="st2" points="243.6,67.5 250.1,71.2 249.9,71.4 243.5,67.7 "/>
<rect x="255.8" y="81.6" class="st2" width="0.3" height="38.4"/>
<rect x="221.3" y="13.3" class="st2" width="0.3" height="32.1"/>
<polygon class="st2" points="233.7,59.5 227.3,55.8 227.4,55.5 233.9,59.3 "/>
<polygon class="st2" points="211.4,46.3 215.6,48.7 215.4,48.9 211.3,46.5 "/>
<polygon class="st2" points="192.7,68.6 215.4,55.5 215.6,55.8 192.9,68.9 "/>
<rect x="221.3" y="59.1" class="st2" width="0.3" height="6.7"/>
<rect x="186.7" y="100.3" class="st2" width="0.3" height="7.5"/>
<polygon class="st2" points="206,125.8 192.7,118.1 192.9,117.9 206.1,125.6 "/>
<polygon class="st2" points="169.4,104.3 181,111.1 180.9,111.3 169.2,104.6 "/>
<polygon class="st2" points="174.4,121.6 180.9,117.9 181,118.1 174.6,121.9 "/>
<rect x="186.7" y="121.4" class="st2" width="0.3" height="14.6"/>
<polygon class="st2" points="243.9,139 227.4,148.6 227.3,148.3 243.8,138.8 "/>
<polygon class="st2" points="233.7,159.1 227.3,155.4 227.4,155.2 233.9,158.9 "/>
<polygon class="st2" points="209.1,144.6 215.6,148.3 215.4,148.6 208.9,144.8 "/>
<polygon class="st2" points="189.7,170 215.4,155.2 215.6,155.4 189.8,170.3 "/>
<rect x="221.3" y="158.7" class="st2" width="0.3" height="7.5"/>
<rect x="116.6" y="146.3" transform="matrix(0.866 -0.5 0.5 0.866 -54.0362 91.2042)" class="st2" width="53.1" height="0.3"/>
<path class="st2" d="M143.2,130.3l13.9,8v16.2l-14,8.1l-14-8.1v-16.1L143.2,130.3L143.2,130.3L143.2,130.3z M156.9,138.5l-13.7-7.9
	l-13.7,7.9v15.8l13.7,7.9l13.7-7.9L156.9,138.5z"/>
<path class="st2" d="M194.1,0.2l8.4,4.8v20.5c-5.9,3.4-11.8,6.8-17.8,10.3c-5.9-3.4-11.8-6.9-17.8-10.3V5l8.4-4.8h0.6l-8.6,5v20.2
	l17.5,10.1l17.5-10.1V5.2l-8.7-5H194.1z"/>
<rect x="255.8" y="15.1" transform="matrix(0.5 -0.866 0.866 0.5 99.9934 237.8014)" class="st2" width="0.3" height="34.3"/>
<path class="st2" d="M256,25.3l6,3.5v7l-6.1,3.5l-6.1-3.5v-7L256,25.3L256,25.3L256,25.3z M261.7,29l-5.8-3.3l-5.8,3.3v6.7l5.8,3.3
	l5.8-3.3V29z"/>
<path class="st2" d="M26,0.2v30.5C17.2,35.8,8.3,40.9-0.5,46v-0.3l26.2-15.1V0.3l-0.1-0.1H26z"/>
<rect x="91.9" y="126.2" class="st2" width="0.3" height="7.5"/>
<circle class="st2" cx="221.4" cy="166.2" r="0.5"/>
<circle class="st2" cx="233.8" cy="159" r="0.9"/>
<path class="st2" d="M246.2,134.7c1.6,0,2.8,1.3,2.8,2.8c0,1.6-1.3,2.8-2.8,2.8c-1.6,0-2.8-1.3-2.8-2.8c0-0.7,0.3-1.5,0.8-2
	C244.7,135,245.4,134.7,246.2,134.7z M248,135.7c-1-1-2.6-1-3.6,0c-1,1-1,2.6,0,3.6s2.6,1,3.6,0c0.5-0.5,0.7-1.1,0.7-1.8
	C248.7,136.9,248.4,136.2,248,135.7L248,135.7z"/>
<path class="st2" d="M188.3,169.2c1,0,1.8,0.8,1.8,1.8s-0.8,1.8-1.8,1.8c-1,0-1.8-0.8-1.8-1.8c0-0.5,0.2-0.9,0.5-1.3
	C187.4,169.4,187.8,169.2,188.3,169.2z M189.4,169.9c-0.6-0.6-1.5-0.6-2.1,0s-0.6,1.5,0,2.1s1.5,0.6,2.1,0c0.3-0.3,0.4-0.7,0.4-1.1
	C189.8,170.6,189.7,170.2,189.4,169.9L189.4,169.9z"/>
<circle class="st2" cx="209" cy="144.7" r="0.5"/>
<circle class="st2" cx="255.9" cy="120" r="0.6"/>
<path class="st2" d="M186.9,94.8c1.6,0,2.8,1.3,2.8,2.8c0,1.6-1.3,2.8-2.8,2.8c-1.6,0-2.8-1.3-2.8-2.8c0-0.7,0.3-1.5,0.8-2
	C185.4,95.1,186.1,94.8,186.9,94.8z M188.7,95.8c-1-1-2.6-1-3.6,0s-1,2.6,0,3.6s2.6,1,3.6,0c0.5-0.5,0.7-1.1,0.7-1.8
	C189.4,97,189.1,96.3,188.7,95.8L188.7,95.8z"/>
<circle class="st2" cx="206.1" cy="125.7" r="0.9"/>
<path class="st2" d="M221.4,87.9c3.7,0,6.7,3,6.7,6.7s-3,6.7-6.7,6.7c-3.7,0-6.7-3-6.7-6.7c0-1.8,0.7-3.5,1.9-4.7
	C217.9,88.7,219.6,88,221.4,87.9z M226,90.1c-2.5-2.5-6.6-2.5-9.1,0c-2.5,2.5-2.5,6.6,0,9.1c2.5,2.5,6.6,2.5,9.1,0
	c1.2-1.2,1.9-2.8,1.9-4.5C227.8,93,227.2,91.3,226,90.1z"/>
<circle class="st2" cx="270.8" cy="66.1" r="0.9"/>
<path class="st2" d="M268.3,80.1c1,0,1.8,0.8,1.8,1.8c0,1-0.8,1.8-1.8,1.8c-1,0-1.8-0.8-1.8-1.8c0-0.5,0.2-0.9,0.5-1.3
	C267.4,80.3,267.9,80.1,268.3,80.1z M269.4,80.8c-0.6-0.6-1.5-0.6-2.1,0c-0.6,0.6-0.6,1.5,0,2.1c0.6,0.6,1.5,0.6,2.1,0
	c0.3-0.3,0.4-0.7,0.4-1.1C269.8,81.5,269.7,81.1,269.4,80.8L269.4,80.8z"/>
<circle class="st2" cx="243.6" cy="67.6" r="0.6"/>
<circle class="st2" cx="233.8" cy="59.4" r="0.4"/>
<circle class="st2" cx="221.4" cy="65.8" r="0.6"/>
<path class="st2" d="M209,42.3c1.5,0,2.8,1.3,2.8,2.8c0,1.5-1.3,2.8-2.8,2.8c-1.5,0-2.8-1.3-2.8-2.8c0-0.7,0.3-1.4,0.8-2
	C207.5,42.6,208.3,42.3,209,42.3z M210.8,43.3c-1-1-2.6-1-3.6,0s-1,2.6,0,3.6s2.6,1,3.6,0c0.5-0.5,0.7-1.1,0.7-1.8
	C211.5,44.4,211.3,43.8,210.8,43.3L210.8,43.3z"/>
<path class="st2" d="M221.4,9.6c1.1,0,1.9,0.9,1.9,1.9c0,1.1-0.9,1.9-1.9,1.9c-1.1,0-1.9-0.9-1.9-1.9c0-0.5,0.2-1,0.6-1.4
	C220.4,9.8,220.9,9.6,221.4,9.6z M222.6,10.4c-0.6-0.6-1.7-0.6-2.3,0c-0.6,0.6-0.6,1.7,0,2.3c0.6,0.6,1.7,0.6,2.3,0
	c0.3-0.3,0.5-0.7,0.5-1.2C223,11.1,222.9,10.7,222.6,10.4z"/>
<path class="st2" d="M184.7,7.5c4.3,0,7.8,3.5,7.8,7.8c0,4.3-3.5,7.8-7.8,7.8c-4.3,0-7.8-3.5-7.8-7.8c0-2.1,0.8-4,2.3-5.5
	C180.7,8.3,182.6,7.5,184.7,7.5z M190,10c-2.9-2.9-7.7-2.9-10.6,0s-2.9,7.7,0,10.6s7.7,2.9,10.6,0c1.4-1.4,2.2-3.3,2.2-5.3
	C192.2,13.3,191.4,11.4,190,10L190,10z"/>
<circle class="st2" cx="164.9" cy="76.8" r="0.8"/>
<circle class="st2" cx="154.6" cy="106.6" r="0.9"/>
<circle class="st2" cx="169.3" cy="104.5" r="0.6"/>
<circle class="st2" cx="174.5" cy="121.8" r="0.5"/>
<circle class="st2" cx="186.9" cy="136" r="0.5"/>
<path class="st2" d="M121.6,84.7c1.6,0,2.8,1.3,2.8,2.8c0,1.6-1.3,2.8-2.8,2.8c-1.6,0-2.8-1.3-2.8-2.8c0-0.7,0.3-1.5,0.8-2
	C120.1,85,120.8,84.7,121.6,84.7z M123.4,85.7c-1-1-2.6-1-3.6,0c-1,1-1,2.6,0,3.6c1,1,2.6,1,3.6,0c0.5-0.5,0.7-1.1,0.7-1.8
	C124.1,86.9,123.8,86.2,123.4,85.7L123.4,85.7z"/>
<circle class="st2" cx="113.6" cy="106.4" r="0.6"/>
<circle class="st2" cx="134" cy="109" r="0.4"/>
<path class="st2" d="M92,133.5c2.4,0,4.3,1.9,4.3,4.2s-1.9,4.3-4.2,4.3c-2.4,0-4.3-1.9-4.3-4.2c0-1.1,0.4-2.2,1.2-3
	C89.8,134,90.9,133.5,92,133.5z M94.8,135c-1.6-1.6-4.1-1.6-5.7,0c-1.6,1.6-1.6,4.1,0,5.7c1.6,1.6,4.1,1.6,5.7,0
	c0.8-0.8,1.2-1.8,1.2-2.8C96,136.8,95.6,135.7,94.8,135L94.8,135z"/>
<path class="st2" d="M92,159.1c1.6,0,2.8,1.3,2.8,2.8c0,1.6-1.3,2.8-2.8,2.8c-1.6,0-2.8-1.3-2.8-2.8c0-0.7,0.3-1.5,0.8-2
	C90.5,159.4,91.2,159.1,92,159.1z M93.8,160.1c-1-1-2.6-1-3.6,0c-1,1-1,2.6,0,3.6c1,1,2.6,1,3.6,0c0.5-0.5,0.7-1.1,0.7-1.8
	C94.5,161.2,94.2,160.6,93.8,160.1L93.8,160.1z"/>
<path class="st2" d="M-0.5,5.5c2.6,0,5.1,1,7,2.9c1.9,1.9,2.9,4.4,2.9,7c0,2.6-1,5.1-2.9,7c-1.9,1.9-4.4,2.9-7,2.9V25
	c2.5,0,5-1,6.8-2.8c1.8-1.8,2.8-4.2,2.8-6.8c0-2.5-1-5-2.8-6.8C4.5,6.8,2,5.8-0.5,5.8V5.5z"/>
<circle class="st2" cx="64.3" cy="7.2" r="1.2"/>
<circle class="st2" cx="92" cy="8.9" r="0.6"/>
<path class="st2" d="M72.3,31.8c1.6,0,2.8,1.3,2.8,2.8c0,1.6-1.3,2.8-2.8,2.8s-2.8-1.3-2.8-2.8c0-0.7,0.3-1.5,0.8-2
	C70.8,32.1,71.5,31.8,72.3,31.8z M74,32.8c-1-1-2.6-1-3.6,0c-1,1-1,2.6,0,3.6s2.6,1,3.6,0c0.5-0.5,0.7-1.1,0.7-1.8
	C74.8,33.9,74.5,33.3,74,32.8L74,32.8z"/>
<path class="st2" d="M113.8,6.4c2.4,0,4.3,1.9,4.3,4.2s-1.9,4.3-4.2,4.3c-2.4,0-4.3-1.9-4.3-4.2c0-1.1,0.4-2.2,1.2-3
	C111.5,6.8,112.6,6.4,113.8,6.4z M116.6,7.8c-1.6-1.6-4.1-1.6-5.7,0s-1.6,4.1,0,5.7c1.6,1.6,4.1,1.6,5.7,0c0.8-0.8,1.2-1.8,1.2-2.8
	C117.7,9.6,117.3,8.6,116.6,7.8L116.6,7.8z"/>
<circle class="st2" cx="108.3" cy="32.6" r="0.9"/>
<circle class="st2" cx="49" cy="141.7" r="0.9"/>
<path class="st2" d="M49,132.9c4.9,0,8.9,4,8.8,8.9c0,4.9-4,8.9-8.9,8.8c-4.9,0-8.9-4-8.8-8.9c0-2.3,0.9-4.6,2.6-6.3
	C44.4,133.8,46.6,132.9,49,132.9z M55,135.7c-3.3-3.4-8.8-3.4-12.1-0.1c-3.4,3.3-3.4,8.8-0.1,12.1c3.3,3.4,8.8,3.4,12.1,0.1
	c1.6-1.6,2.5-3.8,2.6-6C57.5,139.5,56.6,137.3,55,135.7L55,135.7z"/>
<path class="st2" d="M49,228.3c2.2,0,3.9,1.8,3.9,3.9c0,2.2-1.8,3.9-3.9,3.9s-3.9-1.8-3.9-3.9c0-1,0.4-2,1.1-2.8
	C46.9,228.7,47.9,228.3,49,228.3z M51.5,229.6c-1.4-1.4-3.7-1.3-5.1,0.1s-1.3,3.7,0.1,5.1s3.7,1.3,5.1-0.1c0.7-0.7,1-1.6,1-2.6
	C52.6,231.2,52.2,230.3,51.5,229.6z"/>
<circle class="st2" cx="31.8" cy="176.9" r="0.9"/>
<circle class="st2" cx="66.1" cy="196.7" r="0.4"/>
<circle class="st2" cx="25.3" cy="200.5" r="0.6"/>
<path class="st2" d="M24.9,106.1c2.4,0,4.3,1.9,4.3,4.2c0,2.4-1.9,4.3-4.2,4.3s-4.3-1.9-4.3-4.2c0-1.1,0.4-2.2,1.2-3
	C22.7,106.5,23.7,106.1,24.9,106.1z M27.7,107.5c-1.6-1.6-4.1-1.6-5.7,0c-1.6,1.6-1.6,4.1,0,5.7c1.6,1.6,4.1,1.6,5.7,0
	c0.8-0.8,1.2-1.8,1.2-2.8C28.9,109.3,28.4,108.3,27.7,107.5L27.7,107.5z"/>
<circle class="st2" cx="66.5" cy="86.3" r="0.6"/>
<circle class="st2" cx="66.5" cy="106.6" r="0.9"/>
<path class="st2" d="M49,62.4c1.1,0,1.9,0.9,1.9,1.9c0,1.1-0.9,1.9-1.9,1.9c-1.1,0-1.9-0.9-1.9-1.9c0-0.5,0.2-1,0.6-1.4
	C48,62.6,48.5,62.4,49,62.4z M50.1,63.2c-0.6-0.6-1.7-0.6-2.3,0c-0.6,0.6-0.6,1.7,0,2.3s1.7,0.6,2.3,0c0.3-0.3,0.5-0.7,0.5-1.2
	C50.6,63.9,50.4,63.5,50.1,63.2L50.1,63.2z"/>
<circle class="st2" cx="17.5" cy="78.3" r="0.6"/>
<circle class="st2" cx="158.6" cy="80.4" r="0.7"/>
<circle class="st2" cx="152.4" cy="84" r="0.6"/>
<circle class="st2" cx="146.1" cy="87.7" r="0.5"/>
<circle class="st2" cx="139.9" cy="91.3" r="0.4"/>
<circle class="st2" cx="123.3" cy="38.4" r="0.5"/>
<circle class="st2" cx="128.7" cy="41.5" r="0.6"/>
<circle class="st2" cx="134" cy="44.6" r="0.6"/>
<circle class="st2" cx="139.3" cy="47.6" r="0.6"/>
<circle class="st2" cx="144.6" cy="50.7" r="0.7"/>
<circle class="st2" cx="40.8" cy="191.5" r="0.4"/>
<circle class="st2" cx="44.9" cy="189.2" r="0.5"/>
<circle class="st2" cx="49" cy="186.8" r="0.5"/>
<circle class="st2" cx="53.1" cy="184.4" r="0.6"/>
<circle class="st2" cx="57.2" cy="182.1" r="0.6"/>
<circle class="st2" cx="92" cy="116.9" r="0.9"/>
<circle class="st2" cx="221.4" cy="94.7" r="0.9"/>
</svg>
