<svg width="12" height="13" viewBox="0 0 12 13" version="1.1" xmlns="http://www.w3.org/2000/svg" xmlns:xlink="http://www.w3.org/1999/xlink">
<title>Vector</title>
<desc>Created using Figma</desc>
<g id="Canvas" transform="translate(3268 -4384)">
<g id="Vector">
<use xlink:href="#path0_fill" transform="matrix(-6.12323e-17 1 1 6.12323e-17 -3268 4384)" fill="#59DEA7"/>
</g>
</g>
<defs>
<path id="path0_fill" d="M 12.2186 5.01788C 12.1654 5.00859 12.1116 5.0043 12.0577 5.00505L 2.8865 5.00505L 3.08649 4.90494C 3.28196 4.80535 3.45979 4.66982 3.61202 4.50447L 6.18386 1.73629C 6.52258 1.38827 6.57949 0.828402 6.31874 0.409764C 6.01525 -0.0363424 5.43324 -0.133204 5.01874 0.193453C 4.98526 0.219859 4.95343 0.248642 4.92352 0.279615L 0.272801 5.28537C -0.0906525 5.67614 -0.0909723 6.31002 0.272074 6.70122C 0.272307 6.70147 0.272569 6.70175 0.272801 6.702L 4.92352 11.7078C 5.28726 12.0982 5.87619 12.0973 6.23895 11.7058C 6.26749 11.675 6.29414 11.6422 6.31874 11.6076C 6.57949 11.189 6.52258 10.6291 6.18386 10.2811L 3.61667 7.50793C 3.4802 7.36089 3.32329 7.23759 3.1516 7.14251L 2.87255 7.00735L 12.0066 7.00735C 12.4817 7.02634 12.8986 6.66909 12.9879 6.16639C 13.0701 5.6206 12.7257 5.10642 12.2186 5.01788Z"/>
</defs>
</svg>
