<svg width="12" height="8" viewBox="0 0 12 8" version="1.1" xmlns="http://www.w3.org/2000/svg" xmlns:xlink="http://www.w3.org/1999/xlink">
<title>arrow</title>
<desc>Created using Figma</desc>
<g id="Canvas" transform="translate(2736 -6794)">
<g id="arrow">
<g id="Rectangle 5.2">
<use xlink:href="#path0_fill" transform="matrix(0.724693 0.689072 -0.689072 0.724693 -2725.33 6794.32)" fill="#BDBDBD"/>
</g>
<g id="Rectangle 5.3">
<use xlink:href="#path1_fill" transform="matrix(-0.724693 0.689072 0.689072 0.724693 -2734.67 6794)" fill="#BDBDBD"/>
</g>
</g>
</g>
<defs>
<path id="path0_fill" d="M 0 0.920113C 0 0.411949 0.411949 0 0.920114 0C 1.42828 0 1.84023 0.411949 1.84023 0.920113L 1.84023 7.43602C 1.84023 7.94419 1.42828 8.35614 0.920114 8.35614C 0.411949 8.35614 0 7.94419 0 7.43602L 0 0.920113Z"/>
<path id="path1_fill" d="M 0 0.920113C 0 0.411949 0.411949 0 0.920114 0C 1.42828 0 1.84023 0.411949 1.84023 0.920113L 1.84023 7.88275C 1.84023 8.39092 1.42828 8.80286 0.920114 8.80286C 0.411949 8.80286 0 8.39091 0 7.88275L 0 0.920113Z"/>
</defs>
</svg>
