<svg xmlns="http://www.w3.org/2000/svg" width="11" viewBox="0 0 11 9"><path d="M9.3 3.4C9.3 3.4 9.2 3.4 9.2 3.4L2.2 3.4 2.4 3.3C2.5 3.2 2.6 3.2 2.8 3L4.7 1.2C5 0.9 5 0.6 4.8 0.3 4.6 0 4.1-0.1 3.8 0.1 3.8 0.1 3.8 0.2 3.7 0.2L0.2 3.6C-0.1 3.8-0.1 4.3 0.2 4.5 0.2 4.5 0.2 4.5 0.2 4.5L3.7 7.9C4 8.2 4.5 8.2 4.8 7.9 4.8 7.9 4.8 7.9 4.8 7.8 5 7.6 5 7.2 4.7 6.9L2.8 5.1C2.7 5 2.5 4.9 2.4 4.8L2.2 4.7 9.1 4.7C9.5 4.7 9.8 4.5 9.9 4.2 10 3.8 9.7 3.4 9.3 3.4Z" fill="#fff"/></svg>
<svg xmlns="http://www.w3.org/2000/svg" width="11" viewBox="0 0 11 9"><path d="M9.3 3.4C9.3 3.4 9.2 3.4 9.2 3.4L2.2 3.4 2.4 3.3C2.5 3.2 2.6 3.2 2.8 3L4.7 1.2C5 0.9 5 0.6 4.8 0.3 4.6 0 4.1-0.1 3.8 0.1 3.8 0.1 3.8 0.2 3.7 0.2L0.2 3.6C-0.1 3.8-0.1 4.3 0.2 4.5 0.2 4.5 0.2 4.5 0.2 4.5L3.7 7.9C4 8.2 4.5 8.2 4.8 7.9 4.8 7.9 4.8 7.9 4.8 7.8 5 7.6 5 7.2 4.7 6.9L2.8 5.1C2.7 5 2.5 4.9 2.4 4.8L2.2 4.7 9.1 4.7C9.5 4.7 9.8 4.5 9.9 4.2 10 3.8 9.7 3.4 9.3 3.4Z" fill="#fff"/></svg>
<svg xmlns="http://www.w3.org/2000/svg" width="11" viewBox="0 0 11 9"><path d="M9.3 3.4C9.3 3.4 9.2 3.4 9.2 3.4L2.2 3.4 2.4 3.3C2.5 3.2 2.6 3.2 2.8 3L4.7 1.2C5 0.9 5 0.6 4.8 0.3 4.6 0 4.1-0.1 3.8 0.1 3.8 0.1 3.8 0.2 3.7 0.2L0.2 3.6C-0.1 3.8-0.1 4.3 0.2 4.5 0.2 4.5 0.2 4.5 0.2 4.5L3.7 7.9C4 8.2 4.5 8.2 4.8 7.9 4.8 7.9 4.8 7.9 4.8 7.8 5 7.6 5 7.2 4.7 6.9L2.8 5.1C2.7 5 2.5 4.9 2.4 4.8L2.2 4.7 9.1 4.7C9.5 4.7 9.8 4.5 9.9 4.2 10 3.8 9.7 3.4 9.3 3.4Z" fill="#fff"/></svg>
<svg xmlns="http://www.w3.org/2000/svg" width="11" viewBox="0 0 11 9"><path d="M9.3 3.4C9.3 3.4 9.2 3.4 9.2 3.4L2.2 3.4 2.4 3.3C2.5 3.2 2.6 3.2 2.8 3L4.7 1.2C5 0.9 5 0.6 4.8 0.3 4.6 0 4.1-0.1 3.8 0.1 3.8 0.1 3.8 0.2 3.7 0.2L0.2 3.6C-0.1 3.8-0.1 4.3 0.2 4.5 0.2 4.5 0.2 4.5 0.2 4.5L3.7 7.9C4 8.2 4.5 8.2 4.8 7.9 4.8 7.9 4.8 7.9 4.8 7.8 5 7.6 5 7.2 4.7 6.9L2.8 5.1C2.7 5 2.5 4.9 2.4 4.8L2.2 4.7 9.1 4.7C9.5 4.7 9.8 4.5 9.9 4.2 10 3.8 9.7 3.4 9.3 3.4Z" fill="#fff"/></svg>
