<svg width="15" height="15" viewBox="0 0 15 15" version="1.1" xmlns="http://www.w3.org/2000/svg" xmlns:xlink="http://www.w3.org/1999/xlink">
<title>Vector</title>
<desc>Created using Figma</desc>
<g id="Canvas" transform="translate(1977 275)">
<g id="Vector">
<use xlink:href="#path0_fill" transform="translate(-1977 -275)" fill="#333333"/>
<use xlink:href="#path1_fill" transform="translate(-1977 -275)" fill="#333333"/>
</g>
</g>
<defs>
<path id="path0_fill" d="M 0.293032 0.292893C 0.683556 -0.0976311 1.31672 -0.0976311 1.70725 0.292893L 14.4352 13.0208C 14.8257 13.4113 14.8257 14.0445 14.4352 14.435C 14.0446 14.8256 13.4115 14.8256 13.021 14.435L 0.293032 1.70711C -0.0974924 1.31658 -0.0974924 0.683417 0.293032 0.292893Z"/>
<path id="path1_fill" d="M 14.435 0.292893C 14.0445 -0.0976311 13.4113 -0.0976311 13.0208 0.292893L 0.292893 13.0208C -0.0976311 13.4113 -0.0976311 14.0445 0.292893 14.435C 0.683417 14.8256 1.31658 14.8256 1.70711 14.435L 14.435 1.70711C 14.8256 1.31658 14.8256 0.683417 14.435 0.292893Z"/>
</defs>
</svg>
