<svg width="10" height="12" viewBox="0 0 10 12" version="1.1" xmlns="http://www.w3.org/2000/svg" xmlns:xlink="http://www.w3.org/1999/xlink">
<title>placeholder</title>
<desc>Created using Figma</desc>
<g id="Canvas" transform="translate(4074 -14365)">
<g id="placeholder">
<g id="Group">
<g id="Group">
<g id="Vector">
<use xlink:href="#path0_fill" transform="translate(-4074 14365)" fill="#59DEA9"/>
</g>
</g>
</g>
<g id="Group">
<g id="Group">
<g id="Vector">
<use xlink:href="#path1_fill" transform="translate(-4071.72 14367.3)" fill="#59DEA9"/>
</g>
</g>
</g>
</g>
</g>
<defs>
<path id="path0_fill" d="M 8.25252 1.3694C 7.29476 0.442032 6.03236 -0.0411766 4.69686 0.00275154C 2.26467 0.0881673 0.256537 1.97952 0.0225789 4.40044C -0.0212881 4.86657 -0.00179169 5.33269 0.0859424 5.7915C 0.0883795 5.81102 0.0981277 5.86715 0.120061 5.95501C 0.19561 6.28447 0.302841 6.60661 0.44419 6.9141C 0.938913 8.08064 2.01609 9.87681 4.34348 11.8096C 4.49702 11.9365 4.68223 12 4.86989 12C 5.05754 12 5.24276 11.9365 5.39629 11.8096C 7.72368 9.87437 8.80086 8.08064 9.29558 6.9141C 9.43693 6.60661 9.5466 6.28447 9.61971 5.95501C 9.64165 5.86715 9.6514 5.81102 9.65383 5.7915C 9.70989 5.49132 9.73913 5.18139 9.73913 4.87633C 9.73913 3.5414 9.21029 2.29677 8.25252 1.3694ZM 8.78868 5.63531C 8.78868 5.64263 8.78624 5.64751 8.78624 5.65483C 8.7838 5.66703 8.77649 5.7012 8.76431 5.75489C 8.76431 5.75733 8.76431 5.75733 8.76431 5.75977C 8.70338 6.03066 8.61321 6.29911 8.49623 6.55292C 8.49379 6.5578 8.49136 6.56268 8.49136 6.56512C 8.03806 7.63648 7.04374 9.2911 4.87232 11.1068C 2.70091 9.29354 1.70659 7.63648 1.25329 6.56512C 1.25086 6.56024 1.24842 6.55536 1.24842 6.55292C 1.13144 6.29911 1.04127 6.0331 0.980343 5.75977C 0.980343 5.75733 0.980343 5.75733 0.980343 5.75489C 0.968157 5.7012 0.960846 5.66703 0.958409 5.65483C 0.958409 5.64751 0.955972 5.64263 0.955972 5.63531C 0.877986 5.25704 0.85849 4.86901 0.895046 4.48342C 1.08514 2.49689 2.73259 0.947205 4.7261 0.878873C 5.82034 0.839826 6.85609 1.23762 7.64326 1.99904C 8.43043 2.76046 8.86179 3.78057 8.86179 4.87633C 8.86179 5.13014 8.83742 5.38638 8.78868 5.63531Z"/>
<path id="path1_fill" d="M 2.59303 4.91546e-08C 1.16491 4.91546e-08 2.97492e-08 1.16409 2.97492e-08 2.59664C 2.97492e-08 4.02918 1.16491 5.19328 2.59303 5.19328C 2.8343 5.19328 3.0317 4.9956 3.0317 4.754C 3.0317 4.51239 2.8343 4.31471 2.59303 4.31471C 1.64745 4.31471 0.877341 3.54353 0.877341 2.59664C 0.877341 1.64974 1.64745 0.878562 2.59303 0.878562C 3.53861 0.878562 4.30872 1.64974 4.30872 2.59664C 4.30872 3.00663 4.1625 3.40199 3.89686 3.71192C 3.73845 3.8974 3.76038 4.17317 3.9456 4.3318C 4.13081 4.49043 4.4062 4.46846 4.56461 4.28299C 4.96672 3.81442 5.18606 3.21407 5.18606 2.59664C 5.18606 1.16653 4.02358 4.91546e-08 2.59303 4.91546e-08Z"/>
</defs>
</svg>
