<svg width="94" height="70" viewBox="0 0 94 70" version="1.1" xmlns="http://www.w3.org/2000/svg" xmlns:xlink="http://www.w3.org/1999/xlink">
<title>&#226;&#128;&#156;</title>
<desc>Created using Figma</desc>
<g id="Canvas" transform="translate(4381 -8024)">
<g id="&#226;&#128;&#156;">
<use xlink:href="#path0_fill" transform="translate(-4381 8024)" fill="#59DBAA"/>
</g>
</g>
<defs>
<path id="path0_fill" d="M 0 69.12C 0 67.008 0 64.992 0 63.072C 0 60.96 0.096 58.944 0.288 57.024C 1.056 47.04 3.264 37.152 6.912 27.36C 10.56 17.568 14.976 8.448 20.16 0L 40.896 6.624C 36.864 15.072 33.792 23.616 31.68 32.256C 29.76 40.896 28.8 48.96 28.8 56.448C 28.8 58.368 28.8 60.48 28.8 62.784C 28.992 64.896 29.184 67.008 29.376 69.12L 0 69.12ZM 52.416 69.12C 52.416 67.008 52.416 64.992 52.416 63.072C 52.416 60.96 52.512 58.944 52.704 57.024C 53.472 47.04 55.68 37.152 59.328 27.36C 62.976 17.568 67.392 8.448 72.576 0L 93.312 6.624C 89.28 15.072 86.208 23.616 84.096 32.256C 82.176 40.896 81.216 48.96 81.216 56.448C 81.216 58.368 81.216 60.48 81.216 62.784C 81.408 64.896 81.6 67.008 81.792 69.12L 52.416 69.12Z"/>
</defs>
</svg>
<svg width="94" height="70" viewBox="0 0 94 70" version="1.1" xmlns="http://www.w3.org/2000/svg" xmlns:xlink="http://www.w3.org/1999/xlink">
<title>&#226;&#128;&#156;</title>
<desc>Created using Figma</desc>
<g id="Canvas" transform="translate(4381 -8024)">
<g id="&#226;&#128;&#156;">
<use xlink:href="#path0_fill" transform="translate(-4381 8024)" fill="#59DBAA"/>
</g>
</g>
<defs>
<path id="path0_fill" d="M 0 69.12C 0 67.008 0 64.992 0 63.072C 0 60.96 0.096 58.944 0.288 57.024C 1.056 47.04 3.264 37.152 6.912 27.36C 10.56 17.568 14.976 8.448 20.16 0L 40.896 6.624C 36.864 15.072 33.792 23.616 31.68 32.256C 29.76 40.896 28.8 48.96 28.8 56.448C 28.8 58.368 28.8 60.48 28.8 62.784C 28.992 64.896 29.184 67.008 29.376 69.12L 0 69.12ZM 52.416 69.12C 52.416 67.008 52.416 64.992 52.416 63.072C 52.416 60.96 52.512 58.944 52.704 57.024C 53.472 47.04 55.68 37.152 59.328 27.36C 62.976 17.568 67.392 8.448 72.576 0L 93.312 6.624C 89.28 15.072 86.208 23.616 84.096 32.256C 82.176 40.896 81.216 48.96 81.216 56.448C 81.216 58.368 81.216 60.48 81.216 62.784C 81.408 64.896 81.6 67.008 81.792 69.12L 52.416 69.12Z"/>
</defs>
</svg>
<svg width="94" height="70" viewBox="0 0 94 70" version="1.1" xmlns="http://www.w3.org/2000/svg" xmlns:xlink="http://www.w3.org/1999/xlink">
<title>&#226;&#128;&#156;</title>
<desc>Created using Figma</desc>
<g id="Canvas" transform="translate(4381 -8024)">
<g id="&#226;&#128;&#156;">
<use xlink:href="#path0_fill" transform="translate(-4381 8024)" fill="#59DBAA"/>
</g>
</g>
<defs>
<path id="path0_fill" d="M 0 69.12C 0 67.008 0 64.992 0 63.072C 0 60.96 0.096 58.944 0.288 57.024C 1.056 47.04 3.264 37.152 6.912 27.36C 10.56 17.568 14.976 8.448 20.16 0L 40.896 6.624C 36.864 15.072 33.792 23.616 31.68 32.256C 29.76 40.896 28.8 48.96 28.8 56.448C 28.8 58.368 28.8 60.48 28.8 62.784C 28.992 64.896 29.184 67.008 29.376 69.12L 0 69.12ZM 52.416 69.12C 52.416 67.008 52.416 64.992 52.416 63.072C 52.416 60.96 52.512 58.944 52.704 57.024C 53.472 47.04 55.68 37.152 59.328 27.36C 62.976 17.568 67.392 8.448 72.576 0L 93.312 6.624C 89.28 15.072 86.208 23.616 84.096 32.256C 82.176 40.896 81.216 48.96 81.216 56.448C 81.216 58.368 81.216 60.48 81.216 62.784C 81.408 64.896 81.6 67.008 81.792 69.12L 52.416 69.12Z"/>
</defs>
</svg>
<svg width="94" height="70" viewBox="0 0 94 70" version="1.1" xmlns="http://www.w3.org/2000/svg" xmlns:xlink="http://www.w3.org/1999/xlink">
<title>&#226;&#128;&#156;</title>
<desc>Created using Figma</desc>
<g id="Canvas" transform="translate(4381 -8024)">
<g id="&#226;&#128;&#156;">
<use xlink:href="#path0_fill" transform="translate(-4381 8024)" fill="#59DBAA"/>
</g>
</g>
<defs>
<path id="path0_fill" d="M 0 69.12C 0 67.008 0 64.992 0 63.072C 0 60.96 0.096 58.944 0.288 57.024C 1.056 47.04 3.264 37.152 6.912 27.36C 10.56 17.568 14.976 8.448 20.16 0L 40.896 6.624C 36.864 15.072 33.792 23.616 31.68 32.256C 29.76 40.896 28.8 48.96 28.8 56.448C 28.8 58.368 28.8 60.48 28.8 62.784C 28.992 64.896 29.184 67.008 29.376 69.12L 0 69.12ZM 52.416 69.12C 52.416 67.008 52.416 64.992 52.416 63.072C 52.416 60.96 52.512 58.944 52.704 57.024C 53.472 47.04 55.68 37.152 59.328 27.36C 62.976 17.568 67.392 8.448 72.576 0L 93.312 6.624C 89.28 15.072 86.208 23.616 84.096 32.256C 82.176 40.896 81.216 48.96 81.216 56.448C 81.216 58.368 81.216 60.48 81.216 62.784C 81.408 64.896 81.6 67.008 81.792 69.12L 52.416 69.12Z"/>
</defs>
</svg>
