<svg width="11" height="16" viewBox="0 0 11 16" version="1.1" xmlns="http://www.w3.org/2000/svg" xmlns:xlink="http://www.w3.org/1999/xlink">
<title>008-bitcoin-logo</title>
<desc>Created using Figma</desc>
<g id="Canvas" transform="translate(3715 -14492)">
<g id="008-bitcoin-logo">
<g id="Vector">
<use xlink:href="#path0_fill" transform="matrix(0.975513 0.219942 -0.219942 0.975513 -3712.28 14492.1)" fill="#59DEA9"/>
</g>
</g>
</g>
<defs>
<path id="path0_fill" d="M 9.60606 7.63087C 9.28455 7.1939 8.79939 6.89376 8.1506 6.73064C 8.97679 6.2877 9.33987 5.53593 9.24019 4.4752C 9.20686 4.09056 9.10572 3.7572 8.93653 3.47464C 8.76723 3.19201 8.53876 2.9648 8.25025 2.79292C 7.96198 2.62082 7.64845 2.48981 7.31039 2.39949C 6.97225 2.30917 6.58403 2.24359 6.146 2.20284L 6.146 0L 4.86531 0L 4.86531 2.14163C 4.64354 2.14163 4.30534 2.14745 3.85073 2.15911L 3.85073 0L 2.56988 0L 2.56988 2.20284C 2.38685 2.20868 2.11798 2.21165 1.76314 2.21165L -6.5785e-08 2.20284L -6.5785e-08 3.63645L 0.92311 3.63645C 1.34451 3.63645 1.59124 3.83463 1.66331 4.23085L 1.66331 6.73967C 1.71883 6.73967 1.76314 6.74267 1.79644 6.74849L 1.66331 6.74849L 1.66331 10.2624C 1.619 10.5595 1.45823 10.7082 1.18097 10.7082L 0.25792 10.7082L 5.81628e-05 12.3079L 1.66346 12.3079C 1.76882 12.3079 1.9212 12.3094 2.12089 12.312C 2.32046 12.315 2.4701 12.3164 2.56993 12.3164L 2.56993 14.5455L 3.851 14.5455L 3.851 12.3427C 4.08381 12.3486 4.42201 12.3515 4.86558 12.3515L 4.86558 14.5455L 6.14629 14.5455L 6.14629 12.3164C 6.60104 12.2932 7.00438 12.2497 7.3563 12.1854C 7.7084 12.121 8.04532 12.0207 8.36683 11.8836C 8.68832 11.7468 8.95719 11.5762 9.17339 11.3722C 9.38971 11.1685 9.56837 10.909 9.71 10.5943C 9.85117 10.2795 9.94138 9.9153 9.98007 9.50145C 10.0525 8.69163 9.92763 8.06802 9.60606 7.63087ZM 3.87564 3.73234C 3.91447 3.73234 4.02397 3.73087 4.20417 3.72793C 4.38446 3.72493 4.5341 3.72205 4.6533 3.71911C 4.77253 3.71624 4.93333 3.72352 5.13579 3.74101C 5.33816 3.75849 5.50863 3.78185 5.6472 3.81093C 5.78577 3.84002 5.93839 3.88812 6.10457 3.95514C 6.27105 4.0221 6.40403 4.10373 6.50372 4.19986C 6.60361 4.296 6.68814 4.41844 6.75733 4.56705C 6.82671 4.71564 6.86138 4.88608 6.86138 5.07836C 6.86138 5.24155 6.83647 5.39019 6.78663 5.5243C 6.73688 5.65831 6.66184 5.77052 6.56215 5.86084C 6.46244 5.95119 6.35967 6.02994 6.2543 6.0969C 6.14906 6.16385 6.01447 6.2178 5.85097 6.25855C 5.68749 6.29937 5.54472 6.33142 5.42281 6.35469C 5.30081 6.37802 5.14837 6.39409 4.96538 6.40279C 4.78235 6.41149 4.64369 6.41743 4.54948 6.4203C 4.45519 6.42318 4.32631 6.42318 4.16269 6.4203C 3.99904 6.41743 3.90352 6.41589 3.87573 6.41589L 3.87573 3.73231L 3.87564 3.73231L 3.87564 3.73234ZM 7.37302 9.68512C 7.32021 9.81922 7.25239 9.93584 7.16929 10.035C 7.08603 10.1339 6.97647 10.2214 6.8407 10.297C 6.70495 10.3729 6.57313 10.434 6.44572 10.4806C 6.31813 10.5274 6.1642 10.568 5.98418 10.6031C 5.80375 10.6381 5.64583 10.6627 5.50985 10.6774C 5.37407 10.692 5.21196 10.7036 5.02337 10.7124C 4.83493 10.721 4.68791 10.7254 4.5826 10.7254C 4.47724 10.7254 4.34414 10.7238 4.18334 10.721C 4.02246 10.7182 3.91998 10.7168 3.87558 10.7168L 3.87558 7.76206C 3.91989 7.76206 4.05159 7.75922 4.27065 7.75328C 4.48974 7.7474 4.66845 7.74467 4.80708 7.74467C 4.94568 7.74467 5.13704 7.75328 5.38109 7.77088C 5.62491 7.78824 5.83008 7.81436 5.99656 7.84932C 6.16283 7.88435 6.34429 7.93817 6.54127 8.0111C 6.73804 8.08391 6.89753 8.17276 7.01956 8.27766C 7.14155 8.38273 7.24406 8.51656 7.3272 8.67978C 7.41054 8.84291 7.45211 9.02943 7.45211 9.23928C 7.45208 9.40262 7.42578 9.55099 7.37302 9.68512Z"/>
</defs>
</svg>
