<svg width="13" height="10" viewBox="0 0 13 10" version="1.1" xmlns="http://www.w3.org/2000/svg" xmlns:xlink="http://www.w3.org/1999/xlink">
<title>medium-1</title>
<desc>Created using Figma</desc>
<g id="Canvas" transform="translate(3546 -14318)">
<g id="medium-1">
<g id="Vector">
<use xlink:href="#path0_fill" transform="translate(-3546 14318)" fill="#59DEA9"/>
</g>
</g>
</g>
<defs>
<path id="path0_fill" d="M 12.2222 1.4737L 11.7388 1.4737C 11.5594 1.4737 11.3056 1.74128 11.3056 1.91255L 11.3056 8.12106C 11.3056 8.29252 11.5594 8.5263 11.7388 8.5263L 12.2222 8.5263L 12.2222 10L 7.84261 10L 7.84261 8.5263L 8.75928 8.5263L 8.75928 1.99998L 8.71435 1.99998L 6.57374 10L 4.91648 10L 2.80347 1.99998L 2.75 1.99998L 2.75 8.5263L 3.66667 8.5263L 3.66667 10L 0 10L 0 8.5263L 0.469553 8.5263C 0.662865 8.5263 0.916667 8.29252 0.916667 8.12106L 0.916667 1.9125C 0.916667 1.74123 0.662865 1.47365 0.469553 1.47365L 0 1.47365L 0 0L 4.58496 0L 6.0903 5.78945L 6.13183 5.78945L 7.65097 0L 12.2222 0L 12.2222 1.4737Z"/>
</defs>
</svg>
<svg width="13" height="10" viewBox="0 0 13 10" version="1.1" xmlns="http://www.w3.org/2000/svg" xmlns:xlink="http://www.w3.org/1999/xlink">
<title>medium-1</title>
<desc>Created using Figma</desc>
<g id="Canvas" transform="translate(3546 -14318)">
<g id="medium-1">
<g id="Vector">
<use xlink:href="#path0_fill" transform="translate(-3546 14318)" fill="#59DEA9"/>
</g>
</g>
</g>
<defs>
<path id="path0_fill" d="M 12.2222 1.4737L 11.7388 1.4737C 11.5594 1.4737 11.3056 1.74128 11.3056 1.91255L 11.3056 8.12106C 11.3056 8.29252 11.5594 8.5263 11.7388 8.5263L 12.2222 8.5263L 12.2222 10L 7.84261 10L 7.84261 8.5263L 8.75928 8.5263L 8.75928 1.99998L 8.71435 1.99998L 6.57374 10L 4.91648 10L 2.80347 1.99998L 2.75 1.99998L 2.75 8.5263L 3.66667 8.5263L 3.66667 10L 0 10L 0 8.5263L 0.469553 8.5263C 0.662865 8.5263 0.916667 8.29252 0.916667 8.12106L 0.916667 1.9125C 0.916667 1.74123 0.662865 1.47365 0.469553 1.47365L 0 1.47365L 0 0L 4.58496 0L 6.0903 5.78945L 6.13183 5.78945L 7.65097 0L 12.2222 0L 12.2222 1.4737Z"/>
</defs>
</svg>
<svg width="13" height="10" viewBox="0 0 13 10" version="1.1" xmlns="http://www.w3.org/2000/svg" xmlns:xlink="http://www.w3.org/1999/xlink">
<title>medium-1</title>
<desc>Created using Figma</desc>
<g id="Canvas" transform="translate(3546 -14318)">
<g id="medium-1">
<g id="Vector">
<use xlink:href="#path0_fill" transform="translate(-3546 14318)" fill="#59DEA9"/>
</g>
</g>
</g>
<defs>
<path id="path0_fill" d="M 12.2222 1.4737L 11.7388 1.4737C 11.5594 1.4737 11.3056 1.74128 11.3056 1.91255L 11.3056 8.12106C 11.3056 8.29252 11.5594 8.5263 11.7388 8.5263L 12.2222 8.5263L 12.2222 10L 7.84261 10L 7.84261 8.5263L 8.75928 8.5263L 8.75928 1.99998L 8.71435 1.99998L 6.57374 10L 4.91648 10L 2.80347 1.99998L 2.75 1.99998L 2.75 8.5263L 3.66667 8.5263L 3.66667 10L 0 10L 0 8.5263L 0.469553 8.5263C 0.662865 8.5263 0.916667 8.29252 0.916667 8.12106L 0.916667 1.9125C 0.916667 1.74123 0.662865 1.47365 0.469553 1.47365L 0 1.47365L 0 0L 4.58496 0L 6.0903 5.78945L 6.13183 5.78945L 7.65097 0L 12.2222 0L 12.2222 1.4737Z"/>
</defs>
</svg>
<svg width="13" height="10" viewBox="0 0 13 10" version="1.1" xmlns="http://www.w3.org/2000/svg" xmlns:xlink="http://www.w3.org/1999/xlink">
<title>medium-1</title>
<desc>Created using Figma</desc>
<g id="Canvas" transform="translate(3546 -14318)">
<g id="medium-1">
<g id="Vector">
<use xlink:href="#path0_fill" transform="translate(-3546 14318)" fill="#59DEA9"/>
</g>
</g>
</g>
<defs>
<path id="path0_fill" d="M 12.2222 1.4737L 11.7388 1.4737C 11.5594 1.4737 11.3056 1.74128 11.3056 1.91255L 11.3056 8.12106C 11.3056 8.29252 11.5594 8.5263 11.7388 8.5263L 12.2222 8.5263L 12.2222 10L 7.84261 10L 7.84261 8.5263L 8.75928 8.5263L 8.75928 1.99998L 8.71435 1.99998L 6.57374 10L 4.91648 10L 2.80347 1.99998L 2.75 1.99998L 2.75 8.5263L 3.66667 8.5263L 3.66667 10L 0 10L 0 8.5263L 0.469553 8.5263C 0.662865 8.5263 0.916667 8.29252 0.916667 8.12106L 0.916667 1.9125C 0.916667 1.74123 0.662865 1.47365 0.469553 1.47365L 0 1.47365L 0 0L 4.58496 0L 6.0903 5.78945L 6.13183 5.78945L 7.65097 0L 12.2222 0L 12.2222 1.4737Z"/>
</defs>
</svg>
