<svg width="12" height="10" viewBox="0 0 12 10" version="1.1" xmlns="http://www.w3.org/2000/svg" xmlns:xlink="http://www.w3.org/1999/xlink">
<title>github-character</title>
<desc>Created using Figma</desc>
<g id="Canvas" transform="translate(3715 -14406)">
<g id="github-character">
<g id="Group">
<g id="Group">
<g id="Vector">
<use xlink:href="#path0_fill" transform="translate(-3715 14406)" fill="#59DEA9"/>
</g>
<g id="Vector">
<use xlink:href="#path1_fill" transform="translate(-3712 14412)" fill="#59DEA9"/>
</g>
<g id="Vector">
<use xlink:href="#path1_fill" transform="translate(-3708 14412)" fill="#59DEA9"/>
</g>
</g>
</g>
</g>
</g>
<defs>
<path id="path0_fill" d="M 10.7309 2.74152C 10.8573 2.35789 10.9206 1.9602 10.9206 1.54831C 10.9206 0.999057 10.8011 0.482937 10.5624 -1.82195e-08C 10.0615 -1.82195e-08 9.61904 0.0924132 9.23501 0.277016C 8.85118 0.461668 8.41343 0.748111 7.92198 1.13635C 7.30402 0.984853 6.64835 0.909107 5.95556 0.909107C 5.19702 0.909107 4.47363 0.992017 3.78542 1.15771C 3.2845 0.759952 2.84205 0.467663 2.45811 0.280598C 2.07418 0.0935326 1.62942 2.48438e-05 1.12373 2.48438e-05C 0.884951 0.482961 0.765575 0.999107 0.765575 1.54834C 0.765575 1.96503 0.828744 2.36749 0.955179 2.75568C 0.318352 3.50857 0 4.44601 0 5.56817C 0 6.55313 0.145081 7.33664 0.435416 7.9191C 0.589967 8.22674 0.791231 8.499 1.0394 8.73582C 1.28748 8.97248 1.57075 9.16438 1.88915 9.31119C 2.20761 9.45786 2.52824 9.57987 2.85134 9.67684C 3.17442 9.77386 3.53139 9.84495 3.92236 9.88975C 4.3133 9.93493 4.65859 9.96448 4.95822 9.97878C 5.25785 9.99281 5.59022 10 5.95554 10C 6.3862 10 6.77702 9.98925 7.12834 9.96808C 7.47953 9.94682 7.8809 9.89463 8.33277 9.81196C 8.78457 9.72905 9.18257 9.61652 9.52678 9.47453C 9.87091 9.33254 10.2011 9.12888 10.5171 8.8638C 10.8331 8.59855 11.08 8.28375 11.258 7.91912C 11.5434 7.33198 11.6863 6.5483 11.6863 5.5682C 11.6861 4.44128 11.3678 3.49909 10.7309 2.74152ZM 9.88842 7.90828C 9.73857 8.2185 9.54891 8.46214 9.31954 8.63987C 9.09006 8.81746 8.80449 8.95945 8.46275 9.06612C 8.12083 9.17261 7.79326 9.24241 7.47953 9.27545C 7.1657 9.30863 6.81702 9.32515 6.43299 9.32515L 5.2531 9.32515C 4.8692 9.32515 4.52032 9.30863 4.20667 9.27545C 3.89299 9.24241 3.56526 9.17261 3.22344 9.06612C 2.88175 8.95945 2.59619 8.81746 2.36671 8.63987C 2.13723 8.46211 1.94762 8.2185 1.7978 7.90828C 1.64799 7.59805 1.57307 7.23475 1.57307 6.81813C 1.57307 6.24979 1.7346 5.76678 2.0577 5.36924C 2.38078 4.97148 2.81851 4.77267 3.37094 4.77267C 3.57235 4.77267 4.02884 4.82235 4.7405 4.9218C 5.0729 4.97387 5.44047 4.99991 5.84307 4.99991C 6.2458 4.99991 6.61332 4.97394 6.94567 4.9218C 7.66682 4.82233 8.12317 4.77267 8.31526 4.77267C 8.86766 4.77267 9.30539 4.97158 9.62847 5.36924C 9.95156 5.76695 10.113 6.24979 10.113 6.81813C 10.113 7.23482 10.0381 7.59833 9.88842 7.90828Z"/>
<path id="path1_fill" d="M 1.40816 0.241592C 1.26534 0.0805223 1.09569 -3.34024e-08 0.898996 -3.34024e-08C 0.702259 -3.34024e-08 0.532579 0.0806218 0.389786 0.241592C 0.247066 0.402488 0.146336 0.582465 0.0878407 0.781122C 0.0292228 0.980177 -5.40492e-08 1.17426 -5.40492e-08 1.36376C -5.40492e-08 1.55306 0.0292966 1.74717 0.0878407 1.9462C 0.146262 2.14498 0.246943 2.32486 0.389786 2.48573C 0.532653 2.6468 0.702259 2.72734 0.898996 2.72734C 1.09569 2.72734 1.26541 2.64665 1.40816 2.48573C 1.55093 2.32483 1.65161 2.14498 1.7101 1.9462C 1.76865 1.74717 1.79794 1.55306 1.79794 1.36376C 1.79794 1.17443 1.76872 0.980177 1.7101 0.781122C 1.65158 0.582539 1.551 0.402638 1.40816 0.241592Z"/>
</defs>
</svg>
