<svg width="13" height="11" viewBox="0 0 13 11" version="1.1" xmlns="http://www.w3.org/2000/svg" xmlns:xlink="http://www.w3.org/1999/xlink">
<title>telegram</title>
<desc>Created using Figma</desc>
<g id="Canvas" transform="translate(3716 -14449)">
<g id="telegram">
<g id="XMLID 496">
<g id="XMLID 497">
<use xlink:href="#path0_fill" transform="translate(-3716 14449)" fill="#59DEA9"/>
</g>
</g>
</g>
</g>
<defs>
<path id="path0_fill" d="M 0.214082 5.27446L 3.00686 6.36098L 4.08784 9.98471C 4.15701 10.2168 4.42927 10.3026 4.60999 10.1486L 6.16673 8.82571C 6.32991 8.68711 6.56234 8.68021 6.73287 8.80924L 9.54068 10.9342C 9.734 11.0806 10.0079 10.9702 10.0564 10.7267L 12.1132 0.41353C 12.1662 0.147542 11.9154 -0.0743526 11.6725 0.023603L 0.210809 4.63253C -0.0720402 4.74623 -0.0695757 5.16366 0.214082 5.27446ZM 3.91363 5.7826L 9.37177 2.27848C 9.46986 2.21569 9.57078 2.35394 9.48655 2.43539L 4.982 6.80001C 4.82367 6.95364 4.72154 7.15924 4.69261 7.3824L 4.53916 8.56772C 4.51884 8.72598 4.30556 8.74169 4.26367 8.58853L 3.67353 6.42706C 3.60593 6.18053 3.70443 5.91719 3.91363 5.7826Z"/>
</defs>
</svg>
<svg width="13" height="11" viewBox="0 0 13 11" version="1.1" xmlns="http://www.w3.org/2000/svg" xmlns:xlink="http://www.w3.org/1999/xlink">
<title>telegram</title>
<desc>Created using Figma</desc>
<g id="Canvas" transform="translate(3716 -14449)">
<g id="telegram">
<g id="XMLID 496">
<g id="XMLID 497">
<use xlink:href="#path0_fill" transform="translate(-3716 14449)" fill="#59DEA9"/>
</g>
</g>
</g>
</g>
<defs>
<path id="path0_fill" d="M 0.214082 5.27446L 3.00686 6.36098L 4.08784 9.98471C 4.15701 10.2168 4.42927 10.3026 4.60999 10.1486L 6.16673 8.82571C 6.32991 8.68711 6.56234 8.68021 6.73287 8.80924L 9.54068 10.9342C 9.734 11.0806 10.0079 10.9702 10.0564 10.7267L 12.1132 0.41353C 12.1662 0.147542 11.9154 -0.0743526 11.6725 0.023603L 0.210809 4.63253C -0.0720402 4.74623 -0.0695757 5.16366 0.214082 5.27446ZM 3.91363 5.7826L 9.37177 2.27848C 9.46986 2.21569 9.57078 2.35394 9.48655 2.43539L 4.982 6.80001C 4.82367 6.95364 4.72154 7.15924 4.69261 7.3824L 4.53916 8.56772C 4.51884 8.72598 4.30556 8.74169 4.26367 8.58853L 3.67353 6.42706C 3.60593 6.18053 3.70443 5.91719 3.91363 5.7826Z"/>
</defs>
</svg>
<svg width="13" height="11" viewBox="0 0 13 11" version="1.1" xmlns="http://www.w3.org/2000/svg" xmlns:xlink="http://www.w3.org/1999/xlink">
<title>telegram</title>
<desc>Created using Figma</desc>
<g id="Canvas" transform="translate(3716 -14449)">
<g id="telegram">
<g id="XMLID 496">
<g id="XMLID 497">
<use xlink:href="#path0_fill" transform="translate(-3716 14449)" fill="#59DEA9"/>
</g>
</g>
</g>
</g>
<defs>
<path id="path0_fill" d="M 0.214082 5.27446L 3.00686 6.36098L 4.08784 9.98471C 4.15701 10.2168 4.42927 10.3026 4.60999 10.1486L 6.16673 8.82571C 6.32991 8.68711 6.56234 8.68021 6.73287 8.80924L 9.54068 10.9342C 9.734 11.0806 10.0079 10.9702 10.0564 10.7267L 12.1132 0.41353C 12.1662 0.147542 11.9154 -0.0743526 11.6725 0.023603L 0.210809 4.63253C -0.0720402 4.74623 -0.0695757 5.16366 0.214082 5.27446ZM 3.91363 5.7826L 9.37177 2.27848C 9.46986 2.21569 9.57078 2.35394 9.48655 2.43539L 4.982 6.80001C 4.82367 6.95364 4.72154 7.15924 4.69261 7.3824L 4.53916 8.56772C 4.51884 8.72598 4.30556 8.74169 4.26367 8.58853L 3.67353 6.42706C 3.60593 6.18053 3.70443 5.91719 3.91363 5.7826Z"/>
</defs>
</svg>
<svg width="13" height="11" viewBox="0 0 13 11" version="1.1" xmlns="http://www.w3.org/2000/svg" xmlns:xlink="http://www.w3.org/1999/xlink">
<title>telegram</title>
<desc>Created using Figma</desc>
<g id="Canvas" transform="translate(3716 -14449)">
<g id="telegram">
<g id="XMLID 496">
<g id="XMLID 497">
<use xlink:href="#path0_fill" transform="translate(-3716 14449)" fill="#59DEA9"/>
</g>
</g>
</g>
</g>
<defs>
<path id="path0_fill" d="M 0.214082 5.27446L 3.00686 6.36098L 4.08784 9.98471C 4.15701 10.2168 4.42927 10.3026 4.60999 10.1486L 6.16673 8.82571C 6.32991 8.68711 6.56234 8.68021 6.73287 8.80924L 9.54068 10.9342C 9.734 11.0806 10.0079 10.9702 10.0564 10.7267L 12.1132 0.41353C 12.1662 0.147542 11.9154 -0.0743526 11.6725 0.023603L 0.210809 4.63253C -0.0720402 4.74623 -0.0695757 5.16366 0.214082 5.27446ZM 3.91363 5.7826L 9.37177 2.27848C 9.46986 2.21569 9.57078 2.35394 9.48655 2.43539L 4.982 6.80001C 4.82367 6.95364 4.72154 7.15924 4.69261 7.3824L 4.53916 8.56772C 4.51884 8.72598 4.30556 8.74169 4.26367 8.58853L 3.67353 6.42706C 3.60593 6.18053 3.70443 5.91719 3.91363 5.7826Z"/>
</defs>
</svg>
