<svg width="12" height="9" viewBox="0 0 12 9" version="1.1" xmlns="http://www.w3.org/2000/svg" xmlns:xlink="http://www.w3.org/1999/xlink">
<title>Vector</title>
<desc>Created using Figma</desc>
<g id="Canvas" transform="translate(3714 -14319)">
<g id="Vector">
<use xlink:href="#path0_fill" transform="translate(-3714 14319)" fill="#59DEA9"/>
</g>
</g>
<defs>
<path id="path0_fill" d="M 11.7197 1.06484C 11.2884 1.24554 10.8255 1.36809 10.3392 1.4228C 10.8358 1.14169 11.2159 0.695821 11.396 0.166161C 10.9302 0.426483 10.4161 0.615511 9.86831 0.717981C 9.42965 0.275566 8.80569 3.4255e-08 8.11361 3.4255e-08C 6.78587 3.4255e-08 5.70932 1.01777 5.70932 2.27233C 5.70932 2.45026 5.73056 2.62404 5.77158 2.79022C 3.77375 2.69535 2.00222 1.79044 0.816551 0.415404C 0.609292 0.750515 0.491386 1.14099 0.491386 1.5578C 0.491386 2.34641 0.916149 3.04223 1.56062 3.44933C 1.16661 3.43687 0.796041 3.3344 0.471623 3.16407L 0.471623 3.19246C 0.471623 4.29331 1.30064 5.21207 2.39988 5.42117C 2.19848 5.47241 1.98611 5.5008 1.7664 5.5008C 1.61116 5.5008 1.46102 5.48626 1.31382 5.45856C 1.61993 6.36209 2.50754 7.01913 3.5592 7.03715C 2.73677 7.64643 1.69976 8.00854 0.573424 8.00854C 0.379359 8.00854 0.188205 7.99746 9.09683e-13 7.97738C 1.0641 8.62336 2.3274 9 3.68516 9C 8.10779 9 10.5253 5.53681 10.5253 2.53336L 10.5172 2.23911C 10.9896 1.9206 11.3982 1.52042 11.7197 1.06484Z"/>
</defs>
</svg>
<svg width="12" height="9" viewBox="0 0 12 9" version="1.1" xmlns="http://www.w3.org/2000/svg" xmlns:xlink="http://www.w3.org/1999/xlink">
<title>Vector</title>
<desc>Created using Figma</desc>
<g id="Canvas" transform="translate(3714 -14319)">
<g id="Vector">
<use xlink:href="#path0_fill" transform="translate(-3714 14319)" fill="#59DEA9"/>
</g>
</g>
<defs>
<path id="path0_fill" d="M 11.7197 1.06484C 11.2884 1.24554 10.8255 1.36809 10.3392 1.4228C 10.8358 1.14169 11.2159 0.695821 11.396 0.166161C 10.9302 0.426483 10.4161 0.615511 9.86831 0.717981C 9.42965 0.275566 8.80569 3.4255e-08 8.11361 3.4255e-08C 6.78587 3.4255e-08 5.70932 1.01777 5.70932 2.27233C 5.70932 2.45026 5.73056 2.62404 5.77158 2.79022C 3.77375 2.69535 2.00222 1.79044 0.816551 0.415404C 0.609292 0.750515 0.491386 1.14099 0.491386 1.5578C 0.491386 2.34641 0.916149 3.04223 1.56062 3.44933C 1.16661 3.43687 0.796041 3.3344 0.471623 3.16407L 0.471623 3.19246C 0.471623 4.29331 1.30064 5.21207 2.39988 5.42117C 2.19848 5.47241 1.98611 5.5008 1.7664 5.5008C 1.61116 5.5008 1.46102 5.48626 1.31382 5.45856C 1.61993 6.36209 2.50754 7.01913 3.5592 7.03715C 2.73677 7.64643 1.69976 8.00854 0.573424 8.00854C 0.379359 8.00854 0.188205 7.99746 9.09683e-13 7.97738C 1.0641 8.62336 2.3274 9 3.68516 9C 8.10779 9 10.5253 5.53681 10.5253 2.53336L 10.5172 2.23911C 10.9896 1.9206 11.3982 1.52042 11.7197 1.06484Z"/>
</defs>
</svg>
<svg width="12" height="9" viewBox="0 0 12 9" version="1.1" xmlns="http://www.w3.org/2000/svg" xmlns:xlink="http://www.w3.org/1999/xlink">
<title>Vector</title>
<desc>Created using Figma</desc>
<g id="Canvas" transform="translate(3714 -14319)">
<g id="Vector">
<use xlink:href="#path0_fill" transform="translate(-3714 14319)" fill="#59DEA9"/>
</g>
</g>
<defs>
<path id="path0_fill" d="M 11.7197 1.06484C 11.2884 1.24554 10.8255 1.36809 10.3392 1.4228C 10.8358 1.14169 11.2159 0.695821 11.396 0.166161C 10.9302 0.426483 10.4161 0.615511 9.86831 0.717981C 9.42965 0.275566 8.80569 3.4255e-08 8.11361 3.4255e-08C 6.78587 3.4255e-08 5.70932 1.01777 5.70932 2.27233C 5.70932 2.45026 5.73056 2.62404 5.77158 2.79022C 3.77375 2.69535 2.00222 1.79044 0.816551 0.415404C 0.609292 0.750515 0.491386 1.14099 0.491386 1.5578C 0.491386 2.34641 0.916149 3.04223 1.56062 3.44933C 1.16661 3.43687 0.796041 3.3344 0.471623 3.16407L 0.471623 3.19246C 0.471623 4.29331 1.30064 5.21207 2.39988 5.42117C 2.19848 5.47241 1.98611 5.5008 1.7664 5.5008C 1.61116 5.5008 1.46102 5.48626 1.31382 5.45856C 1.61993 6.36209 2.50754 7.01913 3.5592 7.03715C 2.73677 7.64643 1.69976 8.00854 0.573424 8.00854C 0.379359 8.00854 0.188205 7.99746 9.09683e-13 7.97738C 1.0641 8.62336 2.3274 9 3.68516 9C 8.10779 9 10.5253 5.53681 10.5253 2.53336L 10.5172 2.23911C 10.9896 1.9206 11.3982 1.52042 11.7197 1.06484Z"/>
</defs>
</svg>
<svg width="12" height="9" viewBox="0 0 12 9" version="1.1" xmlns="http://www.w3.org/2000/svg" xmlns:xlink="http://www.w3.org/1999/xlink">
<title>Vector</title>
<desc>Created using Figma</desc>
<g id="Canvas" transform="translate(3714 -14319)">
<g id="Vector">
<use xlink:href="#path0_fill" transform="translate(-3714 14319)" fill="#59DEA9"/>
</g>
</g>
<defs>
<path id="path0_fill" d="M 11.7197 1.06484C 11.2884 1.24554 10.8255 1.36809 10.3392 1.4228C 10.8358 1.14169 11.2159 0.695821 11.396 0.166161C 10.9302 0.426483 10.4161 0.615511 9.86831 0.717981C 9.42965 0.275566 8.80569 3.4255e-08 8.11361 3.4255e-08C 6.78587 3.4255e-08 5.70932 1.01777 5.70932 2.27233C 5.70932 2.45026 5.73056 2.62404 5.77158 2.79022C 3.77375 2.69535 2.00222 1.79044 0.816551 0.415404C 0.609292 0.750515 0.491386 1.14099 0.491386 1.5578C 0.491386 2.34641 0.916149 3.04223 1.56062 3.44933C 1.16661 3.43687 0.796041 3.3344 0.471623 3.16407L 0.471623 3.19246C 0.471623 4.29331 1.30064 5.21207 2.39988 5.42117C 2.19848 5.47241 1.98611 5.5008 1.7664 5.5008C 1.61116 5.5008 1.46102 5.48626 1.31382 5.45856C 1.61993 6.36209 2.50754 7.01913 3.5592 7.03715C 2.73677 7.64643 1.69976 8.00854 0.573424 8.00854C 0.379359 8.00854 0.188205 7.99746 9.09683e-13 7.97738C 1.0641 8.62336 2.3274 9 3.68516 9C 8.10779 9 10.5253 5.53681 10.5253 2.53336L 10.5172 2.23911C 10.9896 1.9206 11.3982 1.52042 11.7197 1.06484Z"/>
</defs>
</svg>
