<svg width="12" height="10" viewBox="0 0 12 10" version="1.1" xmlns="http://www.w3.org/2000/svg" xmlns:xlink="http://www.w3.org/1999/xlink">
<title>youtube-logo</title>
<desc>Created using Figma</desc>
<g id="Canvas" transform="translate(3546 -14274)">
<g id="youtube-logo">
<g id="Group">
<g id="video youtube">
<g id="Vector">
<use xlink:href="#path0_fill" transform="matrix(1 0 0 -1 -3546 14284)" fill="#59DEA9"/>
</g>
</g>
</g>
</g>
</g>
<defs>
<path id="path0_fill" d="M 10.8 0.25C 10.44 0.125 8.22 0 6 0C 3.78 0 1.56 0.125 1.2 0.25C 0.24 0.5625 0 2.75 0 5C 0 7.25 0.24 9.4375 1.2 9.75C 1.56 9.875 3.78 10 6 10C 8.22 10 10.44 9.875 10.8 9.75C 11.76 9.4375 12 7.25 12 5C 12 2.75 11.76 0.5625 10.8 0.25ZM 4.8 7.8125L 4.8 2.1875L 8.4 5L 4.8 7.8125Z"/>
</defs>
</svg>
<svg width="12" height="10" viewBox="0 0 12 10" version="1.1" xmlns="http://www.w3.org/2000/svg" xmlns:xlink="http://www.w3.org/1999/xlink">
<title>youtube-logo</title>
<desc>Created using Figma</desc>
<g id="Canvas" transform="translate(3546 -14274)">
<g id="youtube-logo">
<g id="Group">
<g id="video youtube">
<g id="Vector">
<use xlink:href="#path0_fill" transform="matrix(1 0 0 -1 -3546 14284)" fill="#59DEA9"/>
</g>
</g>
</g>
</g>
</g>
<defs>
<path id="path0_fill" d="M 10.8 0.25C 10.44 0.125 8.22 0 6 0C 3.78 0 1.56 0.125 1.2 0.25C 0.24 0.5625 0 2.75 0 5C 0 7.25 0.24 9.4375 1.2 9.75C 1.56 9.875 3.78 10 6 10C 8.22 10 10.44 9.875 10.8 9.75C 11.76 9.4375 12 7.25 12 5C 12 2.75 11.76 0.5625 10.8 0.25ZM 4.8 7.8125L 4.8 2.1875L 8.4 5L 4.8 7.8125Z"/>
</defs>
</svg>
<svg width="12" height="10" viewBox="0 0 12 10" version="1.1" xmlns="http://www.w3.org/2000/svg" xmlns:xlink="http://www.w3.org/1999/xlink">
<title>youtube-logo</title>
<desc>Created using Figma</desc>
<g id="Canvas" transform="translate(3546 -14274)">
<g id="youtube-logo">
<g id="Group">
<g id="video youtube">
<g id="Vector">
<use xlink:href="#path0_fill" transform="matrix(1 0 0 -1 -3546 14284)" fill="#59DEA9"/>
</g>
</g>
</g>
</g>
</g>
<defs>
<path id="path0_fill" d="M 10.8 0.25C 10.44 0.125 8.22 0 6 0C 3.78 0 1.56 0.125 1.2 0.25C 0.24 0.5625 0 2.75 0 5C 0 7.25 0.24 9.4375 1.2 9.75C 1.56 9.875 3.78 10 6 10C 8.22 10 10.44 9.875 10.8 9.75C 11.76 9.4375 12 7.25 12 5C 12 2.75 11.76 0.5625 10.8 0.25ZM 4.8 7.8125L 4.8 2.1875L 8.4 5L 4.8 7.8125Z"/>
</defs>
</svg>
<svg width="12" height="10" viewBox="0 0 12 10" version="1.1" xmlns="http://www.w3.org/2000/svg" xmlns:xlink="http://www.w3.org/1999/xlink">
<title>youtube-logo</title>
<desc>Created using Figma</desc>
<g id="Canvas" transform="translate(3546 -14274)">
<g id="youtube-logo">
<g id="Group">
<g id="video youtube">
<g id="Vector">
<use xlink:href="#path0_fill" transform="matrix(1 0 0 -1 -3546 14284)" fill="#59DEA9"/>
</g>
</g>
</g>
</g>
</g>
<defs>
<path id="path0_fill" d="M 10.8 0.25C 10.44 0.125 8.22 0 6 0C 3.78 0 1.56 0.125 1.2 0.25C 0.24 0.5625 0 2.75 0 5C 0 7.25 0.24 9.4375 1.2 9.75C 1.56 9.875 3.78 10 6 10C 8.22 10 10.44 9.875 10.8 9.75C 11.76 9.4375 12 7.25 12 5C 12 2.75 11.76 0.5625 10.8 0.25ZM 4.8 7.8125L 4.8 2.1875L 8.4 5L 4.8 7.8125Z"/>
</defs>
</svg>
